%TF.GenerationSoftware,KiCad,Pcbnew,7.0.9*%
%TF.CreationDate,2024-02-15T22:31:25-05:00*%
%TF.ProjectId,pbm_driver4,70626d5f-6472-4697-9665-72342e6b6963,rev?*%
%TF.SameCoordinates,PX2625a0PY53ec60*%
%TF.FileFunction,Copper,L4,Bot*%
%TF.FilePolarity,Positive*%
%FSLAX46Y46*%
G04 Gerber Fmt 4.6, Leading zero omitted, Abs format (unit mm)*
G04 Created by KiCad (PCBNEW 7.0.9) date 2024-02-15 22:31:25*
%MOMM*%
%LPD*%
G01*
G04 APERTURE LIST*
G04 Aperture macros list*
%AMRoundRect*
0 Rectangle with rounded corners*
0 $1 Rounding radius*
0 $2 $3 $4 $5 $6 $7 $8 $9 X,Y pos of 4 corners*
0 Add a 4 corners polygon primitive as box body*
4,1,4,$2,$3,$4,$5,$6,$7,$8,$9,$2,$3,0*
0 Add four circle primitives for the rounded corners*
1,1,$1+$1,$2,$3*
1,1,$1+$1,$4,$5*
1,1,$1+$1,$6,$7*
1,1,$1+$1,$8,$9*
0 Add four rect primitives between the rounded corners*
20,1,$1+$1,$2,$3,$4,$5,0*
20,1,$1+$1,$4,$5,$6,$7,0*
20,1,$1+$1,$6,$7,$8,$9,0*
20,1,$1+$1,$8,$9,$2,$3,0*%
G04 Aperture macros list end*
%TA.AperFunction,ComponentPad*%
%ADD10R,1.700000X1.700000*%
%TD*%
%TA.AperFunction,ComponentPad*%
%ADD11O,1.700000X1.700000*%
%TD*%
%TA.AperFunction,SMDPad,CuDef*%
%ADD12RoundRect,0.200000X0.275000X-0.200000X0.275000X0.200000X-0.275000X0.200000X-0.275000X-0.200000X0*%
%TD*%
%TA.AperFunction,SMDPad,CuDef*%
%ADD13RoundRect,0.200000X-0.275000X0.200000X-0.275000X-0.200000X0.275000X-0.200000X0.275000X0.200000X0*%
%TD*%
%TA.AperFunction,SMDPad,CuDef*%
%ADD14RoundRect,0.250000X-0.250000X-0.475000X0.250000X-0.475000X0.250000X0.475000X-0.250000X0.475000X0*%
%TD*%
%TA.AperFunction,SMDPad,CuDef*%
%ADD15RoundRect,0.250000X0.250000X0.475000X-0.250000X0.475000X-0.250000X-0.475000X0.250000X-0.475000X0*%
%TD*%
%TA.AperFunction,SMDPad,CuDef*%
%ADD16RoundRect,0.225000X0.250000X-0.225000X0.250000X0.225000X-0.250000X0.225000X-0.250000X-0.225000X0*%
%TD*%
%TA.AperFunction,SMDPad,CuDef*%
%ADD17RoundRect,0.225000X-0.225000X-0.250000X0.225000X-0.250000X0.225000X0.250000X-0.225000X0.250000X0*%
%TD*%
%TA.AperFunction,ComponentPad*%
%ADD18C,7.330000*%
%TD*%
%TA.AperFunction,ViaPad*%
%ADD19C,0.800000*%
%TD*%
%TA.AperFunction,Conductor*%
%ADD20C,0.250000*%
%TD*%
%TA.AperFunction,Conductor*%
%ADD21C,1.000000*%
%TD*%
G04 APERTURE END LIST*
D10*
%TO.P,J1,1,Pin_1*%
%TO.N,GND*%
X3500000Y9500000D03*
D11*
%TO.P,J1,2,Pin_2*%
%TO.N,+12V*%
X3500000Y12040000D03*
%TO.P,J1,3,Pin_3*%
%TO.N,/DAC1*%
X6040000Y9500000D03*
%TO.P,J1,4,Pin_4*%
%TO.N,/DAC2*%
X6040000Y12040000D03*
%TO.P,J1,5,Pin_5*%
%TO.N,/SENSE1*%
X8580000Y9500000D03*
%TO.P,J1,6,Pin_6*%
%TO.N,/SENSE2*%
X8580000Y12040000D03*
%TO.P,J1,7,Pin_7*%
%TO.N,/SENSE3*%
X11120000Y9500000D03*
%TO.P,J1,8,Pin_8*%
%TO.N,/SENSE4*%
X11120000Y12040000D03*
%TO.P,J1,9,Pin_9*%
%TO.N,GND*%
X13660000Y9500000D03*
%TO.P,J1,10,Pin_10*%
X13660000Y12040000D03*
%TO.P,J1,11,Pin_11*%
%TO.N,/SEL1*%
X16200000Y9500000D03*
%TO.P,J1,12,Pin_12*%
%TO.N,/SEL2*%
X16200000Y12040000D03*
%TO.P,J1,13,Pin_13*%
%TO.N,/SEL3*%
X18740000Y9500000D03*
%TO.P,J1,14,Pin_14*%
%TO.N,/SEL4*%
X18740000Y12040000D03*
%TO.P,J1,15,Pin_15*%
%TO.N,GND*%
X21280000Y9500000D03*
%TO.P,J1,16,Pin_16*%
X21280000Y12040000D03*
%TO.P,J1,17,Pin_17*%
%TO.N,/I2C_SCL*%
X23820000Y9500000D03*
%TO.P,J1,18,Pin_18*%
%TO.N,/I2C_SDA*%
X23820000Y12040000D03*
%TO.P,J1,19,Pin_19*%
%TO.N,GND*%
X26360000Y9500000D03*
%TO.P,J1,20,Pin_20*%
%TO.N,+3.3V*%
X26360000Y12040000D03*
%TD*%
D10*
%TO.P,J2,1,Pin_1*%
%TO.N,GND*%
X3500000Y59600000D03*
D11*
%TO.P,J2,2,Pin_2*%
%TO.N,+12V*%
X6040000Y59600000D03*
%TO.P,J2,3,Pin_3*%
%TO.N,/LED1*%
X8580000Y59600000D03*
%TO.P,J2,4,Pin_4*%
%TO.N,+12V*%
X11120000Y59600000D03*
%TO.P,J2,5,Pin_5*%
%TO.N,/LED2*%
X13660000Y59600000D03*
%TO.P,J2,6,Pin_6*%
%TO.N,+12V*%
X16200000Y59600000D03*
%TO.P,J2,7,Pin_7*%
%TO.N,/LED3*%
X18740000Y59600000D03*
%TO.P,J2,8,Pin_8*%
%TO.N,+12V*%
X21280000Y59600000D03*
%TO.P,J2,9,Pin_9*%
%TO.N,/LED4*%
X23820000Y59600000D03*
%TO.P,J2,10,Pin_10*%
%TO.N,GND*%
X26360000Y59600000D03*
%TD*%
D12*
%TO.P,R10,1*%
%TO.N,+3.3V*%
X25200000Y19625000D03*
%TO.P,R10,2*%
%TO.N,/I2C_SCL*%
X25200000Y17975000D03*
%TD*%
%TO.P,R9,1*%
%TO.N,+3.3V*%
X27300000Y19625000D03*
%TO.P,R9,2*%
%TO.N,/I2C_SDA*%
X27300000Y17975000D03*
%TD*%
D13*
%TO.P,R8,1*%
%TO.N,/Sheet 5/A0*%
X20700000Y20575000D03*
%TO.P,R8,2*%
%TO.N,GND*%
X20700000Y22225000D03*
%TD*%
%TO.P,R7,1*%
%TO.N,+3.3V*%
X20700000Y15975000D03*
%TO.P,R7,2*%
%TO.N,/Sheet 5/A0*%
X20700000Y17625000D03*
%TD*%
%TO.P,R6,1*%
%TO.N,/Sheet 5/A1*%
X22900000Y20575000D03*
%TO.P,R6,2*%
%TO.N,GND*%
X22900000Y22225000D03*
%TD*%
%TO.P,R5,1*%
%TO.N,+3.3V*%
X22900000Y15975000D03*
%TO.P,R5,2*%
%TO.N,/Sheet 5/A1*%
X22900000Y17625000D03*
%TD*%
D14*
%TO.P,C13,1*%
%TO.N,/Sheet 5/DX_P*%
X27850000Y24000000D03*
%TO.P,C13,2*%
%TO.N,/Sheet 5/DX_N*%
X25950000Y24000000D03*
%TD*%
D15*
%TO.P,C12,1*%
%TO.N,+12V*%
X21350000Y56300000D03*
%TO.P,C12,2*%
%TO.N,GND*%
X23250000Y56300000D03*
%TD*%
%TO.P,C11,1*%
%TO.N,+12V*%
X20050000Y63000000D03*
%TO.P,C11,2*%
%TO.N,GND*%
X21950000Y63000000D03*
%TD*%
D16*
%TO.P,C10,1*%
%TO.N,+3.3V*%
X15200000Y19275000D03*
%TO.P,C10,2*%
%TO.N,GND*%
X15200000Y17725000D03*
%TD*%
D15*
%TO.P,C9,1*%
%TO.N,+12V*%
X16350000Y56300000D03*
%TO.P,C9,2*%
%TO.N,GND*%
X18250000Y56300000D03*
%TD*%
%TO.P,C8,1*%
%TO.N,+12V*%
X16050000Y63000000D03*
%TO.P,C8,2*%
%TO.N,GND*%
X17950000Y63000000D03*
%TD*%
%TO.P,C7,1*%
%TO.N,+12V*%
X11150000Y56300000D03*
%TO.P,C7,2*%
%TO.N,GND*%
X13050000Y56300000D03*
%TD*%
%TO.P,C6,1*%
%TO.N,+12V*%
X12050000Y63000000D03*
%TO.P,C6,2*%
%TO.N,GND*%
X13950000Y63000000D03*
%TD*%
%TO.P,C5,1*%
%TO.N,+12V*%
X6150000Y56300000D03*
%TO.P,C5,2*%
%TO.N,GND*%
X8050000Y56300000D03*
%TD*%
%TO.P,C4,1*%
%TO.N,+12V*%
X8050000Y63000000D03*
%TO.P,C4,2*%
%TO.N,GND*%
X9950000Y63000000D03*
%TD*%
D17*
%TO.P,C3,1*%
%TO.N,+3.3V*%
X26275000Y14600000D03*
%TO.P,C3,2*%
%TO.N,GND*%
X24725000Y14600000D03*
%TD*%
D16*
%TO.P,C2,1*%
%TO.N,+12V*%
X22000000Y27275000D03*
%TO.P,C2,2*%
%TO.N,GND*%
X22000000Y25725000D03*
%TD*%
%TO.P,C1,1*%
%TO.N,+12V*%
X8000000Y27275000D03*
%TO.P,C1,2*%
%TO.N,GND*%
X8000000Y25725000D03*
%TD*%
D18*
%TO.P,H4,1,1*%
%TO.N,GND*%
X26000000Y4000000D03*
%TD*%
%TO.P,H3,1,1*%
%TO.N,GND*%
X4000000Y4000000D03*
%TD*%
%TO.P,H2,1,1*%
%TO.N,GND*%
X26000000Y66000000D03*
%TD*%
%TO.P,H1,1,1*%
%TO.N,GND*%
X4000000Y66000000D03*
%TD*%
D19*
%TO.N,+12V*%
X8700000Y28400000D03*
X22700000Y28400000D03*
%TO.N,GND*%
X4900000Y30200000D03*
X10900000Y30200000D03*
X15000000Y52500000D03*
X14900000Y26000000D03*
X17900000Y30200000D03*
X11900000Y30200000D03*
X3900000Y30200000D03*
X18100000Y61400000D03*
X28600000Y25800000D03*
X21300000Y24600000D03*
X2900000Y30200000D03*
X1800000Y25700000D03*
X9000000Y57800000D03*
X18200000Y57800000D03*
X23300000Y57800000D03*
X13600000Y57800000D03*
X14000000Y18100000D03*
X24450500Y15600000D03*
X9900000Y30200000D03*
X24900000Y30200000D03*
X10000000Y61400000D03*
X25900000Y30200000D03*
X18900000Y30200000D03*
X7300000Y24600000D03*
X16900000Y30200000D03*
X14000000Y61400000D03*
X23900000Y30200000D03*
X22100000Y61400000D03*
X21800000Y23700000D03*
%TO.N,+3.3V*%
X16400000Y18800000D03*
X28900000Y19600000D03*
X21800000Y14800000D03*
X26600000Y15600000D03*
%TO.N,/LED1*%
X6000000Y46300000D03*
X4400000Y46300000D03*
X2800000Y46300000D03*
%TO.N,/LED2*%
X11500000Y46300000D03*
X13100000Y46300000D03*
X9900000Y46300000D03*
%TO.N,/LED3*%
X18700000Y46300000D03*
X17100000Y46300000D03*
X20300000Y46300000D03*
%TO.N,/LED4*%
X25500000Y46300000D03*
X23900000Y46300000D03*
X27100000Y46300000D03*
%TO.N,/SENSE1*%
X3565000Y27135000D03*
%TO.N,/SENSE2*%
X12300000Y25800000D03*
%TO.N,/SENSE3*%
X16665000Y27135000D03*
%TO.N,/SENSE4*%
X19200000Y23100000D03*
%TO.N,/DAC1*%
X4900000Y17700000D03*
%TO.N,/SEL3*%
X18100000Y21900000D03*
%TO.N,/SEL2*%
X12300000Y22000000D03*
%TO.N,/DAC2*%
X14100000Y19400000D03*
X16300000Y17500000D03*
X6100000Y19000000D03*
%TO.N,/Sheet 5/A1*%
X22900000Y19162299D03*
%TO.N,/Sheet 5/A0*%
X20700000Y19100000D03*
%TO.N,/Sheet 5/DX_N*%
X26300000Y21700000D03*
X14300000Y47900000D03*
%TO.N,/Sheet 5/DX_P*%
X27600000Y21600000D03*
X15700000Y47900000D03*
%TD*%
D20*
%TO.N,/I2C_SCL*%
X22500000Y10820000D02*
X23820000Y9500000D01*
X23725500Y14000000D02*
X22500000Y12774500D01*
X23725500Y16500500D02*
X23725500Y14000000D01*
X25200000Y17975000D02*
X23725500Y16500500D01*
X22500000Y12774500D02*
X22500000Y10820000D01*
%TO.N,GND*%
X24637500Y15413000D02*
X24637500Y14600000D01*
X24450500Y15600000D02*
X24637500Y15413000D01*
D21*
X8050000Y56850000D02*
X8050000Y56300000D01*
X9000000Y57800000D02*
X8050000Y56850000D01*
D20*
%TO.N,/DAC1*%
X4865000Y17665000D02*
X4865000Y10675000D01*
X4900000Y17700000D02*
X4865000Y17665000D01*
%TO.N,/I2C_SDA*%
X24053472Y12040000D02*
X23820000Y12040000D01*
X26434052Y13500000D02*
X25513472Y13500000D01*
X27325000Y14390948D02*
X26434052Y13500000D01*
X27300000Y17975000D02*
X27325000Y17950000D01*
X27325000Y17950000D02*
X27325000Y14390948D01*
X25513472Y13500000D02*
X24053472Y12040000D01*
%TO.N,/SEL3*%
X19915000Y10675000D02*
X18740000Y9500000D01*
X19915000Y14185000D02*
X19915000Y10675000D01*
%TO.N,/SEL2*%
X15370000Y12870000D02*
X16200000Y12040000D01*
X12300000Y15940000D02*
X15370000Y12870000D01*
%TO.N,/SENSE4*%
X11120000Y13000000D02*
X11120000Y12040000D01*
X11120000Y22120000D02*
X11120000Y13000000D01*
%TO.N,/SENSE3*%
X9755000Y21955000D02*
X9755000Y10865000D01*
X9755000Y10865000D02*
X11120000Y9500000D01*
%TO.N,/SENSE2*%
X8580000Y13000000D02*
X8580000Y22080000D01*
X8580000Y12040000D02*
X8580000Y13000000D01*
%TO.N,/SENSE1*%
X7405000Y10675000D02*
X8580000Y9500000D01*
X7405000Y23295000D02*
X7405000Y10675000D01*
X7405000Y23295000D02*
X3565000Y27135000D01*
%TO.N,/DAC2*%
X6040000Y13500000D02*
X6040000Y12040000D01*
X6040000Y18940000D02*
X6040000Y13500000D01*
%TO.N,/DAC1*%
X4865000Y10675000D02*
X6040000Y9500000D01*
%TO.N,/Sheet 5/DX_N*%
X25950000Y25087501D02*
X25950000Y24000000D01*
X26650000Y25787501D02*
X25950000Y25087501D01*
X28050000Y28303554D02*
X26650000Y26903554D01*
X14750000Y39396446D02*
X20196446Y33950000D01*
X14750000Y47450000D02*
X14750000Y39396446D01*
X28050000Y32196446D02*
X28050000Y28303554D01*
X14300000Y47900000D02*
X14750000Y47450000D01*
X20196446Y33950000D02*
X26296446Y33950000D01*
X26296446Y33950000D02*
X28050000Y32196446D01*
X26650000Y26903554D02*
X26650000Y25787501D01*
%TO.N,/Sheet 5/DX_P*%
X27850000Y25087501D02*
X27850000Y24000000D01*
X27150000Y25787501D02*
X27850000Y25087501D01*
X28550000Y28096446D02*
X27150000Y26696446D01*
X28550000Y32403554D02*
X28550000Y28096446D01*
X27150000Y26696446D02*
X27150000Y25787501D01*
X15250000Y39603554D02*
X20403554Y34450000D01*
X26503554Y34450000D02*
X28550000Y32403554D01*
X15250000Y47450000D02*
X15250000Y39603554D01*
X20403554Y34450000D02*
X26503554Y34450000D01*
X15700000Y47900000D02*
X15250000Y47450000D01*
D21*
%TO.N,GND*%
X23250000Y57750000D02*
X23300000Y57800000D01*
X23250000Y56300000D02*
X23250000Y57750000D01*
%TO.N,+12V*%
X21350000Y59530000D02*
X21280000Y59600000D01*
X21350000Y56300000D02*
X21350000Y59530000D01*
%TO.N,GND*%
X18250000Y57750000D02*
X18200000Y57800000D01*
X18250000Y56300000D02*
X18250000Y57750000D01*
%TO.N,+12V*%
X16350000Y59450000D02*
X16200000Y59600000D01*
X16350000Y56300000D02*
X16350000Y59450000D01*
X11150000Y59570000D02*
X11120000Y59600000D01*
X11150000Y56300000D02*
X11150000Y59570000D01*
%TO.N,GND*%
X13050000Y57250000D02*
X13600000Y57800000D01*
X13050000Y56300000D02*
X13050000Y57250000D01*
%TO.N,+12V*%
X6040000Y59600000D02*
X6040000Y56410000D01*
X6040000Y56410000D02*
X6150000Y56300000D01*
X12050000Y60530000D02*
X12050000Y63000000D01*
X11120000Y59600000D02*
X12050000Y60530000D01*
X16200000Y59600000D02*
X16200000Y62850000D01*
X16200000Y62850000D02*
X16050000Y63000000D01*
X20050000Y60830000D02*
X20050000Y63000000D01*
X21280000Y59600000D02*
X20050000Y60830000D01*
%TO.N,GND*%
X21950000Y61550000D02*
X22100000Y61400000D01*
X21950000Y63000000D02*
X21950000Y61550000D01*
X17950000Y61550000D02*
X18100000Y61400000D01*
X17950000Y63000000D02*
X17950000Y61550000D01*
X13950000Y61450000D02*
X14000000Y61400000D01*
X13950000Y63000000D02*
X13950000Y61450000D01*
X9950000Y63000000D02*
X9950000Y61450000D01*
X9950000Y61450000D02*
X10000000Y61400000D01*
%TO.N,+12V*%
X6040000Y61490000D02*
X7550000Y63000000D01*
X6040000Y59600000D02*
X6040000Y61490000D01*
D20*
X22700000Y28400000D02*
X22700000Y27975000D01*
X22700000Y27975000D02*
X22000000Y27275000D01*
X8700000Y28400000D02*
X8700000Y27975000D01*
X8700000Y27975000D02*
X8000000Y27275000D01*
%TO.N,GND*%
X7300000Y25025000D02*
X8000000Y25725000D01*
X20700000Y22225000D02*
X20700000Y22600000D01*
X20700000Y22600000D02*
X21800000Y23700000D01*
X21300000Y24600000D02*
X21300000Y25025000D01*
X21300000Y25025000D02*
X22000000Y25725000D01*
X22900000Y22600000D02*
X21800000Y23700000D01*
X14000000Y18100000D02*
X14462500Y17637500D01*
X22900000Y22225000D02*
X22900000Y22600000D01*
X7300000Y24600000D02*
X7300000Y25025000D01*
X14462500Y17637500D02*
X15200000Y17637500D01*
%TO.N,+3.3V*%
X26362500Y15362500D02*
X26600000Y15600000D01*
X21800000Y14800000D02*
X20700000Y15900000D01*
X16400000Y18800000D02*
X15837500Y19362500D01*
X15837500Y19362500D02*
X15200000Y19362500D01*
X28875000Y19625000D02*
X28900000Y19600000D01*
X25200000Y19625000D02*
X27300000Y19625000D01*
X21800000Y14800000D02*
X22900000Y15900000D01*
X26362500Y14600000D02*
X26362500Y15362500D01*
X27300000Y19625000D02*
X28875000Y19625000D01*
%TO.N,/I2C_SCL*%
X25200000Y17975000D02*
X25500000Y17675000D01*
%TO.N,/SENSE2*%
X8580000Y22080000D02*
X12300000Y25800000D01*
%TO.N,/SENSE3*%
X12400000Y24600000D02*
X14800000Y24600000D01*
X16665000Y26465000D02*
X16665000Y27135000D01*
X14800000Y24600000D02*
X16665000Y26465000D01*
X9755000Y21955000D02*
X12400000Y24600000D01*
%TO.N,/SENSE4*%
X19200000Y23100000D02*
X12100000Y23100000D01*
X12100000Y23100000D02*
X11120000Y22120000D01*
%TO.N,/SEL3*%
X18100000Y21900000D02*
X18100000Y16000000D01*
X18100000Y16000000D02*
X19915000Y14185000D01*
%TO.N,/SEL2*%
X12300000Y22000000D02*
X12300000Y15940000D01*
%TO.N,/DAC2*%
X6100000Y19000000D02*
X6040000Y18940000D01*
X16300000Y17100000D02*
X16300000Y17500000D01*
X14100000Y19400000D02*
X13897924Y19400000D01*
X15300000Y16100000D02*
X16300000Y17100000D01*
X13100000Y17000000D02*
X14000000Y16100000D01*
X14000000Y16100000D02*
X15300000Y16100000D01*
X13897924Y19400000D02*
X13100000Y18602076D01*
X13100000Y18602076D02*
X13100000Y17000000D01*
%TO.N,/Sheet 5/A1*%
X22900000Y20575000D02*
X22900000Y19162299D01*
X22900000Y17625000D02*
X22900000Y19162299D01*
%TO.N,/Sheet 5/A0*%
X20700000Y20575000D02*
X20700000Y19100000D01*
X20700000Y17625000D02*
X20700000Y19100000D01*
%TO.N,/Sheet 5/DX_N*%
X25750305Y24199695D02*
X25950000Y24000000D01*
X26300000Y21700000D02*
X26300000Y23650000D01*
%TO.N,/Sheet 5/DX_P*%
X27600000Y21600000D02*
X27850000Y21850000D01*
X27850000Y21850000D02*
X27850000Y24000000D01*
%TD*%
%TA.AperFunction,Conductor*%
%TO.N,/LED2*%
G36*
X14004031Y53499469D02*
G01*
X14024783Y53496737D01*
X14113224Y53485093D01*
X14144491Y53476715D01*
X14234918Y53439259D01*
X14262951Y53423074D01*
X14340601Y53363491D01*
X14363491Y53340601D01*
X14384286Y53313500D01*
X14409480Y53248330D01*
X14395441Y53179886D01*
X14378060Y53155042D01*
X14267467Y53032216D01*
X14267466Y53032214D01*
X14172821Y52868284D01*
X14172818Y52868277D01*
X14116292Y52694309D01*
X14114326Y52688256D01*
X14094540Y52500000D01*
X14114326Y52311744D01*
X14114326Y52311741D01*
X14114327Y52311740D01*
X14172818Y52131722D01*
X14172821Y52131715D01*
X14267466Y51967785D01*
X14394123Y51827116D01*
X14394128Y51827112D01*
X14448887Y51787327D01*
X14491552Y51731997D01*
X14500000Y51687010D01*
X14500000Y48924500D01*
X14480315Y48857461D01*
X14427511Y48811706D01*
X14376000Y48800500D01*
X14205354Y48800500D01*
X14020197Y48761144D01*
X14020192Y48761142D01*
X13847270Y48684151D01*
X13847265Y48684148D01*
X13694129Y48572888D01*
X13567467Y48432216D01*
X13567466Y48432214D01*
X13472821Y48268284D01*
X13472818Y48268277D01*
X13443766Y48178863D01*
X13414326Y48088256D01*
X13394540Y47900000D01*
X13414326Y47711744D01*
X13414326Y47711741D01*
X13414327Y47711740D01*
X13472818Y47531722D01*
X13472821Y47531715D01*
X13567466Y47367785D01*
X13694129Y47227111D01*
X13847266Y47115850D01*
X13895751Y47094263D01*
X13916831Y47082282D01*
X13926705Y47075310D01*
X13926706Y47075309D01*
X14056880Y47008857D01*
X14107639Y46960844D01*
X14124500Y46898416D01*
X14124500Y40625135D01*
X14104815Y40558096D01*
X14052011Y40512341D01*
X14016678Y40502195D01*
X14004023Y40500529D01*
X13995931Y40500000D01*
X9004067Y40500000D01*
X8995967Y40500530D01*
X8886775Y40514906D01*
X8855508Y40523284D01*
X8765079Y40560740D01*
X8737050Y40576923D01*
X8659392Y40636513D01*
X8636513Y40659392D01*
X8576923Y40737050D01*
X8560740Y40765081D01*
X8523284Y40855508D01*
X8514906Y40886776D01*
X8500531Y40995964D01*
X8500000Y41004066D01*
X8500000Y52995933D01*
X8500531Y53004035D01*
X8514906Y53113223D01*
X8523284Y53144491D01*
X8560740Y53234918D01*
X8576925Y53262951D01*
X8636508Y53340601D01*
X8659398Y53363491D01*
X8737048Y53423074D01*
X8765081Y53439259D01*
X8855508Y53476715D01*
X8886775Y53485093D01*
X8972457Y53496374D01*
X8995968Y53499469D01*
X9004066Y53500000D01*
X13995934Y53500000D01*
X14004031Y53499469D01*
G37*
%TD.AperFunction*%
%TD*%
%TA.AperFunction,Conductor*%
%TO.N,/LED4*%
G36*
X28004031Y53499469D02*
G01*
X28024783Y53496737D01*
X28113224Y53485093D01*
X28144491Y53476715D01*
X28234918Y53439259D01*
X28262951Y53423074D01*
X28340601Y53363491D01*
X28363491Y53340601D01*
X28423074Y53262951D01*
X28439259Y53234918D01*
X28476715Y53144491D01*
X28485093Y53113224D01*
X28499469Y53004035D01*
X28500000Y52995934D01*
X28500000Y41004065D01*
X28499469Y40995964D01*
X28485093Y40886775D01*
X28476715Y40855508D01*
X28439259Y40765081D01*
X28423074Y40737048D01*
X28363491Y40659398D01*
X28340602Y40636509D01*
X28288526Y40596549D01*
X28262951Y40576925D01*
X28234918Y40560740D01*
X28144491Y40523284D01*
X28113223Y40514906D01*
X28004031Y40500530D01*
X27995933Y40500000D01*
X23004067Y40500000D01*
X22995967Y40500530D01*
X22886775Y40514906D01*
X22855508Y40523284D01*
X22765079Y40560740D01*
X22737050Y40576923D01*
X22659392Y40636513D01*
X22636513Y40659392D01*
X22576923Y40737050D01*
X22560740Y40765081D01*
X22523284Y40855508D01*
X22514906Y40886776D01*
X22500531Y40995964D01*
X22500000Y41004066D01*
X22500000Y52995933D01*
X22500531Y53004035D01*
X22514906Y53113223D01*
X22523284Y53144491D01*
X22560740Y53234918D01*
X22576925Y53262951D01*
X22636508Y53340601D01*
X22659398Y53363491D01*
X22737048Y53423074D01*
X22765081Y53439259D01*
X22855508Y53476715D01*
X22886775Y53485093D01*
X22972457Y53496374D01*
X22995968Y53499469D01*
X23004066Y53500000D01*
X27995934Y53500000D01*
X28004031Y53499469D01*
G37*
%TD.AperFunction*%
%TD*%
%TA.AperFunction,Conductor*%
%TO.N,/LED3*%
G36*
X21004031Y53499469D02*
G01*
X21024783Y53496737D01*
X21113224Y53485093D01*
X21144491Y53476715D01*
X21234918Y53439259D01*
X21262951Y53423074D01*
X21340601Y53363491D01*
X21363491Y53340601D01*
X21423074Y53262951D01*
X21439259Y53234918D01*
X21476715Y53144491D01*
X21485093Y53113224D01*
X21499469Y53004035D01*
X21500000Y52995934D01*
X21500000Y41004065D01*
X21499469Y40995964D01*
X21485093Y40886775D01*
X21476715Y40855508D01*
X21439259Y40765081D01*
X21423074Y40737048D01*
X21363491Y40659398D01*
X21340602Y40636509D01*
X21325779Y40625135D01*
X21262951Y40576925D01*
X21234918Y40560740D01*
X21144491Y40523284D01*
X21113223Y40514906D01*
X21004031Y40500530D01*
X20995933Y40500000D01*
X16004069Y40500000D01*
X15995976Y40500529D01*
X15983322Y40502195D01*
X15919425Y40530457D01*
X15880950Y40588778D01*
X15875500Y40625135D01*
X15875500Y46898415D01*
X15895185Y46965454D01*
X15943120Y47008856D01*
X16073295Y47075311D01*
X16107713Y47094361D01*
X16107734Y47094322D01*
X16121399Y47101899D01*
X16152732Y47115849D01*
X16305870Y47227111D01*
X16305871Y47227112D01*
X16432533Y47367784D01*
X16527179Y47531716D01*
X16585674Y47711744D01*
X16605460Y47900000D01*
X16585674Y48088256D01*
X16527179Y48268284D01*
X16432533Y48432216D01*
X16305871Y48572888D01*
X16152730Y48684151D01*
X15979803Y48761144D01*
X15794646Y48800500D01*
X15624000Y48800500D01*
X15556961Y48820185D01*
X15511206Y48872989D01*
X15500000Y48924500D01*
X15500000Y51687010D01*
X15519685Y51754049D01*
X15551113Y51787327D01*
X15605871Y51827112D01*
X15605876Y51827116D01*
X15682922Y51912686D01*
X15732533Y51967784D01*
X15827179Y52131716D01*
X15885674Y52311744D01*
X15905460Y52500000D01*
X15885674Y52688256D01*
X15827179Y52868284D01*
X15732533Y53032216D01*
X15621937Y53155044D01*
X15591709Y53218033D01*
X15600334Y53287368D01*
X15615713Y53313500D01*
X15636508Y53340601D01*
X15659398Y53363491D01*
X15737048Y53423074D01*
X15765081Y53439259D01*
X15855508Y53476715D01*
X15886775Y53485093D01*
X15972457Y53496374D01*
X15995968Y53499469D01*
X16004066Y53500000D01*
X20995934Y53500000D01*
X21004031Y53499469D01*
G37*
%TD.AperFunction*%
%TD*%
%TA.AperFunction,Conductor*%
%TO.N,/LED1*%
G36*
X7004031Y53499469D02*
G01*
X7024783Y53496737D01*
X7113224Y53485093D01*
X7144491Y53476715D01*
X7234918Y53439259D01*
X7262951Y53423074D01*
X7340601Y53363491D01*
X7363491Y53340601D01*
X7423074Y53262951D01*
X7439259Y53234918D01*
X7476715Y53144491D01*
X7485093Y53113224D01*
X7499469Y53004035D01*
X7500000Y52995934D01*
X7500000Y41004065D01*
X7499469Y40995964D01*
X7485093Y40886775D01*
X7476715Y40855508D01*
X7439259Y40765081D01*
X7423074Y40737048D01*
X7363491Y40659398D01*
X7340602Y40636509D01*
X7288526Y40596549D01*
X7262951Y40576925D01*
X7234918Y40560740D01*
X7144491Y40523284D01*
X7113223Y40514906D01*
X7004031Y40500530D01*
X6995933Y40500000D01*
X2004067Y40500000D01*
X1995967Y40500530D01*
X1886775Y40514906D01*
X1855508Y40523284D01*
X1765079Y40560740D01*
X1737050Y40576923D01*
X1659392Y40636513D01*
X1636513Y40659392D01*
X1576923Y40737050D01*
X1560740Y40765081D01*
X1523284Y40855508D01*
X1514906Y40886776D01*
X1500531Y40995964D01*
X1500000Y41004066D01*
X1500000Y52995933D01*
X1500531Y53004035D01*
X1514906Y53113223D01*
X1523284Y53144491D01*
X1560740Y53234918D01*
X1576925Y53262951D01*
X1636508Y53340601D01*
X1659398Y53363491D01*
X1737048Y53423074D01*
X1765081Y53439259D01*
X1855508Y53476715D01*
X1886775Y53485093D01*
X1972457Y53496374D01*
X1995968Y53499469D01*
X2004066Y53500000D01*
X6995934Y53500000D01*
X7004031Y53499469D01*
G37*
%TD.AperFunction*%
%TD*%
%TA.AperFunction,Conductor*%
%TO.N,/I2C_SCL*%
G36*
X22713251Y10788031D02*
G01*
X24133629Y10289388D01*
X24140300Y10283415D01*
X24140792Y10274473D01*
X24140567Y10273883D01*
X23822562Y9503785D01*
X23816238Y9497447D01*
X23046115Y9179432D01*
X23037161Y9179441D01*
X23030836Y9185780D01*
X23030620Y9186345D01*
X22531968Y10606748D01*
X22532460Y10615690D01*
X22534734Y10618897D01*
X22701102Y10785265D01*
X22709375Y10788692D01*
X22713251Y10788031D01*
G37*
%TD.AperFunction*%
%TD*%
%TA.AperFunction,Conductor*%
%TO.N,GND*%
G36*
X24837373Y15600032D02*
G01*
X24845638Y15596584D01*
X24849044Y15588303D01*
X24848964Y15586963D01*
X24763717Y14863448D01*
X24759345Y14855633D01*
X24752097Y14853117D01*
X24518383Y14853117D01*
X24510110Y14856544D01*
X24508992Y14857838D01*
X24397346Y15008074D01*
X24173671Y15309063D01*
X24171488Y15317747D01*
X24174775Y15324300D01*
X24437848Y15588303D01*
X24447058Y15597546D01*
X24455325Y15600987D01*
X24455375Y15600987D01*
X24837373Y15600032D01*
G37*
%TD.AperFunction*%
%TD*%
%TA.AperFunction,Conductor*%
%TO.N,/DAC1*%
G36*
X4904502Y17699123D02*
G01*
X5258569Y17551505D01*
X5264887Y17545158D01*
X5264866Y17536204D01*
X5264789Y17536023D01*
X4993065Y16913979D01*
X4986613Y16907769D01*
X4982343Y16906962D01*
X4748480Y16906962D01*
X4740207Y16910389D01*
X4737361Y16915021D01*
X4534018Y17536023D01*
X4533813Y17536649D01*
X4534495Y17545577D01*
X4540430Y17551088D01*
X4895498Y17699123D01*
X4904452Y17699144D01*
X4904502Y17699123D01*
G37*
%TD.AperFunction*%
%TD*%
%TA.AperFunction,Conductor*%
%TO.N,/I2C_SDA*%
G36*
X25029689Y13187583D02*
G01*
X25031832Y13185890D01*
X25198220Y13019502D01*
X25201647Y13011229D01*
X25200573Y13006332D01*
X25111299Y12812628D01*
X24754032Y12037437D01*
X24610002Y11724925D01*
X24603427Y11718846D01*
X24594911Y11719007D01*
X23823783Y12037438D01*
X23817448Y12043759D01*
X23499950Y12812630D01*
X23499959Y12821583D01*
X23506298Y12827908D01*
X23508052Y12828475D01*
X24625253Y13094721D01*
X25020847Y13188997D01*
X25029689Y13187583D01*
G37*
%TD.AperFunction*%
%TD*%
%TA.AperFunction,Conductor*%
%TO.N,/SEL3*%
G36*
X20032021Y10709873D02*
G01*
X20035448Y10701600D01*
X20034844Y10697888D01*
X19529274Y9186605D01*
X19523399Y9179847D01*
X19514466Y9179221D01*
X19513720Y9179499D01*
X18744486Y9497147D01*
X18738151Y9503468D01*
X18419616Y10273460D01*
X18419620Y10282414D01*
X18425954Y10288743D01*
X18426950Y10289104D01*
X19788303Y10712772D01*
X19791780Y10713300D01*
X20023748Y10713300D01*
X20032021Y10709873D01*
G37*
%TD.AperFunction*%
%TD*%
%TA.AperFunction,Conductor*%
%TO.N,/SEL2*%
G36*
X15093250Y13328031D02*
G01*
X16513629Y12829388D01*
X16520300Y12823415D01*
X16520792Y12814473D01*
X16520567Y12813883D01*
X16202562Y12043785D01*
X16196238Y12037447D01*
X15426115Y11719432D01*
X15417161Y11719441D01*
X15410836Y11725780D01*
X15410620Y11726345D01*
X14911968Y13146749D01*
X14912460Y13155691D01*
X14914734Y13158898D01*
X15081101Y13325265D01*
X15089374Y13328692D01*
X15093250Y13328031D01*
G37*
%TD.AperFunction*%
%TD*%
%TA.AperFunction,Conductor*%
%TO.N,/SENSE4*%
G36*
X11245912Y13736573D02*
G01*
X11248186Y13733366D01*
X11899950Y12376413D01*
X11900442Y12367471D01*
X11894469Y12360800D01*
X11893892Y12360542D01*
X11124489Y12040865D01*
X11115534Y12040856D01*
X11115511Y12040865D01*
X10346106Y12360542D01*
X10339782Y12366881D01*
X10339791Y12375836D01*
X10340049Y12376413D01*
X10991814Y13733366D01*
X10998485Y13739339D01*
X11002361Y13740000D01*
X11237639Y13740000D01*
X11245912Y13736573D01*
G37*
%TD.AperFunction*%
%TD*%
%TA.AperFunction,Conductor*%
%TO.N,/SENSE3*%
G36*
X10013251Y10788031D02*
G01*
X11433629Y10289388D01*
X11440300Y10283415D01*
X11440792Y10274473D01*
X11440567Y10273883D01*
X11122562Y9503785D01*
X11116238Y9497447D01*
X10346115Y9179432D01*
X10337161Y9179441D01*
X10330836Y9185780D01*
X10330620Y9186345D01*
X9831968Y10606748D01*
X9832460Y10615690D01*
X9834734Y10618897D01*
X10001102Y10785265D01*
X10009375Y10788692D01*
X10013251Y10788031D01*
G37*
%TD.AperFunction*%
%TD*%
%TA.AperFunction,Conductor*%
%TO.N,/SENSE2*%
G36*
X8705912Y13736573D02*
G01*
X8708186Y13733366D01*
X9359950Y12376413D01*
X9360442Y12367471D01*
X9354469Y12360800D01*
X9353892Y12360542D01*
X8584489Y12040865D01*
X8575534Y12040856D01*
X8575511Y12040865D01*
X7806106Y12360542D01*
X7799782Y12366881D01*
X7799791Y12375836D01*
X7800049Y12376413D01*
X8451814Y13733366D01*
X8458485Y13739339D01*
X8462361Y13740000D01*
X8697639Y13740000D01*
X8705912Y13736573D01*
G37*
%TD.AperFunction*%
%TD*%
%TA.AperFunction,Conductor*%
%TO.N,/SENSE1*%
G36*
X7531697Y10712772D02*
G01*
X8893049Y10289104D01*
X8899930Y10283373D01*
X8900744Y10274455D01*
X8900383Y10273459D01*
X8581856Y9503487D01*
X8575527Y9497153D01*
X7806287Y9179503D01*
X7797332Y9179512D01*
X7791007Y9185851D01*
X7790732Y9186585D01*
X7285156Y10697888D01*
X7285782Y10706821D01*
X7292540Y10712696D01*
X7296252Y10713300D01*
X7528220Y10713300D01*
X7531697Y10712772D01*
G37*
%TD.AperFunction*%
%TD*%
%TA.AperFunction,Conductor*%
%TO.N,/SENSE1*%
G36*
X3933044Y27283746D02*
G01*
X3939206Y27277760D01*
X4215747Y26665071D01*
X4216027Y26656121D01*
X4213356Y26651985D01*
X4048014Y26486643D01*
X4039741Y26483216D01*
X4034928Y26484252D01*
X4029631Y26486643D01*
X3422238Y26760794D01*
X3416108Y26767320D01*
X3416232Y26775909D01*
X3562436Y27131195D01*
X3568754Y27137542D01*
X3568804Y27137563D01*
X3924090Y27283767D01*
X3933044Y27283746D01*
G37*
%TD.AperFunction*%
%TD*%
%TA.AperFunction,Conductor*%
%TO.N,/DAC2*%
G36*
X6165912Y13736573D02*
G01*
X6168186Y13733366D01*
X6819950Y12376413D01*
X6820442Y12367471D01*
X6814469Y12360800D01*
X6813892Y12360542D01*
X6044489Y12040865D01*
X6035534Y12040856D01*
X6035511Y12040865D01*
X5266106Y12360542D01*
X5259782Y12366881D01*
X5259791Y12375836D01*
X5260049Y12376413D01*
X5911814Y13733366D01*
X5918485Y13739339D01*
X5922361Y13740000D01*
X6157639Y13740000D01*
X6165912Y13736573D01*
G37*
%TD.AperFunction*%
%TD*%
%TA.AperFunction,Conductor*%
%TO.N,/DAC2*%
G36*
X6104502Y18999123D02*
G01*
X6458173Y18851670D01*
X6464491Y18845323D01*
X6464470Y18836369D01*
X6464220Y18835811D01*
X6168185Y18218575D01*
X6161518Y18212598D01*
X6157636Y18211935D01*
X5923783Y18211935D01*
X5915510Y18215362D01*
X5912548Y18220370D01*
X5733678Y18835811D01*
X5733366Y18836886D01*
X5734348Y18845786D01*
X5740099Y18850950D01*
X6095498Y18999123D01*
X6104452Y18999144D01*
X6104502Y18999123D01*
G37*
%TD.AperFunction*%
%TD*%
%TA.AperFunction,Conductor*%
%TO.N,/DAC1*%
G36*
X4991697Y10712772D02*
G01*
X6353049Y10289104D01*
X6359930Y10283373D01*
X6360744Y10274455D01*
X6360383Y10273459D01*
X6041856Y9503487D01*
X6035527Y9497153D01*
X5266287Y9179503D01*
X5257332Y9179512D01*
X5251007Y9185851D01*
X5250732Y9186585D01*
X4745156Y10697888D01*
X4745782Y10706821D01*
X4752540Y10712696D01*
X4756252Y10713300D01*
X4988220Y10713300D01*
X4991697Y10712772D01*
G37*
%TD.AperFunction*%
%TD*%
%TA.AperFunction,Conductor*%
%TO.N,/Sheet 5/DX_N*%
G36*
X14666198Y48047987D02*
G01*
X14672516Y48041640D01*
X14672997Y48040216D01*
X14871053Y47301123D01*
X14869885Y47292245D01*
X14862780Y47286794D01*
X14859752Y47286395D01*
X14627815Y47286395D01*
X14622495Y47287674D01*
X14546293Y47326574D01*
X14156541Y47525539D01*
X14150733Y47532352D01*
X14151049Y47540426D01*
X14298141Y47896500D01*
X14304467Y47902838D01*
X14304503Y47902853D01*
X14657244Y48048008D01*
X14666198Y48047987D01*
G37*
%TD.AperFunction*%
%TD*%
%TA.AperFunction,Conductor*%
%TO.N,/Sheet 5/DX_P*%
G36*
X15342755Y48048008D02*
G01*
X15695496Y47902853D01*
X15701843Y47896535D01*
X15701858Y47896500D01*
X15848950Y47540426D01*
X15848941Y47531471D01*
X15843457Y47525539D01*
X15502220Y47351340D01*
X15377505Y47287674D01*
X15372185Y47286395D01*
X15140248Y47286395D01*
X15131975Y47289822D01*
X15128548Y47298095D01*
X15128947Y47301123D01*
X15193073Y47540426D01*
X15327003Y48040217D01*
X15332453Y48047321D01*
X15341331Y48048489D01*
X15342755Y48048008D01*
G37*
%TD.AperFunction*%
%TD*%
%TA.AperFunction,Conductor*%
%TO.N,+12V*%
G36*
X22116213Y59600016D02*
G01*
X22124482Y59596579D01*
X22127899Y59588302D01*
X22127741Y59586399D01*
X21851625Y57923707D01*
X21846889Y57916107D01*
X21840083Y57913924D01*
X20859037Y57913924D01*
X20850764Y57917351D01*
X20847717Y57922668D01*
X20838532Y57957842D01*
X20497274Y59264867D01*
X20498499Y59273736D01*
X20504105Y59278626D01*
X21277839Y59600102D01*
X21282342Y59600997D01*
X22116213Y59600016D01*
G37*
%TD.AperFunction*%
%TD*%
%TA.AperFunction,Conductor*%
%TO.N,+12V*%
G36*
X17036831Y59600015D02*
G01*
X17045100Y59596578D01*
X17048517Y59588301D01*
X17048434Y59586924D01*
X16851234Y57940146D01*
X16846848Y57932339D01*
X16839617Y57929837D01*
X15858510Y57929837D01*
X15850237Y57933264D01*
X15847379Y57937934D01*
X15418025Y59264451D01*
X15418737Y59273377D01*
X15424667Y59278859D01*
X16197839Y59600102D01*
X16202342Y59600997D01*
X17036831Y59600015D01*
G37*
%TD.AperFunction*%
%TD*%
%TA.AperFunction,Conductor*%
%TO.N,+12V*%
G36*
X11955899Y59600016D02*
G01*
X11964168Y59596579D01*
X11967585Y59588302D01*
X11967382Y59586144D01*
X11651800Y57915495D01*
X11646897Y57908002D01*
X11640303Y57905967D01*
X10659311Y57905967D01*
X10651038Y57909394D01*
X10647910Y57915041D01*
X10584797Y58189018D01*
X10336921Y59265084D01*
X10338403Y59273913D01*
X10343833Y59278513D01*
X11117839Y59600102D01*
X11122342Y59600997D01*
X11955899Y59600016D01*
G37*
%TD.AperFunction*%
%TD*%
%TA.AperFunction,Conductor*%
%TO.N,+12V*%
G36*
X6044489Y59599134D02*
G01*
X6816365Y59278430D01*
X6822690Y59272091D01*
X6823332Y59265248D01*
X6541935Y57909323D01*
X6536898Y57901918D01*
X6530479Y57900000D01*
X5549521Y57900000D01*
X5541248Y57903427D01*
X5538065Y57909323D01*
X5256667Y59265249D01*
X5258341Y59274044D01*
X5263634Y59278430D01*
X6035511Y59599134D01*
X6044466Y59599143D01*
X6044489Y59599134D01*
G37*
%TD.AperFunction*%
%TD*%
%TA.AperFunction,Conductor*%
%TO.N,+12V*%
G36*
X12541102Y60911355D02*
G01*
X12544529Y60903082D01*
X12543718Y60898802D01*
X11909652Y59285795D01*
X11903436Y59279349D01*
X11894483Y59279186D01*
X11894374Y59279229D01*
X11122158Y59598108D01*
X11118349Y59600653D01*
X10528854Y60191128D01*
X10525435Y60199404D01*
X10528869Y60207674D01*
X10530476Y60209014D01*
X11533099Y60903082D01*
X11546995Y60912702D01*
X11553654Y60914782D01*
X12532829Y60914782D01*
X12541102Y60911355D01*
G37*
%TD.AperFunction*%
%TD*%
%TA.AperFunction,Conductor*%
%TO.N,+12V*%
G36*
X16698752Y61296573D02*
G01*
X16701935Y61290677D01*
X16983332Y59934751D01*
X16981658Y59925955D01*
X16976366Y59921569D01*
X16204489Y59600865D01*
X16195534Y59600856D01*
X16195511Y59600865D01*
X15423632Y59921570D01*
X15417309Y59927908D01*
X15416667Y59934751D01*
X15698065Y61290677D01*
X15703102Y61298082D01*
X15709521Y61300000D01*
X16690479Y61300000D01*
X16698752Y61296573D01*
G37*
%TD.AperFunction*%
%TD*%
%TA.AperFunction,Conductor*%
%TO.N,+12V*%
G36*
X20439431Y61150411D02*
G01*
X21597194Y60390605D01*
X21602231Y60383200D01*
X21601589Y60376357D01*
X21282562Y59603785D01*
X21276238Y59597447D01*
X20503640Y59278410D01*
X20494687Y59278419D01*
X20489397Y59282802D01*
X19729587Y60440569D01*
X19727914Y60449364D01*
X19731097Y60455260D01*
X20424739Y61148902D01*
X20433012Y61152329D01*
X20439431Y61150411D01*
G37*
%TD.AperFunction*%
%TD*%
%TA.AperFunction,Conductor*%
%TO.N,+12V*%
G36*
X6538752Y61296573D02*
G01*
X6541935Y61290677D01*
X6823332Y59934751D01*
X6821658Y59925955D01*
X6816366Y59921569D01*
X6044489Y59600865D01*
X6035534Y59600856D01*
X6035511Y59600865D01*
X5263632Y59921570D01*
X5257309Y59927908D01*
X5256667Y59934751D01*
X5538065Y61290677D01*
X5543102Y61298082D01*
X5549521Y61300000D01*
X6530479Y61300000D01*
X6538752Y61296573D01*
G37*
%TD.AperFunction*%
%TD*%
%TA.AperFunction,Conductor*%
%TO.N,+12V*%
G36*
X22704111Y28397286D02*
G01*
X22704146Y28397250D01*
X22974916Y28125123D01*
X22978322Y28116842D01*
X22975202Y28108916D01*
X22531483Y27630355D01*
X22523347Y27626619D01*
X22514950Y27629731D01*
X22514660Y27630010D01*
X22349505Y27795165D01*
X22346114Y27802537D01*
X22300970Y28387424D01*
X22303750Y28395934D01*
X22311735Y28399987D01*
X22312614Y28400022D01*
X22695831Y28400698D01*
X22704111Y28397286D01*
G37*
%TD.AperFunction*%
%TD*%
%TA.AperFunction,Conductor*%
%TO.N,+12V*%
G36*
X8704111Y28397286D02*
G01*
X8704146Y28397250D01*
X8974916Y28125123D01*
X8978322Y28116842D01*
X8975202Y28108916D01*
X8531483Y27630355D01*
X8523347Y27626619D01*
X8514950Y27629731D01*
X8514660Y27630010D01*
X8349505Y27795165D01*
X8346114Y27802537D01*
X8300970Y28387424D01*
X8303750Y28395934D01*
X8311735Y28399987D01*
X8312614Y28400022D01*
X8695831Y28400698D01*
X8704111Y28397286D01*
G37*
%TD.AperFunction*%
%TD*%
%TA.AperFunction,Conductor*%
%TO.N,GND*%
G36*
X21440909Y23848767D02*
G01*
X21796195Y23702563D01*
X21802542Y23696245D01*
X21802563Y23696195D01*
X21948767Y23340909D01*
X21948746Y23331955D01*
X21942760Y23325793D01*
X21330071Y23049252D01*
X21321121Y23048972D01*
X21316987Y23051641D01*
X21151642Y23216986D01*
X21148216Y23225258D01*
X21149252Y23230071D01*
X21359663Y23696245D01*
X21425793Y23842760D01*
X21432320Y23848891D01*
X21440909Y23848767D01*
G37*
%TD.AperFunction*%
%TD*%
%TA.AperFunction,Conductor*%
%TO.N,GND*%
G36*
X21485049Y25370268D02*
G01*
X21485367Y25369961D01*
X21650493Y25204835D01*
X21653885Y25197462D01*
X21699029Y24612577D01*
X21696249Y24604065D01*
X21688264Y24600012D01*
X21687404Y24599977D01*
X21304166Y24599301D01*
X21295891Y24602711D01*
X21025082Y24874878D01*
X21021677Y24883157D01*
X21024797Y24891083D01*
X21468515Y25369643D01*
X21476652Y25373380D01*
X21485049Y25370268D01*
G37*
%TD.AperFunction*%
%TD*%
%TA.AperFunction,Conductor*%
%TO.N,GND*%
G36*
X22168044Y23848746D02*
G01*
X22174206Y23842760D01*
X22450747Y23230071D01*
X22451027Y23221121D01*
X22448356Y23216985D01*
X22283014Y23051643D01*
X22274741Y23048216D01*
X22269928Y23049252D01*
X22264631Y23051643D01*
X21657238Y23325794D01*
X21651108Y23332320D01*
X21651232Y23340909D01*
X21797436Y23696195D01*
X21803754Y23702542D01*
X21803804Y23702563D01*
X22159090Y23848767D01*
X22168044Y23848746D01*
G37*
%TD.AperFunction*%
%TD*%
%TA.AperFunction,Conductor*%
%TO.N,GND*%
G36*
X14368338Y18248863D02*
G01*
X14374369Y18243180D01*
X14607246Y17764925D01*
X14608427Y17759803D01*
X14608427Y17528017D01*
X14605000Y17519744D01*
X14596727Y17516317D01*
X14593514Y17516768D01*
X13859506Y17726847D01*
X13852496Y17732418D01*
X13851478Y17741314D01*
X13851906Y17742547D01*
X13887172Y17828247D01*
X13997146Y18095496D01*
X14003464Y18101843D01*
X14003499Y18101858D01*
X14359383Y18248872D01*
X14368338Y18248863D01*
G37*
%TD.AperFunction*%
%TD*%
%TA.AperFunction,Conductor*%
%TO.N,GND*%
G36*
X7485049Y25370268D02*
G01*
X7485367Y25369961D01*
X7650493Y25204835D01*
X7653885Y25197462D01*
X7699029Y24612577D01*
X7696249Y24604065D01*
X7688264Y24600012D01*
X7687404Y24599977D01*
X7304166Y24599301D01*
X7295891Y24602711D01*
X7025082Y24874878D01*
X7021677Y24883157D01*
X7024797Y24891083D01*
X7468515Y25369643D01*
X7476652Y25373380D01*
X7485049Y25370268D01*
G37*
%TD.AperFunction*%
%TD*%
%TA.AperFunction,Conductor*%
%TO.N,+3.3V*%
G36*
X21330071Y15450747D02*
G01*
X21942760Y15174206D01*
X21948891Y15167679D01*
X21948767Y15159090D01*
X21802563Y14803804D01*
X21796245Y14797457D01*
X21583763Y14710018D01*
X21455507Y14657239D01*
X21440909Y14651232D01*
X21431955Y14651253D01*
X21425794Y14657237D01*
X21149251Y15269928D01*
X21148972Y15278878D01*
X21151643Y15283014D01*
X21316985Y15448356D01*
X21325258Y15451783D01*
X21330071Y15450747D01*
G37*
%TD.AperFunction*%
%TD*%
%TA.AperFunction,Conductor*%
%TO.N,+3.3V*%
G36*
X15849420Y19480247D02*
G01*
X16542638Y19174159D01*
X16548822Y19167682D01*
X16548732Y19159004D01*
X16402853Y18804503D01*
X16396535Y18798156D01*
X16396504Y18798143D01*
X16042033Y18651713D01*
X16033080Y18651722D01*
X16026754Y18658060D01*
X16026478Y18658799D01*
X15833597Y19235693D01*
X15832994Y19239403D01*
X15832994Y19469544D01*
X15836421Y19477817D01*
X15844694Y19481244D01*
X15849420Y19480247D01*
G37*
%TD.AperFunction*%
%TD*%
%TA.AperFunction,Conductor*%
%TO.N,+3.3V*%
G36*
X22283014Y15448356D02*
G01*
X22448356Y15283014D01*
X22451783Y15274741D01*
X22450747Y15269928D01*
X22174206Y14657239D01*
X22167679Y14651108D01*
X22159090Y14651231D01*
X21803802Y14797437D01*
X21797457Y14803754D01*
X21651232Y15159090D01*
X21651253Y15168044D01*
X21657239Y15174206D01*
X22269928Y15450747D01*
X22278878Y15451027D01*
X22283014Y15448356D01*
G37*
%TD.AperFunction*%
%TD*%
%TA.AperFunction,Conductor*%
%TO.N,+3.3V*%
G36*
X26603405Y15597581D02*
G01*
X26603441Y15597546D01*
X26874940Y15325087D01*
X26878352Y15316807D01*
X26875268Y15308912D01*
X26497686Y14897946D01*
X26490977Y14890644D01*
X26482856Y14886870D01*
X26482361Y14886860D01*
X26248601Y14886860D01*
X26240328Y14890287D01*
X26236917Y14897946D01*
X26200645Y15587718D01*
X26203633Y15596157D01*
X26211715Y15600014D01*
X26212300Y15600030D01*
X26595124Y15600987D01*
X26603405Y15597581D01*
G37*
%TD.AperFunction*%
%TD*%
%TA.AperFunction,Conductor*%
%TO.N,+3.3V*%
G36*
X28745495Y19965440D02*
G01*
X28751143Y19959437D01*
X28899123Y19604502D01*
X28899144Y19595548D01*
X28899123Y19595498D01*
X28751441Y19241275D01*
X28745094Y19234957D01*
X28736140Y19234978D01*
X28736112Y19234989D01*
X28721142Y19241275D01*
X28112142Y19496989D01*
X28105842Y19503352D01*
X28104973Y19507777D01*
X28104973Y19741636D01*
X28108400Y19749909D01*
X28112887Y19752706D01*
X28736558Y19966005D01*
X28745495Y19965440D01*
G37*
%TD.AperFunction*%
%TD*%
%TA.AperFunction,Conductor*%
%TO.N,/SENSE2*%
G36*
X11940909Y25948767D02*
G01*
X12296195Y25802563D01*
X12302542Y25796245D01*
X12302563Y25796195D01*
X12448767Y25440909D01*
X12448746Y25431955D01*
X12442760Y25425793D01*
X11830071Y25149252D01*
X11821121Y25148972D01*
X11816987Y25151641D01*
X11651642Y25316986D01*
X11648216Y25325258D01*
X11649252Y25330071D01*
X11859663Y25796245D01*
X11925793Y25942760D01*
X11932320Y25948891D01*
X11940909Y25948767D01*
G37*
%TD.AperFunction*%
%TD*%
%TA.AperFunction,Conductor*%
%TO.N,/SENSE3*%
G36*
X16670200Y27133833D02*
G01*
X17022659Y26986885D01*
X17028977Y26980538D01*
X17028956Y26971584D01*
X17028473Y26970566D01*
X16668904Y26298590D01*
X16661979Y26292912D01*
X16653068Y26293794D01*
X16650318Y26295834D01*
X16486522Y26459630D01*
X16483802Y26463901D01*
X16299270Y26971415D01*
X16299664Y26980360D01*
X16305778Y26986217D01*
X16661210Y27133839D01*
X16670165Y27133848D01*
X16670200Y27133833D01*
G37*
%TD.AperFunction*%
%TD*%
%TA.AperFunction,Conductor*%
%TO.N,/SENSE4*%
G36*
X19045294Y23465271D02*
G01*
X19051280Y23459109D01*
X19199123Y23104502D01*
X19199144Y23095548D01*
X19199123Y23095498D01*
X19051280Y22740890D01*
X19044933Y22734572D01*
X19036345Y22734448D01*
X18407562Y22972141D01*
X18401036Y22978272D01*
X18400000Y22983085D01*
X18400000Y23216914D01*
X18403427Y23225187D01*
X18407563Y23227858D01*
X19036344Y23465551D01*
X19045294Y23465271D01*
G37*
%TD.AperFunction*%
%TD*%
%TA.AperFunction,Conductor*%
%TO.N,/SEL3*%
G36*
X18104502Y21899123D02*
G01*
X18459109Y21751280D01*
X18465427Y21744933D01*
X18465551Y21736344D01*
X18227859Y21107563D01*
X18221728Y21101036D01*
X18216915Y21100000D01*
X17983085Y21100000D01*
X17974812Y21103427D01*
X17972141Y21107563D01*
X17734448Y21736345D01*
X17734728Y21745294D01*
X17740890Y21751280D01*
X18095498Y21899123D01*
X18104452Y21899144D01*
X18104502Y21899123D01*
G37*
%TD.AperFunction*%
%TD*%
%TA.AperFunction,Conductor*%
%TO.N,/SEL2*%
G36*
X12304502Y21999123D02*
G01*
X12659109Y21851280D01*
X12665427Y21844933D01*
X12665551Y21836344D01*
X12427859Y21207563D01*
X12421728Y21201036D01*
X12416915Y21200000D01*
X12183085Y21200000D01*
X12174812Y21203427D01*
X12172141Y21207563D01*
X11934448Y21836345D01*
X11934728Y21845294D01*
X11940890Y21851280D01*
X12295498Y21999123D01*
X12304452Y21999144D01*
X12304502Y21999123D01*
G37*
%TD.AperFunction*%
%TD*%
%TA.AperFunction,Conductor*%
%TO.N,/DAC2*%
G36*
X16355902Y17496573D02*
G01*
X16359329Y17488300D01*
X16355902Y17480027D01*
X16351088Y17477123D01*
X16016236Y17373480D01*
X16007321Y17374308D01*
X16001601Y17381198D01*
X16002429Y17390114D01*
X16006570Y17394574D01*
X16138451Y17477123D01*
X16172151Y17498217D01*
X16178359Y17500000D01*
X16347629Y17500000D01*
X16355902Y17496573D01*
G37*
%TD.AperFunction*%
%TD*%
%TA.AperFunction,Conductor*%
%TO.N,/DAC2*%
G36*
X13825472Y19674339D02*
G01*
X13826966Y19673082D01*
X14099035Y19402369D01*
X14101603Y19398527D01*
X14247820Y19043212D01*
X14247799Y19034258D01*
X14241452Y19027940D01*
X14239626Y19027359D01*
X13548072Y18868511D01*
X13539245Y18869999D01*
X13537187Y18871637D01*
X13371962Y19036862D01*
X13368536Y19045134D01*
X13370685Y19051892D01*
X13809163Y19671546D01*
X13816739Y19676320D01*
X13825472Y19674339D01*
G37*
%TD.AperFunction*%
%TD*%
%TA.AperFunction,Conductor*%
%TO.N,/Sheet 5/A1*%
G36*
X23025188Y19958872D02*
G01*
X23027859Y19954736D01*
X23265551Y19325954D01*
X23265271Y19317004D01*
X23259109Y19311018D01*
X22904499Y19163174D01*
X22895550Y19163154D01*
X22540889Y19311018D01*
X22534572Y19317365D01*
X22534448Y19325954D01*
X22772141Y19954736D01*
X22778272Y19961263D01*
X22783085Y19962299D01*
X23016915Y19962299D01*
X23025188Y19958872D01*
G37*
%TD.AperFunction*%
%TD*%
%TA.AperFunction,Conductor*%
%TO.N,/Sheet 5/A1*%
G36*
X22904502Y19161422D02*
G01*
X23259109Y19013579D01*
X23265427Y19007232D01*
X23265551Y18998643D01*
X23027859Y18369862D01*
X23021728Y18363335D01*
X23016915Y18362299D01*
X22783085Y18362299D01*
X22774812Y18365726D01*
X22772141Y18369862D01*
X22534448Y18998644D01*
X22534728Y19007593D01*
X22540890Y19013579D01*
X22895498Y19161422D01*
X22904452Y19161443D01*
X22904502Y19161422D01*
G37*
%TD.AperFunction*%
%TD*%
%TA.AperFunction,Conductor*%
%TO.N,/Sheet 5/A0*%
G36*
X20825188Y19896573D02*
G01*
X20827859Y19892437D01*
X21065551Y19263655D01*
X21065271Y19254705D01*
X21059109Y19248719D01*
X20704499Y19100875D01*
X20695550Y19100855D01*
X20340889Y19248719D01*
X20334572Y19255066D01*
X20334448Y19263655D01*
X20572141Y19892437D01*
X20578272Y19898964D01*
X20583085Y19900000D01*
X20816915Y19900000D01*
X20825188Y19896573D01*
G37*
%TD.AperFunction*%
%TD*%
%TA.AperFunction,Conductor*%
%TO.N,/Sheet 5/A0*%
G36*
X20704502Y19099123D02*
G01*
X21059109Y18951280D01*
X21065427Y18944933D01*
X21065551Y18936344D01*
X20827859Y18307563D01*
X20821728Y18301036D01*
X20816915Y18300000D01*
X20583085Y18300000D01*
X20574812Y18303427D01*
X20572141Y18307563D01*
X20334448Y18936345D01*
X20334728Y18945294D01*
X20340890Y18951280D01*
X20695498Y19099123D01*
X20704452Y19099144D01*
X20704502Y19099123D01*
G37*
%TD.AperFunction*%
%TD*%
%TA.AperFunction,Conductor*%
%TO.N,/Sheet 5/DX_N*%
G36*
X26425188Y22496573D02*
G01*
X26427859Y22492437D01*
X26665551Y21863655D01*
X26665271Y21854705D01*
X26659109Y21848719D01*
X26304499Y21700875D01*
X26295550Y21700855D01*
X25940889Y21848719D01*
X25934572Y21855066D01*
X25934448Y21863655D01*
X26172141Y22492437D01*
X26178272Y22498964D01*
X26183085Y22500000D01*
X26416915Y22500000D01*
X26425188Y22496573D01*
G37*
%TD.AperFunction*%
%TD*%
%TA.AperFunction,Conductor*%
%TO.N,/Sheet 5/DX_P*%
G36*
X27971980Y22301361D02*
G01*
X27975400Y22293503D01*
X27999571Y21612084D01*
X27996439Y21603694D01*
X27988293Y21599976D01*
X27987956Y21599969D01*
X27604874Y21599012D01*
X27596594Y21602418D01*
X27325261Y21874709D01*
X27321850Y21882989D01*
X27325137Y21891099D01*
X27721550Y22301219D01*
X27729764Y22304786D01*
X27729963Y22304788D01*
X27963707Y22304788D01*
X27971980Y22301361D01*
G37*
%TD.AperFunction*%
%TD*%
M02*
