%TF.GenerationSoftware,KiCad,Pcbnew,7.0.9*%
%TF.CreationDate,2024-02-15T22:31:25-05:00*%
%TF.ProjectId,pbm_driver4,70626d5f-6472-4697-9665-72342e6b6963,rev?*%
%TF.SameCoordinates,PX2625a0PY53ec60*%
%TF.FileFunction,Copper,L3,Inr*%
%TF.FilePolarity,Positive*%
%FSLAX46Y46*%
G04 Gerber Fmt 4.6, Leading zero omitted, Abs format (unit mm)*
G04 Created by KiCad (PCBNEW 7.0.9) date 2024-02-15 22:31:25*
%MOMM*%
%LPD*%
G01*
G04 APERTURE LIST*
%TA.AperFunction,ComponentPad*%
%ADD10R,1.700000X1.700000*%
%TD*%
%TA.AperFunction,ComponentPad*%
%ADD11O,1.700000X1.700000*%
%TD*%
%TA.AperFunction,ComponentPad*%
%ADD12C,7.330000*%
%TD*%
%TA.AperFunction,ViaPad*%
%ADD13C,0.800000*%
%TD*%
G04 APERTURE END LIST*
D10*
%TO.N,GND*%
%TO.C,J1*%
X3500000Y9500000D03*
D11*
%TO.N,+12V*%
X3500000Y12040000D03*
%TO.N,/DAC1*%
X6040000Y9500000D03*
%TO.N,/DAC2*%
X6040000Y12040000D03*
%TO.N,/SENSE1*%
X8580000Y9500000D03*
%TO.N,/SENSE2*%
X8580000Y12040000D03*
%TO.N,/SENSE3*%
X11120000Y9500000D03*
%TO.N,/SENSE4*%
X11120000Y12040000D03*
%TO.N,GND*%
X13660000Y9500000D03*
X13660000Y12040000D03*
%TO.N,/SEL1*%
X16200000Y9500000D03*
%TO.N,/SEL2*%
X16200000Y12040000D03*
%TO.N,/SEL3*%
X18740000Y9500000D03*
%TO.N,/SEL4*%
X18740000Y12040000D03*
%TO.N,GND*%
X21280000Y9500000D03*
X21280000Y12040000D03*
%TO.N,/I2C_SCL*%
X23820000Y9500000D03*
%TO.N,/I2C_SDA*%
X23820000Y12040000D03*
%TO.N,GND*%
X26360000Y9500000D03*
%TO.N,+3.3V*%
X26360000Y12040000D03*
%TD*%
D10*
%TO.N,GND*%
%TO.C,J2*%
X3500000Y59600000D03*
D11*
%TO.N,+12V*%
X6040000Y59600000D03*
%TO.N,/LED1*%
X8580000Y59600000D03*
%TO.N,+12V*%
X11120000Y59600000D03*
%TO.N,/LED2*%
X13660000Y59600000D03*
%TO.N,+12V*%
X16200000Y59600000D03*
%TO.N,/LED3*%
X18740000Y59600000D03*
%TO.N,+12V*%
X21280000Y59600000D03*
%TO.N,/LED4*%
X23820000Y59600000D03*
%TO.N,GND*%
X26360000Y59600000D03*
%TD*%
D12*
%TO.N,GND*%
%TO.C,H4*%
X26000000Y4000000D03*
%TD*%
%TO.N,GND*%
%TO.C,H3*%
X4000000Y4000000D03*
%TD*%
%TO.N,GND*%
%TO.C,H2*%
X26000000Y66000000D03*
%TD*%
%TO.N,GND*%
%TO.C,H1*%
X4000000Y66000000D03*
%TD*%
D13*
%TO.N,+12V*%
X8700000Y28400000D03*
X22700000Y28400000D03*
%TO.N,GND*%
X4900000Y30200000D03*
X10900000Y30200000D03*
X15000000Y52500000D03*
X14900000Y26000000D03*
X17900000Y30200000D03*
X11900000Y30200000D03*
X3900000Y30200000D03*
X18100000Y61400000D03*
X28600000Y25800000D03*
X21300000Y24600000D03*
X2900000Y30200000D03*
X1800000Y25700000D03*
X9000000Y57800000D03*
X18200000Y57800000D03*
X23300000Y57800000D03*
X13600000Y57800000D03*
X14000000Y18100000D03*
X24450500Y15600000D03*
X9900000Y30200000D03*
X24900000Y30200000D03*
X10000000Y61400000D03*
X25900000Y30200000D03*
X18900000Y30200000D03*
X7300000Y24600000D03*
X16900000Y30200000D03*
X14000000Y61400000D03*
X23900000Y30200000D03*
X22100000Y61400000D03*
X21800000Y23700000D03*
%TO.N,+3.3V*%
X16400000Y18800000D03*
X28900000Y19600000D03*
X21800000Y14800000D03*
X26600000Y15600000D03*
%TO.N,/LED1*%
X6000000Y46300000D03*
X4400000Y46300000D03*
X2800000Y46300000D03*
%TO.N,/LED2*%
X11500000Y46300000D03*
X13100000Y46300000D03*
X9900000Y46300000D03*
%TO.N,/LED3*%
X18700000Y46300000D03*
X17100000Y46300000D03*
X20300000Y46300000D03*
%TO.N,/LED4*%
X25500000Y46300000D03*
X23900000Y46300000D03*
X27100000Y46300000D03*
%TO.N,/SENSE1*%
X3565000Y27135000D03*
%TO.N,/SENSE2*%
X12300000Y25800000D03*
%TO.N,/SENSE3*%
X16665000Y27135000D03*
%TO.N,/SENSE4*%
X19200000Y23100000D03*
%TO.N,/DAC1*%
X4900000Y17700000D03*
%TO.N,/SEL3*%
X18100000Y21900000D03*
%TO.N,/SEL2*%
X12300000Y22000000D03*
%TO.N,/DAC2*%
X14100000Y19400000D03*
X16300000Y17500000D03*
X6100000Y19000000D03*
%TO.N,/Sheet 5/A1*%
X22900000Y19162299D03*
%TO.N,/Sheet 5/A0*%
X20700000Y19100000D03*
%TO.N,/Sheet 5/DX_N*%
X26300000Y21700000D03*
X14300000Y47900000D03*
%TO.N,/Sheet 5/DX_P*%
X27600000Y21600000D03*
X15700000Y47900000D03*
%TD*%
%TA.AperFunction,Conductor*%
%TO.N,+12V*%
G36*
X23586138Y69480315D02*
G01*
X23631893Y69427511D01*
X23641837Y69358353D01*
X23612812Y69294797D01*
X23592969Y69276405D01*
X23417764Y69146464D01*
X23417760Y69146460D01*
X23417758Y69146459D01*
X23121789Y68878210D01*
X22853540Y68582241D01*
X22853537Y68582237D01*
X22853536Y68582236D01*
X22694727Y68368107D01*
X22615582Y68261392D01*
X22410226Y67918778D01*
X22239438Y67557676D01*
X22239430Y67557656D01*
X22104870Y67181586D01*
X22007810Y66794102D01*
X22007809Y66794097D01*
X22007809Y66794096D01*
X21949197Y66398969D01*
X21929597Y66000000D01*
X21949197Y65601031D01*
X21949197Y65601025D01*
X21949198Y65601021D01*
X22007810Y65205897D01*
X22104870Y64818413D01*
X22239430Y64442343D01*
X22239438Y64442323D01*
X22410226Y64081221D01*
X22615582Y63738607D01*
X22853540Y63417758D01*
X23121789Y63121789D01*
X23417758Y62853540D01*
X23738607Y62615582D01*
X24081221Y62410226D01*
X24442323Y62239438D01*
X24442343Y62239430D01*
X24818413Y62104870D01*
X24818421Y62104867D01*
X24818424Y62104867D01*
X24913400Y62081076D01*
X25205897Y62007810D01*
X25601021Y61949198D01*
X25601025Y61949197D01*
X25601031Y61949197D01*
X26000000Y61929597D01*
X26398969Y61949197D01*
X26398974Y61949197D01*
X26398978Y61949198D01*
X26696453Y61993325D01*
X26794096Y62007809D01*
X26794097Y62007809D01*
X26794102Y62007810D01*
X26989350Y62056717D01*
X27181576Y62104867D01*
X27181580Y62104868D01*
X27181586Y62104870D01*
X27557656Y62239430D01*
X27557676Y62239438D01*
X27918778Y62410226D01*
X28261392Y62615582D01*
X28582241Y62853540D01*
X28878210Y63121789D01*
X29146459Y63417758D01*
X29146460Y63417760D01*
X29146464Y63417764D01*
X29276402Y63592965D01*
X29332149Y63635085D01*
X29401817Y63640381D01*
X29463289Y63607169D01*
X29497047Y63545996D01*
X29500000Y63519098D01*
X29500000Y23829500D01*
X29480315Y23762461D01*
X29427511Y23716706D01*
X29376000Y23705500D01*
X22513703Y23705500D01*
X22446664Y23725185D01*
X22400909Y23777989D01*
X22390764Y23813314D01*
X22388633Y23829500D01*
X22385044Y23856762D01*
X22324536Y24002841D01*
X22228282Y24128282D01*
X22102841Y24224536D01*
X21956762Y24285044D01*
X21956760Y24285044D01*
X21954178Y24286114D01*
X21899774Y24329955D01*
X21877709Y24396249D01*
X21884688Y24434915D01*
X21882940Y24435384D01*
X21885043Y24443234D01*
X21885043Y24443236D01*
X21885044Y24443238D01*
X21905682Y24600000D01*
X21885044Y24756762D01*
X21824536Y24902841D01*
X21728282Y25028282D01*
X21602841Y25124536D01*
X21456762Y25185044D01*
X21352254Y25198802D01*
X21300001Y25205682D01*
X21299999Y25205682D01*
X21221619Y25195363D01*
X21143238Y25185044D01*
X20997159Y25124536D01*
X20871718Y25028282D01*
X20775464Y24902841D01*
X20775463Y24902839D01*
X20714956Y24756762D01*
X20714955Y24756760D01*
X20694318Y24600001D01*
X20694318Y24599998D01*
X20714955Y24443239D01*
X20714956Y24443237D01*
X20775463Y24297160D01*
X20871718Y24171718D01*
X20997160Y24075463D01*
X21145822Y24013885D01*
X21200226Y23970044D01*
X21222290Y23903749D01*
X21215315Y23865080D01*
X21217060Y23864613D01*
X21214956Y23856761D01*
X21209236Y23813314D01*
X21180969Y23749418D01*
X21122645Y23710947D01*
X21086297Y23705500D01*
X19863449Y23705500D01*
X19850630Y23704698D01*
X19813593Y23700046D01*
X19775836Y23687104D01*
X19734348Y23672883D01*
X19734344Y23672881D01*
X19674268Y23637237D01*
X19674267Y23637236D01*
X19674257Y23637230D01*
X19655574Y23624538D01*
X19648657Y23619839D01*
X19582141Y23598451D01*
X19514621Y23616420D01*
X19503498Y23624031D01*
X19502841Y23624536D01*
X19356762Y23685044D01*
X19231857Y23701488D01*
X19200001Y23705682D01*
X19199999Y23705682D01*
X19135367Y23697173D01*
X19043238Y23685044D01*
X18897159Y23624536D01*
X18897158Y23624535D01*
X18896342Y23623909D01*
X18895525Y23623593D01*
X18890119Y23620472D01*
X18889632Y23621314D01*
X18831174Y23598711D01*
X18762728Y23612747D01*
X18742333Y23627987D01*
X18741927Y23627456D01*
X18734887Y23632838D01*
X18734883Y23632843D01*
X18655066Y23677490D01*
X18588027Y23697175D01*
X18530129Y23705500D01*
X12545858Y23705500D01*
X12534866Y23704911D01*
X12534857Y23704910D01*
X12534856Y23704910D01*
X12534855Y23704910D01*
X12523343Y23703671D01*
X12503035Y23701488D01*
X12426518Y23677529D01*
X12426516Y23677528D01*
X12426443Y23677488D01*
X12365195Y23644044D01*
X12365189Y23644039D01*
X12365188Y23644039D01*
X12326250Y23614889D01*
X12318371Y23608991D01*
X12318363Y23608983D01*
X10387114Y21677734D01*
X10387112Y21677731D01*
X10379763Y21669552D01*
X10379764Y21669554D01*
X10359674Y21644623D01*
X10322509Y21573575D01*
X10302826Y21506543D01*
X10302825Y21506536D01*
X10294500Y21448638D01*
X10294500Y19400000D01*
X10294500Y18100000D01*
X10294500Y17500000D01*
X10294500Y15600000D01*
X10294500Y13106634D01*
X10294549Y13106077D01*
X10297605Y13071047D01*
X10297606Y13071042D01*
X10297606Y13071041D01*
X10305041Y13028754D01*
X10305438Y13026558D01*
X10341833Y12942657D01*
X10360372Y12917427D01*
X10384203Y12851747D01*
X10368742Y12783610D01*
X10356299Y12765342D01*
X10271505Y12662019D01*
X10242315Y12626450D01*
X10144768Y12443954D01*
X10129479Y12393553D01*
X10084699Y12245932D01*
X10064417Y12040000D01*
X10084699Y11834067D01*
X10144769Y11636043D01*
X10242317Y11453547D01*
X10354518Y11316829D01*
X10381830Y11252519D01*
X10370039Y11183652D01*
X10366884Y11177631D01*
X10322511Y11098305D01*
X10322509Y11098300D01*
X10312664Y11064769D01*
X10302825Y11031263D01*
X10294500Y10973365D01*
X10294500Y10566634D01*
X10297605Y10531047D01*
X10297606Y10531043D01*
X10297606Y10531042D01*
X10305041Y10488754D01*
X10305438Y10486558D01*
X10341833Y10402657D01*
X10360372Y10377427D01*
X10384203Y10311747D01*
X10368742Y10243610D01*
X10356299Y10225342D01*
X10271505Y10122019D01*
X10242315Y10086450D01*
X10151502Y9916554D01*
X10144769Y9903956D01*
X10084699Y9705932D01*
X10064417Y9500000D01*
X10084699Y9294067D01*
X10144769Y9096043D01*
X10242317Y8913547D01*
X10354518Y8776829D01*
X10381830Y8712519D01*
X10370039Y8643652D01*
X10366884Y8637631D01*
X10322511Y8558305D01*
X10322509Y8558300D01*
X10306990Y8505447D01*
X10302825Y8491263D01*
X10294500Y8433365D01*
X10294500Y8433361D01*
X10294500Y8323992D01*
X10299197Y8280313D01*
X10310402Y8228807D01*
X10312889Y8218629D01*
X10312891Y8218624D01*
X10355899Y8137916D01*
X10355901Y8137913D01*
X10394607Y8093244D01*
X10401655Y8085111D01*
X10419243Y8067159D01*
X10419249Y8067154D01*
X10499059Y8022511D01*
X10499064Y8022509D01*
X10566096Y8002826D01*
X10566101Y8002825D01*
X10566102Y8002825D01*
X10624000Y7994500D01*
X10624004Y7994500D01*
X11082345Y7994500D01*
X11091972Y7994951D01*
X11091973Y7994951D01*
X11118029Y7997401D01*
X11147273Y7996684D01*
X11162465Y7994500D01*
X11162471Y7994500D01*
X13622345Y7994500D01*
X13631972Y7994951D01*
X13631973Y7994951D01*
X13658029Y7997401D01*
X13687273Y7996684D01*
X13702465Y7994500D01*
X13702471Y7994500D01*
X16162345Y7994500D01*
X16171972Y7994951D01*
X16171973Y7994951D01*
X16198029Y7997401D01*
X16227273Y7996684D01*
X16242465Y7994500D01*
X16242471Y7994500D01*
X18702345Y7994500D01*
X18711972Y7994951D01*
X18711973Y7994951D01*
X18738029Y7997401D01*
X18767273Y7996684D01*
X18782465Y7994500D01*
X18782471Y7994500D01*
X21242345Y7994500D01*
X21251972Y7994951D01*
X21251973Y7994951D01*
X21278029Y7997401D01*
X21307273Y7996684D01*
X21322465Y7994500D01*
X21322471Y7994500D01*
X23782345Y7994500D01*
X23791972Y7994951D01*
X23791973Y7994951D01*
X23818029Y7997401D01*
X23847273Y7996684D01*
X23862465Y7994500D01*
X23862471Y7994500D01*
X24384748Y7994500D01*
X24451787Y7974815D01*
X24497542Y7922011D01*
X24507486Y7852853D01*
X24478461Y7789297D01*
X24437767Y7758407D01*
X24081225Y7589775D01*
X23738605Y7384416D01*
X23417764Y7146464D01*
X23417760Y7146460D01*
X23417758Y7146459D01*
X23121789Y6878210D01*
X22853540Y6582241D01*
X22853537Y6582237D01*
X22853536Y6582236D01*
X22694727Y6368107D01*
X22615582Y6261392D01*
X22410226Y5918778D01*
X22239438Y5557676D01*
X22239430Y5557656D01*
X22104870Y5181587D01*
X22007810Y4794103D01*
X22007809Y4794096D01*
X21949197Y4398969D01*
X21929597Y4000000D01*
X21949197Y3601031D01*
X21949197Y3601026D01*
X21949198Y3601022D01*
X22007810Y3205898D01*
X22104870Y2818414D01*
X22239430Y2442344D01*
X22239438Y2442324D01*
X22410226Y2081222D01*
X22615582Y1738608D01*
X22615584Y1738605D01*
X22728661Y1586138D01*
X22853540Y1417759D01*
X23121789Y1121790D01*
X23417758Y853541D01*
X23417764Y853536D01*
X23592967Y723597D01*
X23635086Y667852D01*
X23640382Y598183D01*
X23607171Y536711D01*
X23545998Y502953D01*
X23519099Y500000D01*
X6480901Y500000D01*
X6413862Y519685D01*
X6368107Y572489D01*
X6358163Y641647D01*
X6387188Y705203D01*
X6407030Y723595D01*
X6582236Y853536D01*
X6878210Y1121790D01*
X7146464Y1417764D01*
X7384416Y1738605D01*
X7589775Y2081225D01*
X7760562Y2442324D01*
X7895133Y2818424D01*
X7992191Y3205904D01*
X8050803Y3601031D01*
X8070403Y4000000D01*
X8050803Y4398969D01*
X7992191Y4794096D01*
X7895133Y5181576D01*
X7760562Y5557676D01*
X7589775Y5918775D01*
X7384416Y6261395D01*
X7146464Y6582236D01*
X6878210Y6878210D01*
X6582236Y7146464D01*
X6261395Y7384416D01*
X5918775Y7589775D01*
X5557676Y7760562D01*
X5181576Y7895133D01*
X4794096Y7992191D01*
X4398969Y8050803D01*
X4000000Y8070403D01*
X3601031Y8050803D01*
X3205904Y7992191D01*
X2818424Y7895133D01*
X2818413Y7895129D01*
X2442343Y7760569D01*
X2442338Y7760567D01*
X2442324Y7760562D01*
X2081225Y7589775D01*
X2081221Y7589773D01*
X1852811Y7452869D01*
X1738605Y7384416D01*
X1417764Y7146464D01*
X1417760Y7146460D01*
X1417758Y7146459D01*
X1121789Y6878210D01*
X853540Y6582241D01*
X853537Y6582237D01*
X853536Y6582236D01*
X723596Y6407032D01*
X667852Y6364914D01*
X598183Y6359618D01*
X536711Y6392829D01*
X502953Y6454002D01*
X500000Y6480901D01*
X500000Y12039998D01*
X2144843Y12039998D01*
X2165430Y11804684D01*
X2165432Y11804673D01*
X2226566Y11576516D01*
X2226570Y11576507D01*
X2326402Y11362417D01*
X2385072Y11278626D01*
X2385073Y11278625D01*
X3016923Y11910475D01*
X3040507Y11830156D01*
X3118239Y11709202D01*
X3226900Y11615048D01*
X3357685Y11555320D01*
X3367466Y11553913D01*
X2738625Y10925073D01*
X2738626Y10925072D01*
X2822417Y10866402D01*
X2992948Y10786882D01*
X3045387Y10740710D01*
X3064539Y10673516D01*
X3044323Y10606635D01*
X2991158Y10561300D01*
X2940543Y10550500D01*
X2630249Y10550500D01*
X2630247Y10550499D01*
X2571770Y10538868D01*
X2571769Y10538867D01*
X2505447Y10494552D01*
X2461132Y10428230D01*
X2461131Y10428229D01*
X2449500Y10369752D01*
X2449500Y8630247D01*
X2461131Y8571770D01*
X2461132Y8571769D01*
X2505447Y8505447D01*
X2571769Y8461132D01*
X2571770Y8461131D01*
X2630247Y8449500D01*
X2630252Y8449500D01*
X4369752Y8449500D01*
X4428229Y8461131D01*
X4428230Y8461132D01*
X4494552Y8505447D01*
X4538867Y8571769D01*
X4538868Y8571770D01*
X4550499Y8630247D01*
X4550500Y8630249D01*
X4550500Y9500000D01*
X4984417Y9500000D01*
X5004699Y9294067D01*
X5064769Y9096043D01*
X5162317Y8913547D01*
X5293589Y8753589D01*
X5453547Y8622317D01*
X5453548Y8622316D01*
X5453550Y8622315D01*
X5525898Y8583643D01*
X5636043Y8524769D01*
X5834069Y8464699D01*
X5834065Y8464699D01*
X6040000Y8444417D01*
X6245932Y8464699D01*
X6380260Y8505447D01*
X6443954Y8524768D01*
X6626450Y8622315D01*
X6668677Y8656969D01*
X6786410Y8753589D01*
X6865702Y8850209D01*
X6917685Y8913550D01*
X7015232Y9096046D01*
X7075300Y9294066D01*
X7095583Y9500000D01*
X7524417Y9500000D01*
X7544699Y9294067D01*
X7604769Y9096043D01*
X7702317Y8913547D01*
X7833589Y8753589D01*
X7993547Y8622317D01*
X7993548Y8622316D01*
X7993550Y8622315D01*
X8065898Y8583643D01*
X8176043Y8524769D01*
X8374069Y8464699D01*
X8374065Y8464699D01*
X8580000Y8444417D01*
X8785932Y8464699D01*
X8920260Y8505447D01*
X8983954Y8524768D01*
X9166450Y8622315D01*
X9208677Y8656969D01*
X9326410Y8753589D01*
X9405702Y8850209D01*
X9457685Y8913550D01*
X9555232Y9096046D01*
X9615300Y9294066D01*
X9635583Y9500000D01*
X9615300Y9705934D01*
X9555232Y9903954D01*
X9457685Y10086450D01*
X9326410Y10246410D01*
X9166450Y10377685D01*
X8983954Y10475232D01*
X8785934Y10535300D01*
X8580000Y10555583D01*
X8374066Y10535300D01*
X8176046Y10475232D01*
X7993550Y10377685D01*
X7931842Y10327043D01*
X7833589Y10246410D01*
X7736969Y10128677D01*
X7702315Y10086450D01*
X7611502Y9916554D01*
X7604769Y9903956D01*
X7544699Y9705932D01*
X7524417Y9500000D01*
X7095583Y9500000D01*
X7075300Y9705934D01*
X7015232Y9903954D01*
X6917685Y10086450D01*
X6786410Y10246410D01*
X6626450Y10377685D01*
X6443954Y10475232D01*
X6245934Y10535300D01*
X6040000Y10555583D01*
X5834066Y10535300D01*
X5636046Y10475232D01*
X5453550Y10377685D01*
X5391842Y10327043D01*
X5293589Y10246410D01*
X5196969Y10128677D01*
X5162315Y10086450D01*
X5071502Y9916554D01*
X5064769Y9903956D01*
X5004699Y9705932D01*
X4984417Y9500000D01*
X4550500Y9500000D01*
X4550500Y10369750D01*
X4550499Y10369752D01*
X4548972Y10377427D01*
X4543954Y10402657D01*
X4538868Y10428229D01*
X4538867Y10428230D01*
X4538867Y10428231D01*
X4494552Y10494552D01*
X4428231Y10538867D01*
X4428229Y10538867D01*
X4428229Y10538868D01*
X4384568Y10547552D01*
X4369751Y10550499D01*
X4369751Y10550500D01*
X4369748Y10550500D01*
X4059457Y10550500D01*
X3992418Y10570185D01*
X3946663Y10622989D01*
X3936719Y10692147D01*
X3965744Y10755703D01*
X4007052Y10786882D01*
X4177579Y10866400D01*
X4177583Y10866402D01*
X4261373Y10925072D01*
X4261373Y10925073D01*
X3632533Y11553913D01*
X3642315Y11555320D01*
X3773100Y11615048D01*
X3881761Y11709202D01*
X3959493Y11830156D01*
X3983076Y11910475D01*
X4614925Y11278625D01*
X4673599Y11362421D01*
X4773429Y11576507D01*
X4773433Y11576516D01*
X4806158Y11698649D01*
X4842523Y11758310D01*
X4905369Y11788839D01*
X4974745Y11780545D01*
X5028623Y11736059D01*
X5044593Y11702552D01*
X5064767Y11636046D01*
X5162317Y11453547D01*
X5293589Y11293589D01*
X5453547Y11162317D01*
X5453548Y11162316D01*
X5453550Y11162315D01*
X5525898Y11123643D01*
X5636043Y11064769D01*
X5834069Y11004699D01*
X5834065Y11004699D01*
X6040000Y10984417D01*
X6245932Y11004699D01*
X6344944Y11034734D01*
X6443954Y11064768D01*
X6626450Y11162315D01*
X6668677Y11196969D01*
X6786410Y11293589D01*
X6865702Y11390209D01*
X6917685Y11453550D01*
X7015232Y11636046D01*
X7075300Y11834066D01*
X7095583Y12040000D01*
X7524417Y12040000D01*
X7544699Y11834067D01*
X7604769Y11636043D01*
X7702317Y11453547D01*
X7833589Y11293589D01*
X7993547Y11162317D01*
X7993548Y11162316D01*
X7993550Y11162315D01*
X8065898Y11123643D01*
X8176043Y11064769D01*
X8374069Y11004699D01*
X8374065Y11004699D01*
X8580000Y10984417D01*
X8785932Y11004699D01*
X8884944Y11034734D01*
X8983954Y11064768D01*
X9166450Y11162315D01*
X9208677Y11196969D01*
X9326410Y11293589D01*
X9405702Y11390209D01*
X9457685Y11453550D01*
X9555232Y11636046D01*
X9615300Y11834066D01*
X9635583Y12040000D01*
X9615300Y12245934D01*
X9555232Y12443954D01*
X9457685Y12626450D01*
X9326410Y12786410D01*
X9166450Y12917685D01*
X8983954Y13015232D01*
X8785934Y13075300D01*
X8580000Y13095583D01*
X8374066Y13075300D01*
X8176046Y13015232D01*
X7993550Y12917685D01*
X7931842Y12867043D01*
X7833589Y12786410D01*
X7736969Y12668677D01*
X7702315Y12626450D01*
X7604768Y12443954D01*
X7589479Y12393553D01*
X7544699Y12245932D01*
X7524417Y12040000D01*
X7095583Y12040000D01*
X7075300Y12245934D01*
X7015232Y12443954D01*
X6917685Y12626450D01*
X6786410Y12786410D01*
X6626450Y12917685D01*
X6443954Y13015232D01*
X6245934Y13075300D01*
X6040000Y13095583D01*
X5834066Y13075300D01*
X5636046Y13015232D01*
X5453550Y12917685D01*
X5391842Y12867043D01*
X5293589Y12786410D01*
X5196969Y12668677D01*
X5162315Y12626450D01*
X5064768Y12443954D01*
X5047801Y12388021D01*
X5044594Y12377448D01*
X5006296Y12319009D01*
X4942484Y12290553D01*
X4873417Y12301113D01*
X4821023Y12347337D01*
X4806158Y12381350D01*
X4773433Y12503483D01*
X4773429Y12503492D01*
X4673601Y12717575D01*
X4614925Y12801373D01*
X3983076Y12169524D01*
X3959493Y12249844D01*
X3881761Y12370798D01*
X3773100Y12464952D01*
X3642315Y12524680D01*
X3632533Y12526086D01*
X4261373Y13154925D01*
X4261373Y13154926D01*
X4177582Y13213598D01*
X4177578Y13213600D01*
X3963492Y13313429D01*
X3963483Y13313433D01*
X3735326Y13374567D01*
X3735315Y13374569D01*
X3500002Y13395157D01*
X3499998Y13395157D01*
X3264684Y13374569D01*
X3264673Y13374567D01*
X3036516Y13313433D01*
X3036507Y13313429D01*
X2822423Y13213600D01*
X2822421Y13213599D01*
X2738626Y13154925D01*
X2738625Y13154925D01*
X3367466Y12526086D01*
X3357685Y12524680D01*
X3226900Y12464952D01*
X3118239Y12370798D01*
X3040507Y12249844D01*
X3016923Y12169523D01*
X2385074Y12801373D01*
X2385073Y12801372D01*
X2326400Y12717578D01*
X2326399Y12717576D01*
X2226570Y12503492D01*
X2226566Y12503483D01*
X2165432Y12275326D01*
X2165430Y12275315D01*
X2144843Y12040001D01*
X2144843Y12039998D01*
X500000Y12039998D01*
X500000Y17699998D01*
X4294318Y17699998D01*
X4314955Y17543239D01*
X4314956Y17543237D01*
X4375463Y17397160D01*
X4471718Y17271718D01*
X4597160Y17175463D01*
X4743237Y17114956D01*
X4743239Y17114955D01*
X4899999Y17094318D01*
X4900000Y17094318D01*
X4900001Y17094318D01*
X5056760Y17114955D01*
X5056762Y17114956D01*
X5202839Y17175463D01*
X5202841Y17175464D01*
X5328282Y17271718D01*
X5424536Y17397159D01*
X5485044Y17543238D01*
X5505682Y17700000D01*
X5485044Y17856762D01*
X5424536Y18002841D01*
X5328282Y18128282D01*
X5202841Y18224536D01*
X5056762Y18285044D01*
X4952254Y18298802D01*
X4900001Y18305682D01*
X4899999Y18305682D01*
X4821619Y18295363D01*
X4743238Y18285044D01*
X4597159Y18224536D01*
X4471718Y18128282D01*
X4375464Y18002841D01*
X4375463Y18002839D01*
X4314956Y17856762D01*
X4314955Y17856760D01*
X4294318Y17700001D01*
X4294318Y17699998D01*
X500000Y17699998D01*
X500000Y18999998D01*
X5494318Y18999998D01*
X5514955Y18843239D01*
X5514956Y18843237D01*
X5575463Y18697160D01*
X5671718Y18571718D01*
X5797160Y18475463D01*
X5943237Y18414956D01*
X5943239Y18414955D01*
X6099999Y18394318D01*
X6100000Y18394318D01*
X6100001Y18394318D01*
X6256760Y18414955D01*
X6256762Y18414956D01*
X6402839Y18475463D01*
X6402841Y18475464D01*
X6528282Y18571718D01*
X6624536Y18697159D01*
X6685044Y18843238D01*
X6705682Y19000000D01*
X6685044Y19156762D01*
X6624536Y19302841D01*
X6528282Y19428282D01*
X6402841Y19524536D01*
X6256762Y19585044D01*
X6152254Y19598802D01*
X6100001Y19605682D01*
X6099999Y19605682D01*
X6021619Y19595363D01*
X5943238Y19585044D01*
X5797159Y19524536D01*
X5671718Y19428282D01*
X5575464Y19302841D01*
X5575463Y19302839D01*
X5514956Y19156762D01*
X5514955Y19156760D01*
X5494318Y19000001D01*
X5494318Y18999998D01*
X500000Y18999998D01*
X500000Y24599998D01*
X6694318Y24599998D01*
X6714955Y24443239D01*
X6714956Y24443237D01*
X6775463Y24297160D01*
X6871718Y24171718D01*
X6997160Y24075463D01*
X7143237Y24014956D01*
X7143239Y24014955D01*
X7299999Y23994318D01*
X7300000Y23994318D01*
X7300001Y23994318D01*
X7456760Y24014955D01*
X7456762Y24014956D01*
X7602839Y24075463D01*
X7602841Y24075464D01*
X7728282Y24171718D01*
X7824536Y24297159D01*
X7885044Y24443238D01*
X7905682Y24600000D01*
X7885044Y24756762D01*
X7824536Y24902841D01*
X7728282Y25028282D01*
X7602841Y25124536D01*
X7456762Y25185044D01*
X7352254Y25198802D01*
X7300001Y25205682D01*
X7299999Y25205682D01*
X7221619Y25195363D01*
X7143238Y25185044D01*
X6997159Y25124536D01*
X6871718Y25028282D01*
X6775464Y24902841D01*
X6775463Y24902839D01*
X6714956Y24756762D01*
X6714955Y24756760D01*
X6694318Y24600001D01*
X6694318Y24599998D01*
X500000Y24599998D01*
X500000Y25699998D01*
X1194318Y25699998D01*
X1214955Y25543239D01*
X1214956Y25543237D01*
X1275463Y25397160D01*
X1371718Y25271718D01*
X1497160Y25175463D01*
X1643237Y25114956D01*
X1643239Y25114955D01*
X1799999Y25094318D01*
X1800000Y25094318D01*
X1800001Y25094318D01*
X1956760Y25114955D01*
X1956762Y25114956D01*
X2102839Y25175463D01*
X2102841Y25175464D01*
X2228282Y25271718D01*
X2324536Y25397159D01*
X2385044Y25543238D01*
X2405682Y25700000D01*
X2392517Y25799998D01*
X11694318Y25799998D01*
X11714955Y25643239D01*
X11714956Y25643237D01*
X11775463Y25497160D01*
X11871718Y25371718D01*
X11997160Y25275463D01*
X12143237Y25214956D01*
X12143239Y25214955D01*
X12299999Y25194318D01*
X12300000Y25194318D01*
X12300001Y25194318D01*
X12456760Y25214955D01*
X12456762Y25214956D01*
X12602839Y25275463D01*
X12602841Y25275464D01*
X12728282Y25371718D01*
X12824536Y25497159D01*
X12885044Y25643238D01*
X12905682Y25800000D01*
X12885044Y25956762D01*
X12867135Y25999998D01*
X14294318Y25999998D01*
X14314955Y25843239D01*
X14314956Y25843237D01*
X14375463Y25697160D01*
X14471718Y25571718D01*
X14597160Y25475463D01*
X14743237Y25414956D01*
X14743239Y25414955D01*
X14899999Y25394318D01*
X14900000Y25394318D01*
X14900001Y25394318D01*
X15056760Y25414955D01*
X15056762Y25414956D01*
X15202839Y25475463D01*
X15202841Y25475464D01*
X15328282Y25571718D01*
X15424536Y25697159D01*
X15467133Y25799998D01*
X27994318Y25799998D01*
X28014955Y25643239D01*
X28014956Y25643237D01*
X28075463Y25497160D01*
X28171718Y25371718D01*
X28297160Y25275463D01*
X28443237Y25214956D01*
X28443239Y25214955D01*
X28599999Y25194318D01*
X28600000Y25194318D01*
X28600001Y25194318D01*
X28756760Y25214955D01*
X28756762Y25214956D01*
X28902839Y25275463D01*
X28902841Y25275464D01*
X29028282Y25371718D01*
X29124536Y25497159D01*
X29185044Y25643238D01*
X29205682Y25800000D01*
X29185044Y25956762D01*
X29124536Y26102841D01*
X29028282Y26228282D01*
X28902841Y26324536D01*
X28756762Y26385044D01*
X28652254Y26398802D01*
X28600001Y26405682D01*
X28599999Y26405682D01*
X28521619Y26395363D01*
X28443238Y26385044D01*
X28297159Y26324536D01*
X28171718Y26228282D01*
X28075464Y26102841D01*
X28075463Y26102839D01*
X28014956Y25956762D01*
X28014955Y25956760D01*
X27994318Y25800001D01*
X27994318Y25799998D01*
X15467133Y25799998D01*
X15485044Y25843238D01*
X15491923Y25895492D01*
X15505682Y25999998D01*
X15505682Y26000001D01*
X15492143Y26102841D01*
X15485044Y26156762D01*
X15424536Y26302841D01*
X15328282Y26428282D01*
X15202841Y26524536D01*
X15056762Y26585044D01*
X14952254Y26598802D01*
X14900001Y26605682D01*
X14899999Y26605682D01*
X14821619Y26595363D01*
X14743238Y26585044D01*
X14597159Y26524536D01*
X14471718Y26428282D01*
X14375464Y26302841D01*
X14375463Y26302839D01*
X14314956Y26156762D01*
X14314955Y26156760D01*
X14294318Y26000001D01*
X14294318Y25999998D01*
X12867135Y25999998D01*
X12824536Y26102841D01*
X12728282Y26228282D01*
X12602841Y26324536D01*
X12456762Y26385044D01*
X12352254Y26398802D01*
X12300001Y26405682D01*
X12299999Y26405682D01*
X12221619Y26395363D01*
X12143238Y26385044D01*
X11997159Y26324536D01*
X11871718Y26228282D01*
X11775464Y26102841D01*
X11775463Y26102839D01*
X11714956Y25956762D01*
X11714955Y25956760D01*
X11694318Y25800001D01*
X11694318Y25799998D01*
X2392517Y25799998D01*
X2385044Y25856762D01*
X2324536Y26002841D01*
X2228282Y26128282D01*
X2102841Y26224536D01*
X1956762Y26285044D01*
X1821580Y26302841D01*
X1800001Y26305682D01*
X1799999Y26305682D01*
X1721619Y26295363D01*
X1643238Y26285044D01*
X1497159Y26224536D01*
X1371718Y26128282D01*
X1275464Y26002841D01*
X1275463Y26002839D01*
X1214956Y25856762D01*
X1214955Y25856760D01*
X1194318Y25700001D01*
X1194318Y25699998D01*
X500000Y25699998D01*
X500000Y27134998D01*
X2959318Y27134998D01*
X2979955Y26978239D01*
X2979956Y26978237D01*
X3040463Y26832160D01*
X3136718Y26706718D01*
X3262160Y26610463D01*
X3408237Y26549956D01*
X3408239Y26549955D01*
X3564999Y26529318D01*
X3565000Y26529318D01*
X3565001Y26529318D01*
X3721760Y26549955D01*
X3721762Y26549956D01*
X3867839Y26610463D01*
X3867841Y26610464D01*
X3993282Y26706718D01*
X4089536Y26832159D01*
X4150044Y26978238D01*
X4170682Y27134998D01*
X16059318Y27134998D01*
X16079955Y26978239D01*
X16079956Y26978237D01*
X16140463Y26832160D01*
X16236718Y26706718D01*
X16362160Y26610463D01*
X16508237Y26549956D01*
X16508239Y26549955D01*
X16664999Y26529318D01*
X16665000Y26529318D01*
X16665001Y26529318D01*
X16821760Y26549955D01*
X16821762Y26549956D01*
X16967839Y26610463D01*
X16967841Y26610464D01*
X17093282Y26706718D01*
X17189536Y26832159D01*
X17250044Y26978238D01*
X17270682Y27135000D01*
X17250044Y27291762D01*
X17189536Y27437841D01*
X17093282Y27563282D01*
X16967841Y27659536D01*
X16821762Y27720044D01*
X16717254Y27733802D01*
X16665001Y27740682D01*
X16664999Y27740682D01*
X16586619Y27730363D01*
X16508238Y27720044D01*
X16362159Y27659536D01*
X16236718Y27563282D01*
X16140464Y27437841D01*
X16140463Y27437839D01*
X16079956Y27291762D01*
X16079955Y27291760D01*
X16059318Y27135001D01*
X16059318Y27134998D01*
X4170682Y27134998D01*
X4170682Y27135000D01*
X4150044Y27291762D01*
X4089536Y27437841D01*
X3993282Y27563282D01*
X3867841Y27659536D01*
X3721762Y27720044D01*
X3617254Y27733802D01*
X3565001Y27740682D01*
X3564999Y27740682D01*
X3486619Y27730363D01*
X3408238Y27720044D01*
X3262159Y27659536D01*
X3136718Y27563282D01*
X3040464Y27437841D01*
X3040463Y27437839D01*
X2979956Y27291762D01*
X2979955Y27291760D01*
X2959318Y27135001D01*
X2959318Y27134998D01*
X500000Y27134998D01*
X500000Y30199998D01*
X2294318Y30199998D01*
X2314955Y30043239D01*
X2314956Y30043237D01*
X2375463Y29897160D01*
X2471718Y29771718D01*
X2597160Y29675463D01*
X2743237Y29614956D01*
X2743239Y29614955D01*
X2899999Y29594318D01*
X2900000Y29594318D01*
X2900001Y29594318D01*
X3056760Y29614955D01*
X3056762Y29614956D01*
X3202842Y29675464D01*
X3324514Y29768826D01*
X3389683Y29794020D01*
X3458128Y29779981D01*
X3475486Y29768826D01*
X3597157Y29675464D01*
X3743237Y29614956D01*
X3743239Y29614955D01*
X3899999Y29594318D01*
X3900000Y29594318D01*
X3900001Y29594318D01*
X4056760Y29614955D01*
X4056762Y29614956D01*
X4202842Y29675464D01*
X4324514Y29768826D01*
X4389683Y29794020D01*
X4458128Y29779981D01*
X4475486Y29768826D01*
X4597157Y29675464D01*
X4743237Y29614956D01*
X4743239Y29614955D01*
X4899999Y29594318D01*
X4900000Y29594318D01*
X4900001Y29594318D01*
X5056760Y29614955D01*
X5056762Y29614956D01*
X5202839Y29675463D01*
X5202841Y29675464D01*
X5328282Y29771718D01*
X5424536Y29897159D01*
X5485044Y30043238D01*
X5505682Y30199998D01*
X9294318Y30199998D01*
X9314955Y30043239D01*
X9314956Y30043237D01*
X9375463Y29897160D01*
X9471718Y29771718D01*
X9597160Y29675463D01*
X9743237Y29614956D01*
X9743239Y29614955D01*
X9899999Y29594318D01*
X9900000Y29594318D01*
X9900001Y29594318D01*
X10056760Y29614955D01*
X10056762Y29614956D01*
X10202842Y29675464D01*
X10324514Y29768826D01*
X10389683Y29794020D01*
X10458128Y29779981D01*
X10475486Y29768826D01*
X10597157Y29675464D01*
X10743237Y29614956D01*
X10743239Y29614955D01*
X10899999Y29594318D01*
X10900000Y29594318D01*
X10900001Y29594318D01*
X11056760Y29614955D01*
X11056762Y29614956D01*
X11202842Y29675464D01*
X11324514Y29768826D01*
X11389683Y29794020D01*
X11458128Y29779981D01*
X11475486Y29768826D01*
X11597157Y29675464D01*
X11743237Y29614956D01*
X11743239Y29614955D01*
X11899999Y29594318D01*
X11900000Y29594318D01*
X11900001Y29594318D01*
X12056760Y29614955D01*
X12056762Y29614956D01*
X12202839Y29675463D01*
X12202841Y29675464D01*
X12328282Y29771718D01*
X12424536Y29897159D01*
X12485044Y30043238D01*
X12505682Y30199998D01*
X16294318Y30199998D01*
X16314955Y30043239D01*
X16314956Y30043237D01*
X16375463Y29897160D01*
X16471718Y29771718D01*
X16597160Y29675463D01*
X16743237Y29614956D01*
X16743239Y29614955D01*
X16899999Y29594318D01*
X16900000Y29594318D01*
X16900001Y29594318D01*
X17056760Y29614955D01*
X17056762Y29614956D01*
X17202842Y29675464D01*
X17324514Y29768826D01*
X17389683Y29794020D01*
X17458128Y29779981D01*
X17475486Y29768826D01*
X17597157Y29675464D01*
X17743237Y29614956D01*
X17743239Y29614955D01*
X17899999Y29594318D01*
X17900000Y29594318D01*
X17900001Y29594318D01*
X18056760Y29614955D01*
X18056762Y29614956D01*
X18202842Y29675464D01*
X18324514Y29768826D01*
X18389683Y29794020D01*
X18458128Y29779981D01*
X18475486Y29768826D01*
X18597157Y29675464D01*
X18743237Y29614956D01*
X18743239Y29614955D01*
X18899999Y29594318D01*
X18900000Y29594318D01*
X18900001Y29594318D01*
X19056760Y29614955D01*
X19056762Y29614956D01*
X19202839Y29675463D01*
X19202841Y29675464D01*
X19328282Y29771718D01*
X19424536Y29897159D01*
X19485044Y30043238D01*
X19505682Y30199998D01*
X23294318Y30199998D01*
X23314955Y30043239D01*
X23314956Y30043237D01*
X23375463Y29897160D01*
X23471718Y29771718D01*
X23597160Y29675463D01*
X23743237Y29614956D01*
X23743239Y29614955D01*
X23899999Y29594318D01*
X23900000Y29594318D01*
X23900001Y29594318D01*
X24056760Y29614955D01*
X24056762Y29614956D01*
X24202842Y29675464D01*
X24324514Y29768826D01*
X24389683Y29794020D01*
X24458128Y29779981D01*
X24475486Y29768826D01*
X24597157Y29675464D01*
X24743237Y29614956D01*
X24743239Y29614955D01*
X24899999Y29594318D01*
X24900000Y29594318D01*
X24900001Y29594318D01*
X25056760Y29614955D01*
X25056762Y29614956D01*
X25202842Y29675464D01*
X25324514Y29768826D01*
X25389683Y29794020D01*
X25458128Y29779981D01*
X25475486Y29768826D01*
X25597157Y29675464D01*
X25743237Y29614956D01*
X25743239Y29614955D01*
X25899999Y29594318D01*
X25900000Y29594318D01*
X25900001Y29594318D01*
X26056760Y29614955D01*
X26056762Y29614956D01*
X26202839Y29675463D01*
X26202841Y29675464D01*
X26328282Y29771718D01*
X26424536Y29897159D01*
X26485044Y30043238D01*
X26505682Y30200000D01*
X26485044Y30356762D01*
X26424536Y30502841D01*
X26328282Y30628282D01*
X26202841Y30724536D01*
X26056762Y30785044D01*
X25952254Y30798802D01*
X25900001Y30805682D01*
X25899999Y30805682D01*
X25821619Y30795363D01*
X25743238Y30785044D01*
X25597159Y30724536D01*
X25475484Y30631171D01*
X25410317Y30605979D01*
X25341873Y30620017D01*
X25324521Y30631167D01*
X25202841Y30724536D01*
X25056762Y30785044D01*
X24952254Y30798802D01*
X24900001Y30805682D01*
X24899999Y30805682D01*
X24821619Y30795363D01*
X24743238Y30785044D01*
X24597159Y30724536D01*
X24475484Y30631171D01*
X24410317Y30605979D01*
X24341873Y30620017D01*
X24324521Y30631167D01*
X24202841Y30724536D01*
X24056762Y30785044D01*
X23952254Y30798802D01*
X23900001Y30805682D01*
X23899999Y30805682D01*
X23821619Y30795363D01*
X23743238Y30785044D01*
X23597159Y30724536D01*
X23471718Y30628282D01*
X23375464Y30502841D01*
X23375463Y30502839D01*
X23314956Y30356762D01*
X23314955Y30356760D01*
X23294318Y30200001D01*
X23294318Y30199998D01*
X19505682Y30199998D01*
X19505682Y30200000D01*
X19485044Y30356762D01*
X19424536Y30502841D01*
X19328282Y30628282D01*
X19202841Y30724536D01*
X19056762Y30785044D01*
X18952254Y30798802D01*
X18900001Y30805682D01*
X18899999Y30805682D01*
X18821619Y30795363D01*
X18743238Y30785044D01*
X18597159Y30724536D01*
X18475484Y30631171D01*
X18410317Y30605979D01*
X18341873Y30620017D01*
X18324521Y30631167D01*
X18202841Y30724536D01*
X18056762Y30785044D01*
X17952254Y30798802D01*
X17900001Y30805682D01*
X17899999Y30805682D01*
X17821619Y30795363D01*
X17743238Y30785044D01*
X17597159Y30724536D01*
X17475484Y30631171D01*
X17410317Y30605979D01*
X17341873Y30620017D01*
X17324521Y30631167D01*
X17202841Y30724536D01*
X17056762Y30785044D01*
X16952254Y30798802D01*
X16900001Y30805682D01*
X16899999Y30805682D01*
X16821619Y30795363D01*
X16743238Y30785044D01*
X16597159Y30724536D01*
X16471718Y30628282D01*
X16375464Y30502841D01*
X16375463Y30502839D01*
X16314956Y30356762D01*
X16314955Y30356760D01*
X16294318Y30200001D01*
X16294318Y30199998D01*
X12505682Y30199998D01*
X12505682Y30200000D01*
X12485044Y30356762D01*
X12424536Y30502841D01*
X12328282Y30628282D01*
X12202841Y30724536D01*
X12056762Y30785044D01*
X11952254Y30798802D01*
X11900001Y30805682D01*
X11899999Y30805682D01*
X11821619Y30795363D01*
X11743238Y30785044D01*
X11597159Y30724536D01*
X11475484Y30631171D01*
X11410317Y30605979D01*
X11341873Y30620017D01*
X11324521Y30631167D01*
X11202841Y30724536D01*
X11056762Y30785044D01*
X10952254Y30798802D01*
X10900001Y30805682D01*
X10899999Y30805682D01*
X10821619Y30795363D01*
X10743238Y30785044D01*
X10597159Y30724536D01*
X10475484Y30631171D01*
X10410317Y30605979D01*
X10341873Y30620017D01*
X10324521Y30631167D01*
X10202841Y30724536D01*
X10056762Y30785044D01*
X9952254Y30798802D01*
X9900001Y30805682D01*
X9899999Y30805682D01*
X9821619Y30795363D01*
X9743238Y30785044D01*
X9597159Y30724536D01*
X9471718Y30628282D01*
X9375464Y30502841D01*
X9375463Y30502839D01*
X9314956Y30356762D01*
X9314955Y30356760D01*
X9294318Y30200001D01*
X9294318Y30199998D01*
X5505682Y30199998D01*
X5505682Y30200000D01*
X5485044Y30356762D01*
X5424536Y30502841D01*
X5328282Y30628282D01*
X5202841Y30724536D01*
X5056762Y30785044D01*
X4952254Y30798802D01*
X4900001Y30805682D01*
X4899999Y30805682D01*
X4821619Y30795363D01*
X4743238Y30785044D01*
X4597159Y30724536D01*
X4475484Y30631171D01*
X4410317Y30605979D01*
X4341873Y30620017D01*
X4324521Y30631167D01*
X4202841Y30724536D01*
X4056762Y30785044D01*
X3952254Y30798802D01*
X3900001Y30805682D01*
X3899999Y30805682D01*
X3821619Y30795363D01*
X3743238Y30785044D01*
X3597159Y30724536D01*
X3475484Y30631171D01*
X3410317Y30605979D01*
X3341873Y30620017D01*
X3324521Y30631167D01*
X3202841Y30724536D01*
X3056762Y30785044D01*
X2952254Y30798802D01*
X2900001Y30805682D01*
X2899999Y30805682D01*
X2821619Y30795363D01*
X2743238Y30785044D01*
X2597159Y30724536D01*
X2471718Y30628282D01*
X2375464Y30502841D01*
X2375463Y30502839D01*
X2314956Y30356762D01*
X2314955Y30356760D01*
X2294318Y30200001D01*
X2294318Y30199998D01*
X500000Y30199998D01*
X500000Y46299998D01*
X2194318Y46299998D01*
X2214955Y46143239D01*
X2214956Y46143237D01*
X2275463Y45997160D01*
X2371718Y45871718D01*
X2497160Y45775463D01*
X2643237Y45714956D01*
X2643239Y45714955D01*
X2799999Y45694318D01*
X2800000Y45694318D01*
X2800001Y45694318D01*
X2956760Y45714955D01*
X2956762Y45714956D01*
X3102839Y45775463D01*
X3102841Y45775464D01*
X3228282Y45871718D01*
X3324536Y45997159D01*
X3385044Y46143238D01*
X3405682Y46299998D01*
X3794318Y46299998D01*
X3814955Y46143239D01*
X3814956Y46143237D01*
X3875463Y45997160D01*
X3971718Y45871718D01*
X4097160Y45775463D01*
X4243237Y45714956D01*
X4243239Y45714955D01*
X4399999Y45694318D01*
X4400000Y45694318D01*
X4400001Y45694318D01*
X4556760Y45714955D01*
X4556762Y45714956D01*
X4702839Y45775463D01*
X4702841Y45775464D01*
X4828282Y45871718D01*
X4924536Y45997159D01*
X4985044Y46143238D01*
X5005682Y46299998D01*
X5394318Y46299998D01*
X5414955Y46143239D01*
X5414956Y46143237D01*
X5475463Y45997160D01*
X5571718Y45871718D01*
X5697160Y45775463D01*
X5843237Y45714956D01*
X5843239Y45714955D01*
X5999999Y45694318D01*
X6000000Y45694318D01*
X6000001Y45694318D01*
X6156760Y45714955D01*
X6156762Y45714956D01*
X6302839Y45775463D01*
X6302841Y45775464D01*
X6428282Y45871718D01*
X6524536Y45997159D01*
X6585044Y46143238D01*
X6605682Y46299998D01*
X9294318Y46299998D01*
X9314955Y46143239D01*
X9314956Y46143237D01*
X9375463Y45997160D01*
X9471718Y45871718D01*
X9597160Y45775463D01*
X9743237Y45714956D01*
X9743239Y45714955D01*
X9899999Y45694318D01*
X9900000Y45694318D01*
X9900001Y45694318D01*
X10056760Y45714955D01*
X10056762Y45714956D01*
X10202839Y45775463D01*
X10202841Y45775464D01*
X10328282Y45871718D01*
X10424536Y45997159D01*
X10485044Y46143238D01*
X10505682Y46299998D01*
X10894318Y46299998D01*
X10914955Y46143239D01*
X10914956Y46143237D01*
X10975463Y45997160D01*
X11071718Y45871718D01*
X11197160Y45775463D01*
X11343237Y45714956D01*
X11343239Y45714955D01*
X11499999Y45694318D01*
X11500000Y45694318D01*
X11500001Y45694318D01*
X11656760Y45714955D01*
X11656762Y45714956D01*
X11802839Y45775463D01*
X11802841Y45775464D01*
X11928282Y45871718D01*
X12024536Y45997159D01*
X12085044Y46143238D01*
X12105682Y46299998D01*
X12494318Y46299998D01*
X12514955Y46143239D01*
X12514956Y46143237D01*
X12575463Y45997160D01*
X12671718Y45871718D01*
X12797160Y45775463D01*
X12943237Y45714956D01*
X12943239Y45714955D01*
X13099999Y45694318D01*
X13100000Y45694318D01*
X13100001Y45694318D01*
X13256760Y45714955D01*
X13256762Y45714956D01*
X13402839Y45775463D01*
X13402841Y45775464D01*
X13528282Y45871718D01*
X13624536Y45997159D01*
X13685044Y46143238D01*
X13705682Y46299998D01*
X16494318Y46299998D01*
X16514955Y46143239D01*
X16514956Y46143237D01*
X16575463Y45997160D01*
X16671718Y45871718D01*
X16797160Y45775463D01*
X16943237Y45714956D01*
X16943239Y45714955D01*
X17099999Y45694318D01*
X17100000Y45694318D01*
X17100001Y45694318D01*
X17256760Y45714955D01*
X17256762Y45714956D01*
X17402839Y45775463D01*
X17402841Y45775464D01*
X17528282Y45871718D01*
X17624536Y45997159D01*
X17685044Y46143238D01*
X17705682Y46299998D01*
X18094318Y46299998D01*
X18114955Y46143239D01*
X18114956Y46143237D01*
X18175463Y45997160D01*
X18271718Y45871718D01*
X18397160Y45775463D01*
X18543237Y45714956D01*
X18543239Y45714955D01*
X18699999Y45694318D01*
X18700000Y45694318D01*
X18700001Y45694318D01*
X18856760Y45714955D01*
X18856762Y45714956D01*
X19002839Y45775463D01*
X19002841Y45775464D01*
X19128282Y45871718D01*
X19224536Y45997159D01*
X19285044Y46143238D01*
X19305682Y46299998D01*
X19694318Y46299998D01*
X19714955Y46143239D01*
X19714956Y46143237D01*
X19775463Y45997160D01*
X19871718Y45871718D01*
X19997160Y45775463D01*
X20143237Y45714956D01*
X20143239Y45714955D01*
X20299999Y45694318D01*
X20300000Y45694318D01*
X20300001Y45694318D01*
X20456760Y45714955D01*
X20456762Y45714956D01*
X20602839Y45775463D01*
X20602841Y45775464D01*
X20728282Y45871718D01*
X20824536Y45997159D01*
X20885044Y46143238D01*
X20905682Y46299998D01*
X23294318Y46299998D01*
X23314955Y46143239D01*
X23314956Y46143237D01*
X23375463Y45997160D01*
X23471718Y45871718D01*
X23597160Y45775463D01*
X23743237Y45714956D01*
X23743239Y45714955D01*
X23899999Y45694318D01*
X23900000Y45694318D01*
X23900001Y45694318D01*
X24056760Y45714955D01*
X24056762Y45714956D01*
X24202839Y45775463D01*
X24202841Y45775464D01*
X24328282Y45871718D01*
X24424536Y45997159D01*
X24485044Y46143238D01*
X24505682Y46299998D01*
X24894318Y46299998D01*
X24914955Y46143239D01*
X24914956Y46143237D01*
X24975463Y45997160D01*
X25071718Y45871718D01*
X25197160Y45775463D01*
X25343237Y45714956D01*
X25343239Y45714955D01*
X25499999Y45694318D01*
X25500000Y45694318D01*
X25500001Y45694318D01*
X25656760Y45714955D01*
X25656762Y45714956D01*
X25802839Y45775463D01*
X25802841Y45775464D01*
X25928282Y45871718D01*
X26024536Y45997159D01*
X26085044Y46143238D01*
X26105682Y46299998D01*
X26494318Y46299998D01*
X26514955Y46143239D01*
X26514956Y46143237D01*
X26575463Y45997160D01*
X26671718Y45871718D01*
X26797160Y45775463D01*
X26943237Y45714956D01*
X26943239Y45714955D01*
X27099999Y45694318D01*
X27100000Y45694318D01*
X27100001Y45694318D01*
X27256760Y45714955D01*
X27256762Y45714956D01*
X27402839Y45775463D01*
X27402841Y45775464D01*
X27528282Y45871718D01*
X27624536Y45997159D01*
X27685044Y46143238D01*
X27705682Y46300000D01*
X27685044Y46456762D01*
X27624536Y46602841D01*
X27528282Y46728282D01*
X27402841Y46824536D01*
X27256762Y46885044D01*
X27152254Y46898802D01*
X27100001Y46905682D01*
X27099999Y46905682D01*
X27021619Y46895363D01*
X26943238Y46885044D01*
X26797159Y46824536D01*
X26671718Y46728282D01*
X26575464Y46602841D01*
X26575463Y46602839D01*
X26514956Y46456762D01*
X26514955Y46456760D01*
X26494318Y46300001D01*
X26494318Y46299998D01*
X26105682Y46299998D01*
X26105682Y46300000D01*
X26085044Y46456762D01*
X26024536Y46602841D01*
X25928282Y46728282D01*
X25802841Y46824536D01*
X25656762Y46885044D01*
X25552254Y46898802D01*
X25500001Y46905682D01*
X25499999Y46905682D01*
X25421619Y46895363D01*
X25343238Y46885044D01*
X25197159Y46824536D01*
X25071718Y46728282D01*
X24975464Y46602841D01*
X24975463Y46602839D01*
X24914956Y46456762D01*
X24914955Y46456760D01*
X24894318Y46300001D01*
X24894318Y46299998D01*
X24505682Y46299998D01*
X24505682Y46300000D01*
X24485044Y46456762D01*
X24424536Y46602841D01*
X24328282Y46728282D01*
X24202841Y46824536D01*
X24056762Y46885044D01*
X23952254Y46898802D01*
X23900001Y46905682D01*
X23899999Y46905682D01*
X23821619Y46895363D01*
X23743238Y46885044D01*
X23597159Y46824536D01*
X23471718Y46728282D01*
X23375464Y46602841D01*
X23375463Y46602839D01*
X23314956Y46456762D01*
X23314955Y46456760D01*
X23294318Y46300001D01*
X23294318Y46299998D01*
X20905682Y46299998D01*
X20905682Y46300000D01*
X20885044Y46456762D01*
X20824536Y46602841D01*
X20728282Y46728282D01*
X20602841Y46824536D01*
X20456762Y46885044D01*
X20352254Y46898802D01*
X20300001Y46905682D01*
X20299999Y46905682D01*
X20221619Y46895363D01*
X20143238Y46885044D01*
X19997159Y46824536D01*
X19871718Y46728282D01*
X19775464Y46602841D01*
X19775463Y46602839D01*
X19714956Y46456762D01*
X19714955Y46456760D01*
X19694318Y46300001D01*
X19694318Y46299998D01*
X19305682Y46299998D01*
X19305682Y46300000D01*
X19285044Y46456762D01*
X19224536Y46602841D01*
X19128282Y46728282D01*
X19002841Y46824536D01*
X18856762Y46885044D01*
X18752254Y46898802D01*
X18700001Y46905682D01*
X18699999Y46905682D01*
X18621619Y46895363D01*
X18543238Y46885044D01*
X18397159Y46824536D01*
X18271718Y46728282D01*
X18175464Y46602841D01*
X18175463Y46602839D01*
X18114956Y46456762D01*
X18114955Y46456760D01*
X18094318Y46300001D01*
X18094318Y46299998D01*
X17705682Y46299998D01*
X17705682Y46300000D01*
X17685044Y46456762D01*
X17624536Y46602841D01*
X17528282Y46728282D01*
X17402841Y46824536D01*
X17256762Y46885044D01*
X17152254Y46898802D01*
X17100001Y46905682D01*
X17099999Y46905682D01*
X17021619Y46895363D01*
X16943238Y46885044D01*
X16797159Y46824536D01*
X16671718Y46728282D01*
X16575464Y46602841D01*
X16575463Y46602839D01*
X16514956Y46456762D01*
X16514955Y46456760D01*
X16494318Y46300001D01*
X16494318Y46299998D01*
X13705682Y46299998D01*
X13705682Y46300000D01*
X13685044Y46456762D01*
X13624536Y46602841D01*
X13528282Y46728282D01*
X13402841Y46824536D01*
X13256762Y46885044D01*
X13152254Y46898802D01*
X13100001Y46905682D01*
X13099999Y46905682D01*
X13021619Y46895363D01*
X12943238Y46885044D01*
X12797159Y46824536D01*
X12671718Y46728282D01*
X12575464Y46602841D01*
X12575463Y46602839D01*
X12514956Y46456762D01*
X12514955Y46456760D01*
X12494318Y46300001D01*
X12494318Y46299998D01*
X12105682Y46299998D01*
X12105682Y46300000D01*
X12085044Y46456762D01*
X12024536Y46602841D01*
X11928282Y46728282D01*
X11802841Y46824536D01*
X11656762Y46885044D01*
X11552254Y46898802D01*
X11500001Y46905682D01*
X11499999Y46905682D01*
X11421619Y46895363D01*
X11343238Y46885044D01*
X11197159Y46824536D01*
X11071718Y46728282D01*
X10975464Y46602841D01*
X10975463Y46602839D01*
X10914956Y46456762D01*
X10914955Y46456760D01*
X10894318Y46300001D01*
X10894318Y46299998D01*
X10505682Y46299998D01*
X10505682Y46300000D01*
X10485044Y46456762D01*
X10424536Y46602841D01*
X10328282Y46728282D01*
X10202841Y46824536D01*
X10056762Y46885044D01*
X9952254Y46898802D01*
X9900001Y46905682D01*
X9899999Y46905682D01*
X9821619Y46895363D01*
X9743238Y46885044D01*
X9597159Y46824536D01*
X9471718Y46728282D01*
X9375464Y46602841D01*
X9375463Y46602839D01*
X9314956Y46456762D01*
X9314955Y46456760D01*
X9294318Y46300001D01*
X9294318Y46299998D01*
X6605682Y46299998D01*
X6605682Y46300000D01*
X6585044Y46456762D01*
X6524536Y46602841D01*
X6428282Y46728282D01*
X6302841Y46824536D01*
X6156762Y46885044D01*
X6052254Y46898802D01*
X6000001Y46905682D01*
X5999999Y46905682D01*
X5921619Y46895363D01*
X5843238Y46885044D01*
X5697159Y46824536D01*
X5571718Y46728282D01*
X5475464Y46602841D01*
X5475463Y46602839D01*
X5414956Y46456762D01*
X5414955Y46456760D01*
X5394318Y46300001D01*
X5394318Y46299998D01*
X5005682Y46299998D01*
X5005682Y46300000D01*
X4985044Y46456762D01*
X4924536Y46602841D01*
X4828282Y46728282D01*
X4702841Y46824536D01*
X4556762Y46885044D01*
X4452254Y46898802D01*
X4400001Y46905682D01*
X4399999Y46905682D01*
X4321619Y46895363D01*
X4243238Y46885044D01*
X4097159Y46824536D01*
X3971718Y46728282D01*
X3875464Y46602841D01*
X3875463Y46602839D01*
X3814956Y46456762D01*
X3814955Y46456760D01*
X3794318Y46300001D01*
X3794318Y46299998D01*
X3405682Y46299998D01*
X3405682Y46300000D01*
X3385044Y46456762D01*
X3324536Y46602841D01*
X3228282Y46728282D01*
X3102841Y46824536D01*
X2956762Y46885044D01*
X2852254Y46898802D01*
X2800001Y46905682D01*
X2799999Y46905682D01*
X2721619Y46895363D01*
X2643238Y46885044D01*
X2497159Y46824536D01*
X2371718Y46728282D01*
X2275464Y46602841D01*
X2275463Y46602839D01*
X2214956Y46456762D01*
X2214955Y46456760D01*
X2194318Y46300001D01*
X2194318Y46299998D01*
X500000Y46299998D01*
X500000Y47899998D01*
X13694318Y47899998D01*
X13714955Y47743239D01*
X13714956Y47743237D01*
X13775463Y47597160D01*
X13871718Y47471718D01*
X13997160Y47375463D01*
X14143237Y47314956D01*
X14143239Y47314955D01*
X14299999Y47294318D01*
X14300000Y47294318D01*
X14300001Y47294318D01*
X14456760Y47314955D01*
X14456762Y47314956D01*
X14602839Y47375463D01*
X14602841Y47375464D01*
X14728282Y47471718D01*
X14824536Y47597159D01*
X14885044Y47743238D01*
X14885044Y47743239D01*
X14885439Y47744192D01*
X14929280Y47798595D01*
X14995574Y47820660D01*
X15063273Y47803381D01*
X15110884Y47752244D01*
X15114561Y47744192D01*
X15114956Y47743239D01*
X15114956Y47743238D01*
X15127650Y47712590D01*
X15175463Y47597160D01*
X15271718Y47471718D01*
X15397160Y47375463D01*
X15543237Y47314956D01*
X15543239Y47314955D01*
X15699999Y47294318D01*
X15700000Y47294318D01*
X15700001Y47294318D01*
X15856760Y47314955D01*
X15856762Y47314956D01*
X16002839Y47375463D01*
X16002841Y47375464D01*
X16128282Y47471718D01*
X16224536Y47597159D01*
X16285044Y47743238D01*
X16305682Y47900000D01*
X16285044Y48056762D01*
X16224536Y48202841D01*
X16128282Y48328282D01*
X16002841Y48424536D01*
X15856762Y48485044D01*
X15752254Y48498802D01*
X15700001Y48505682D01*
X15699999Y48505682D01*
X15621619Y48495363D01*
X15543238Y48485044D01*
X15397159Y48424536D01*
X15271718Y48328282D01*
X15175464Y48202841D01*
X15175462Y48202838D01*
X15114561Y48055808D01*
X15070720Y48001404D01*
X15004426Y47979339D01*
X14936727Y47996618D01*
X14889116Y48047755D01*
X14885439Y48055808D01*
X14824537Y48202838D01*
X14824536Y48202841D01*
X14728282Y48328282D01*
X14602841Y48424536D01*
X14456762Y48485044D01*
X14352254Y48498802D01*
X14300001Y48505682D01*
X14299999Y48505682D01*
X14221619Y48495363D01*
X14143238Y48485044D01*
X13997159Y48424536D01*
X13871718Y48328282D01*
X13775464Y48202841D01*
X13775463Y48202839D01*
X13714956Y48056762D01*
X13714955Y48056760D01*
X13694318Y47900001D01*
X13694318Y47899998D01*
X500000Y47899998D01*
X500000Y52499998D01*
X14394318Y52499998D01*
X14414955Y52343239D01*
X14414956Y52343237D01*
X14475463Y52197160D01*
X14571718Y52071718D01*
X14697160Y51975463D01*
X14843237Y51914956D01*
X14843239Y51914955D01*
X14999999Y51894318D01*
X15000000Y51894318D01*
X15000001Y51894318D01*
X15156760Y51914955D01*
X15156762Y51914956D01*
X15302839Y51975463D01*
X15302841Y51975464D01*
X15428282Y52071718D01*
X15524536Y52197159D01*
X15585044Y52343238D01*
X15605682Y52500000D01*
X15585044Y52656762D01*
X15524536Y52802841D01*
X15428282Y52928282D01*
X15302841Y53024536D01*
X15156762Y53085044D01*
X15052254Y53098802D01*
X15000001Y53105682D01*
X14999999Y53105682D01*
X14921619Y53095363D01*
X14843238Y53085044D01*
X14697159Y53024536D01*
X14571718Y52928282D01*
X14475464Y52802841D01*
X14475463Y52802839D01*
X14414956Y52656762D01*
X14414955Y52656760D01*
X14394318Y52500001D01*
X14394318Y52499998D01*
X500000Y52499998D01*
X500000Y58730247D01*
X2449500Y58730247D01*
X2461131Y58671770D01*
X2461132Y58671769D01*
X2505447Y58605447D01*
X2571769Y58561132D01*
X2571770Y58561131D01*
X2630247Y58549500D01*
X2630252Y58549500D01*
X4369752Y58549500D01*
X4428229Y58561131D01*
X4428230Y58561132D01*
X4494552Y58605447D01*
X4538867Y58671769D01*
X4538868Y58671770D01*
X4550499Y58730247D01*
X4550500Y58730249D01*
X4550500Y59040543D01*
X4570185Y59107582D01*
X4622989Y59153337D01*
X4692147Y59163281D01*
X4755703Y59134256D01*
X4786882Y59092948D01*
X4866402Y58922417D01*
X4925072Y58838626D01*
X4925073Y58838625D01*
X5556923Y59470475D01*
X5580507Y59390156D01*
X5658239Y59269202D01*
X5766900Y59175048D01*
X5897685Y59115320D01*
X5907466Y59113913D01*
X5278625Y58485073D01*
X5278626Y58485072D01*
X5362417Y58426402D01*
X5576507Y58326570D01*
X5576516Y58326566D01*
X5804673Y58265432D01*
X5804684Y58265430D01*
X6039998Y58244843D01*
X6040002Y58244843D01*
X6275315Y58265430D01*
X6275326Y58265432D01*
X6503483Y58326566D01*
X6503492Y58326570D01*
X6717579Y58426400D01*
X6717583Y58426402D01*
X6801373Y58485072D01*
X6801373Y58485073D01*
X6172533Y59113913D01*
X6182315Y59115320D01*
X6313100Y59175048D01*
X6421761Y59269202D01*
X6499493Y59390156D01*
X6523076Y59470475D01*
X7154925Y58838625D01*
X7213599Y58922421D01*
X7313429Y59136507D01*
X7313433Y59136516D01*
X7346158Y59258649D01*
X7382523Y59318310D01*
X7445369Y59348839D01*
X7514745Y59340545D01*
X7568623Y59296059D01*
X7584593Y59262552D01*
X7604767Y59196046D01*
X7702317Y59013547D01*
X7833589Y58853589D01*
X7993547Y58722317D01*
X7993548Y58722316D01*
X7993550Y58722315D01*
X8065898Y58683643D01*
X8176043Y58624769D01*
X8176045Y58624768D01*
X8176046Y58624768D01*
X8239736Y58605448D01*
X8374069Y58564699D01*
X8374065Y58564699D01*
X8579999Y58544417D01*
X8580000Y58544417D01*
X8611027Y58547472D01*
X8679673Y58534454D01*
X8730383Y58486389D01*
X8747058Y58418539D01*
X8724402Y58352444D01*
X8698668Y58325694D01*
X8697159Y58324536D01*
X8571718Y58228282D01*
X8475464Y58102841D01*
X8475463Y58102839D01*
X8414956Y57956762D01*
X8414955Y57956760D01*
X8394318Y57800001D01*
X8394318Y57799998D01*
X8414955Y57643239D01*
X8414956Y57643237D01*
X8475463Y57497160D01*
X8571718Y57371718D01*
X8697160Y57275463D01*
X8843237Y57214956D01*
X8843239Y57214955D01*
X8999999Y57194318D01*
X9000000Y57194318D01*
X9000001Y57194318D01*
X9156760Y57214955D01*
X9156762Y57214956D01*
X9302839Y57275463D01*
X9302841Y57275464D01*
X9428282Y57371718D01*
X9524536Y57497159D01*
X9585044Y57643238D01*
X9605682Y57800000D01*
X9585044Y57956762D01*
X9524536Y58102841D01*
X9428282Y58228282D01*
X9302841Y58324536D01*
X9156762Y58385044D01*
X9040871Y58400301D01*
X8976975Y58428567D01*
X8938504Y58486892D01*
X8937673Y58556757D01*
X8974745Y58615980D01*
X8998603Y58632598D01*
X9018095Y58643017D01*
X9166450Y58722315D01*
X9208677Y58756969D01*
X9326410Y58853589D01*
X9405702Y58950209D01*
X9457685Y59013550D01*
X9555232Y59196046D01*
X9575406Y59262552D01*
X9613702Y59320989D01*
X9677514Y59349446D01*
X9746581Y59338887D01*
X9798975Y59292663D01*
X9813841Y59258650D01*
X9846567Y59136514D01*
X9846570Y59136507D01*
X9946402Y58922417D01*
X10005072Y58838626D01*
X10005073Y58838625D01*
X10636923Y59470475D01*
X10660507Y59390156D01*
X10738239Y59269202D01*
X10846900Y59175048D01*
X10977685Y59115320D01*
X10987466Y59113913D01*
X10358625Y58485073D01*
X10358626Y58485072D01*
X10442417Y58426402D01*
X10656507Y58326570D01*
X10656516Y58326566D01*
X10884673Y58265432D01*
X10884684Y58265430D01*
X11119998Y58244843D01*
X11120002Y58244843D01*
X11355315Y58265430D01*
X11355326Y58265432D01*
X11583483Y58326566D01*
X11583492Y58326570D01*
X11797579Y58426400D01*
X11797583Y58426402D01*
X11881373Y58485072D01*
X11881373Y58485073D01*
X11252533Y59113913D01*
X11262315Y59115320D01*
X11393100Y59175048D01*
X11501761Y59269202D01*
X11579493Y59390156D01*
X11603076Y59470475D01*
X12234925Y58838625D01*
X12293599Y58922421D01*
X12393429Y59136507D01*
X12393433Y59136516D01*
X12426158Y59258649D01*
X12462523Y59318310D01*
X12525369Y59348839D01*
X12594745Y59340545D01*
X12648623Y59296059D01*
X12664593Y59262552D01*
X12684767Y59196046D01*
X12782317Y59013547D01*
X12913589Y58853589D01*
X13073547Y58722317D01*
X13073548Y58722316D01*
X13073550Y58722315D01*
X13145898Y58683643D01*
X13256043Y58624769D01*
X13256045Y58624768D01*
X13256046Y58624768D01*
X13317768Y58606044D01*
X13366551Y58591247D01*
X13424990Y58552949D01*
X13453446Y58489137D01*
X13442886Y58420070D01*
X13396662Y58367676D01*
X13378011Y58358026D01*
X13297159Y58324536D01*
X13171718Y58228282D01*
X13075464Y58102841D01*
X13075463Y58102839D01*
X13014956Y57956762D01*
X13014955Y57956760D01*
X12994318Y57800001D01*
X12994318Y57799998D01*
X13014955Y57643239D01*
X13014956Y57643237D01*
X13075463Y57497160D01*
X13171718Y57371718D01*
X13297160Y57275463D01*
X13443237Y57214956D01*
X13443239Y57214955D01*
X13599999Y57194318D01*
X13600000Y57194318D01*
X13600001Y57194318D01*
X13756760Y57214955D01*
X13756762Y57214956D01*
X13902839Y57275463D01*
X13902841Y57275464D01*
X14028282Y57371718D01*
X14124536Y57497159D01*
X14185044Y57643238D01*
X14205682Y57800000D01*
X14185044Y57956762D01*
X14124536Y58102841D01*
X14028282Y58228282D01*
X13902841Y58324536D01*
X13872718Y58337013D01*
X13818317Y58380851D01*
X13796251Y58447145D01*
X13813529Y58514844D01*
X13864665Y58562456D01*
X13884177Y58570234D01*
X13936481Y58586100D01*
X14063954Y58624768D01*
X14246450Y58722315D01*
X14288677Y58756969D01*
X14406410Y58853589D01*
X14485702Y58950209D01*
X14537685Y59013550D01*
X14635232Y59196046D01*
X14655406Y59262552D01*
X14693702Y59320989D01*
X14757514Y59349446D01*
X14826581Y59338887D01*
X14878975Y59292663D01*
X14893841Y59258650D01*
X14926567Y59136514D01*
X14926570Y59136507D01*
X15026402Y58922417D01*
X15085072Y58838626D01*
X15085073Y58838625D01*
X15716923Y59470475D01*
X15740507Y59390156D01*
X15818239Y59269202D01*
X15926900Y59175048D01*
X16057685Y59115320D01*
X16067466Y59113913D01*
X15438625Y58485073D01*
X15438626Y58485072D01*
X15522417Y58426402D01*
X15736507Y58326570D01*
X15736516Y58326566D01*
X15964673Y58265432D01*
X15964684Y58265430D01*
X16199998Y58244843D01*
X16200002Y58244843D01*
X16435315Y58265430D01*
X16435326Y58265432D01*
X16663483Y58326566D01*
X16663492Y58326570D01*
X16877579Y58426400D01*
X16877583Y58426402D01*
X16961373Y58485072D01*
X16961373Y58485073D01*
X16332533Y59113913D01*
X16342315Y59115320D01*
X16473100Y59175048D01*
X16581761Y59269202D01*
X16659493Y59390156D01*
X16683076Y59470475D01*
X17314925Y58838625D01*
X17373599Y58922421D01*
X17473429Y59136507D01*
X17473433Y59136516D01*
X17506158Y59258649D01*
X17542523Y59318310D01*
X17605369Y59348839D01*
X17674745Y59340545D01*
X17728623Y59296059D01*
X17744593Y59262552D01*
X17764767Y59196046D01*
X17862317Y59013547D01*
X17993589Y58853589D01*
X18153547Y58722317D01*
X18153548Y58722316D01*
X18153550Y58722315D01*
X18248112Y58671770D01*
X18323320Y58631570D01*
X18373164Y58582607D01*
X18388624Y58514469D01*
X18364792Y58448790D01*
X18309234Y58406421D01*
X18248680Y58399273D01*
X18200000Y58405682D01*
X18199999Y58405682D01*
X18121619Y58395363D01*
X18043238Y58385044D01*
X17897159Y58324536D01*
X17771718Y58228282D01*
X17675464Y58102841D01*
X17675463Y58102839D01*
X17614956Y57956762D01*
X17614955Y57956760D01*
X17594318Y57800001D01*
X17594318Y57799998D01*
X17614955Y57643239D01*
X17614956Y57643237D01*
X17675463Y57497160D01*
X17771718Y57371718D01*
X17897160Y57275463D01*
X18043237Y57214956D01*
X18043239Y57214955D01*
X18199999Y57194318D01*
X18200000Y57194318D01*
X18200001Y57194318D01*
X18356760Y57214955D01*
X18356762Y57214956D01*
X18502839Y57275463D01*
X18502841Y57275464D01*
X18628282Y57371718D01*
X18724536Y57497159D01*
X18785044Y57643238D01*
X18805682Y57800000D01*
X18785044Y57956762D01*
X18724536Y58102841D01*
X18628282Y58228282D01*
X18502841Y58324536D01*
X18502838Y58324536D01*
X18502836Y58324539D01*
X18495804Y58328599D01*
X18496729Y58330202D01*
X18450331Y58367584D01*
X18428259Y58433876D01*
X18445531Y58501577D01*
X18496664Y58549193D01*
X18564334Y58561718D01*
X18739999Y58544417D01*
X18740000Y58544417D01*
X18771028Y58547473D01*
X18945932Y58564699D01*
X19080260Y58605447D01*
X19143954Y58624768D01*
X19326450Y58722315D01*
X19368677Y58756969D01*
X19486410Y58853589D01*
X19565702Y58950209D01*
X19617685Y59013550D01*
X19715232Y59196046D01*
X19735406Y59262552D01*
X19773702Y59320989D01*
X19837514Y59349446D01*
X19906581Y59338887D01*
X19958975Y59292663D01*
X19973841Y59258650D01*
X20006567Y59136514D01*
X20006570Y59136507D01*
X20106402Y58922417D01*
X20165072Y58838626D01*
X20165073Y58838625D01*
X20796923Y59470475D01*
X20820507Y59390156D01*
X20898239Y59269202D01*
X21006900Y59175048D01*
X21137685Y59115320D01*
X21147466Y59113913D01*
X20518625Y58485073D01*
X20518626Y58485072D01*
X20602417Y58426402D01*
X20816507Y58326570D01*
X20816516Y58326566D01*
X21044673Y58265432D01*
X21044684Y58265430D01*
X21279998Y58244843D01*
X21280002Y58244843D01*
X21515315Y58265430D01*
X21515326Y58265432D01*
X21743483Y58326566D01*
X21743492Y58326570D01*
X21957579Y58426400D01*
X21957583Y58426402D01*
X22041373Y58485072D01*
X22041373Y58485073D01*
X21412533Y59113913D01*
X21422315Y59115320D01*
X21553100Y59175048D01*
X21661761Y59269202D01*
X21739493Y59390156D01*
X21763076Y59470475D01*
X22394925Y58838625D01*
X22453599Y58922421D01*
X22553429Y59136507D01*
X22553433Y59136516D01*
X22586158Y59258649D01*
X22622523Y59318310D01*
X22685369Y59348839D01*
X22754745Y59340545D01*
X22808623Y59296059D01*
X22824593Y59262552D01*
X22844767Y59196046D01*
X22942317Y59013547D01*
X23073589Y58853589D01*
X23233547Y58722317D01*
X23233548Y58722316D01*
X23233550Y58722315D01*
X23285725Y58694426D01*
X23396784Y58635063D01*
X23446628Y58586100D01*
X23462088Y58517962D01*
X23438256Y58452282D01*
X23382698Y58409914D01*
X23322145Y58402766D01*
X23300000Y58405682D01*
X23143238Y58385044D01*
X22997159Y58324536D01*
X22871718Y58228282D01*
X22775464Y58102841D01*
X22775463Y58102839D01*
X22714956Y57956762D01*
X22714955Y57956760D01*
X22694318Y57800001D01*
X22694318Y57799998D01*
X22714955Y57643239D01*
X22714956Y57643237D01*
X22775463Y57497160D01*
X22871718Y57371718D01*
X22997160Y57275463D01*
X23143237Y57214956D01*
X23143239Y57214955D01*
X23299999Y57194318D01*
X23300000Y57194318D01*
X23300001Y57194318D01*
X23456760Y57214955D01*
X23456762Y57214956D01*
X23602839Y57275463D01*
X23602841Y57275464D01*
X23728282Y57371718D01*
X23824536Y57497159D01*
X23885044Y57643238D01*
X23905682Y57800000D01*
X23885044Y57956762D01*
X23824536Y58102841D01*
X23728282Y58228282D01*
X23602841Y58324536D01*
X23602834Y58324539D01*
X23596214Y58328362D01*
X23547995Y58378926D01*
X23534769Y58447532D01*
X23560733Y58512399D01*
X23617645Y58552930D01*
X23670362Y58559155D01*
X23819999Y58544417D01*
X23820000Y58544417D01*
X23851028Y58547473D01*
X24025932Y58564699D01*
X24160260Y58605447D01*
X24223954Y58624768D01*
X24406450Y58722315D01*
X24448677Y58756969D01*
X24566410Y58853589D01*
X24645702Y58950209D01*
X24697685Y59013550D01*
X24795232Y59196046D01*
X24855300Y59394066D01*
X24875583Y59600000D01*
X25304417Y59600000D01*
X25324699Y59394067D01*
X25384769Y59196043D01*
X25482317Y59013547D01*
X25613589Y58853589D01*
X25773547Y58722317D01*
X25773548Y58722316D01*
X25773550Y58722315D01*
X25845898Y58683643D01*
X25956043Y58624769D01*
X25956045Y58624768D01*
X25956046Y58624768D01*
X26019736Y58605448D01*
X26154069Y58564699D01*
X26154065Y58564699D01*
X26360000Y58544417D01*
X26565932Y58564699D01*
X26700260Y58605447D01*
X26763954Y58624768D01*
X26946450Y58722315D01*
X26988677Y58756969D01*
X27106410Y58853589D01*
X27185702Y58950209D01*
X27237685Y59013550D01*
X27335232Y59196046D01*
X27395300Y59394066D01*
X27415583Y59600000D01*
X27395300Y59805934D01*
X27335232Y60003954D01*
X27237685Y60186450D01*
X27106410Y60346410D01*
X26946450Y60477685D01*
X26763954Y60575232D01*
X26565934Y60635300D01*
X26360000Y60655583D01*
X26154066Y60635300D01*
X25956046Y60575232D01*
X25773550Y60477685D01*
X25763879Y60469748D01*
X25613589Y60346410D01*
X25516969Y60228677D01*
X25482315Y60186450D01*
X25395992Y60024952D01*
X25384769Y60003956D01*
X25324699Y59805932D01*
X25304417Y59600000D01*
X24875583Y59600000D01*
X24855300Y59805934D01*
X24795232Y60003954D01*
X24697685Y60186450D01*
X24566410Y60346410D01*
X24406450Y60477685D01*
X24223954Y60575232D01*
X24025934Y60635300D01*
X23820000Y60655583D01*
X23614066Y60635300D01*
X23416046Y60575232D01*
X23233550Y60477685D01*
X23223879Y60469748D01*
X23073589Y60346410D01*
X22976969Y60228677D01*
X22942315Y60186450D01*
X22855992Y60024952D01*
X22844769Y60003956D01*
X22824594Y59937448D01*
X22786296Y59879009D01*
X22722484Y59850553D01*
X22653417Y59861113D01*
X22601023Y59907337D01*
X22586158Y59941350D01*
X22553433Y60063483D01*
X22553429Y60063492D01*
X22453601Y60277575D01*
X22394925Y60361373D01*
X21763076Y59729524D01*
X21739493Y59809844D01*
X21661761Y59930798D01*
X21553100Y60024952D01*
X21422315Y60084680D01*
X21412533Y60086086D01*
X22058478Y60732030D01*
X22059280Y60736020D01*
X22107890Y60786208D01*
X22152861Y60801277D01*
X22220538Y60810187D01*
X22256762Y60814956D01*
X22357336Y60856615D01*
X22402839Y60875463D01*
X22402841Y60875464D01*
X22528282Y60971718D01*
X22624536Y61097159D01*
X22685044Y61243238D01*
X22705682Y61400000D01*
X22685044Y61556762D01*
X22624536Y61702841D01*
X22528282Y61828282D01*
X22402841Y61924536D01*
X22256762Y61985044D01*
X22152254Y61998802D01*
X22100001Y62005682D01*
X22099999Y62005682D01*
X22021619Y61995363D01*
X21943238Y61985044D01*
X21797159Y61924536D01*
X21671718Y61828282D01*
X21575464Y61702841D01*
X21575463Y61702839D01*
X21514956Y61556762D01*
X21514955Y61556760D01*
X21494318Y61400001D01*
X21494318Y61399998D01*
X21514955Y61243239D01*
X21514957Y61243234D01*
X21569405Y61111785D01*
X21576874Y61042316D01*
X21545599Y60979837D01*
X21485510Y60944185D01*
X21444036Y60940805D01*
X21280001Y60955157D01*
X21279998Y60955157D01*
X21044684Y60934569D01*
X21044673Y60934567D01*
X20816516Y60873433D01*
X20816507Y60873429D01*
X20602423Y60773600D01*
X20602421Y60773599D01*
X20518626Y60714925D01*
X20518625Y60714925D01*
X21147466Y60086086D01*
X21137685Y60084680D01*
X21006900Y60024952D01*
X20898239Y59930798D01*
X20820507Y59809844D01*
X20796923Y59729523D01*
X20165074Y60361373D01*
X20165073Y60361372D01*
X20106400Y60277578D01*
X20106399Y60277576D01*
X20006570Y60063492D01*
X20006567Y60063486D01*
X19973841Y59941349D01*
X19937476Y59881689D01*
X19874629Y59851160D01*
X19805253Y59859455D01*
X19751375Y59903940D01*
X19735407Y59937444D01*
X19715232Y60003954D01*
X19617685Y60186450D01*
X19486410Y60346410D01*
X19326450Y60477685D01*
X19143954Y60575232D01*
X18945934Y60635300D01*
X18740000Y60655583D01*
X18534066Y60635300D01*
X18336046Y60575232D01*
X18153550Y60477685D01*
X18143879Y60469748D01*
X17993589Y60346410D01*
X17896969Y60228677D01*
X17862315Y60186450D01*
X17775992Y60024952D01*
X17764769Y60003956D01*
X17744594Y59937448D01*
X17706296Y59879009D01*
X17642484Y59850553D01*
X17573417Y59861113D01*
X17521023Y59907337D01*
X17506158Y59941350D01*
X17473433Y60063483D01*
X17473429Y60063492D01*
X17373601Y60277575D01*
X17314925Y60361373D01*
X16683076Y59729524D01*
X16659493Y59809844D01*
X16581761Y59930798D01*
X16473100Y60024952D01*
X16342315Y60084680D01*
X16332533Y60086086D01*
X16961373Y60714925D01*
X16961373Y60714926D01*
X16877582Y60773598D01*
X16877578Y60773600D01*
X16663492Y60873429D01*
X16663483Y60873433D01*
X16435326Y60934567D01*
X16435315Y60934569D01*
X16200002Y60955157D01*
X16199998Y60955157D01*
X15964684Y60934569D01*
X15964673Y60934567D01*
X15736516Y60873433D01*
X15736507Y60873429D01*
X15522423Y60773600D01*
X15522421Y60773599D01*
X15438626Y60714925D01*
X15438625Y60714925D01*
X16067466Y60086086D01*
X16057685Y60084680D01*
X15926900Y60024952D01*
X15818239Y59930798D01*
X15740507Y59809844D01*
X15716923Y59729523D01*
X15085074Y60361373D01*
X15085073Y60361372D01*
X15026400Y60277578D01*
X15026399Y60277576D01*
X14926570Y60063492D01*
X14926567Y60063486D01*
X14893841Y59941349D01*
X14857476Y59881689D01*
X14794629Y59851160D01*
X14725253Y59859455D01*
X14671375Y59903940D01*
X14655407Y59937444D01*
X14635232Y60003954D01*
X14537685Y60186450D01*
X14406410Y60346410D01*
X14246450Y60477685D01*
X14063954Y60575232D01*
X14063951Y60575232D01*
X14062793Y60575852D01*
X14012948Y60624814D01*
X13997488Y60692952D01*
X14021320Y60758632D01*
X14076877Y60801000D01*
X14105060Y60808149D01*
X14134138Y60811977D01*
X14156762Y60814956D01*
X14257336Y60856615D01*
X14302839Y60875463D01*
X14302841Y60875464D01*
X14428282Y60971718D01*
X14524536Y61097159D01*
X14585044Y61243238D01*
X14605682Y61399998D01*
X17494318Y61399998D01*
X17514955Y61243239D01*
X17514956Y61243237D01*
X17575463Y61097160D01*
X17671718Y60971718D01*
X17797160Y60875463D01*
X17943237Y60814956D01*
X17943239Y60814955D01*
X18099999Y60794318D01*
X18100000Y60794318D01*
X18100001Y60794318D01*
X18256760Y60814955D01*
X18256762Y60814956D01*
X18402839Y60875463D01*
X18402841Y60875464D01*
X18528282Y60971718D01*
X18624536Y61097159D01*
X18685044Y61243238D01*
X18705682Y61400000D01*
X18685044Y61556762D01*
X18624536Y61702841D01*
X18528282Y61828282D01*
X18402841Y61924536D01*
X18256762Y61985044D01*
X18152254Y61998802D01*
X18100001Y62005682D01*
X18099999Y62005682D01*
X18021619Y61995363D01*
X17943238Y61985044D01*
X17797159Y61924536D01*
X17671718Y61828282D01*
X17575464Y61702841D01*
X17575463Y61702839D01*
X17514956Y61556762D01*
X17514955Y61556760D01*
X17494318Y61400001D01*
X17494318Y61399998D01*
X14605682Y61399998D01*
X14605682Y61400000D01*
X14585044Y61556762D01*
X14524536Y61702841D01*
X14428282Y61828282D01*
X14302841Y61924536D01*
X14156762Y61985044D01*
X14052254Y61998802D01*
X14000001Y62005682D01*
X13999999Y62005682D01*
X13921619Y61995363D01*
X13843238Y61985044D01*
X13697159Y61924536D01*
X13571718Y61828282D01*
X13475464Y61702841D01*
X13475463Y61702839D01*
X13414956Y61556762D01*
X13414955Y61556760D01*
X13394318Y61400001D01*
X13394318Y61399998D01*
X13414955Y61243239D01*
X13414956Y61243237D01*
X13475463Y61097160D01*
X13507548Y61055345D01*
X13565488Y60979837D01*
X13571720Y60971716D01*
X13697944Y60874860D01*
X13739146Y60818432D01*
X13743301Y60748686D01*
X13709088Y60687766D01*
X13647371Y60655014D01*
X13634617Y60653083D01*
X13454066Y60635300D01*
X13256046Y60575232D01*
X13073550Y60477685D01*
X13063879Y60469748D01*
X12913589Y60346410D01*
X12816969Y60228677D01*
X12782315Y60186450D01*
X12695992Y60024952D01*
X12684769Y60003956D01*
X12664594Y59937448D01*
X12626296Y59879009D01*
X12562484Y59850553D01*
X12493417Y59861113D01*
X12441023Y59907337D01*
X12426158Y59941350D01*
X12393433Y60063483D01*
X12393429Y60063492D01*
X12293601Y60277575D01*
X12234925Y60361373D01*
X11603076Y59729524D01*
X11579493Y59809844D01*
X11501761Y59930798D01*
X11393100Y60024952D01*
X11262315Y60084680D01*
X11252533Y60086086D01*
X11881373Y60714925D01*
X11881373Y60714926D01*
X11797582Y60773598D01*
X11797578Y60773600D01*
X11583492Y60873429D01*
X11583483Y60873433D01*
X11355326Y60934567D01*
X11355315Y60934569D01*
X11120002Y60955157D01*
X11119998Y60955157D01*
X10884684Y60934569D01*
X10884673Y60934567D01*
X10656516Y60873433D01*
X10656512Y60873431D01*
X10642949Y60867107D01*
X10573871Y60856615D01*
X10510087Y60885134D01*
X10471847Y60943610D01*
X10471292Y61013478D01*
X10492168Y61054976D01*
X10524535Y61097157D01*
X10585042Y61243234D01*
X10585044Y61243238D01*
X10605682Y61400000D01*
X10585044Y61556762D01*
X10524536Y61702841D01*
X10428282Y61828282D01*
X10302841Y61924536D01*
X10156762Y61985044D01*
X10052254Y61998802D01*
X10000001Y62005682D01*
X9999999Y62005682D01*
X9921619Y61995363D01*
X9843238Y61985044D01*
X9697159Y61924536D01*
X9571718Y61828282D01*
X9475464Y61702841D01*
X9475463Y61702839D01*
X9414956Y61556762D01*
X9414955Y61556760D01*
X9394318Y61400001D01*
X9394318Y61399998D01*
X9414955Y61243239D01*
X9414956Y61243237D01*
X9475463Y61097160D01*
X9571718Y60971718D01*
X9697160Y60875463D01*
X9843237Y60814956D01*
X9843239Y60814955D01*
X9999999Y60794318D01*
X10000000Y60794318D01*
X10000001Y60794318D01*
X10156760Y60814955D01*
X10156765Y60814957D01*
X10186506Y60827276D01*
X10255975Y60834745D01*
X10318454Y60803469D01*
X10354106Y60743380D01*
X10356229Y60717321D01*
X10987466Y60086086D01*
X10977685Y60084680D01*
X10846900Y60024952D01*
X10738239Y59930798D01*
X10660507Y59809844D01*
X10636923Y59729523D01*
X10005074Y60361373D01*
X10005073Y60361372D01*
X9946400Y60277578D01*
X9946399Y60277576D01*
X9846570Y60063492D01*
X9846567Y60063486D01*
X9813841Y59941349D01*
X9777476Y59881689D01*
X9714629Y59851160D01*
X9645253Y59859455D01*
X9591375Y59903940D01*
X9575407Y59937444D01*
X9555232Y60003954D01*
X9457685Y60186450D01*
X9326410Y60346410D01*
X9166450Y60477685D01*
X8983954Y60575232D01*
X8785934Y60635300D01*
X8580000Y60655583D01*
X8374066Y60635300D01*
X8176046Y60575232D01*
X7993550Y60477685D01*
X7983879Y60469748D01*
X7833589Y60346410D01*
X7736969Y60228677D01*
X7702315Y60186450D01*
X7615992Y60024952D01*
X7604769Y60003956D01*
X7584594Y59937448D01*
X7546296Y59879009D01*
X7482484Y59850553D01*
X7413417Y59861113D01*
X7361023Y59907337D01*
X7346158Y59941350D01*
X7313433Y60063483D01*
X7313429Y60063492D01*
X7213601Y60277575D01*
X7154925Y60361373D01*
X6523076Y59729524D01*
X6499493Y59809844D01*
X6421761Y59930798D01*
X6313100Y60024952D01*
X6182315Y60084680D01*
X6172533Y60086086D01*
X6801373Y60714925D01*
X6801373Y60714926D01*
X6717582Y60773598D01*
X6717578Y60773600D01*
X6503492Y60873429D01*
X6503483Y60873433D01*
X6275326Y60934567D01*
X6275315Y60934569D01*
X6040002Y60955157D01*
X6039998Y60955157D01*
X5804684Y60934569D01*
X5804673Y60934567D01*
X5576516Y60873433D01*
X5576507Y60873429D01*
X5362423Y60773600D01*
X5362421Y60773599D01*
X5278626Y60714925D01*
X5278625Y60714925D01*
X5907466Y60086086D01*
X5897685Y60084680D01*
X5766900Y60024952D01*
X5658239Y59930798D01*
X5580507Y59809844D01*
X5556923Y59729523D01*
X4925074Y60361373D01*
X4925073Y60361372D01*
X4866400Y60277578D01*
X4866399Y60277576D01*
X4786882Y60107051D01*
X4740710Y60054612D01*
X4673516Y60035460D01*
X4606635Y60055676D01*
X4561300Y60108841D01*
X4550500Y60159456D01*
X4550500Y60469750D01*
X4550499Y60469752D01*
X4538868Y60528229D01*
X4538867Y60528230D01*
X4538867Y60528231D01*
X4494552Y60594552D01*
X4428231Y60638867D01*
X4428229Y60638867D01*
X4428229Y60638868D01*
X4384568Y60647552D01*
X4369751Y60650499D01*
X4369751Y60650500D01*
X4369748Y60650500D01*
X2630252Y60650500D01*
X2630249Y60650500D01*
X2630247Y60650499D01*
X2571770Y60638868D01*
X2571769Y60638867D01*
X2505447Y60594552D01*
X2461132Y60528230D01*
X2461131Y60528229D01*
X2449500Y60469752D01*
X2449500Y58730247D01*
X500000Y58730247D01*
X500000Y63519098D01*
X519685Y63586137D01*
X572489Y63631892D01*
X641647Y63641836D01*
X705203Y63612811D01*
X723598Y63592965D01*
X853540Y63417758D01*
X1121789Y63121789D01*
X1417758Y62853540D01*
X1738607Y62615582D01*
X2081221Y62410226D01*
X2442323Y62239438D01*
X2442343Y62239430D01*
X2818413Y62104870D01*
X2818421Y62104867D01*
X2818424Y62104867D01*
X2913400Y62081076D01*
X3205897Y62007810D01*
X3601021Y61949198D01*
X3601025Y61949197D01*
X3601031Y61949197D01*
X4000000Y61929597D01*
X4398969Y61949197D01*
X4398974Y61949197D01*
X4398978Y61949198D01*
X4696453Y61993325D01*
X4794096Y62007809D01*
X4794097Y62007809D01*
X4794102Y62007810D01*
X4989350Y62056717D01*
X5181576Y62104867D01*
X5181580Y62104868D01*
X5181586Y62104870D01*
X5557656Y62239430D01*
X5557676Y62239438D01*
X5918778Y62410226D01*
X6261392Y62615582D01*
X6582241Y62853540D01*
X6878210Y63121789D01*
X7146459Y63417758D01*
X7146460Y63417760D01*
X7146464Y63417764D01*
X7384416Y63738605D01*
X7589775Y64081225D01*
X7760562Y64442324D01*
X7895133Y64818424D01*
X7992191Y65205904D01*
X8050803Y65601031D01*
X8070403Y66000000D01*
X8050803Y66398969D01*
X7992191Y66794096D01*
X7895133Y67181576D01*
X7760562Y67557676D01*
X7589775Y67918775D01*
X7384416Y68261395D01*
X7146464Y68582236D01*
X6878210Y68878210D01*
X6582236Y69146464D01*
X6407032Y69276403D01*
X6364914Y69332148D01*
X6359618Y69401817D01*
X6392829Y69463289D01*
X6454002Y69497047D01*
X6480901Y69500000D01*
X23519099Y69500000D01*
X23586138Y69480315D01*
G37*
%TD.AperFunction*%
%TD*%
%TA.AperFunction,Conductor*%
%TO.N,+3.3V*%
G36*
X18597168Y23480315D02*
G01*
X18642923Y23427511D01*
X18652867Y23358353D01*
X18644690Y23328548D01*
X18614957Y23256765D01*
X18614955Y23256760D01*
X18594318Y23100001D01*
X18594318Y23099998D01*
X18614955Y22943239D01*
X18614956Y22943237D01*
X18675463Y22797160D01*
X18771718Y22671718D01*
X18897160Y22575463D01*
X19043237Y22514956D01*
X19043239Y22514955D01*
X19199999Y22494318D01*
X19200000Y22494318D01*
X19200001Y22494318D01*
X19356760Y22514955D01*
X19356762Y22514956D01*
X19502839Y22575463D01*
X19502841Y22575464D01*
X19628282Y22671718D01*
X19724536Y22797159D01*
X19785044Y22943238D01*
X19805682Y23100000D01*
X19785044Y23256762D01*
X19770418Y23292071D01*
X19755310Y23328548D01*
X19747841Y23398017D01*
X19779117Y23460496D01*
X19839206Y23496148D01*
X19869871Y23500000D01*
X21150012Y23500000D01*
X21217051Y23480315D01*
X21262806Y23427511D01*
X21264573Y23423452D01*
X21275462Y23397161D01*
X21371718Y23271718D01*
X21497160Y23175463D01*
X21643237Y23114956D01*
X21643239Y23114955D01*
X21799999Y23094318D01*
X21800000Y23094318D01*
X21800001Y23094318D01*
X21956760Y23114955D01*
X21956762Y23114956D01*
X22102839Y23175463D01*
X22102841Y23175464D01*
X22228282Y23271718D01*
X22324536Y23397159D01*
X22324892Y23398017D01*
X22335427Y23423452D01*
X22379267Y23477856D01*
X22445561Y23499921D01*
X22449988Y23500000D01*
X29376000Y23500000D01*
X29443039Y23480315D01*
X29488794Y23427511D01*
X29500000Y23376000D01*
X29500000Y8324000D01*
X29480315Y8256961D01*
X29427511Y8211206D01*
X29376000Y8200000D01*
X26402471Y8200000D01*
X26360481Y8212329D01*
X26340634Y8202172D01*
X26317529Y8200000D01*
X23862471Y8200000D01*
X23820481Y8212329D01*
X23800634Y8202172D01*
X23777529Y8200000D01*
X21322471Y8200000D01*
X21280481Y8212329D01*
X21260634Y8202172D01*
X21237529Y8200000D01*
X18782471Y8200000D01*
X18740481Y8212329D01*
X18720634Y8202172D01*
X18697529Y8200000D01*
X16242471Y8200000D01*
X16200481Y8212329D01*
X16180634Y8202172D01*
X16157529Y8200000D01*
X13702471Y8200000D01*
X13660481Y8212329D01*
X13640634Y8202172D01*
X13617529Y8200000D01*
X11162471Y8200000D01*
X11120481Y8212329D01*
X11100634Y8202172D01*
X11077529Y8200000D01*
X10624000Y8200000D01*
X10556961Y8219685D01*
X10511206Y8272489D01*
X10500000Y8324000D01*
X10500000Y8433365D01*
X10519685Y8500404D01*
X10572489Y8546159D01*
X10641647Y8556103D01*
X10682453Y8542724D01*
X10716045Y8524768D01*
X10914069Y8464699D01*
X10914065Y8464699D01*
X11089683Y8447403D01*
X11117159Y8436308D01*
X11127536Y8442977D01*
X11150317Y8447403D01*
X11325932Y8464699D01*
X11424944Y8494734D01*
X11523954Y8524768D01*
X11706450Y8622315D01*
X11748677Y8656969D01*
X11866410Y8753589D01*
X11945702Y8850209D01*
X11997685Y8913550D01*
X12095232Y9096046D01*
X12155300Y9294066D01*
X12175583Y9500000D01*
X12604417Y9500000D01*
X12624699Y9294067D01*
X12684769Y9096043D01*
X12782317Y8913547D01*
X12913589Y8753589D01*
X13073547Y8622317D01*
X13073548Y8622316D01*
X13073550Y8622315D01*
X13145898Y8583643D01*
X13256043Y8524769D01*
X13454069Y8464699D01*
X13454065Y8464699D01*
X13629683Y8447403D01*
X13657159Y8436308D01*
X13667536Y8442977D01*
X13690317Y8447403D01*
X13865932Y8464699D01*
X13964944Y8494734D01*
X14063954Y8524768D01*
X14246450Y8622315D01*
X14288677Y8656969D01*
X14406410Y8753589D01*
X14485702Y8850209D01*
X14537685Y8913550D01*
X14635232Y9096046D01*
X14695300Y9294066D01*
X14715583Y9500000D01*
X15144417Y9500000D01*
X15164699Y9294067D01*
X15224769Y9096043D01*
X15322317Y8913547D01*
X15453589Y8753589D01*
X15613547Y8622317D01*
X15613548Y8622316D01*
X15613550Y8622315D01*
X15685898Y8583643D01*
X15796043Y8524769D01*
X15994069Y8464699D01*
X15994065Y8464699D01*
X16169683Y8447403D01*
X16197159Y8436308D01*
X16207536Y8442977D01*
X16230317Y8447403D01*
X16405932Y8464699D01*
X16504944Y8494734D01*
X16603954Y8524768D01*
X16786450Y8622315D01*
X16828677Y8656969D01*
X16946410Y8753589D01*
X17025702Y8850209D01*
X17077685Y8913550D01*
X17175232Y9096046D01*
X17235300Y9294066D01*
X17255583Y9500000D01*
X17684417Y9500000D01*
X17704699Y9294067D01*
X17764769Y9096043D01*
X17862317Y8913547D01*
X17993589Y8753589D01*
X18153547Y8622317D01*
X18153548Y8622316D01*
X18153550Y8622315D01*
X18225898Y8583643D01*
X18336043Y8524769D01*
X18534069Y8464699D01*
X18534065Y8464699D01*
X18709683Y8447403D01*
X18737159Y8436308D01*
X18747536Y8442977D01*
X18770317Y8447403D01*
X18945932Y8464699D01*
X19044944Y8494734D01*
X19143954Y8524768D01*
X19326450Y8622315D01*
X19368677Y8656969D01*
X19486410Y8753589D01*
X19565702Y8850209D01*
X19617685Y8913550D01*
X19715232Y9096046D01*
X19775300Y9294066D01*
X19795583Y9500000D01*
X20224417Y9500000D01*
X20244699Y9294067D01*
X20304769Y9096043D01*
X20402317Y8913547D01*
X20533589Y8753589D01*
X20693547Y8622317D01*
X20693548Y8622316D01*
X20693550Y8622315D01*
X20765898Y8583643D01*
X20876043Y8524769D01*
X21074069Y8464699D01*
X21074065Y8464699D01*
X21249683Y8447403D01*
X21277159Y8436308D01*
X21287536Y8442977D01*
X21310317Y8447403D01*
X21485932Y8464699D01*
X21584944Y8494734D01*
X21683954Y8524768D01*
X21866450Y8622315D01*
X21908677Y8656969D01*
X22026410Y8753589D01*
X22105702Y8850209D01*
X22157685Y8913550D01*
X22255232Y9096046D01*
X22315300Y9294066D01*
X22335583Y9500000D01*
X22764417Y9500000D01*
X22784699Y9294067D01*
X22844769Y9096043D01*
X22942317Y8913547D01*
X23073589Y8753589D01*
X23233547Y8622317D01*
X23233548Y8622316D01*
X23233550Y8622315D01*
X23305898Y8583643D01*
X23416043Y8524769D01*
X23614069Y8464699D01*
X23614065Y8464699D01*
X23789683Y8447403D01*
X23817159Y8436308D01*
X23827536Y8442977D01*
X23850317Y8447403D01*
X24025932Y8464699D01*
X24124944Y8494734D01*
X24223954Y8524768D01*
X24406450Y8622315D01*
X24448677Y8656969D01*
X24566410Y8753589D01*
X24645702Y8850209D01*
X24697685Y8913550D01*
X24795232Y9096046D01*
X24855300Y9294066D01*
X24875583Y9500000D01*
X24855300Y9705934D01*
X24795232Y9903954D01*
X24697685Y10086450D01*
X24566410Y10246410D01*
X24406450Y10377685D01*
X24223954Y10475232D01*
X24025934Y10535300D01*
X23820000Y10555583D01*
X23614066Y10535300D01*
X23416046Y10475232D01*
X23233550Y10377685D01*
X23170209Y10325702D01*
X23073589Y10246410D01*
X22976969Y10128677D01*
X22942315Y10086450D01*
X22851502Y9916554D01*
X22844769Y9903956D01*
X22784699Y9705932D01*
X22764417Y9500000D01*
X22335583Y9500000D01*
X22315300Y9705934D01*
X22255232Y9903954D01*
X22157685Y10086450D01*
X22026410Y10246410D01*
X21866450Y10377685D01*
X21683954Y10475232D01*
X21485934Y10535300D01*
X21280000Y10555583D01*
X21074066Y10535300D01*
X20876046Y10475232D01*
X20693550Y10377685D01*
X20630209Y10325702D01*
X20533589Y10246410D01*
X20436969Y10128677D01*
X20402315Y10086450D01*
X20311502Y9916554D01*
X20304769Y9903956D01*
X20244699Y9705932D01*
X20224417Y9500000D01*
X19795583Y9500000D01*
X19775300Y9705934D01*
X19715232Y9903954D01*
X19617685Y10086450D01*
X19486410Y10246410D01*
X19326450Y10377685D01*
X19143954Y10475232D01*
X18945934Y10535300D01*
X18740000Y10555583D01*
X18534066Y10535300D01*
X18336046Y10475232D01*
X18153550Y10377685D01*
X18090209Y10325702D01*
X17993589Y10246410D01*
X17896969Y10128677D01*
X17862315Y10086450D01*
X17771502Y9916554D01*
X17764769Y9903956D01*
X17704699Y9705932D01*
X17684417Y9500000D01*
X17255583Y9500000D01*
X17235300Y9705934D01*
X17175232Y9903954D01*
X17077685Y10086450D01*
X16946410Y10246410D01*
X16786450Y10377685D01*
X16603954Y10475232D01*
X16405934Y10535300D01*
X16200000Y10555583D01*
X15994066Y10535300D01*
X15796046Y10475232D01*
X15613550Y10377685D01*
X15550209Y10325702D01*
X15453589Y10246410D01*
X15356969Y10128677D01*
X15322315Y10086450D01*
X15231502Y9916554D01*
X15224769Y9903956D01*
X15164699Y9705932D01*
X15144417Y9500000D01*
X14715583Y9500000D01*
X14695300Y9705934D01*
X14635232Y9903954D01*
X14537685Y10086450D01*
X14406410Y10246410D01*
X14246450Y10377685D01*
X14063954Y10475232D01*
X13865934Y10535300D01*
X13660000Y10555583D01*
X13454066Y10535300D01*
X13256046Y10475232D01*
X13073550Y10377685D01*
X13010209Y10325702D01*
X12913589Y10246410D01*
X12816969Y10128677D01*
X12782315Y10086450D01*
X12691502Y9916554D01*
X12684769Y9903956D01*
X12624699Y9705932D01*
X12604417Y9500000D01*
X12175583Y9500000D01*
X12155300Y9705934D01*
X12095232Y9903954D01*
X11997685Y10086450D01*
X11866410Y10246410D01*
X11706450Y10377685D01*
X11523954Y10475232D01*
X11325934Y10535300D01*
X11120000Y10555583D01*
X10914066Y10535300D01*
X10716046Y10475232D01*
X10716044Y10475231D01*
X10716041Y10475230D01*
X10682455Y10457277D01*
X10614052Y10443034D01*
X10548808Y10468033D01*
X10507437Y10524337D01*
X10500000Y10566634D01*
X10500000Y10973365D01*
X10519685Y11040404D01*
X10572489Y11086159D01*
X10641647Y11096103D01*
X10682453Y11082724D01*
X10716045Y11064768D01*
X10914069Y11004699D01*
X10914065Y11004699D01*
X11120000Y10984417D01*
X11325932Y11004699D01*
X11424944Y11034734D01*
X11523954Y11064768D01*
X11706450Y11162315D01*
X11748677Y11196969D01*
X11866410Y11293589D01*
X11945702Y11390209D01*
X11997685Y11453550D01*
X12095232Y11636046D01*
X12155300Y11834066D01*
X12175583Y12040000D01*
X12604417Y12040000D01*
X12624699Y11834067D01*
X12684769Y11636043D01*
X12782317Y11453547D01*
X12913589Y11293589D01*
X13073547Y11162317D01*
X13073548Y11162316D01*
X13073550Y11162315D01*
X13145898Y11123643D01*
X13256043Y11064769D01*
X13454069Y11004699D01*
X13454065Y11004699D01*
X13660000Y10984417D01*
X13865932Y11004699D01*
X13964944Y11034734D01*
X14063954Y11064768D01*
X14246450Y11162315D01*
X14288677Y11196969D01*
X14406410Y11293589D01*
X14485702Y11390209D01*
X14537685Y11453550D01*
X14635232Y11636046D01*
X14695300Y11834066D01*
X14715583Y12040000D01*
X15144417Y12040000D01*
X15164699Y11834067D01*
X15224769Y11636043D01*
X15322317Y11453547D01*
X15453589Y11293589D01*
X15613547Y11162317D01*
X15613548Y11162316D01*
X15613550Y11162315D01*
X15685898Y11123643D01*
X15796043Y11064769D01*
X15994069Y11004699D01*
X15994065Y11004699D01*
X16200000Y10984417D01*
X16405932Y11004699D01*
X16504944Y11034734D01*
X16603954Y11064768D01*
X16786450Y11162315D01*
X16828677Y11196969D01*
X16946410Y11293589D01*
X17025702Y11390209D01*
X17077685Y11453550D01*
X17175232Y11636046D01*
X17235300Y11834066D01*
X17255583Y12040000D01*
X17684417Y12040000D01*
X17704699Y11834067D01*
X17764769Y11636043D01*
X17862317Y11453547D01*
X17993589Y11293589D01*
X18153547Y11162317D01*
X18153548Y11162316D01*
X18153550Y11162315D01*
X18225898Y11123643D01*
X18336043Y11064769D01*
X18534069Y11004699D01*
X18534065Y11004699D01*
X18740000Y10984417D01*
X18945932Y11004699D01*
X19044944Y11034734D01*
X19143954Y11064768D01*
X19326450Y11162315D01*
X19368677Y11196969D01*
X19486410Y11293589D01*
X19565702Y11390209D01*
X19617685Y11453550D01*
X19715232Y11636046D01*
X19775300Y11834066D01*
X19795583Y12040000D01*
X20224417Y12040000D01*
X20244699Y11834067D01*
X20304769Y11636043D01*
X20402317Y11453547D01*
X20533589Y11293589D01*
X20693547Y11162317D01*
X20693548Y11162316D01*
X20693550Y11162315D01*
X20765898Y11123643D01*
X20876043Y11064769D01*
X21074069Y11004699D01*
X21074065Y11004699D01*
X21280000Y10984417D01*
X21485932Y11004699D01*
X21584944Y11034734D01*
X21683954Y11064768D01*
X21866450Y11162315D01*
X21908677Y11196969D01*
X22026410Y11293589D01*
X22105702Y11390209D01*
X22157685Y11453550D01*
X22255232Y11636046D01*
X22315300Y11834066D01*
X22335583Y12040000D01*
X22764417Y12040000D01*
X22784699Y11834067D01*
X22844769Y11636043D01*
X22942317Y11453547D01*
X23073589Y11293589D01*
X23233547Y11162317D01*
X23233548Y11162316D01*
X23233550Y11162315D01*
X23305898Y11123643D01*
X23416043Y11064769D01*
X23614069Y11004699D01*
X23614065Y11004699D01*
X23820000Y10984417D01*
X24025932Y11004699D01*
X24124944Y11034734D01*
X24223954Y11064768D01*
X24406450Y11162315D01*
X24448677Y11196969D01*
X24566410Y11293589D01*
X24645702Y11390209D01*
X24697685Y11453550D01*
X24795232Y11636046D01*
X24815405Y11702551D01*
X24853702Y11760989D01*
X24917514Y11789446D01*
X24986581Y11778887D01*
X25038975Y11732663D01*
X25053841Y11698650D01*
X25086567Y11576514D01*
X25086570Y11576507D01*
X25186402Y11362417D01*
X25245072Y11278626D01*
X25245073Y11278625D01*
X25876923Y11910475D01*
X25900507Y11830156D01*
X25978239Y11709202D01*
X26086900Y11615048D01*
X26217685Y11555320D01*
X26227466Y11553913D01*
X25598625Y10925073D01*
X25598626Y10925072D01*
X25682417Y10866402D01*
X25896507Y10766570D01*
X25896514Y10766567D01*
X26018650Y10733841D01*
X26078310Y10697476D01*
X26108839Y10634629D01*
X26100544Y10565253D01*
X26056059Y10511375D01*
X26022553Y10495406D01*
X25956046Y10475232D01*
X25773550Y10377685D01*
X25710209Y10325702D01*
X25613589Y10246410D01*
X25516969Y10128677D01*
X25482315Y10086450D01*
X25391502Y9916554D01*
X25384769Y9903956D01*
X25324699Y9705932D01*
X25304417Y9500000D01*
X25324699Y9294067D01*
X25384769Y9096043D01*
X25482317Y8913547D01*
X25613589Y8753589D01*
X25773547Y8622317D01*
X25773548Y8622316D01*
X25773550Y8622315D01*
X25845898Y8583643D01*
X25956043Y8524769D01*
X26154069Y8464699D01*
X26154065Y8464699D01*
X26329683Y8447403D01*
X26357159Y8436308D01*
X26367536Y8442977D01*
X26390317Y8447403D01*
X26565932Y8464699D01*
X26664944Y8494734D01*
X26763954Y8524768D01*
X26946450Y8622315D01*
X26988677Y8656969D01*
X27106410Y8753589D01*
X27185702Y8850209D01*
X27237685Y8913550D01*
X27335232Y9096046D01*
X27395300Y9294066D01*
X27415583Y9500000D01*
X27395300Y9705934D01*
X27335232Y9903954D01*
X27237685Y10086450D01*
X27106410Y10246410D01*
X26946450Y10377685D01*
X26763954Y10475232D01*
X26697446Y10495406D01*
X26639010Y10533702D01*
X26610553Y10597514D01*
X26621112Y10666581D01*
X26667336Y10718975D01*
X26701349Y10733841D01*
X26823486Y10766567D01*
X26823492Y10766570D01*
X27037579Y10866400D01*
X27037583Y10866402D01*
X27121373Y10925072D01*
X27121373Y10925073D01*
X26492533Y11553913D01*
X26502315Y11555320D01*
X26633100Y11615048D01*
X26741761Y11709202D01*
X26819493Y11830156D01*
X26843076Y11910475D01*
X27474925Y11278625D01*
X27533599Y11362421D01*
X27633429Y11576507D01*
X27633433Y11576516D01*
X27694567Y11804673D01*
X27694569Y11804684D01*
X27715157Y12039998D01*
X27715157Y12040001D01*
X27694569Y12275315D01*
X27694567Y12275326D01*
X27633433Y12503483D01*
X27633429Y12503492D01*
X27533601Y12717575D01*
X27474925Y12801373D01*
X26843076Y12169524D01*
X26819493Y12249844D01*
X26741761Y12370798D01*
X26633100Y12464952D01*
X26502315Y12524680D01*
X26492533Y12526086D01*
X27121373Y13154925D01*
X27121373Y13154926D01*
X27037582Y13213598D01*
X27037578Y13213600D01*
X26823492Y13313429D01*
X26823483Y13313433D01*
X26595326Y13374567D01*
X26595315Y13374569D01*
X26360002Y13395157D01*
X26359998Y13395157D01*
X26124684Y13374569D01*
X26124673Y13374567D01*
X25896516Y13313433D01*
X25896507Y13313429D01*
X25682423Y13213600D01*
X25682421Y13213599D01*
X25598626Y13154925D01*
X25598625Y13154925D01*
X26227466Y12526086D01*
X26217685Y12524680D01*
X26086900Y12464952D01*
X25978239Y12370798D01*
X25900507Y12249844D01*
X25876923Y12169523D01*
X25245074Y12801373D01*
X25245073Y12801372D01*
X25186400Y12717578D01*
X25186399Y12717576D01*
X25086570Y12503492D01*
X25086567Y12503486D01*
X25053841Y12381349D01*
X25017476Y12321689D01*
X24954629Y12291160D01*
X24885253Y12299455D01*
X24831375Y12343940D01*
X24815407Y12377444D01*
X24795232Y12443954D01*
X24697685Y12626450D01*
X24566410Y12786410D01*
X24406450Y12917685D01*
X24223954Y13015232D01*
X24025934Y13075300D01*
X23820000Y13095583D01*
X23614066Y13075300D01*
X23416046Y13015232D01*
X23233550Y12917685D01*
X23170209Y12865702D01*
X23073589Y12786410D01*
X22976969Y12668677D01*
X22942315Y12626450D01*
X22876592Y12503492D01*
X22844769Y12443956D01*
X22784699Y12245932D01*
X22764417Y12040000D01*
X22335583Y12040000D01*
X22315300Y12245934D01*
X22255232Y12443954D01*
X22157685Y12626450D01*
X22026410Y12786410D01*
X21866450Y12917685D01*
X21683954Y13015232D01*
X21485934Y13075300D01*
X21280000Y13095583D01*
X21074066Y13075300D01*
X20876046Y13015232D01*
X20693550Y12917685D01*
X20630209Y12865702D01*
X20533589Y12786410D01*
X20436969Y12668677D01*
X20402315Y12626450D01*
X20336592Y12503492D01*
X20304769Y12443956D01*
X20244699Y12245932D01*
X20224417Y12040000D01*
X19795583Y12040000D01*
X19775300Y12245934D01*
X19715232Y12443954D01*
X19617685Y12626450D01*
X19486410Y12786410D01*
X19326450Y12917685D01*
X19143954Y13015232D01*
X18945934Y13075300D01*
X18740000Y13095583D01*
X18534066Y13075300D01*
X18336046Y13015232D01*
X18153550Y12917685D01*
X18090209Y12865702D01*
X17993589Y12786410D01*
X17896969Y12668677D01*
X17862315Y12626450D01*
X17796592Y12503492D01*
X17764769Y12443956D01*
X17704699Y12245932D01*
X17684417Y12040000D01*
X17255583Y12040000D01*
X17235300Y12245934D01*
X17175232Y12443954D01*
X17077685Y12626450D01*
X16946410Y12786410D01*
X16786450Y12917685D01*
X16603954Y13015232D01*
X16405934Y13075300D01*
X16200000Y13095583D01*
X15994066Y13075300D01*
X15796046Y13015232D01*
X15613550Y12917685D01*
X15550209Y12865702D01*
X15453589Y12786410D01*
X15356969Y12668677D01*
X15322315Y12626450D01*
X15256592Y12503492D01*
X15224769Y12443956D01*
X15164699Y12245932D01*
X15144417Y12040000D01*
X14715583Y12040000D01*
X14695300Y12245934D01*
X14635232Y12443954D01*
X14537685Y12626450D01*
X14406410Y12786410D01*
X14246450Y12917685D01*
X14063954Y13015232D01*
X13865934Y13075300D01*
X13660000Y13095583D01*
X13454066Y13075300D01*
X13256046Y13015232D01*
X13073550Y12917685D01*
X13010209Y12865702D01*
X12913589Y12786410D01*
X12816969Y12668677D01*
X12782315Y12626450D01*
X12716592Y12503492D01*
X12684769Y12443956D01*
X12624699Y12245932D01*
X12604417Y12040000D01*
X12175583Y12040000D01*
X12155300Y12245934D01*
X12095232Y12443954D01*
X11997685Y12626450D01*
X11866410Y12786410D01*
X11706450Y12917685D01*
X11523954Y13015232D01*
X11325934Y13075300D01*
X11120000Y13095583D01*
X10914066Y13075300D01*
X10716046Y13015232D01*
X10716043Y13015230D01*
X10716041Y13015230D01*
X10682455Y12997277D01*
X10614052Y12983034D01*
X10548808Y13008033D01*
X10507437Y13064337D01*
X10500000Y13106634D01*
X10500000Y15599998D01*
X23844818Y15599998D01*
X23865455Y15443239D01*
X23865456Y15443237D01*
X23925963Y15297160D01*
X24022218Y15171718D01*
X24147660Y15075463D01*
X24293737Y15014956D01*
X24293739Y15014955D01*
X24450499Y14994318D01*
X24450500Y14994318D01*
X24450501Y14994318D01*
X24607260Y15014955D01*
X24607262Y15014956D01*
X24753339Y15075463D01*
X24753341Y15075464D01*
X24878782Y15171718D01*
X24975036Y15297159D01*
X25035544Y15443238D01*
X25056182Y15600000D01*
X25035544Y15756762D01*
X24975036Y15902841D01*
X24878782Y16028282D01*
X24753341Y16124536D01*
X24607262Y16185044D01*
X24502754Y16198802D01*
X24450501Y16205682D01*
X24450499Y16205682D01*
X24372119Y16195363D01*
X24293738Y16185044D01*
X24147659Y16124536D01*
X24022218Y16028282D01*
X23925964Y15902841D01*
X23925963Y15902839D01*
X23865456Y15756762D01*
X23865455Y15756760D01*
X23844818Y15600001D01*
X23844818Y15599998D01*
X10500000Y15599998D01*
X10500000Y18099998D01*
X13394318Y18099998D01*
X13414955Y17943239D01*
X13414956Y17943237D01*
X13475463Y17797160D01*
X13571718Y17671718D01*
X13697160Y17575463D01*
X13843237Y17514956D01*
X13843239Y17514955D01*
X13999999Y17494318D01*
X14000000Y17494318D01*
X14000001Y17494318D01*
X14043146Y17499998D01*
X15694318Y17499998D01*
X15714955Y17343239D01*
X15714956Y17343237D01*
X15775463Y17197160D01*
X15871718Y17071718D01*
X15997160Y16975463D01*
X16143237Y16914956D01*
X16143239Y16914955D01*
X16299999Y16894318D01*
X16300000Y16894318D01*
X16300001Y16894318D01*
X16456760Y16914955D01*
X16456762Y16914956D01*
X16602839Y16975463D01*
X16602841Y16975464D01*
X16728282Y17071718D01*
X16824536Y17197159D01*
X16885044Y17343238D01*
X16905682Y17500000D01*
X16885044Y17656762D01*
X16824536Y17802841D01*
X16728282Y17928282D01*
X16602841Y18024536D01*
X16456762Y18085044D01*
X16352254Y18098802D01*
X16300001Y18105682D01*
X16299999Y18105682D01*
X16221619Y18095363D01*
X16143238Y18085044D01*
X15997159Y18024536D01*
X15871718Y17928282D01*
X15775464Y17802841D01*
X15775463Y17802839D01*
X15714956Y17656762D01*
X15714955Y17656760D01*
X15694318Y17500001D01*
X15694318Y17499998D01*
X14043146Y17499998D01*
X14156760Y17514955D01*
X14156762Y17514956D01*
X14302839Y17575463D01*
X14302841Y17575464D01*
X14428282Y17671718D01*
X14524536Y17797159D01*
X14585044Y17943238D01*
X14605682Y18100000D01*
X14585044Y18256762D01*
X14524536Y18402841D01*
X14428282Y18528282D01*
X14302841Y18624536D01*
X14302839Y18624537D01*
X14296392Y18629484D01*
X14298475Y18632198D01*
X14261166Y18671231D01*
X14247858Y18739821D01*
X14273746Y18804718D01*
X14323858Y18842748D01*
X14402839Y18875463D01*
X14402841Y18875464D01*
X14528282Y18971718D01*
X14624536Y19097159D01*
X14625712Y19099998D01*
X20094318Y19099998D01*
X20114955Y18943239D01*
X20114956Y18943237D01*
X20175463Y18797160D01*
X20271718Y18671718D01*
X20397160Y18575463D01*
X20543237Y18514956D01*
X20543239Y18514955D01*
X20699999Y18494318D01*
X20700000Y18494318D01*
X20700001Y18494318D01*
X20856760Y18514955D01*
X20856762Y18514956D01*
X21002839Y18575463D01*
X21002841Y18575464D01*
X21128282Y18671718D01*
X21224536Y18797159D01*
X21285044Y18943238D01*
X21305682Y19100000D01*
X21297480Y19162297D01*
X22294318Y19162297D01*
X22314955Y19005538D01*
X22314956Y19005536D01*
X22375463Y18859459D01*
X22471718Y18734017D01*
X22597160Y18637762D01*
X22743237Y18577255D01*
X22743239Y18577254D01*
X22899999Y18556617D01*
X22900000Y18556617D01*
X22900001Y18556617D01*
X23056760Y18577254D01*
X23056762Y18577255D01*
X23202839Y18637762D01*
X23202841Y18637763D01*
X23328282Y18734017D01*
X23424536Y18859458D01*
X23485044Y19005537D01*
X23505682Y19162299D01*
X23485044Y19319061D01*
X23424536Y19465140D01*
X23328282Y19590581D01*
X23202841Y19686835D01*
X23056762Y19747343D01*
X22952254Y19761101D01*
X22900001Y19767981D01*
X22899999Y19767981D01*
X22821619Y19757662D01*
X22743238Y19747343D01*
X22597159Y19686835D01*
X22471718Y19590581D01*
X22375464Y19465140D01*
X22375463Y19465138D01*
X22314956Y19319061D01*
X22314955Y19319059D01*
X22294318Y19162300D01*
X22294318Y19162297D01*
X21297480Y19162297D01*
X21285044Y19256762D01*
X21224536Y19402841D01*
X21128282Y19528282D01*
X21002841Y19624536D01*
X20856762Y19685044D01*
X20721580Y19702841D01*
X20700001Y19705682D01*
X20699999Y19705682D01*
X20621619Y19695363D01*
X20543238Y19685044D01*
X20397159Y19624536D01*
X20271718Y19528282D01*
X20175464Y19402841D01*
X20175463Y19402839D01*
X20114956Y19256762D01*
X20114955Y19256760D01*
X20094318Y19100001D01*
X20094318Y19099998D01*
X14625712Y19099998D01*
X14685044Y19243238D01*
X14705682Y19400000D01*
X14685044Y19556762D01*
X14624536Y19702841D01*
X14528282Y19828282D01*
X14402841Y19924536D01*
X14256762Y19985044D01*
X14152254Y19998802D01*
X14100001Y20005682D01*
X14099999Y20005682D01*
X14021619Y19995363D01*
X13943238Y19985044D01*
X13797159Y19924536D01*
X13671718Y19828282D01*
X13575464Y19702841D01*
X13575463Y19702839D01*
X13514956Y19556762D01*
X13514955Y19556760D01*
X13494318Y19400001D01*
X13494318Y19399998D01*
X13514955Y19243239D01*
X13514956Y19243237D01*
X13575463Y19097160D01*
X13575464Y19097159D01*
X13671718Y18971718D01*
X13797159Y18875464D01*
X13797160Y18875463D01*
X13803608Y18870516D01*
X13801548Y18867832D01*
X13838952Y18828538D01*
X13852116Y18759920D01*
X13826093Y18695078D01*
X13776140Y18657251D01*
X13709105Y18629484D01*
X13697159Y18624536D01*
X13571718Y18528282D01*
X13475464Y18402841D01*
X13475463Y18402839D01*
X13414956Y18256762D01*
X13414955Y18256760D01*
X13394318Y18100001D01*
X13394318Y18099998D01*
X10500000Y18099998D01*
X10500000Y21448638D01*
X10519685Y21515677D01*
X10536319Y21536319D01*
X10999998Y21999998D01*
X11694318Y21999998D01*
X11714955Y21843239D01*
X11714956Y21843237D01*
X11775463Y21697160D01*
X11871718Y21571718D01*
X11997160Y21475463D01*
X12143237Y21414956D01*
X12143239Y21414955D01*
X12299999Y21394318D01*
X12300000Y21394318D01*
X12300001Y21394318D01*
X12456760Y21414955D01*
X12456762Y21414956D01*
X12602839Y21475463D01*
X12602841Y21475464D01*
X12728282Y21571718D01*
X12824536Y21697159D01*
X12885044Y21843238D01*
X12892517Y21899998D01*
X17494318Y21899998D01*
X17514955Y21743239D01*
X17514956Y21743237D01*
X17575463Y21597160D01*
X17671718Y21471718D01*
X17797160Y21375463D01*
X17943237Y21314956D01*
X17943239Y21314955D01*
X18099999Y21294318D01*
X18100000Y21294318D01*
X18100001Y21294318D01*
X18256760Y21314955D01*
X18256762Y21314956D01*
X18402839Y21375463D01*
X18402841Y21375464D01*
X18528282Y21471718D01*
X18624536Y21597159D01*
X18667133Y21699998D01*
X25694318Y21699998D01*
X25714955Y21543239D01*
X25714956Y21543237D01*
X25775463Y21397160D01*
X25871718Y21271718D01*
X25997160Y21175463D01*
X26143237Y21114956D01*
X26143239Y21114955D01*
X26299999Y21094318D01*
X26300000Y21094318D01*
X26300001Y21094318D01*
X26456760Y21114955D01*
X26456762Y21114956D01*
X26602839Y21175463D01*
X26602841Y21175464D01*
X26728282Y21271718D01*
X26824536Y21397159D01*
X26824536Y21397160D01*
X26829484Y21403608D01*
X26832187Y21401533D01*
X26871315Y21438877D01*
X26939916Y21452132D01*
X27004793Y21426195D01*
X27042748Y21376142D01*
X27075464Y21297159D01*
X27171718Y21171718D01*
X27297160Y21075463D01*
X27443237Y21014956D01*
X27443239Y21014955D01*
X27599999Y20994318D01*
X27600000Y20994318D01*
X27600001Y20994318D01*
X27756760Y21014955D01*
X27756762Y21014956D01*
X27902839Y21075463D01*
X27902841Y21075464D01*
X28028282Y21171718D01*
X28124536Y21297159D01*
X28185044Y21443238D01*
X28205682Y21600000D01*
X28185044Y21756762D01*
X28124536Y21902841D01*
X28028282Y22028282D01*
X27902841Y22124536D01*
X27756762Y22185044D01*
X27621580Y22202841D01*
X27600001Y22205682D01*
X27599999Y22205682D01*
X27521619Y22195363D01*
X27443238Y22185044D01*
X27297159Y22124536D01*
X27171718Y22028282D01*
X27091592Y21923859D01*
X27070516Y21896392D01*
X27067821Y21898459D01*
X27028623Y21861091D01*
X26960014Y21847873D01*
X26895152Y21873847D01*
X26857251Y21923859D01*
X26825713Y21999998D01*
X26824536Y22002841D01*
X26728282Y22128282D01*
X26602841Y22224536D01*
X26456762Y22285044D01*
X26321580Y22302841D01*
X26300001Y22305682D01*
X26299999Y22305682D01*
X26221619Y22295363D01*
X26143238Y22285044D01*
X25997159Y22224536D01*
X25871718Y22128282D01*
X25775464Y22002841D01*
X25775463Y22002839D01*
X25714956Y21856762D01*
X25714955Y21856760D01*
X25694318Y21700001D01*
X25694318Y21699998D01*
X18667133Y21699998D01*
X18685044Y21743238D01*
X18698209Y21843239D01*
X18705682Y21899998D01*
X18705682Y21900001D01*
X18692143Y22002841D01*
X18685044Y22056762D01*
X18624536Y22202841D01*
X18528282Y22328282D01*
X18402841Y22424536D01*
X18256762Y22485044D01*
X18152254Y22498802D01*
X18100001Y22505682D01*
X18099999Y22505682D01*
X18021619Y22495363D01*
X17943238Y22485044D01*
X17797159Y22424536D01*
X17671718Y22328282D01*
X17575464Y22202841D01*
X17575463Y22202839D01*
X17514956Y22056762D01*
X17514955Y22056760D01*
X17494318Y21900001D01*
X17494318Y21899998D01*
X12892517Y21899998D01*
X12905682Y22000000D01*
X12885044Y22156762D01*
X12824536Y22302841D01*
X12728282Y22428282D01*
X12602841Y22524536D01*
X12456762Y22585044D01*
X12352254Y22598802D01*
X12300001Y22605682D01*
X12299999Y22605682D01*
X12221619Y22595363D01*
X12143238Y22585044D01*
X11997159Y22524536D01*
X11871718Y22428282D01*
X11775464Y22302841D01*
X11775463Y22302839D01*
X11714956Y22156762D01*
X11714955Y22156760D01*
X11694318Y22000001D01*
X11694318Y21999998D01*
X10999998Y21999998D01*
X12463681Y23463681D01*
X12525004Y23497166D01*
X12551362Y23500000D01*
X18530129Y23500000D01*
X18597168Y23480315D01*
G37*
%TD.AperFunction*%
%TD*%
M02*
