%TF.GenerationSoftware,KiCad,Pcbnew,7.0.9*%
%TF.CreationDate,2024-02-15T22:31:25-05:00*%
%TF.ProjectId,pbm_driver4,70626d5f-6472-4697-9665-72342e6b6963,rev?*%
%TF.SameCoordinates,PX2625a0PY53ec60*%
%TF.FileFunction,Soldermask,Bot*%
%TF.FilePolarity,Negative*%
%FSLAX46Y46*%
G04 Gerber Fmt 4.6, Leading zero omitted, Abs format (unit mm)*
G04 Created by KiCad (PCBNEW 7.0.9) date 2024-02-15 22:31:25*
%MOMM*%
%LPD*%
G01*
G04 APERTURE LIST*
G04 Aperture macros list*
%AMRoundRect*
0 Rectangle with rounded corners*
0 $1 Rounding radius*
0 $2 $3 $4 $5 $6 $7 $8 $9 X,Y pos of 4 corners*
0 Add a 4 corners polygon primitive as box body*
4,1,4,$2,$3,$4,$5,$6,$7,$8,$9,$2,$3,0*
0 Add four circle primitives for the rounded corners*
1,1,$1+$1,$2,$3*
1,1,$1+$1,$4,$5*
1,1,$1+$1,$6,$7*
1,1,$1+$1,$8,$9*
0 Add four rect primitives between the rounded corners*
20,1,$1+$1,$2,$3,$4,$5,0*
20,1,$1+$1,$4,$5,$6,$7,0*
20,1,$1+$1,$6,$7,$8,$9,0*
20,1,$1+$1,$8,$9,$2,$3,0*%
G04 Aperture macros list end*
%ADD10R,1.700000X1.700000*%
%ADD11O,1.700000X1.700000*%
%ADD12RoundRect,0.200000X0.275000X-0.200000X0.275000X0.200000X-0.275000X0.200000X-0.275000X-0.200000X0*%
%ADD13RoundRect,0.200000X-0.275000X0.200000X-0.275000X-0.200000X0.275000X-0.200000X0.275000X0.200000X0*%
%ADD14RoundRect,0.250000X-0.250000X-0.475000X0.250000X-0.475000X0.250000X0.475000X-0.250000X0.475000X0*%
%ADD15RoundRect,0.250000X0.250000X0.475000X-0.250000X0.475000X-0.250000X-0.475000X0.250000X-0.475000X0*%
%ADD16RoundRect,0.225000X0.250000X-0.225000X0.250000X0.225000X-0.250000X0.225000X-0.250000X-0.225000X0*%
%ADD17RoundRect,0.225000X-0.225000X-0.250000X0.225000X-0.250000X0.225000X0.250000X-0.225000X0.250000X0*%
%ADD18C,7.330000*%
%ADD19C,0.800000*%
G04 APERTURE END LIST*
D10*
%TO.C,J1*%
X3500000Y9500000D03*
D11*
X3500000Y12040000D03*
X6040000Y9500000D03*
X6040000Y12040000D03*
X8580000Y9500000D03*
X8580000Y12040000D03*
X11120000Y9500000D03*
X11120000Y12040000D03*
X13660000Y9500000D03*
X13660000Y12040000D03*
X16200000Y9500000D03*
X16200000Y12040000D03*
X18740000Y9500000D03*
X18740000Y12040000D03*
X21280000Y9500000D03*
X21280000Y12040000D03*
X23820000Y9500000D03*
X23820000Y12040000D03*
X26360000Y9500000D03*
X26360000Y12040000D03*
%TD*%
D10*
%TO.C,J2*%
X3500000Y59600000D03*
D11*
X6040000Y59600000D03*
X8580000Y59600000D03*
X11120000Y59600000D03*
X13660000Y59600000D03*
X16200000Y59600000D03*
X18740000Y59600000D03*
X21280000Y59600000D03*
X23820000Y59600000D03*
X26360000Y59600000D03*
%TD*%
D12*
%TO.C,R10*%
X25200000Y19625000D03*
X25200000Y17975000D03*
%TD*%
%TO.C,R9*%
X27300000Y19625000D03*
X27300000Y17975000D03*
%TD*%
D13*
%TO.C,R8*%
X20700000Y20575000D03*
X20700000Y22225000D03*
%TD*%
%TO.C,R7*%
X20700000Y15975000D03*
X20700000Y17625000D03*
%TD*%
%TO.C,R6*%
X22900000Y20575000D03*
X22900000Y22225000D03*
%TD*%
%TO.C,R5*%
X22900000Y15975000D03*
X22900000Y17625000D03*
%TD*%
D14*
%TO.C,C13*%
X27850000Y24000000D03*
X25950000Y24000000D03*
%TD*%
D15*
%TO.C,C12*%
X21350000Y56300000D03*
X23250000Y56300000D03*
%TD*%
%TO.C,C11*%
X20050000Y63000000D03*
X21950000Y63000000D03*
%TD*%
D16*
%TO.C,C10*%
X15200000Y19275000D03*
X15200000Y17725000D03*
%TD*%
D15*
%TO.C,C9*%
X16350000Y56300000D03*
X18250000Y56300000D03*
%TD*%
%TO.C,C8*%
X16050000Y63000000D03*
X17950000Y63000000D03*
%TD*%
%TO.C,C7*%
X11150000Y56300000D03*
X13050000Y56300000D03*
%TD*%
%TO.C,C6*%
X12050000Y63000000D03*
X13950000Y63000000D03*
%TD*%
%TO.C,C5*%
X6150000Y56300000D03*
X8050000Y56300000D03*
%TD*%
%TO.C,C4*%
X8050000Y63000000D03*
X9950000Y63000000D03*
%TD*%
D17*
%TO.C,C3*%
X26275000Y14600000D03*
X24725000Y14600000D03*
%TD*%
D16*
%TO.C,C2*%
X22000000Y27275000D03*
X22000000Y25725000D03*
%TD*%
%TO.C,C1*%
X8000000Y27275000D03*
X8000000Y25725000D03*
%TD*%
D18*
%TO.C,H4*%
X26000000Y4000000D03*
%TD*%
%TO.C,H3*%
X4000000Y4000000D03*
%TD*%
%TO.C,H2*%
X26000000Y66000000D03*
%TD*%
%TO.C,H1*%
X4000000Y66000000D03*
%TD*%
D19*
X8700000Y28400000D03*
X22700000Y28400000D03*
X4900000Y30200000D03*
X10900000Y30200000D03*
X15000000Y52500000D03*
X14900000Y26000000D03*
X17900000Y30200000D03*
X11900000Y30200000D03*
X3900000Y30200000D03*
X18100000Y61400000D03*
X28600000Y25800000D03*
X21300000Y24600000D03*
X2900000Y30200000D03*
X1800000Y25700000D03*
X9000000Y57800000D03*
X18200000Y57800000D03*
X23300000Y57800000D03*
X13600000Y57800000D03*
X14000000Y18100000D03*
X24450500Y15600000D03*
X9900000Y30200000D03*
X24900000Y30200000D03*
X10000000Y61400000D03*
X25900000Y30200000D03*
X18900000Y30200000D03*
X7300000Y24600000D03*
X16900000Y30200000D03*
X14000000Y61400000D03*
X23900000Y30200000D03*
X22100000Y61400000D03*
X21800000Y23700000D03*
X16400000Y18800000D03*
X28900000Y19600000D03*
X21800000Y14800000D03*
X26600000Y15600000D03*
X6000000Y46300000D03*
X4400000Y46300000D03*
X2800000Y46300000D03*
X11500000Y46300000D03*
X13100000Y46300000D03*
X9900000Y46300000D03*
X18700000Y46300000D03*
X17100000Y46300000D03*
X20300000Y46300000D03*
X25500000Y46300000D03*
X23900000Y46300000D03*
X27100000Y46300000D03*
X3565000Y27135000D03*
X12300000Y25800000D03*
X16665000Y27135000D03*
X19200000Y23100000D03*
X4900000Y17700000D03*
X18100000Y21900000D03*
X12300000Y22000000D03*
X14100000Y19400000D03*
X16300000Y17500000D03*
X6100000Y19000000D03*
X22900000Y19162299D03*
X20700000Y19100000D03*
X26300000Y21700000D03*
X14300000Y47900000D03*
X27600000Y21600000D03*
X15700000Y47900000D03*
M02*
