M48
; DRILL file {KiCad 7.0.9} date Thu Feb 15 22:27:17 2024
; FORMAT={-:-/ absolute / metric / decimal}
; #@! TF.CreationDate,2024-02-15T22:27:17-05:00
; #@! TF.GenerationSoftware,Kicad,Pcbnew,7.0.9
; #@! TF.FileFunction,Plated,1,4,PTH
FMAT,2
METRIC
; #@! TA.AperFunction,Plated,PTH,ViaDrill
T1C0.400
; #@! TA.AperFunction,Plated,PTH,ComponentDrill
T2C1.000
; #@! TA.AperFunction,Plated,PTH,ComponentDrill
T3C3.200
%
G90
G05
T1
X1.8Y25.7
X2.8Y46.3
X2.9Y30.2
X3.565Y27.135
X3.9Y30.2
X4.4Y46.3
X4.9Y30.2
X4.9Y17.7
X6.0Y46.3
X6.1Y19.0
X7.3Y24.6
X8.7Y28.4
X9.0Y57.8
X9.9Y46.3
X9.9Y30.2
X10.0Y61.4
X10.9Y30.2
X11.5Y46.3
X11.9Y30.2
X12.3Y25.8
X12.3Y22.0
X13.1Y46.3
X13.6Y57.8
X14.0Y61.4
X14.0Y18.1
X14.1Y19.4
X14.3Y47.9
X14.9Y26.0
X15.0Y52.5
X15.7Y47.9
X16.3Y17.5
X16.4Y18.8
X16.665Y27.135
X16.9Y30.2
X17.1Y46.3
X17.9Y30.2
X18.1Y61.4
X18.1Y21.9
X18.2Y57.8
X18.7Y46.3
X18.9Y30.2
X19.2Y23.1
X20.3Y46.3
X20.7Y19.1
X21.3Y24.6
X21.8Y23.7
X21.8Y14.8
X22.1Y61.4
X22.7Y28.4
X22.9Y19.162
X23.3Y57.8
X23.9Y46.3
X23.9Y30.2
X24.45Y15.6
X24.9Y30.2
X25.5Y46.3
X25.9Y30.2
X26.3Y21.7
X26.6Y15.6
X27.1Y46.3
X27.6Y21.6
X28.6Y25.8
X28.9Y19.6
T2
X3.5Y59.6
X3.5Y12.04
X3.5Y9.5
X6.04Y59.6
X6.04Y12.04
X6.04Y9.5
X8.58Y59.6
X8.58Y12.04
X8.58Y9.5
X11.12Y59.6
X11.12Y12.04
X11.12Y9.5
X13.66Y59.6
X13.66Y12.04
X13.66Y9.5
X16.2Y59.6
X16.2Y12.04
X16.2Y9.5
X18.74Y59.6
X18.74Y12.04
X18.74Y9.5
X21.28Y59.6
X21.28Y12.04
X21.28Y9.5
X23.82Y59.6
X23.82Y12.04
X23.82Y9.5
X26.36Y59.6
X26.36Y12.04
X26.36Y9.5
T3
X4.0Y66.0
X4.0Y4.0
X26.0Y66.0
X26.0Y4.0
T0
M30
