%TF.GenerationSoftware,KiCad,Pcbnew,7.0.9*%
%TF.CreationDate,2024-02-15T22:31:25-05:00*%
%TF.ProjectId,pbm_driver4,70626d5f-6472-4697-9665-72342e6b6963,rev?*%
%TF.SameCoordinates,PX2625a0PY53ec60*%
%TF.FileFunction,Copper,L2,Inr*%
%TF.FilePolarity,Positive*%
%FSLAX46Y46*%
G04 Gerber Fmt 4.6, Leading zero omitted, Abs format (unit mm)*
G04 Created by KiCad (PCBNEW 7.0.9) date 2024-02-15 22:31:25*
%MOMM*%
%LPD*%
G01*
G04 APERTURE LIST*
%TA.AperFunction,ComponentPad*%
%ADD10R,1.700000X1.700000*%
%TD*%
%TA.AperFunction,ComponentPad*%
%ADD11O,1.700000X1.700000*%
%TD*%
%TA.AperFunction,ComponentPad*%
%ADD12C,7.330000*%
%TD*%
%TA.AperFunction,ViaPad*%
%ADD13C,0.800000*%
%TD*%
G04 APERTURE END LIST*
D10*
%TO.N,GND*%
%TO.C,J1*%
X3500000Y9500000D03*
D11*
%TO.N,+12V*%
X3500000Y12040000D03*
%TO.N,/DAC1*%
X6040000Y9500000D03*
%TO.N,/DAC2*%
X6040000Y12040000D03*
%TO.N,/SENSE1*%
X8580000Y9500000D03*
%TO.N,/SENSE2*%
X8580000Y12040000D03*
%TO.N,/SENSE3*%
X11120000Y9500000D03*
%TO.N,/SENSE4*%
X11120000Y12040000D03*
%TO.N,GND*%
X13660000Y9500000D03*
X13660000Y12040000D03*
%TO.N,/SEL1*%
X16200000Y9500000D03*
%TO.N,/SEL2*%
X16200000Y12040000D03*
%TO.N,/SEL3*%
X18740000Y9500000D03*
%TO.N,/SEL4*%
X18740000Y12040000D03*
%TO.N,GND*%
X21280000Y9500000D03*
X21280000Y12040000D03*
%TO.N,/I2C_SCL*%
X23820000Y9500000D03*
%TO.N,/I2C_SDA*%
X23820000Y12040000D03*
%TO.N,GND*%
X26360000Y9500000D03*
%TO.N,+3.3V*%
X26360000Y12040000D03*
%TD*%
D10*
%TO.N,GND*%
%TO.C,J2*%
X3500000Y59600000D03*
D11*
%TO.N,+12V*%
X6040000Y59600000D03*
%TO.N,/LED1*%
X8580000Y59600000D03*
%TO.N,+12V*%
X11120000Y59600000D03*
%TO.N,/LED2*%
X13660000Y59600000D03*
%TO.N,+12V*%
X16200000Y59600000D03*
%TO.N,/LED3*%
X18740000Y59600000D03*
%TO.N,+12V*%
X21280000Y59600000D03*
%TO.N,/LED4*%
X23820000Y59600000D03*
%TO.N,GND*%
X26360000Y59600000D03*
%TD*%
D12*
%TO.N,GND*%
%TO.C,H4*%
X26000000Y4000000D03*
%TD*%
%TO.N,GND*%
%TO.C,H3*%
X4000000Y4000000D03*
%TD*%
%TO.N,GND*%
%TO.C,H2*%
X26000000Y66000000D03*
%TD*%
%TO.N,GND*%
%TO.C,H1*%
X4000000Y66000000D03*
%TD*%
D13*
%TO.N,+12V*%
X8700000Y28400000D03*
X22700000Y28400000D03*
%TO.N,GND*%
X4900000Y30200000D03*
X10900000Y30200000D03*
X15000000Y52500000D03*
X14900000Y26000000D03*
X17900000Y30200000D03*
X11900000Y30200000D03*
X3900000Y30200000D03*
X18100000Y61400000D03*
X28600000Y25800000D03*
X21300000Y24600000D03*
X2900000Y30200000D03*
X1800000Y25700000D03*
X9000000Y57800000D03*
X18200000Y57800000D03*
X23300000Y57800000D03*
X13600000Y57800000D03*
X14000000Y18100000D03*
X24450500Y15600000D03*
X9900000Y30200000D03*
X24900000Y30200000D03*
X10000000Y61400000D03*
X25900000Y30200000D03*
X18900000Y30200000D03*
X7300000Y24600000D03*
X16900000Y30200000D03*
X14000000Y61400000D03*
X23900000Y30200000D03*
X22100000Y61400000D03*
X21800000Y23700000D03*
%TO.N,+3.3V*%
X16400000Y18800000D03*
X28900000Y19600000D03*
X21800000Y14800000D03*
X26600000Y15600000D03*
%TO.N,/LED1*%
X6000000Y46300000D03*
X4400000Y46300000D03*
X2800000Y46300000D03*
%TO.N,/LED2*%
X11500000Y46300000D03*
X13100000Y46300000D03*
X9900000Y46300000D03*
%TO.N,/LED3*%
X18700000Y46300000D03*
X17100000Y46300000D03*
X20300000Y46300000D03*
%TO.N,/LED4*%
X25500000Y46300000D03*
X23900000Y46300000D03*
X27100000Y46300000D03*
%TO.N,/SENSE1*%
X3565000Y27135000D03*
%TO.N,/SENSE2*%
X12300000Y25800000D03*
%TO.N,/SENSE3*%
X16665000Y27135000D03*
%TO.N,/SENSE4*%
X19200000Y23100000D03*
%TO.N,/DAC1*%
X4900000Y17700000D03*
%TO.N,/SEL3*%
X18100000Y21900000D03*
%TO.N,/SEL2*%
X12300000Y22000000D03*
%TO.N,/DAC2*%
X14100000Y19400000D03*
X16300000Y17500000D03*
X6100000Y19000000D03*
%TO.N,/Sheet 5/A1*%
X22900000Y19162299D03*
%TO.N,/Sheet 5/A0*%
X20700000Y19100000D03*
%TO.N,/Sheet 5/DX_N*%
X26300000Y21700000D03*
X14300000Y47900000D03*
%TO.N,/Sheet 5/DX_P*%
X27600000Y21600000D03*
X15700000Y47900000D03*
%TD*%
%TA.AperFunction,Conductor*%
%TO.N,GND*%
G36*
X29443039Y69480315D02*
G01*
X29488794Y69427511D01*
X29500000Y69376000D01*
X29500000Y20147964D01*
X29480315Y20080925D01*
X29427511Y20035170D01*
X29358353Y20025226D01*
X29300515Y20049587D01*
X29202841Y20124536D01*
X29056762Y20185044D01*
X28952254Y20198802D01*
X28900001Y20205682D01*
X28899999Y20205682D01*
X28821619Y20195363D01*
X28743238Y20185044D01*
X28597159Y20124536D01*
X28471718Y20028282D01*
X28375464Y19902841D01*
X28375463Y19902839D01*
X28314956Y19756762D01*
X28314955Y19756760D01*
X28294318Y19600001D01*
X28294318Y19599998D01*
X28314955Y19443239D01*
X28314956Y19443237D01*
X28375463Y19297160D01*
X28471718Y19171718D01*
X28597160Y19075463D01*
X28743237Y19014956D01*
X28743239Y19014955D01*
X28899999Y18994318D01*
X28900000Y18994318D01*
X28900001Y18994318D01*
X29056760Y19014955D01*
X29056762Y19014956D01*
X29202839Y19075463D01*
X29202841Y19075464D01*
X29300515Y19150411D01*
X29365683Y19175605D01*
X29434128Y19161567D01*
X29484117Y19112753D01*
X29500000Y19052035D01*
X29500000Y624000D01*
X29480315Y556961D01*
X29427511Y511206D01*
X29376000Y500000D01*
X624000Y500000D01*
X556961Y519685D01*
X511206Y572489D01*
X500000Y624000D01*
X500000Y8602155D01*
X2150000Y8602155D01*
X2156401Y8542626D01*
X2165276Y8518829D01*
X3016923Y9370476D01*
X3040507Y9290156D01*
X3118239Y9169202D01*
X3226900Y9075048D01*
X3357685Y9015320D01*
X3367465Y9013913D01*
X2518829Y8165276D01*
X2542626Y8156401D01*
X2602155Y8150000D01*
X4397844Y8150000D01*
X4457372Y8156401D01*
X4457382Y8156403D01*
X4481168Y8165275D01*
X4481169Y8165276D01*
X3632533Y9013913D01*
X3642315Y9015320D01*
X3773100Y9075048D01*
X3881761Y9169202D01*
X3959493Y9290156D01*
X3983076Y9370475D01*
X4834722Y8518829D01*
X4834723Y8518829D01*
X4843598Y8542624D01*
X4849999Y8602155D01*
X4850000Y8602172D01*
X4850000Y9002813D01*
X4869685Y9069852D01*
X4922489Y9115607D01*
X4991647Y9125551D01*
X5055203Y9096526D01*
X5083358Y9061267D01*
X5162317Y8913547D01*
X5293589Y8753589D01*
X5453547Y8622317D01*
X5453548Y8622316D01*
X5453550Y8622315D01*
X5525898Y8583643D01*
X5636043Y8524769D01*
X5636045Y8524768D01*
X5636046Y8524768D01*
X5735056Y8494734D01*
X5834069Y8464699D01*
X5834065Y8464699D01*
X6040000Y8444417D01*
X6245932Y8464699D01*
X6344944Y8494734D01*
X6443954Y8524768D01*
X6626450Y8622315D01*
X6668677Y8656969D01*
X6786410Y8753589D01*
X6865702Y8850209D01*
X6917685Y8913550D01*
X7015232Y9096046D01*
X7075300Y9294066D01*
X7095583Y9500000D01*
X7524417Y9500000D01*
X7544699Y9294067D01*
X7604769Y9096043D01*
X7702317Y8913547D01*
X7833589Y8753589D01*
X7993547Y8622317D01*
X7993548Y8622316D01*
X7993550Y8622315D01*
X8065898Y8583643D01*
X8176043Y8524769D01*
X8176045Y8524768D01*
X8176046Y8524768D01*
X8275056Y8494734D01*
X8374069Y8464699D01*
X8374065Y8464699D01*
X8580000Y8444417D01*
X8785932Y8464699D01*
X8884944Y8494734D01*
X8983954Y8524768D01*
X9166450Y8622315D01*
X9208677Y8656969D01*
X9326410Y8753589D01*
X9405702Y8850209D01*
X9457685Y8913550D01*
X9555232Y9096046D01*
X9615300Y9294066D01*
X9635583Y9500000D01*
X10064417Y9500000D01*
X10084699Y9294067D01*
X10144769Y9096043D01*
X10242317Y8913547D01*
X10373589Y8753589D01*
X10533547Y8622317D01*
X10533548Y8622316D01*
X10533550Y8622315D01*
X10605898Y8583643D01*
X10716043Y8524769D01*
X10716045Y8524768D01*
X10716046Y8524768D01*
X10815056Y8494734D01*
X10914069Y8464699D01*
X10914065Y8464699D01*
X11120000Y8444417D01*
X11325932Y8464699D01*
X11424944Y8494734D01*
X11523954Y8524768D01*
X11706450Y8622315D01*
X11748677Y8656969D01*
X11866410Y8753589D01*
X11945702Y8850209D01*
X11997685Y8913550D01*
X12095232Y9096046D01*
X12115406Y9162552D01*
X12153702Y9220989D01*
X12217514Y9249446D01*
X12286581Y9238887D01*
X12338975Y9192663D01*
X12353841Y9158650D01*
X12386567Y9036514D01*
X12386570Y9036507D01*
X12486402Y8822417D01*
X12545072Y8738626D01*
X12545073Y8738625D01*
X13176923Y9370475D01*
X13200507Y9290156D01*
X13278239Y9169202D01*
X13386900Y9075048D01*
X13517685Y9015320D01*
X13527466Y9013913D01*
X12898625Y8385073D01*
X12898626Y8385072D01*
X12982417Y8326402D01*
X13196507Y8226570D01*
X13196516Y8226566D01*
X13424673Y8165432D01*
X13424684Y8165430D01*
X13659998Y8144843D01*
X13660002Y8144843D01*
X13895315Y8165430D01*
X13895326Y8165432D01*
X14123483Y8226566D01*
X14123492Y8226570D01*
X14337579Y8326400D01*
X14337583Y8326402D01*
X14421373Y8385072D01*
X14421373Y8385073D01*
X13792533Y9013913D01*
X13802315Y9015320D01*
X13933100Y9075048D01*
X14041761Y9169202D01*
X14119493Y9290156D01*
X14143076Y9370475D01*
X14774925Y8738625D01*
X14833599Y8822421D01*
X14933429Y9036507D01*
X14933433Y9036516D01*
X14966158Y9158649D01*
X15002523Y9218310D01*
X15065369Y9248839D01*
X15134745Y9240545D01*
X15188623Y9196059D01*
X15204593Y9162552D01*
X15224767Y9096046D01*
X15322317Y8913547D01*
X15453589Y8753589D01*
X15613547Y8622317D01*
X15613548Y8622316D01*
X15613550Y8622315D01*
X15685898Y8583643D01*
X15796043Y8524769D01*
X15796045Y8524768D01*
X15796046Y8524768D01*
X15895056Y8494734D01*
X15994069Y8464699D01*
X15994065Y8464699D01*
X16200000Y8444417D01*
X16405932Y8464699D01*
X16504944Y8494734D01*
X16603954Y8524768D01*
X16786450Y8622315D01*
X16828677Y8656969D01*
X16946410Y8753589D01*
X17025702Y8850209D01*
X17077685Y8913550D01*
X17175232Y9096046D01*
X17235300Y9294066D01*
X17255583Y9500000D01*
X17684417Y9500000D01*
X17704699Y9294067D01*
X17764769Y9096043D01*
X17862317Y8913547D01*
X17993589Y8753589D01*
X18153547Y8622317D01*
X18153548Y8622316D01*
X18153550Y8622315D01*
X18225898Y8583643D01*
X18336043Y8524769D01*
X18336045Y8524768D01*
X18336046Y8524768D01*
X18435056Y8494734D01*
X18534069Y8464699D01*
X18534065Y8464699D01*
X18740000Y8444417D01*
X18945932Y8464699D01*
X19044944Y8494734D01*
X19143954Y8524768D01*
X19326450Y8622315D01*
X19368677Y8656969D01*
X19486410Y8753589D01*
X19565702Y8850209D01*
X19617685Y8913550D01*
X19715232Y9096046D01*
X19735406Y9162552D01*
X19773702Y9220989D01*
X19837514Y9249446D01*
X19906581Y9238887D01*
X19958975Y9192663D01*
X19973841Y9158650D01*
X20006567Y9036514D01*
X20006570Y9036507D01*
X20106402Y8822417D01*
X20165072Y8738626D01*
X20165073Y8738625D01*
X20796923Y9370475D01*
X20820507Y9290156D01*
X20898239Y9169202D01*
X21006900Y9075048D01*
X21137685Y9015320D01*
X21147466Y9013913D01*
X20518625Y8385073D01*
X20518626Y8385072D01*
X20602417Y8326402D01*
X20816507Y8226570D01*
X20816516Y8226566D01*
X21044673Y8165432D01*
X21044684Y8165430D01*
X21279998Y8144843D01*
X21280002Y8144843D01*
X21515315Y8165430D01*
X21515326Y8165432D01*
X21743483Y8226566D01*
X21743492Y8226570D01*
X21957579Y8326400D01*
X21957583Y8326402D01*
X22041373Y8385072D01*
X22041373Y8385073D01*
X21412533Y9013913D01*
X21422315Y9015320D01*
X21553100Y9075048D01*
X21661761Y9169202D01*
X21739493Y9290156D01*
X21763076Y9370475D01*
X22394925Y8738625D01*
X22453599Y8822421D01*
X22553429Y9036507D01*
X22553433Y9036516D01*
X22586158Y9158649D01*
X22622523Y9218310D01*
X22685369Y9248839D01*
X22754745Y9240545D01*
X22808623Y9196059D01*
X22824593Y9162552D01*
X22844767Y9096046D01*
X22942317Y8913547D01*
X23073589Y8753589D01*
X23233547Y8622317D01*
X23233548Y8622316D01*
X23233550Y8622315D01*
X23305898Y8583643D01*
X23416043Y8524769D01*
X23416045Y8524768D01*
X23416046Y8524768D01*
X23515056Y8494734D01*
X23614069Y8464699D01*
X23614065Y8464699D01*
X23820000Y8444417D01*
X24025932Y8464699D01*
X24124944Y8494734D01*
X24223954Y8524768D01*
X24406450Y8622315D01*
X24448677Y8656969D01*
X24566410Y8753589D01*
X24645702Y8850209D01*
X24697685Y8913550D01*
X24795232Y9096046D01*
X24815406Y9162552D01*
X24853702Y9220989D01*
X24917514Y9249446D01*
X24986581Y9238887D01*
X25038975Y9192663D01*
X25053841Y9158650D01*
X25086567Y9036514D01*
X25086570Y9036507D01*
X25186402Y8822417D01*
X25245072Y8738626D01*
X25245073Y8738625D01*
X25876923Y9370475D01*
X25900507Y9290156D01*
X25978239Y9169202D01*
X26086900Y9075048D01*
X26217685Y9015320D01*
X26227466Y9013913D01*
X25598625Y8385073D01*
X25598626Y8385072D01*
X25682417Y8326402D01*
X25896507Y8226570D01*
X25896516Y8226566D01*
X26124673Y8165432D01*
X26124684Y8165430D01*
X26359998Y8144843D01*
X26360002Y8144843D01*
X26595315Y8165430D01*
X26595326Y8165432D01*
X26823483Y8226566D01*
X26823492Y8226570D01*
X27037579Y8326400D01*
X27037583Y8326402D01*
X27121373Y8385072D01*
X27121373Y8385073D01*
X26492533Y9013913D01*
X26502315Y9015320D01*
X26633100Y9075048D01*
X26741761Y9169202D01*
X26819493Y9290156D01*
X26843076Y9370475D01*
X27474925Y8738625D01*
X27533599Y8822421D01*
X27633429Y9036507D01*
X27633433Y9036516D01*
X27694567Y9264673D01*
X27694569Y9264684D01*
X27715157Y9499998D01*
X27715157Y9500001D01*
X27694569Y9735315D01*
X27694567Y9735326D01*
X27633433Y9963483D01*
X27633429Y9963492D01*
X27533601Y10177575D01*
X27474925Y10261373D01*
X26843076Y9629524D01*
X26819493Y9709844D01*
X26741761Y9830798D01*
X26633100Y9924952D01*
X26502315Y9984680D01*
X26492533Y9986086D01*
X27121373Y10614925D01*
X27121373Y10614926D01*
X27037582Y10673598D01*
X27037578Y10673600D01*
X26823492Y10773429D01*
X26823483Y10773433D01*
X26701350Y10806158D01*
X26641690Y10842522D01*
X26611160Y10905369D01*
X26619454Y10974745D01*
X26663939Y11028623D01*
X26697448Y11044594D01*
X26763954Y11064768D01*
X26946450Y11162315D01*
X26988677Y11196969D01*
X27106410Y11293589D01*
X27185702Y11390209D01*
X27237685Y11453550D01*
X27335232Y11636046D01*
X27395300Y11834066D01*
X27415583Y12040000D01*
X27395300Y12245934D01*
X27335232Y12443954D01*
X27237685Y12626450D01*
X27106410Y12786410D01*
X26946450Y12917685D01*
X26763954Y13015232D01*
X26565934Y13075300D01*
X26360000Y13095583D01*
X26154066Y13075300D01*
X25956046Y13015232D01*
X25773550Y12917685D01*
X25710209Y12865702D01*
X25613589Y12786410D01*
X25516969Y12668677D01*
X25482315Y12626450D01*
X25416592Y12503492D01*
X25384769Y12443956D01*
X25324699Y12245932D01*
X25304417Y12040000D01*
X25324699Y11834067D01*
X25384769Y11636043D01*
X25482317Y11453547D01*
X25613589Y11293589D01*
X25773547Y11162317D01*
X25773548Y11162316D01*
X25773550Y11162315D01*
X25825358Y11134622D01*
X25956046Y11064767D01*
X26022552Y11044593D01*
X26080990Y11006296D01*
X26109447Y10942483D01*
X26098886Y10873416D01*
X26052661Y10821023D01*
X26018649Y10806158D01*
X25896516Y10773433D01*
X25896507Y10773429D01*
X25682423Y10673600D01*
X25682421Y10673599D01*
X25598626Y10614925D01*
X25598625Y10614925D01*
X26227466Y9986086D01*
X26217685Y9984680D01*
X26086900Y9924952D01*
X25978239Y9830798D01*
X25900507Y9709844D01*
X25876923Y9629523D01*
X25245074Y10261373D01*
X25245073Y10261372D01*
X25186400Y10177578D01*
X25186399Y10177576D01*
X25086570Y9963492D01*
X25086567Y9963486D01*
X25053841Y9841349D01*
X25017476Y9781689D01*
X24954629Y9751160D01*
X24885253Y9759455D01*
X24831375Y9803940D01*
X24815407Y9837444D01*
X24795232Y9903954D01*
X24697685Y10086450D01*
X24566410Y10246410D01*
X24406450Y10377685D01*
X24223954Y10475232D01*
X24025934Y10535300D01*
X23820000Y10555583D01*
X23614066Y10535300D01*
X23416046Y10475232D01*
X23233550Y10377685D01*
X23170209Y10325702D01*
X23073589Y10246410D01*
X22976969Y10128677D01*
X22942315Y10086450D01*
X22844768Y9903954D01*
X22840198Y9888888D01*
X22824594Y9837448D01*
X22786296Y9779009D01*
X22722484Y9750553D01*
X22653417Y9761113D01*
X22601023Y9807337D01*
X22586158Y9841350D01*
X22553433Y9963483D01*
X22553429Y9963492D01*
X22453601Y10177575D01*
X22394925Y10261373D01*
X21763076Y9629524D01*
X21739493Y9709844D01*
X21661761Y9830798D01*
X21553100Y9924952D01*
X21422315Y9984680D01*
X21412533Y9986086D01*
X22041373Y10614925D01*
X21964968Y10668425D01*
X21921344Y10723002D01*
X21914151Y10792501D01*
X21945673Y10854855D01*
X21964969Y10871576D01*
X22041373Y10925073D01*
X21412533Y11553913D01*
X21422315Y11555320D01*
X21553100Y11615048D01*
X21661761Y11709202D01*
X21739493Y11830156D01*
X21763076Y11910475D01*
X22394925Y11278625D01*
X22453599Y11362421D01*
X22553429Y11576507D01*
X22553433Y11576516D01*
X22586158Y11698649D01*
X22622523Y11758310D01*
X22685369Y11788839D01*
X22754745Y11780545D01*
X22808623Y11736059D01*
X22824593Y11702552D01*
X22844767Y11636046D01*
X22942317Y11453547D01*
X23073589Y11293589D01*
X23233547Y11162317D01*
X23233548Y11162316D01*
X23233550Y11162315D01*
X23305898Y11123643D01*
X23416043Y11064769D01*
X23416045Y11064768D01*
X23416046Y11064768D01*
X23447578Y11055203D01*
X23614069Y11004699D01*
X23614065Y11004699D01*
X23820000Y10984417D01*
X24025932Y11004699D01*
X24157448Y11044594D01*
X24223954Y11064768D01*
X24406450Y11162315D01*
X24448677Y11196969D01*
X24566410Y11293589D01*
X24645702Y11390209D01*
X24697685Y11453550D01*
X24795232Y11636046D01*
X24855300Y11834066D01*
X24875583Y12040000D01*
X24855300Y12245934D01*
X24795232Y12443954D01*
X24697685Y12626450D01*
X24566410Y12786410D01*
X24406450Y12917685D01*
X24223954Y13015232D01*
X24025934Y13075300D01*
X23820000Y13095583D01*
X23614066Y13075300D01*
X23416046Y13015232D01*
X23233550Y12917685D01*
X23170209Y12865702D01*
X23073589Y12786410D01*
X22976969Y12668677D01*
X22942315Y12626450D01*
X22876592Y12503492D01*
X22844769Y12443956D01*
X22824594Y12377448D01*
X22786296Y12319009D01*
X22722484Y12290553D01*
X22653417Y12301113D01*
X22601023Y12347337D01*
X22586158Y12381350D01*
X22553433Y12503483D01*
X22553429Y12503492D01*
X22453601Y12717575D01*
X22394925Y12801373D01*
X21763076Y12169524D01*
X21739493Y12249844D01*
X21661761Y12370798D01*
X21553100Y12464952D01*
X21422315Y12524680D01*
X21412533Y12526086D01*
X22041373Y13154925D01*
X22041373Y13154926D01*
X21957582Y13213598D01*
X21957578Y13213600D01*
X21743492Y13313429D01*
X21743483Y13313433D01*
X21515326Y13374567D01*
X21515315Y13374569D01*
X21280002Y13395157D01*
X21279998Y13395157D01*
X21044684Y13374569D01*
X21044673Y13374567D01*
X20816516Y13313433D01*
X20816507Y13313429D01*
X20602423Y13213600D01*
X20602421Y13213599D01*
X20518626Y13154925D01*
X20518625Y13154925D01*
X21147466Y12526086D01*
X21137685Y12524680D01*
X21006900Y12464952D01*
X20898239Y12370798D01*
X20820507Y12249844D01*
X20796923Y12169523D01*
X20165074Y12801373D01*
X20165073Y12801372D01*
X20106400Y12717578D01*
X20106399Y12717576D01*
X20006570Y12503492D01*
X20006567Y12503486D01*
X19973841Y12381349D01*
X19937476Y12321689D01*
X19874629Y12291160D01*
X19805253Y12299455D01*
X19751375Y12343940D01*
X19735407Y12377444D01*
X19715232Y12443954D01*
X19617685Y12626450D01*
X19486410Y12786410D01*
X19326450Y12917685D01*
X19143954Y13015232D01*
X18945934Y13075300D01*
X18740000Y13095583D01*
X18534066Y13075300D01*
X18336046Y13015232D01*
X18153550Y12917685D01*
X18090209Y12865702D01*
X17993589Y12786410D01*
X17896969Y12668677D01*
X17862315Y12626450D01*
X17796592Y12503492D01*
X17764769Y12443956D01*
X17704699Y12245932D01*
X17684417Y12040000D01*
X17704699Y11834067D01*
X17764769Y11636043D01*
X17862317Y11453547D01*
X17993589Y11293589D01*
X18153547Y11162317D01*
X18153548Y11162316D01*
X18153550Y11162315D01*
X18225898Y11123643D01*
X18336043Y11064769D01*
X18336045Y11064768D01*
X18336046Y11064768D01*
X18367578Y11055203D01*
X18534069Y11004699D01*
X18534065Y11004699D01*
X18740000Y10984417D01*
X18945932Y11004699D01*
X19077448Y11044594D01*
X19143954Y11064768D01*
X19326450Y11162315D01*
X19368677Y11196969D01*
X19486410Y11293589D01*
X19565702Y11390209D01*
X19617685Y11453550D01*
X19715232Y11636046D01*
X19735406Y11702552D01*
X19773702Y11760989D01*
X19837514Y11789446D01*
X19906581Y11778887D01*
X19958975Y11732663D01*
X19973841Y11698650D01*
X20006567Y11576514D01*
X20006570Y11576507D01*
X20106402Y11362417D01*
X20165072Y11278626D01*
X20165073Y11278625D01*
X20796923Y11910475D01*
X20820507Y11830156D01*
X20898239Y11709202D01*
X21006900Y11615048D01*
X21137685Y11555320D01*
X21147466Y11553913D01*
X20518625Y10925073D01*
X20518626Y10925072D01*
X20595031Y10871574D01*
X20638656Y10816997D01*
X20645850Y10747499D01*
X20614327Y10685144D01*
X20595031Y10668423D01*
X20518626Y10614924D01*
X21147466Y9986086D01*
X21137685Y9984680D01*
X21006900Y9924952D01*
X20898239Y9830798D01*
X20820507Y9709844D01*
X20796923Y9629523D01*
X20165074Y10261373D01*
X20165073Y10261372D01*
X20106400Y10177578D01*
X20106399Y10177576D01*
X20006570Y9963492D01*
X20006567Y9963486D01*
X19973841Y9841349D01*
X19937476Y9781689D01*
X19874629Y9751160D01*
X19805253Y9759455D01*
X19751375Y9803940D01*
X19735407Y9837444D01*
X19715232Y9903954D01*
X19617685Y10086450D01*
X19486410Y10246410D01*
X19326450Y10377685D01*
X19143954Y10475232D01*
X18945934Y10535300D01*
X18740000Y10555583D01*
X18534066Y10535300D01*
X18336046Y10475232D01*
X18153550Y10377685D01*
X18090209Y10325702D01*
X17993589Y10246410D01*
X17896969Y10128677D01*
X17862315Y10086450D01*
X17764768Y9903954D01*
X17760198Y9888888D01*
X17704699Y9705932D01*
X17684417Y9500000D01*
X17255583Y9500000D01*
X17235300Y9705934D01*
X17175232Y9903954D01*
X17077685Y10086450D01*
X16946410Y10246410D01*
X16786450Y10377685D01*
X16603954Y10475232D01*
X16405934Y10535300D01*
X16200000Y10555583D01*
X15994066Y10535300D01*
X15796046Y10475232D01*
X15613550Y10377685D01*
X15550209Y10325702D01*
X15453589Y10246410D01*
X15356969Y10128677D01*
X15322315Y10086450D01*
X15224768Y9903954D01*
X15220198Y9888888D01*
X15204594Y9837448D01*
X15166296Y9779009D01*
X15102484Y9750553D01*
X15033417Y9761113D01*
X14981023Y9807337D01*
X14966158Y9841350D01*
X14933433Y9963483D01*
X14933429Y9963492D01*
X14833601Y10177575D01*
X14774925Y10261373D01*
X14143076Y9629524D01*
X14119493Y9709844D01*
X14041761Y9830798D01*
X13933100Y9924952D01*
X13802315Y9984680D01*
X13792533Y9986086D01*
X14421373Y10614925D01*
X14344968Y10668425D01*
X14301344Y10723002D01*
X14294151Y10792501D01*
X14325673Y10854855D01*
X14344969Y10871576D01*
X14421373Y10925073D01*
X13792533Y11553913D01*
X13802315Y11555320D01*
X13933100Y11615048D01*
X14041761Y11709202D01*
X14119493Y11830156D01*
X14143076Y11910475D01*
X14774925Y11278625D01*
X14833599Y11362421D01*
X14933429Y11576507D01*
X14933433Y11576516D01*
X14966158Y11698649D01*
X15002523Y11758310D01*
X15065369Y11788839D01*
X15134745Y11780545D01*
X15188623Y11736059D01*
X15204593Y11702552D01*
X15224767Y11636046D01*
X15322317Y11453547D01*
X15453589Y11293589D01*
X15613547Y11162317D01*
X15613548Y11162316D01*
X15613550Y11162315D01*
X15685898Y11123643D01*
X15796043Y11064769D01*
X15796045Y11064768D01*
X15796046Y11064768D01*
X15827578Y11055203D01*
X15994069Y11004699D01*
X15994065Y11004699D01*
X16200000Y10984417D01*
X16405932Y11004699D01*
X16537448Y11044594D01*
X16603954Y11064768D01*
X16786450Y11162315D01*
X16828677Y11196969D01*
X16946410Y11293589D01*
X17025702Y11390209D01*
X17077685Y11453550D01*
X17175232Y11636046D01*
X17235300Y11834066D01*
X17255583Y12040000D01*
X17235300Y12245934D01*
X17175232Y12443954D01*
X17077685Y12626450D01*
X16946410Y12786410D01*
X16786450Y12917685D01*
X16603954Y13015232D01*
X16405934Y13075300D01*
X16200000Y13095583D01*
X15994066Y13075300D01*
X15796046Y13015232D01*
X15613550Y12917685D01*
X15550209Y12865702D01*
X15453589Y12786410D01*
X15356969Y12668677D01*
X15322315Y12626450D01*
X15256592Y12503492D01*
X15224769Y12443956D01*
X15204594Y12377448D01*
X15166296Y12319009D01*
X15102484Y12290553D01*
X15033417Y12301113D01*
X14981023Y12347337D01*
X14966158Y12381350D01*
X14933433Y12503483D01*
X14933429Y12503492D01*
X14833601Y12717575D01*
X14774925Y12801373D01*
X14143076Y12169524D01*
X14119493Y12249844D01*
X14041761Y12370798D01*
X13933100Y12464952D01*
X13802315Y12524680D01*
X13792533Y12526086D01*
X14421373Y13154925D01*
X14421373Y13154926D01*
X14337582Y13213598D01*
X14337578Y13213600D01*
X14123492Y13313429D01*
X14123483Y13313433D01*
X13895326Y13374567D01*
X13895315Y13374569D01*
X13660002Y13395157D01*
X13659998Y13395157D01*
X13424684Y13374569D01*
X13424673Y13374567D01*
X13196516Y13313433D01*
X13196507Y13313429D01*
X12982423Y13213600D01*
X12982421Y13213599D01*
X12898626Y13154925D01*
X12898625Y13154925D01*
X13527466Y12526086D01*
X13517685Y12524680D01*
X13386900Y12464952D01*
X13278239Y12370798D01*
X13200507Y12249844D01*
X13176923Y12169523D01*
X12545074Y12801373D01*
X12545073Y12801372D01*
X12486400Y12717578D01*
X12486399Y12717576D01*
X12386570Y12503492D01*
X12386567Y12503486D01*
X12353841Y12381349D01*
X12317476Y12321689D01*
X12254629Y12291160D01*
X12185253Y12299455D01*
X12131375Y12343940D01*
X12115407Y12377444D01*
X12095232Y12443954D01*
X11997685Y12626450D01*
X11866410Y12786410D01*
X11706450Y12917685D01*
X11523954Y13015232D01*
X11325934Y13075300D01*
X11120000Y13095583D01*
X10914066Y13075300D01*
X10716046Y13015232D01*
X10533550Y12917685D01*
X10470209Y12865702D01*
X10373589Y12786410D01*
X10276969Y12668677D01*
X10242315Y12626450D01*
X10176592Y12503492D01*
X10144769Y12443956D01*
X10084699Y12245932D01*
X10064417Y12040000D01*
X10084699Y11834067D01*
X10144769Y11636043D01*
X10242317Y11453547D01*
X10373589Y11293589D01*
X10533547Y11162317D01*
X10533548Y11162316D01*
X10533550Y11162315D01*
X10605898Y11123643D01*
X10716043Y11064769D01*
X10716045Y11064768D01*
X10716046Y11064768D01*
X10747578Y11055203D01*
X10914069Y11004699D01*
X10914065Y11004699D01*
X11120000Y10984417D01*
X11325932Y11004699D01*
X11457448Y11044594D01*
X11523954Y11064768D01*
X11706450Y11162315D01*
X11748677Y11196969D01*
X11866410Y11293589D01*
X11945702Y11390209D01*
X11997685Y11453550D01*
X12095232Y11636046D01*
X12115406Y11702552D01*
X12153702Y11760989D01*
X12217514Y11789446D01*
X12286581Y11778887D01*
X12338975Y11732663D01*
X12353841Y11698650D01*
X12386567Y11576514D01*
X12386570Y11576507D01*
X12486402Y11362417D01*
X12545072Y11278626D01*
X12545073Y11278625D01*
X13176923Y11910475D01*
X13200507Y11830156D01*
X13278239Y11709202D01*
X13386900Y11615048D01*
X13517685Y11555320D01*
X13527466Y11553913D01*
X12898625Y10925073D01*
X12898626Y10925072D01*
X12975031Y10871574D01*
X13018656Y10816997D01*
X13025850Y10747499D01*
X12994327Y10685144D01*
X12975031Y10668423D01*
X12898626Y10614924D01*
X13527466Y9986086D01*
X13517685Y9984680D01*
X13386900Y9924952D01*
X13278239Y9830798D01*
X13200507Y9709844D01*
X13176923Y9629523D01*
X12545074Y10261373D01*
X12545073Y10261372D01*
X12486400Y10177578D01*
X12486399Y10177576D01*
X12386570Y9963492D01*
X12386567Y9963486D01*
X12353841Y9841349D01*
X12317476Y9781689D01*
X12254629Y9751160D01*
X12185253Y9759455D01*
X12131375Y9803940D01*
X12115407Y9837444D01*
X12095232Y9903954D01*
X11997685Y10086450D01*
X11866410Y10246410D01*
X11706450Y10377685D01*
X11523954Y10475232D01*
X11325934Y10535300D01*
X11120000Y10555583D01*
X10914066Y10535300D01*
X10716046Y10475232D01*
X10533550Y10377685D01*
X10470209Y10325702D01*
X10373589Y10246410D01*
X10276969Y10128677D01*
X10242315Y10086450D01*
X10144768Y9903954D01*
X10140198Y9888888D01*
X10084699Y9705932D01*
X10064417Y9500000D01*
X9635583Y9500000D01*
X9615300Y9705934D01*
X9555232Y9903954D01*
X9457685Y10086450D01*
X9326410Y10246410D01*
X9166450Y10377685D01*
X8983954Y10475232D01*
X8785934Y10535300D01*
X8580000Y10555583D01*
X8374066Y10535300D01*
X8176046Y10475232D01*
X7993550Y10377685D01*
X7930209Y10325702D01*
X7833589Y10246410D01*
X7736969Y10128677D01*
X7702315Y10086450D01*
X7604768Y9903954D01*
X7600198Y9888888D01*
X7544699Y9705932D01*
X7524417Y9500000D01*
X7095583Y9500000D01*
X7075300Y9705934D01*
X7015232Y9903954D01*
X6917685Y10086450D01*
X6786410Y10246410D01*
X6626450Y10377685D01*
X6443954Y10475232D01*
X6245934Y10535300D01*
X6040000Y10555583D01*
X5834066Y10535300D01*
X5636046Y10475232D01*
X5453550Y10377685D01*
X5390209Y10325702D01*
X5293589Y10246410D01*
X5196969Y10128677D01*
X5162315Y10086450D01*
X5083356Y9938730D01*
X5034395Y9888888D01*
X4966258Y9873428D01*
X4900578Y9897260D01*
X4858209Y9952818D01*
X4850000Y9997186D01*
X4850000Y10397827D01*
X4849999Y10397844D01*
X4843598Y10457372D01*
X4843597Y10457378D01*
X4834723Y10481168D01*
X4834722Y10481168D01*
X3983076Y9629523D01*
X3959493Y9709844D01*
X3881761Y9830798D01*
X3773100Y9924952D01*
X3642315Y9984680D01*
X3632534Y9986086D01*
X4481168Y10834722D01*
X4481168Y10834723D01*
X4457378Y10843597D01*
X4457372Y10843598D01*
X4397844Y10849999D01*
X4397828Y10850000D01*
X3997187Y10850000D01*
X3930148Y10869685D01*
X3884393Y10922489D01*
X3874449Y10991647D01*
X3903474Y11055203D01*
X3938733Y11083358D01*
X4086450Y11162315D01*
X4128677Y11196969D01*
X4246410Y11293589D01*
X4325702Y11390209D01*
X4377685Y11453550D01*
X4475232Y11636046D01*
X4535300Y11834066D01*
X4555583Y12040000D01*
X4984417Y12040000D01*
X5004699Y11834067D01*
X5064769Y11636043D01*
X5162317Y11453547D01*
X5293589Y11293589D01*
X5453547Y11162317D01*
X5453548Y11162316D01*
X5453550Y11162315D01*
X5525898Y11123643D01*
X5636043Y11064769D01*
X5636045Y11064768D01*
X5636046Y11064768D01*
X5667578Y11055203D01*
X5834069Y11004699D01*
X5834065Y11004699D01*
X6040000Y10984417D01*
X6245932Y11004699D01*
X6377448Y11044594D01*
X6443954Y11064768D01*
X6626450Y11162315D01*
X6668677Y11196969D01*
X6786410Y11293589D01*
X6865702Y11390209D01*
X6917685Y11453550D01*
X7015232Y11636046D01*
X7075300Y11834066D01*
X7095583Y12040000D01*
X7524417Y12040000D01*
X7544699Y11834067D01*
X7604769Y11636043D01*
X7702317Y11453547D01*
X7833589Y11293589D01*
X7993547Y11162317D01*
X7993548Y11162316D01*
X7993550Y11162315D01*
X8065898Y11123643D01*
X8176043Y11064769D01*
X8176045Y11064768D01*
X8176046Y11064768D01*
X8207578Y11055203D01*
X8374069Y11004699D01*
X8374065Y11004699D01*
X8580000Y10984417D01*
X8785932Y11004699D01*
X8917448Y11044594D01*
X8983954Y11064768D01*
X9166450Y11162315D01*
X9208677Y11196969D01*
X9326410Y11293589D01*
X9405702Y11390209D01*
X9457685Y11453550D01*
X9555232Y11636046D01*
X9615300Y11834066D01*
X9635583Y12040000D01*
X9615300Y12245934D01*
X9555232Y12443954D01*
X9457685Y12626450D01*
X9326410Y12786410D01*
X9166450Y12917685D01*
X8983954Y13015232D01*
X8785934Y13075300D01*
X8580000Y13095583D01*
X8374066Y13075300D01*
X8176046Y13015232D01*
X7993550Y12917685D01*
X7930209Y12865702D01*
X7833589Y12786410D01*
X7736969Y12668677D01*
X7702315Y12626450D01*
X7636592Y12503492D01*
X7604769Y12443956D01*
X7544699Y12245932D01*
X7524417Y12040000D01*
X7095583Y12040000D01*
X7075300Y12245934D01*
X7015232Y12443954D01*
X6917685Y12626450D01*
X6786410Y12786410D01*
X6626450Y12917685D01*
X6443954Y13015232D01*
X6245934Y13075300D01*
X6040000Y13095583D01*
X5834066Y13075300D01*
X5636046Y13015232D01*
X5453550Y12917685D01*
X5390209Y12865702D01*
X5293589Y12786410D01*
X5196969Y12668677D01*
X5162315Y12626450D01*
X5096592Y12503492D01*
X5064769Y12443956D01*
X5004699Y12245932D01*
X4984417Y12040000D01*
X4555583Y12040000D01*
X4535300Y12245934D01*
X4475232Y12443954D01*
X4377685Y12626450D01*
X4246410Y12786410D01*
X4086450Y12917685D01*
X3903954Y13015232D01*
X3705934Y13075300D01*
X3500000Y13095583D01*
X3294066Y13075300D01*
X3096046Y13015232D01*
X2913550Y12917685D01*
X2850209Y12865702D01*
X2753589Y12786410D01*
X2656969Y12668677D01*
X2622315Y12626450D01*
X2556592Y12503492D01*
X2524769Y12443956D01*
X2464699Y12245932D01*
X2444417Y12040000D01*
X2464699Y11834067D01*
X2524769Y11636043D01*
X2622317Y11453547D01*
X2753589Y11293589D01*
X2913547Y11162317D01*
X2913548Y11162316D01*
X2913550Y11162315D01*
X3061267Y11083358D01*
X3111111Y11034395D01*
X3126571Y10966257D01*
X3102739Y10900578D01*
X3047181Y10858209D01*
X3002813Y10850000D01*
X2602172Y10850000D01*
X2602155Y10849999D01*
X2542624Y10843598D01*
X2518829Y10834723D01*
X2518829Y10834722D01*
X3367466Y9986086D01*
X3357685Y9984680D01*
X3226900Y9924952D01*
X3118239Y9830798D01*
X3040507Y9709844D01*
X3016922Y9629523D01*
X2165276Y10481169D01*
X2165275Y10481168D01*
X2156403Y10457382D01*
X2156401Y10457372D01*
X2150000Y10397844D01*
X2150000Y8602155D01*
X500000Y8602155D01*
X500000Y14799998D01*
X21194318Y14799998D01*
X21214955Y14643239D01*
X21214956Y14643237D01*
X21275463Y14497160D01*
X21371718Y14371718D01*
X21497160Y14275463D01*
X21643237Y14214956D01*
X21643239Y14214955D01*
X21799999Y14194318D01*
X21800000Y14194318D01*
X21800001Y14194318D01*
X21956760Y14214955D01*
X21956762Y14214956D01*
X22102839Y14275463D01*
X22102841Y14275464D01*
X22228282Y14371718D01*
X22324536Y14497159D01*
X22385044Y14643238D01*
X22405682Y14800000D01*
X22385044Y14956762D01*
X22324536Y15102841D01*
X22228282Y15228282D01*
X22102841Y15324536D01*
X21956762Y15385044D01*
X21852254Y15398802D01*
X21800001Y15405682D01*
X21799999Y15405682D01*
X21721619Y15395363D01*
X21643238Y15385044D01*
X21497159Y15324536D01*
X21371718Y15228282D01*
X21275464Y15102841D01*
X21275463Y15102839D01*
X21214956Y14956762D01*
X21214955Y14956760D01*
X21194318Y14800001D01*
X21194318Y14799998D01*
X500000Y14799998D01*
X500000Y15599998D01*
X25994318Y15599998D01*
X26014955Y15443239D01*
X26014956Y15443237D01*
X26075463Y15297160D01*
X26171718Y15171718D01*
X26297160Y15075463D01*
X26443237Y15014956D01*
X26443239Y15014955D01*
X26599999Y14994318D01*
X26600000Y14994318D01*
X26600001Y14994318D01*
X26756760Y15014955D01*
X26756762Y15014956D01*
X26902839Y15075463D01*
X26902841Y15075464D01*
X27028282Y15171718D01*
X27124536Y15297159D01*
X27185044Y15443238D01*
X27205682Y15600000D01*
X27185044Y15756762D01*
X27124536Y15902841D01*
X27028282Y16028282D01*
X26902841Y16124536D01*
X26756762Y16185044D01*
X26652254Y16198802D01*
X26600001Y16205682D01*
X26599999Y16205682D01*
X26521619Y16195363D01*
X26443238Y16185044D01*
X26297159Y16124536D01*
X26171718Y16028282D01*
X26075464Y15902841D01*
X26075463Y15902839D01*
X26014956Y15756762D01*
X26014955Y15756760D01*
X25994318Y15600001D01*
X25994318Y15599998D01*
X500000Y15599998D01*
X500000Y17699998D01*
X4294318Y17699998D01*
X4314955Y17543239D01*
X4314956Y17543237D01*
X4375463Y17397160D01*
X4471718Y17271718D01*
X4597160Y17175463D01*
X4743237Y17114956D01*
X4743239Y17114955D01*
X4899999Y17094318D01*
X4900000Y17094318D01*
X4900001Y17094318D01*
X5056760Y17114955D01*
X5056762Y17114956D01*
X5202839Y17175463D01*
X5202841Y17175464D01*
X5328282Y17271718D01*
X5424536Y17397159D01*
X5467133Y17499998D01*
X15694318Y17499998D01*
X15714955Y17343239D01*
X15714956Y17343237D01*
X15775463Y17197160D01*
X15871718Y17071718D01*
X15997160Y16975463D01*
X16143237Y16914956D01*
X16143239Y16914955D01*
X16299999Y16894318D01*
X16300000Y16894318D01*
X16300001Y16894318D01*
X16456760Y16914955D01*
X16456762Y16914956D01*
X16602839Y16975463D01*
X16602841Y16975464D01*
X16728282Y17071718D01*
X16824536Y17197159D01*
X16885044Y17343238D01*
X16905682Y17500000D01*
X16885044Y17656762D01*
X16824536Y17802841D01*
X16728282Y17928282D01*
X16602841Y18024536D01*
X16602839Y18024537D01*
X16596392Y18029484D01*
X16598475Y18032198D01*
X16561166Y18071231D01*
X16547858Y18139821D01*
X16573746Y18204718D01*
X16623858Y18242748D01*
X16702839Y18275463D01*
X16702841Y18275464D01*
X16828282Y18371718D01*
X16924536Y18497159D01*
X16985044Y18643238D01*
X17005682Y18800000D01*
X16985044Y18956762D01*
X16925714Y19099998D01*
X20094318Y19099998D01*
X20114955Y18943239D01*
X20114956Y18943237D01*
X20175463Y18797160D01*
X20271718Y18671718D01*
X20397160Y18575463D01*
X20543237Y18514956D01*
X20543239Y18514955D01*
X20699999Y18494318D01*
X20700000Y18494318D01*
X20700001Y18494318D01*
X20856760Y18514955D01*
X20856762Y18514956D01*
X21002839Y18575463D01*
X21002841Y18575464D01*
X21128282Y18671718D01*
X21224536Y18797159D01*
X21285044Y18943238D01*
X21305682Y19100000D01*
X21297480Y19162297D01*
X22294318Y19162297D01*
X22314955Y19005538D01*
X22314956Y19005536D01*
X22375463Y18859459D01*
X22471718Y18734017D01*
X22597160Y18637762D01*
X22743237Y18577255D01*
X22743239Y18577254D01*
X22899999Y18556617D01*
X22900000Y18556617D01*
X22900001Y18556617D01*
X23056760Y18577254D01*
X23056762Y18577255D01*
X23202839Y18637762D01*
X23202841Y18637763D01*
X23328282Y18734017D01*
X23424536Y18859458D01*
X23485044Y19005537D01*
X23505682Y19162299D01*
X23485044Y19319061D01*
X23424536Y19465140D01*
X23328282Y19590581D01*
X23202841Y19686835D01*
X23056762Y19747343D01*
X22952254Y19761101D01*
X22900001Y19767981D01*
X22899999Y19767981D01*
X22821619Y19757662D01*
X22743238Y19747343D01*
X22597159Y19686835D01*
X22471718Y19590581D01*
X22375464Y19465140D01*
X22375463Y19465138D01*
X22314956Y19319061D01*
X22314955Y19319059D01*
X22294318Y19162300D01*
X22294318Y19162297D01*
X21297480Y19162297D01*
X21285044Y19256762D01*
X21224536Y19402841D01*
X21128282Y19528282D01*
X21002841Y19624536D01*
X20856762Y19685044D01*
X20721580Y19702841D01*
X20700001Y19705682D01*
X20699999Y19705682D01*
X20621619Y19695363D01*
X20543238Y19685044D01*
X20397159Y19624536D01*
X20271718Y19528282D01*
X20175464Y19402841D01*
X20175463Y19402839D01*
X20114956Y19256762D01*
X20114955Y19256760D01*
X20094318Y19100001D01*
X20094318Y19099998D01*
X16925714Y19099998D01*
X16924536Y19102841D01*
X16828282Y19228282D01*
X16702841Y19324536D01*
X16556762Y19385044D01*
X16452254Y19398802D01*
X16400001Y19405682D01*
X16399999Y19405682D01*
X16321619Y19395363D01*
X16243238Y19385044D01*
X16097159Y19324536D01*
X15971718Y19228282D01*
X15875464Y19102841D01*
X15875463Y19102839D01*
X15814956Y18956762D01*
X15814955Y18956760D01*
X15794318Y18800001D01*
X15794318Y18799998D01*
X15814955Y18643239D01*
X15814956Y18643237D01*
X15875463Y18497160D01*
X15875464Y18497159D01*
X15971718Y18371718D01*
X16097159Y18275464D01*
X16097160Y18275463D01*
X16103608Y18270516D01*
X16101548Y18267832D01*
X16138952Y18228538D01*
X16152116Y18159920D01*
X16126093Y18095078D01*
X16076140Y18057251D01*
X16009105Y18029484D01*
X15997159Y18024536D01*
X15871718Y17928282D01*
X15775464Y17802841D01*
X15775463Y17802839D01*
X15714956Y17656762D01*
X15714955Y17656760D01*
X15694318Y17500001D01*
X15694318Y17499998D01*
X5467133Y17499998D01*
X5485044Y17543238D01*
X5491923Y17595492D01*
X5505682Y17699998D01*
X5505682Y17700001D01*
X5485044Y17856760D01*
X5485044Y17856762D01*
X5424536Y18002841D01*
X5328282Y18128282D01*
X5202841Y18224536D01*
X5056762Y18285044D01*
X4952254Y18298802D01*
X4900001Y18305682D01*
X4899999Y18305682D01*
X4821619Y18295363D01*
X4743238Y18285044D01*
X4597159Y18224536D01*
X4471718Y18128282D01*
X4375464Y18002841D01*
X4375463Y18002839D01*
X4314956Y17856762D01*
X4314955Y17856760D01*
X4294318Y17700001D01*
X4294318Y17699998D01*
X500000Y17699998D01*
X500000Y18999998D01*
X5494318Y18999998D01*
X5514955Y18843239D01*
X5514956Y18843237D01*
X5575463Y18697160D01*
X5671718Y18571718D01*
X5797160Y18475463D01*
X5943237Y18414956D01*
X5943239Y18414955D01*
X6099999Y18394318D01*
X6100000Y18394318D01*
X6100001Y18394318D01*
X6256760Y18414955D01*
X6256762Y18414956D01*
X6402839Y18475463D01*
X6402841Y18475464D01*
X6528282Y18571718D01*
X6624536Y18697159D01*
X6685044Y18843238D01*
X6698209Y18943239D01*
X6705682Y18999998D01*
X6705682Y19000001D01*
X6685044Y19156760D01*
X6685044Y19156762D01*
X6624536Y19302841D01*
X6549985Y19399998D01*
X13494318Y19399998D01*
X13514955Y19243239D01*
X13514956Y19243237D01*
X13575463Y19097160D01*
X13671718Y18971718D01*
X13797160Y18875463D01*
X13943237Y18814956D01*
X13943239Y18814955D01*
X14099999Y18794318D01*
X14100000Y18794318D01*
X14100001Y18794318D01*
X14256760Y18814955D01*
X14256762Y18814956D01*
X14402839Y18875463D01*
X14402841Y18875464D01*
X14528282Y18971718D01*
X14624536Y19097159D01*
X14685044Y19243238D01*
X14705682Y19400000D01*
X14685044Y19556762D01*
X14624536Y19702841D01*
X14528282Y19828282D01*
X14402841Y19924536D01*
X14256762Y19985044D01*
X14152254Y19998802D01*
X14100001Y20005682D01*
X14099999Y20005682D01*
X14021619Y19995363D01*
X13943238Y19985044D01*
X13797159Y19924536D01*
X13671718Y19828282D01*
X13575464Y19702841D01*
X13575463Y19702839D01*
X13514956Y19556762D01*
X13514955Y19556760D01*
X13494318Y19400001D01*
X13494318Y19399998D01*
X6549985Y19399998D01*
X6528282Y19428282D01*
X6402841Y19524536D01*
X6256762Y19585044D01*
X6152254Y19598802D01*
X6100001Y19605682D01*
X6099999Y19605682D01*
X6021619Y19595363D01*
X5943238Y19585044D01*
X5797159Y19524536D01*
X5671718Y19428282D01*
X5575464Y19302841D01*
X5575463Y19302839D01*
X5514956Y19156762D01*
X5514955Y19156760D01*
X5494318Y19000001D01*
X5494318Y18999998D01*
X500000Y18999998D01*
X500000Y21999998D01*
X11694318Y21999998D01*
X11714955Y21843239D01*
X11714956Y21843237D01*
X11775463Y21697160D01*
X11871718Y21571718D01*
X11997160Y21475463D01*
X12143237Y21414956D01*
X12143239Y21414955D01*
X12299999Y21394318D01*
X12300000Y21394318D01*
X12300001Y21394318D01*
X12456760Y21414955D01*
X12456762Y21414956D01*
X12602839Y21475463D01*
X12602841Y21475464D01*
X12728282Y21571718D01*
X12824536Y21697159D01*
X12885044Y21843238D01*
X12892517Y21899998D01*
X17494318Y21899998D01*
X17514955Y21743239D01*
X17514956Y21743237D01*
X17575463Y21597160D01*
X17671718Y21471718D01*
X17797160Y21375463D01*
X17943237Y21314956D01*
X17943239Y21314955D01*
X18099999Y21294318D01*
X18100000Y21294318D01*
X18100001Y21294318D01*
X18256760Y21314955D01*
X18256762Y21314956D01*
X18402839Y21375463D01*
X18402841Y21375464D01*
X18528282Y21471718D01*
X18624536Y21597159D01*
X18667133Y21699998D01*
X25694318Y21699998D01*
X25714955Y21543239D01*
X25714956Y21543237D01*
X25775463Y21397160D01*
X25871718Y21271718D01*
X25997160Y21175463D01*
X26143237Y21114956D01*
X26143239Y21114955D01*
X26299999Y21094318D01*
X26300000Y21094318D01*
X26300001Y21094318D01*
X26456760Y21114955D01*
X26456762Y21114956D01*
X26602839Y21175463D01*
X26602841Y21175464D01*
X26728282Y21271718D01*
X26824536Y21397159D01*
X26824536Y21397160D01*
X26829484Y21403608D01*
X26832187Y21401533D01*
X26871315Y21438877D01*
X26939916Y21452132D01*
X27004793Y21426195D01*
X27042748Y21376142D01*
X27075464Y21297159D01*
X27171718Y21171718D01*
X27297160Y21075463D01*
X27443237Y21014956D01*
X27443239Y21014955D01*
X27599999Y20994318D01*
X27600000Y20994318D01*
X27600001Y20994318D01*
X27756760Y21014955D01*
X27756762Y21014956D01*
X27902839Y21075463D01*
X27902841Y21075464D01*
X28028282Y21171718D01*
X28124536Y21297159D01*
X28185044Y21443238D01*
X28205682Y21600000D01*
X28185044Y21756762D01*
X28124536Y21902841D01*
X28028282Y22028282D01*
X27902841Y22124536D01*
X27756762Y22185044D01*
X27621580Y22202841D01*
X27600001Y22205682D01*
X27599999Y22205682D01*
X27521619Y22195363D01*
X27443238Y22185044D01*
X27297159Y22124536D01*
X27171718Y22028282D01*
X27091592Y21923859D01*
X27070516Y21896392D01*
X27067821Y21898459D01*
X27028623Y21861091D01*
X26960014Y21847873D01*
X26895152Y21873847D01*
X26857251Y21923859D01*
X26825713Y21999998D01*
X26824536Y22002841D01*
X26728282Y22128282D01*
X26602841Y22224536D01*
X26456762Y22285044D01*
X26321580Y22302841D01*
X26300001Y22305682D01*
X26299999Y22305682D01*
X26221619Y22295363D01*
X26143238Y22285044D01*
X25997159Y22224536D01*
X25871718Y22128282D01*
X25775464Y22002841D01*
X25775463Y22002839D01*
X25714956Y21856762D01*
X25714955Y21856760D01*
X25694318Y21700001D01*
X25694318Y21699998D01*
X18667133Y21699998D01*
X18685044Y21743238D01*
X18698209Y21843239D01*
X18705682Y21899998D01*
X18705682Y21900001D01*
X18692143Y22002841D01*
X18685044Y22056762D01*
X18624536Y22202841D01*
X18528282Y22328282D01*
X18402841Y22424536D01*
X18256762Y22485044D01*
X18152254Y22498802D01*
X18100001Y22505682D01*
X18099999Y22505682D01*
X18021619Y22495363D01*
X17943238Y22485044D01*
X17797159Y22424536D01*
X17671718Y22328282D01*
X17575464Y22202841D01*
X17575463Y22202839D01*
X17514956Y22056762D01*
X17514955Y22056760D01*
X17494318Y21900001D01*
X17494318Y21899998D01*
X12892517Y21899998D01*
X12905682Y22000000D01*
X12885044Y22156762D01*
X12824536Y22302841D01*
X12728282Y22428282D01*
X12602841Y22524536D01*
X12456762Y22585044D01*
X12352254Y22598802D01*
X12300001Y22605682D01*
X12299999Y22605682D01*
X12221619Y22595363D01*
X12143238Y22585044D01*
X11997159Y22524536D01*
X11871718Y22428282D01*
X11775464Y22302841D01*
X11775463Y22302839D01*
X11714956Y22156762D01*
X11714955Y22156760D01*
X11694318Y22000001D01*
X11694318Y21999998D01*
X500000Y21999998D01*
X500000Y23099998D01*
X18594318Y23099998D01*
X18614955Y22943239D01*
X18614956Y22943237D01*
X18675463Y22797160D01*
X18771718Y22671718D01*
X18897160Y22575463D01*
X19043237Y22514956D01*
X19043239Y22514955D01*
X19199999Y22494318D01*
X19200000Y22494318D01*
X19200001Y22494318D01*
X19356760Y22514955D01*
X19356762Y22514956D01*
X19502839Y22575463D01*
X19502841Y22575464D01*
X19628282Y22671718D01*
X19724536Y22797159D01*
X19785044Y22943238D01*
X19805682Y23100000D01*
X19785044Y23256762D01*
X19724536Y23402841D01*
X19628282Y23528282D01*
X19502841Y23624536D01*
X19356762Y23685044D01*
X19252254Y23698802D01*
X19200001Y23705682D01*
X19199999Y23705682D01*
X19121619Y23695363D01*
X19043238Y23685044D01*
X18897159Y23624536D01*
X18771718Y23528282D01*
X18675464Y23402841D01*
X18675463Y23402839D01*
X18614956Y23256762D01*
X18614955Y23256760D01*
X18594318Y23100001D01*
X18594318Y23099998D01*
X500000Y23099998D01*
X500000Y25799998D01*
X11694318Y25799998D01*
X11714955Y25643239D01*
X11714956Y25643237D01*
X11775463Y25497160D01*
X11871718Y25371718D01*
X11997160Y25275463D01*
X12143237Y25214956D01*
X12143239Y25214955D01*
X12299999Y25194318D01*
X12300000Y25194318D01*
X12300001Y25194318D01*
X12456760Y25214955D01*
X12456762Y25214956D01*
X12602839Y25275463D01*
X12602841Y25275464D01*
X12728282Y25371718D01*
X12824536Y25497159D01*
X12885044Y25643238D01*
X12905682Y25800000D01*
X12885044Y25956762D01*
X12824536Y26102841D01*
X12728282Y26228282D01*
X12602841Y26324536D01*
X12456762Y26385044D01*
X12352254Y26398802D01*
X12300001Y26405682D01*
X12299999Y26405682D01*
X12221619Y26395363D01*
X12143238Y26385044D01*
X11997159Y26324536D01*
X11871718Y26228282D01*
X11775464Y26102841D01*
X11775463Y26102839D01*
X11714956Y25956762D01*
X11714955Y25956760D01*
X11694318Y25800001D01*
X11694318Y25799998D01*
X500000Y25799998D01*
X500000Y27134998D01*
X2959318Y27134998D01*
X2979955Y26978239D01*
X2979956Y26978237D01*
X3040463Y26832160D01*
X3136718Y26706718D01*
X3262160Y26610463D01*
X3408237Y26549956D01*
X3408239Y26549955D01*
X3564999Y26529318D01*
X3565000Y26529318D01*
X3565001Y26529318D01*
X3721760Y26549955D01*
X3721762Y26549956D01*
X3867839Y26610463D01*
X3867841Y26610464D01*
X3993282Y26706718D01*
X4089536Y26832159D01*
X4150044Y26978238D01*
X4170682Y27134998D01*
X16059318Y27134998D01*
X16079955Y26978239D01*
X16079956Y26978237D01*
X16140463Y26832160D01*
X16236718Y26706718D01*
X16362160Y26610463D01*
X16508237Y26549956D01*
X16508239Y26549955D01*
X16664999Y26529318D01*
X16665000Y26529318D01*
X16665001Y26529318D01*
X16821760Y26549955D01*
X16821762Y26549956D01*
X16967839Y26610463D01*
X16967841Y26610464D01*
X17093282Y26706718D01*
X17189536Y26832159D01*
X17250044Y26978238D01*
X17270682Y27135000D01*
X17250044Y27291762D01*
X17189536Y27437841D01*
X17093282Y27563282D01*
X16967841Y27659536D01*
X16821762Y27720044D01*
X16717254Y27733802D01*
X16665001Y27740682D01*
X16664999Y27740682D01*
X16586619Y27730363D01*
X16508238Y27720044D01*
X16362159Y27659536D01*
X16236718Y27563282D01*
X16140464Y27437841D01*
X16140463Y27437839D01*
X16079956Y27291762D01*
X16079955Y27291760D01*
X16059318Y27135001D01*
X16059318Y27134998D01*
X4170682Y27134998D01*
X4170682Y27135000D01*
X4150044Y27291762D01*
X4089536Y27437841D01*
X3993282Y27563282D01*
X3867841Y27659536D01*
X3721762Y27720044D01*
X3617254Y27733802D01*
X3565001Y27740682D01*
X3564999Y27740682D01*
X3486619Y27730363D01*
X3408238Y27720044D01*
X3262159Y27659536D01*
X3136718Y27563282D01*
X3040464Y27437841D01*
X3040463Y27437839D01*
X2979956Y27291762D01*
X2979955Y27291760D01*
X2959318Y27135001D01*
X2959318Y27134998D01*
X500000Y27134998D01*
X500000Y28399998D01*
X8094318Y28399998D01*
X8114955Y28243239D01*
X8114956Y28243237D01*
X8175463Y28097160D01*
X8271718Y27971718D01*
X8397160Y27875463D01*
X8543237Y27814956D01*
X8543239Y27814955D01*
X8699999Y27794318D01*
X8700000Y27794318D01*
X8700001Y27794318D01*
X8856760Y27814955D01*
X8856762Y27814956D01*
X9002839Y27875463D01*
X9002841Y27875464D01*
X9128282Y27971718D01*
X9224536Y28097159D01*
X9285044Y28243238D01*
X9305682Y28399998D01*
X22094318Y28399998D01*
X22114955Y28243239D01*
X22114956Y28243237D01*
X22175463Y28097160D01*
X22271718Y27971718D01*
X22397160Y27875463D01*
X22543237Y27814956D01*
X22543239Y27814955D01*
X22699999Y27794318D01*
X22700000Y27794318D01*
X22700001Y27794318D01*
X22856760Y27814955D01*
X22856762Y27814956D01*
X23002839Y27875463D01*
X23002841Y27875464D01*
X23128282Y27971718D01*
X23224536Y28097159D01*
X23285044Y28243238D01*
X23305682Y28400000D01*
X23285044Y28556762D01*
X23224536Y28702841D01*
X23128282Y28828282D01*
X23002841Y28924536D01*
X22856762Y28985044D01*
X22752254Y28998802D01*
X22700001Y29005682D01*
X22699999Y29005682D01*
X22621619Y28995363D01*
X22543238Y28985044D01*
X22397159Y28924536D01*
X22271718Y28828282D01*
X22175464Y28702841D01*
X22175463Y28702839D01*
X22114956Y28556762D01*
X22114955Y28556760D01*
X22094318Y28400001D01*
X22094318Y28399998D01*
X9305682Y28399998D01*
X9305682Y28400000D01*
X9285044Y28556762D01*
X9224536Y28702841D01*
X9128282Y28828282D01*
X9002841Y28924536D01*
X8856762Y28985044D01*
X8752254Y28998802D01*
X8700001Y29005682D01*
X8699999Y29005682D01*
X8621619Y28995363D01*
X8543238Y28985044D01*
X8397159Y28924536D01*
X8271718Y28828282D01*
X8175464Y28702841D01*
X8175463Y28702839D01*
X8114956Y28556762D01*
X8114955Y28556760D01*
X8094318Y28400001D01*
X8094318Y28399998D01*
X500000Y28399998D01*
X500000Y46299998D01*
X2194318Y46299998D01*
X2214955Y46143239D01*
X2214956Y46143237D01*
X2275463Y45997160D01*
X2371718Y45871718D01*
X2497160Y45775463D01*
X2643237Y45714956D01*
X2643239Y45714955D01*
X2799999Y45694318D01*
X2800000Y45694318D01*
X2800001Y45694318D01*
X2956760Y45714955D01*
X2956762Y45714956D01*
X3102839Y45775463D01*
X3102841Y45775464D01*
X3228282Y45871718D01*
X3324536Y45997159D01*
X3385044Y46143238D01*
X3405682Y46299998D01*
X3794318Y46299998D01*
X3814955Y46143239D01*
X3814956Y46143237D01*
X3875463Y45997160D01*
X3971718Y45871718D01*
X4097160Y45775463D01*
X4243237Y45714956D01*
X4243239Y45714955D01*
X4399999Y45694318D01*
X4400000Y45694318D01*
X4400001Y45694318D01*
X4556760Y45714955D01*
X4556762Y45714956D01*
X4702839Y45775463D01*
X4702841Y45775464D01*
X4828282Y45871718D01*
X4924536Y45997159D01*
X4985044Y46143238D01*
X5005682Y46299998D01*
X5394318Y46299998D01*
X5414955Y46143239D01*
X5414956Y46143237D01*
X5475463Y45997160D01*
X5571718Y45871718D01*
X5697160Y45775463D01*
X5843237Y45714956D01*
X5843239Y45714955D01*
X5999999Y45694318D01*
X6000000Y45694318D01*
X6000001Y45694318D01*
X6156760Y45714955D01*
X6156762Y45714956D01*
X6302839Y45775463D01*
X6302841Y45775464D01*
X6428282Y45871718D01*
X6524536Y45997159D01*
X6585044Y46143238D01*
X6605682Y46299998D01*
X9294318Y46299998D01*
X9314955Y46143239D01*
X9314956Y46143237D01*
X9375463Y45997160D01*
X9471718Y45871718D01*
X9597160Y45775463D01*
X9743237Y45714956D01*
X9743239Y45714955D01*
X9899999Y45694318D01*
X9900000Y45694318D01*
X9900001Y45694318D01*
X10056760Y45714955D01*
X10056762Y45714956D01*
X10202839Y45775463D01*
X10202841Y45775464D01*
X10328282Y45871718D01*
X10424536Y45997159D01*
X10485044Y46143238D01*
X10505682Y46299998D01*
X10894318Y46299998D01*
X10914955Y46143239D01*
X10914956Y46143237D01*
X10975463Y45997160D01*
X11071718Y45871718D01*
X11197160Y45775463D01*
X11343237Y45714956D01*
X11343239Y45714955D01*
X11499999Y45694318D01*
X11500000Y45694318D01*
X11500001Y45694318D01*
X11656760Y45714955D01*
X11656762Y45714956D01*
X11802839Y45775463D01*
X11802841Y45775464D01*
X11928282Y45871718D01*
X12024536Y45997159D01*
X12085044Y46143238D01*
X12105682Y46299998D01*
X12494318Y46299998D01*
X12514955Y46143239D01*
X12514956Y46143237D01*
X12575463Y45997160D01*
X12671718Y45871718D01*
X12797160Y45775463D01*
X12943237Y45714956D01*
X12943239Y45714955D01*
X13099999Y45694318D01*
X13100000Y45694318D01*
X13100001Y45694318D01*
X13256760Y45714955D01*
X13256762Y45714956D01*
X13402839Y45775463D01*
X13402841Y45775464D01*
X13528282Y45871718D01*
X13624536Y45997159D01*
X13685044Y46143238D01*
X13705682Y46299998D01*
X16494318Y46299998D01*
X16514955Y46143239D01*
X16514956Y46143237D01*
X16575463Y45997160D01*
X16671718Y45871718D01*
X16797160Y45775463D01*
X16943237Y45714956D01*
X16943239Y45714955D01*
X17099999Y45694318D01*
X17100000Y45694318D01*
X17100001Y45694318D01*
X17256760Y45714955D01*
X17256762Y45714956D01*
X17402839Y45775463D01*
X17402841Y45775464D01*
X17528282Y45871718D01*
X17624536Y45997159D01*
X17685044Y46143238D01*
X17705682Y46299998D01*
X18094318Y46299998D01*
X18114955Y46143239D01*
X18114956Y46143237D01*
X18175463Y45997160D01*
X18271718Y45871718D01*
X18397160Y45775463D01*
X18543237Y45714956D01*
X18543239Y45714955D01*
X18699999Y45694318D01*
X18700000Y45694318D01*
X18700001Y45694318D01*
X18856760Y45714955D01*
X18856762Y45714956D01*
X19002839Y45775463D01*
X19002841Y45775464D01*
X19128282Y45871718D01*
X19224536Y45997159D01*
X19285044Y46143238D01*
X19305682Y46299998D01*
X19694318Y46299998D01*
X19714955Y46143239D01*
X19714956Y46143237D01*
X19775463Y45997160D01*
X19871718Y45871718D01*
X19997160Y45775463D01*
X20143237Y45714956D01*
X20143239Y45714955D01*
X20299999Y45694318D01*
X20300000Y45694318D01*
X20300001Y45694318D01*
X20456760Y45714955D01*
X20456762Y45714956D01*
X20602839Y45775463D01*
X20602841Y45775464D01*
X20728282Y45871718D01*
X20824536Y45997159D01*
X20885044Y46143238D01*
X20905682Y46299998D01*
X23294318Y46299998D01*
X23314955Y46143239D01*
X23314956Y46143237D01*
X23375463Y45997160D01*
X23471718Y45871718D01*
X23597160Y45775463D01*
X23743237Y45714956D01*
X23743239Y45714955D01*
X23899999Y45694318D01*
X23900000Y45694318D01*
X23900001Y45694318D01*
X24056760Y45714955D01*
X24056762Y45714956D01*
X24202839Y45775463D01*
X24202841Y45775464D01*
X24328282Y45871718D01*
X24424536Y45997159D01*
X24485044Y46143238D01*
X24505682Y46299998D01*
X24894318Y46299998D01*
X24914955Y46143239D01*
X24914956Y46143237D01*
X24975463Y45997160D01*
X25071718Y45871718D01*
X25197160Y45775463D01*
X25343237Y45714956D01*
X25343239Y45714955D01*
X25499999Y45694318D01*
X25500000Y45694318D01*
X25500001Y45694318D01*
X25656760Y45714955D01*
X25656762Y45714956D01*
X25802839Y45775463D01*
X25802841Y45775464D01*
X25928282Y45871718D01*
X26024536Y45997159D01*
X26085044Y46143238D01*
X26105682Y46299998D01*
X26494318Y46299998D01*
X26514955Y46143239D01*
X26514956Y46143237D01*
X26575463Y45997160D01*
X26671718Y45871718D01*
X26797160Y45775463D01*
X26943237Y45714956D01*
X26943239Y45714955D01*
X27099999Y45694318D01*
X27100000Y45694318D01*
X27100001Y45694318D01*
X27256760Y45714955D01*
X27256762Y45714956D01*
X27402839Y45775463D01*
X27402841Y45775464D01*
X27528282Y45871718D01*
X27624536Y45997159D01*
X27685044Y46143238D01*
X27705682Y46300000D01*
X27685044Y46456762D01*
X27624536Y46602841D01*
X27528282Y46728282D01*
X27402841Y46824536D01*
X27256762Y46885044D01*
X27152254Y46898802D01*
X27100001Y46905682D01*
X27099999Y46905682D01*
X27021619Y46895363D01*
X26943238Y46885044D01*
X26797159Y46824536D01*
X26671718Y46728282D01*
X26575464Y46602841D01*
X26575463Y46602839D01*
X26514956Y46456762D01*
X26514955Y46456760D01*
X26494318Y46300001D01*
X26494318Y46299998D01*
X26105682Y46299998D01*
X26105682Y46300000D01*
X26085044Y46456762D01*
X26024536Y46602841D01*
X25928282Y46728282D01*
X25802841Y46824536D01*
X25656762Y46885044D01*
X25552254Y46898802D01*
X25500001Y46905682D01*
X25499999Y46905682D01*
X25421619Y46895363D01*
X25343238Y46885044D01*
X25197159Y46824536D01*
X25071718Y46728282D01*
X24975464Y46602841D01*
X24975463Y46602839D01*
X24914956Y46456762D01*
X24914955Y46456760D01*
X24894318Y46300001D01*
X24894318Y46299998D01*
X24505682Y46299998D01*
X24505682Y46300000D01*
X24485044Y46456762D01*
X24424536Y46602841D01*
X24328282Y46728282D01*
X24202841Y46824536D01*
X24056762Y46885044D01*
X23952254Y46898802D01*
X23900001Y46905682D01*
X23899999Y46905682D01*
X23821619Y46895363D01*
X23743238Y46885044D01*
X23597159Y46824536D01*
X23471718Y46728282D01*
X23375464Y46602841D01*
X23375463Y46602839D01*
X23314956Y46456762D01*
X23314955Y46456760D01*
X23294318Y46300001D01*
X23294318Y46299998D01*
X20905682Y46299998D01*
X20905682Y46300000D01*
X20885044Y46456762D01*
X20824536Y46602841D01*
X20728282Y46728282D01*
X20602841Y46824536D01*
X20456762Y46885044D01*
X20352254Y46898802D01*
X20300001Y46905682D01*
X20299999Y46905682D01*
X20221619Y46895363D01*
X20143238Y46885044D01*
X19997159Y46824536D01*
X19871718Y46728282D01*
X19775464Y46602841D01*
X19775463Y46602839D01*
X19714956Y46456762D01*
X19714955Y46456760D01*
X19694318Y46300001D01*
X19694318Y46299998D01*
X19305682Y46299998D01*
X19305682Y46300000D01*
X19285044Y46456762D01*
X19224536Y46602841D01*
X19128282Y46728282D01*
X19002841Y46824536D01*
X18856762Y46885044D01*
X18752254Y46898802D01*
X18700001Y46905682D01*
X18699999Y46905682D01*
X18621619Y46895363D01*
X18543238Y46885044D01*
X18397159Y46824536D01*
X18271718Y46728282D01*
X18175464Y46602841D01*
X18175463Y46602839D01*
X18114956Y46456762D01*
X18114955Y46456760D01*
X18094318Y46300001D01*
X18094318Y46299998D01*
X17705682Y46299998D01*
X17705682Y46300000D01*
X17685044Y46456762D01*
X17624536Y46602841D01*
X17528282Y46728282D01*
X17402841Y46824536D01*
X17256762Y46885044D01*
X17152254Y46898802D01*
X17100001Y46905682D01*
X17099999Y46905682D01*
X17021619Y46895363D01*
X16943238Y46885044D01*
X16797159Y46824536D01*
X16671718Y46728282D01*
X16575464Y46602841D01*
X16575463Y46602839D01*
X16514956Y46456762D01*
X16514955Y46456760D01*
X16494318Y46300001D01*
X16494318Y46299998D01*
X13705682Y46299998D01*
X13705682Y46300000D01*
X13685044Y46456762D01*
X13624536Y46602841D01*
X13528282Y46728282D01*
X13402841Y46824536D01*
X13256762Y46885044D01*
X13152254Y46898802D01*
X13100001Y46905682D01*
X13099999Y46905682D01*
X13021619Y46895363D01*
X12943238Y46885044D01*
X12797159Y46824536D01*
X12671718Y46728282D01*
X12575464Y46602841D01*
X12575463Y46602839D01*
X12514956Y46456762D01*
X12514955Y46456760D01*
X12494318Y46300001D01*
X12494318Y46299998D01*
X12105682Y46299998D01*
X12105682Y46300000D01*
X12085044Y46456762D01*
X12024536Y46602841D01*
X11928282Y46728282D01*
X11802841Y46824536D01*
X11656762Y46885044D01*
X11552254Y46898802D01*
X11500001Y46905682D01*
X11499999Y46905682D01*
X11421619Y46895363D01*
X11343238Y46885044D01*
X11197159Y46824536D01*
X11071718Y46728282D01*
X10975464Y46602841D01*
X10975463Y46602839D01*
X10914956Y46456762D01*
X10914955Y46456760D01*
X10894318Y46300001D01*
X10894318Y46299998D01*
X10505682Y46299998D01*
X10505682Y46300000D01*
X10485044Y46456762D01*
X10424536Y46602841D01*
X10328282Y46728282D01*
X10202841Y46824536D01*
X10056762Y46885044D01*
X9952254Y46898802D01*
X9900001Y46905682D01*
X9899999Y46905682D01*
X9821619Y46895363D01*
X9743238Y46885044D01*
X9597159Y46824536D01*
X9471718Y46728282D01*
X9375464Y46602841D01*
X9375463Y46602839D01*
X9314956Y46456762D01*
X9314955Y46456760D01*
X9294318Y46300001D01*
X9294318Y46299998D01*
X6605682Y46299998D01*
X6605682Y46300000D01*
X6585044Y46456762D01*
X6524536Y46602841D01*
X6428282Y46728282D01*
X6302841Y46824536D01*
X6156762Y46885044D01*
X6052254Y46898802D01*
X6000001Y46905682D01*
X5999999Y46905682D01*
X5921619Y46895363D01*
X5843238Y46885044D01*
X5697159Y46824536D01*
X5571718Y46728282D01*
X5475464Y46602841D01*
X5475463Y46602839D01*
X5414956Y46456762D01*
X5414955Y46456760D01*
X5394318Y46300001D01*
X5394318Y46299998D01*
X5005682Y46299998D01*
X5005682Y46300000D01*
X4985044Y46456762D01*
X4924536Y46602841D01*
X4828282Y46728282D01*
X4702841Y46824536D01*
X4556762Y46885044D01*
X4452254Y46898802D01*
X4400001Y46905682D01*
X4399999Y46905682D01*
X4321619Y46895363D01*
X4243238Y46885044D01*
X4097159Y46824536D01*
X3971718Y46728282D01*
X3875464Y46602841D01*
X3875463Y46602839D01*
X3814956Y46456762D01*
X3814955Y46456760D01*
X3794318Y46300001D01*
X3794318Y46299998D01*
X3405682Y46299998D01*
X3405682Y46300000D01*
X3385044Y46456762D01*
X3324536Y46602841D01*
X3228282Y46728282D01*
X3102841Y46824536D01*
X2956762Y46885044D01*
X2852254Y46898802D01*
X2800001Y46905682D01*
X2799999Y46905682D01*
X2721619Y46895363D01*
X2643238Y46885044D01*
X2497159Y46824536D01*
X2371718Y46728282D01*
X2275464Y46602841D01*
X2275463Y46602839D01*
X2214956Y46456762D01*
X2214955Y46456760D01*
X2194318Y46300001D01*
X2194318Y46299998D01*
X500000Y46299998D01*
X500000Y47899998D01*
X13694318Y47899998D01*
X13714955Y47743239D01*
X13714956Y47743237D01*
X13775463Y47597160D01*
X13871718Y47471718D01*
X13997160Y47375463D01*
X14143237Y47314956D01*
X14143239Y47314955D01*
X14299999Y47294318D01*
X14300000Y47294318D01*
X14300001Y47294318D01*
X14456760Y47314955D01*
X14456762Y47314956D01*
X14602839Y47375463D01*
X14602841Y47375464D01*
X14728282Y47471718D01*
X14824536Y47597159D01*
X14885044Y47743238D01*
X14885044Y47743239D01*
X14885439Y47744192D01*
X14929280Y47798595D01*
X14995574Y47820660D01*
X15063273Y47803381D01*
X15110884Y47752244D01*
X15114561Y47744192D01*
X15114956Y47743239D01*
X15114956Y47743238D01*
X15127650Y47712590D01*
X15175463Y47597160D01*
X15271718Y47471718D01*
X15397160Y47375463D01*
X15543237Y47314956D01*
X15543239Y47314955D01*
X15699999Y47294318D01*
X15700000Y47294318D01*
X15700001Y47294318D01*
X15856760Y47314955D01*
X15856762Y47314956D01*
X16002839Y47375463D01*
X16002841Y47375464D01*
X16128282Y47471718D01*
X16224536Y47597159D01*
X16285044Y47743238D01*
X16305682Y47900000D01*
X16285044Y48056762D01*
X16224536Y48202841D01*
X16128282Y48328282D01*
X16002841Y48424536D01*
X15856762Y48485044D01*
X15752254Y48498802D01*
X15700001Y48505682D01*
X15699999Y48505682D01*
X15621619Y48495363D01*
X15543238Y48485044D01*
X15397159Y48424536D01*
X15271718Y48328282D01*
X15175464Y48202841D01*
X15175462Y48202838D01*
X15114561Y48055808D01*
X15070720Y48001404D01*
X15004426Y47979339D01*
X14936727Y47996618D01*
X14889116Y48047755D01*
X14885439Y48055808D01*
X14824537Y48202838D01*
X14824536Y48202841D01*
X14728282Y48328282D01*
X14602841Y48424536D01*
X14456762Y48485044D01*
X14352254Y48498802D01*
X14300001Y48505682D01*
X14299999Y48505682D01*
X14221619Y48495363D01*
X14143238Y48485044D01*
X13997159Y48424536D01*
X13871718Y48328282D01*
X13775464Y48202841D01*
X13775463Y48202839D01*
X13714956Y48056762D01*
X13714955Y48056760D01*
X13694318Y47900001D01*
X13694318Y47899998D01*
X500000Y47899998D01*
X500000Y58702155D01*
X2150000Y58702155D01*
X2156401Y58642626D01*
X2165276Y58618829D01*
X3016923Y59470476D01*
X3040507Y59390156D01*
X3118239Y59269202D01*
X3226900Y59175048D01*
X3357685Y59115320D01*
X3367465Y59113913D01*
X2518829Y58265276D01*
X2542626Y58256401D01*
X2602155Y58250000D01*
X4397844Y58250000D01*
X4457372Y58256401D01*
X4457382Y58256403D01*
X4481168Y58265275D01*
X4481169Y58265276D01*
X3632533Y59113913D01*
X3642315Y59115320D01*
X3773100Y59175048D01*
X3881761Y59269202D01*
X3959493Y59390156D01*
X3983076Y59470475D01*
X4834722Y58618829D01*
X4834723Y58618829D01*
X4843598Y58642624D01*
X4849999Y58702155D01*
X4850000Y58702172D01*
X4850000Y59102813D01*
X4869685Y59169852D01*
X4922489Y59215607D01*
X4991647Y59225551D01*
X5055203Y59196526D01*
X5083358Y59161267D01*
X5162317Y59013547D01*
X5293589Y58853589D01*
X5453547Y58722317D01*
X5453548Y58722316D01*
X5453550Y58722315D01*
X5525898Y58683643D01*
X5636043Y58624769D01*
X5636045Y58624768D01*
X5636046Y58624768D01*
X5735056Y58594734D01*
X5834069Y58564699D01*
X5834065Y58564699D01*
X6040000Y58544417D01*
X6245932Y58564699D01*
X6344944Y58594734D01*
X6443954Y58624768D01*
X6626450Y58722315D01*
X6668677Y58756969D01*
X6786410Y58853589D01*
X6865702Y58950209D01*
X6917685Y59013550D01*
X7015232Y59196046D01*
X7075300Y59394066D01*
X7095583Y59600000D01*
X7524417Y59600000D01*
X7544699Y59394067D01*
X7604769Y59196043D01*
X7702317Y59013547D01*
X7833589Y58853589D01*
X7993547Y58722317D01*
X7993548Y58722316D01*
X7993550Y58722315D01*
X8065898Y58683643D01*
X8176043Y58624769D01*
X8176045Y58624768D01*
X8176046Y58624768D01*
X8275056Y58594734D01*
X8374069Y58564699D01*
X8374065Y58564699D01*
X8580000Y58544417D01*
X8785932Y58564699D01*
X8884944Y58594734D01*
X8983954Y58624768D01*
X9166450Y58722315D01*
X9208677Y58756969D01*
X9326410Y58853589D01*
X9405702Y58950209D01*
X9457685Y59013550D01*
X9555232Y59196046D01*
X9615300Y59394066D01*
X9635583Y59600000D01*
X10064417Y59600000D01*
X10084699Y59394067D01*
X10144769Y59196043D01*
X10242317Y59013547D01*
X10373589Y58853589D01*
X10533547Y58722317D01*
X10533548Y58722316D01*
X10533550Y58722315D01*
X10605898Y58683643D01*
X10716043Y58624769D01*
X10716045Y58624768D01*
X10716046Y58624768D01*
X10815056Y58594734D01*
X10914069Y58564699D01*
X10914065Y58564699D01*
X11120000Y58544417D01*
X11325932Y58564699D01*
X11424944Y58594734D01*
X11523954Y58624768D01*
X11706450Y58722315D01*
X11748677Y58756969D01*
X11866410Y58853589D01*
X11945702Y58950209D01*
X11997685Y59013550D01*
X12095232Y59196046D01*
X12155300Y59394066D01*
X12175583Y59600000D01*
X12604417Y59600000D01*
X12624699Y59394067D01*
X12684769Y59196043D01*
X12782317Y59013547D01*
X12913589Y58853589D01*
X13073547Y58722317D01*
X13073548Y58722316D01*
X13073550Y58722315D01*
X13145898Y58683643D01*
X13256043Y58624769D01*
X13256045Y58624768D01*
X13256046Y58624768D01*
X13355056Y58594734D01*
X13454069Y58564699D01*
X13454065Y58564699D01*
X13660000Y58544417D01*
X13865932Y58564699D01*
X13964944Y58594734D01*
X14063954Y58624768D01*
X14246450Y58722315D01*
X14288677Y58756969D01*
X14406410Y58853589D01*
X14485702Y58950209D01*
X14537685Y59013550D01*
X14635232Y59196046D01*
X14695300Y59394066D01*
X14715583Y59600000D01*
X15144417Y59600000D01*
X15164699Y59394067D01*
X15224769Y59196043D01*
X15322317Y59013547D01*
X15453589Y58853589D01*
X15613547Y58722317D01*
X15613548Y58722316D01*
X15613550Y58722315D01*
X15685898Y58683643D01*
X15796043Y58624769D01*
X15796045Y58624768D01*
X15796046Y58624768D01*
X15895056Y58594734D01*
X15994069Y58564699D01*
X15994065Y58564699D01*
X16200000Y58544417D01*
X16405932Y58564699D01*
X16504944Y58594734D01*
X16603954Y58624768D01*
X16786450Y58722315D01*
X16828677Y58756969D01*
X16946410Y58853589D01*
X17025702Y58950209D01*
X17077685Y59013550D01*
X17175232Y59196046D01*
X17235300Y59394066D01*
X17255583Y59600000D01*
X17684417Y59600000D01*
X17704699Y59394067D01*
X17764769Y59196043D01*
X17862317Y59013547D01*
X17993589Y58853589D01*
X18153547Y58722317D01*
X18153548Y58722316D01*
X18153550Y58722315D01*
X18225898Y58683643D01*
X18336043Y58624769D01*
X18336045Y58624768D01*
X18336046Y58624768D01*
X18435056Y58594734D01*
X18534069Y58564699D01*
X18534065Y58564699D01*
X18740000Y58544417D01*
X18945932Y58564699D01*
X19044944Y58594734D01*
X19143954Y58624768D01*
X19326450Y58722315D01*
X19368677Y58756969D01*
X19486410Y58853589D01*
X19565702Y58950209D01*
X19617685Y59013550D01*
X19715232Y59196046D01*
X19775300Y59394066D01*
X19795583Y59600000D01*
X20224417Y59600000D01*
X20244699Y59394067D01*
X20304769Y59196043D01*
X20402317Y59013547D01*
X20533589Y58853589D01*
X20693547Y58722317D01*
X20693548Y58722316D01*
X20693550Y58722315D01*
X20765898Y58683643D01*
X20876043Y58624769D01*
X20876045Y58624768D01*
X20876046Y58624768D01*
X20975056Y58594734D01*
X21074069Y58564699D01*
X21074065Y58564699D01*
X21280000Y58544417D01*
X21485932Y58564699D01*
X21584944Y58594734D01*
X21683954Y58624768D01*
X21866450Y58722315D01*
X21908677Y58756969D01*
X22026410Y58853589D01*
X22105702Y58950209D01*
X22157685Y59013550D01*
X22255232Y59196046D01*
X22315300Y59394066D01*
X22335583Y59600000D01*
X22764417Y59600000D01*
X22784699Y59394067D01*
X22844769Y59196043D01*
X22942317Y59013547D01*
X23073589Y58853589D01*
X23233547Y58722317D01*
X23233548Y58722316D01*
X23233550Y58722315D01*
X23305898Y58683643D01*
X23416043Y58624769D01*
X23416045Y58624768D01*
X23416046Y58624768D01*
X23515056Y58594734D01*
X23614069Y58564699D01*
X23614065Y58564699D01*
X23820000Y58544417D01*
X24025932Y58564699D01*
X24124944Y58594734D01*
X24223954Y58624768D01*
X24406450Y58722315D01*
X24448677Y58756969D01*
X24566410Y58853589D01*
X24645702Y58950209D01*
X24697685Y59013550D01*
X24795232Y59196046D01*
X24815405Y59262551D01*
X24853702Y59320989D01*
X24917514Y59349446D01*
X24986581Y59338887D01*
X25038975Y59292663D01*
X25053841Y59258650D01*
X25086567Y59136514D01*
X25086570Y59136507D01*
X25186402Y58922417D01*
X25245072Y58838626D01*
X25245073Y58838625D01*
X25876923Y59470475D01*
X25900507Y59390156D01*
X25978239Y59269202D01*
X26086900Y59175048D01*
X26217685Y59115320D01*
X26227466Y59113913D01*
X25598625Y58485073D01*
X25598626Y58485072D01*
X25682417Y58426402D01*
X25896507Y58326570D01*
X25896516Y58326566D01*
X26124673Y58265432D01*
X26124684Y58265430D01*
X26359998Y58244843D01*
X26360002Y58244843D01*
X26595315Y58265430D01*
X26595326Y58265432D01*
X26823483Y58326566D01*
X26823492Y58326570D01*
X27037579Y58426400D01*
X27037583Y58426402D01*
X27121373Y58485072D01*
X27121373Y58485073D01*
X26492533Y59113913D01*
X26502315Y59115320D01*
X26633100Y59175048D01*
X26741761Y59269202D01*
X26819493Y59390156D01*
X26843076Y59470475D01*
X27474925Y58838625D01*
X27533599Y58922421D01*
X27633429Y59136507D01*
X27633433Y59136516D01*
X27694567Y59364673D01*
X27694569Y59364684D01*
X27715157Y59599998D01*
X27715157Y59600001D01*
X27694569Y59835315D01*
X27694567Y59835326D01*
X27633433Y60063483D01*
X27633429Y60063492D01*
X27533601Y60277575D01*
X27474925Y60361373D01*
X26843076Y59729524D01*
X26819493Y59809844D01*
X26741761Y59930798D01*
X26633100Y60024952D01*
X26502315Y60084680D01*
X26492533Y60086086D01*
X27121373Y60714925D01*
X27121373Y60714926D01*
X27037582Y60773598D01*
X27037578Y60773600D01*
X26823492Y60873429D01*
X26823483Y60873433D01*
X26595326Y60934567D01*
X26595315Y60934569D01*
X26360002Y60955157D01*
X26359998Y60955157D01*
X26124684Y60934569D01*
X26124673Y60934567D01*
X25896516Y60873433D01*
X25896507Y60873429D01*
X25682423Y60773600D01*
X25682421Y60773599D01*
X25598626Y60714925D01*
X25598625Y60714925D01*
X26227466Y60086086D01*
X26217685Y60084680D01*
X26086900Y60024952D01*
X25978239Y59930798D01*
X25900507Y59809844D01*
X25876923Y59729523D01*
X25245074Y60361373D01*
X25245073Y60361372D01*
X25186400Y60277578D01*
X25186399Y60277576D01*
X25086570Y60063492D01*
X25086567Y60063486D01*
X25053841Y59941349D01*
X25017476Y59881689D01*
X24954629Y59851160D01*
X24885253Y59859455D01*
X24831375Y59903940D01*
X24815407Y59937444D01*
X24795232Y60003954D01*
X24697685Y60186450D01*
X24566410Y60346410D01*
X24406450Y60477685D01*
X24223954Y60575232D01*
X24025934Y60635300D01*
X23820000Y60655583D01*
X23614066Y60635300D01*
X23416046Y60575232D01*
X23233550Y60477685D01*
X23170209Y60425702D01*
X23073589Y60346410D01*
X22976969Y60228677D01*
X22942315Y60186450D01*
X22844768Y60003954D01*
X22840198Y59988888D01*
X22784699Y59805932D01*
X22764417Y59600000D01*
X22335583Y59600000D01*
X22315300Y59805934D01*
X22255232Y60003954D01*
X22157685Y60186450D01*
X22026410Y60346410D01*
X21866450Y60477685D01*
X21683954Y60575232D01*
X21485934Y60635300D01*
X21280000Y60655583D01*
X21074066Y60635300D01*
X20876046Y60575232D01*
X20693550Y60477685D01*
X20630209Y60425702D01*
X20533589Y60346410D01*
X20436969Y60228677D01*
X20402315Y60186450D01*
X20304768Y60003954D01*
X20300198Y59988888D01*
X20244699Y59805932D01*
X20224417Y59600000D01*
X19795583Y59600000D01*
X19775300Y59805934D01*
X19715232Y60003954D01*
X19617685Y60186450D01*
X19486410Y60346410D01*
X19326450Y60477685D01*
X19143954Y60575232D01*
X18945934Y60635300D01*
X18740000Y60655583D01*
X18534066Y60635300D01*
X18336046Y60575232D01*
X18153550Y60477685D01*
X18090209Y60425702D01*
X17993589Y60346410D01*
X17896969Y60228677D01*
X17862315Y60186450D01*
X17764768Y60003954D01*
X17760198Y59988888D01*
X17704699Y59805932D01*
X17684417Y59600000D01*
X17255583Y59600000D01*
X17235300Y59805934D01*
X17175232Y60003954D01*
X17077685Y60186450D01*
X16946410Y60346410D01*
X16786450Y60477685D01*
X16603954Y60575232D01*
X16405934Y60635300D01*
X16200000Y60655583D01*
X15994066Y60635300D01*
X15796046Y60575232D01*
X15613550Y60477685D01*
X15550209Y60425702D01*
X15453589Y60346410D01*
X15356969Y60228677D01*
X15322315Y60186450D01*
X15224768Y60003954D01*
X15220198Y59988888D01*
X15164699Y59805932D01*
X15144417Y59600000D01*
X14715583Y59600000D01*
X14695300Y59805934D01*
X14635232Y60003954D01*
X14537685Y60186450D01*
X14406410Y60346410D01*
X14246450Y60477685D01*
X14063954Y60575232D01*
X13865934Y60635300D01*
X13660000Y60655583D01*
X13454066Y60635300D01*
X13256046Y60575232D01*
X13073550Y60477685D01*
X13010209Y60425702D01*
X12913589Y60346410D01*
X12816969Y60228677D01*
X12782315Y60186450D01*
X12684768Y60003954D01*
X12680198Y59988888D01*
X12624699Y59805932D01*
X12604417Y59600000D01*
X12175583Y59600000D01*
X12155300Y59805934D01*
X12095232Y60003954D01*
X11997685Y60186450D01*
X11866410Y60346410D01*
X11706450Y60477685D01*
X11523954Y60575232D01*
X11325934Y60635300D01*
X11120000Y60655583D01*
X10914066Y60635300D01*
X10716046Y60575232D01*
X10533550Y60477685D01*
X10470209Y60425702D01*
X10373589Y60346410D01*
X10276969Y60228677D01*
X10242315Y60186450D01*
X10144768Y60003954D01*
X10140198Y59988888D01*
X10084699Y59805932D01*
X10064417Y59600000D01*
X9635583Y59600000D01*
X9615300Y59805934D01*
X9555232Y60003954D01*
X9457685Y60186450D01*
X9326410Y60346410D01*
X9166450Y60477685D01*
X8983954Y60575232D01*
X8785934Y60635300D01*
X8580000Y60655583D01*
X8374066Y60635300D01*
X8176046Y60575232D01*
X7993550Y60477685D01*
X7930209Y60425702D01*
X7833589Y60346410D01*
X7736969Y60228677D01*
X7702315Y60186450D01*
X7604768Y60003954D01*
X7600198Y59988888D01*
X7544699Y59805932D01*
X7524417Y59600000D01*
X7095583Y59600000D01*
X7075300Y59805934D01*
X7015232Y60003954D01*
X6917685Y60186450D01*
X6786410Y60346410D01*
X6626450Y60477685D01*
X6443954Y60575232D01*
X6245934Y60635300D01*
X6040000Y60655583D01*
X5834066Y60635300D01*
X5636046Y60575232D01*
X5453550Y60477685D01*
X5390209Y60425702D01*
X5293589Y60346410D01*
X5196969Y60228677D01*
X5162315Y60186450D01*
X5083356Y60038730D01*
X5034395Y59988888D01*
X4966258Y59973428D01*
X4900578Y59997260D01*
X4858209Y60052818D01*
X4850000Y60097186D01*
X4850000Y60497827D01*
X4849999Y60497844D01*
X4843598Y60557372D01*
X4843597Y60557378D01*
X4834723Y60581168D01*
X4834722Y60581168D01*
X3983076Y59729523D01*
X3959493Y59809844D01*
X3881761Y59930798D01*
X3773100Y60024952D01*
X3642315Y60084680D01*
X3632534Y60086086D01*
X4481168Y60934722D01*
X4481168Y60934723D01*
X4457378Y60943597D01*
X4457372Y60943598D01*
X4397844Y60949999D01*
X4397828Y60950000D01*
X2602172Y60950000D01*
X2602155Y60949999D01*
X2542624Y60943598D01*
X2518829Y60934723D01*
X2518829Y60934722D01*
X3367466Y60086086D01*
X3357685Y60084680D01*
X3226900Y60024952D01*
X3118239Y59930798D01*
X3040507Y59809844D01*
X3016922Y59729523D01*
X2165276Y60581169D01*
X2165275Y60581168D01*
X2156403Y60557382D01*
X2156401Y60557372D01*
X2150000Y60497844D01*
X2150000Y58702155D01*
X500000Y58702155D01*
X500000Y69376000D01*
X519685Y69443039D01*
X572489Y69488794D01*
X624000Y69500000D01*
X29376000Y69500000D01*
X29443039Y69480315D01*
G37*
%TD.AperFunction*%
%TD*%
M02*
