%TF.GenerationSoftware,KiCad,Pcbnew,7.0.9*%
%TF.CreationDate,2024-02-15T22:31:25-05:00*%
%TF.ProjectId,pbm_driver4,70626d5f-6472-4697-9665-72342e6b6963,rev?*%
%TF.SameCoordinates,PX2625a0PY53ec60*%
%TF.FileFunction,Legend,Bot*%
%TF.FilePolarity,Positive*%
%FSLAX46Y46*%
G04 Gerber Fmt 4.6, Leading zero omitted, Abs format (unit mm)*
G04 Created by KiCad (PCBNEW 7.0.9) date 2024-02-15 22:31:25*
%MOMM*%
%LPD*%
G01*
G04 APERTURE LIST*
%ADD10C,0.150000*%
%ADD11C,0.120000*%
G04 APERTURE END LIST*
D10*
X27139411Y56430180D02*
X27710839Y56430180D01*
X27425125Y56430180D02*
X27425125Y57430180D01*
X27425125Y57430180D02*
X27520363Y57287323D01*
X27520363Y57287323D02*
X27615601Y57192085D01*
X27615601Y57192085D02*
X27710839Y57144466D01*
X26520363Y57430180D02*
X26425125Y57430180D01*
X26425125Y57430180D02*
X26329887Y57382561D01*
X26329887Y57382561D02*
X26282268Y57334942D01*
X26282268Y57334942D02*
X26234649Y57239704D01*
X26234649Y57239704D02*
X26187030Y57049228D01*
X26187030Y57049228D02*
X26187030Y56811133D01*
X26187030Y56811133D02*
X26234649Y56620657D01*
X26234649Y56620657D02*
X26282268Y56525419D01*
X26282268Y56525419D02*
X26329887Y56477800D01*
X26329887Y56477800D02*
X26425125Y56430180D01*
X26425125Y56430180D02*
X26520363Y56430180D01*
X26520363Y56430180D02*
X26615601Y56477800D01*
X26615601Y56477800D02*
X26663220Y56525419D01*
X26663220Y56525419D02*
X26710839Y56620657D01*
X26710839Y56620657D02*
X26758458Y56811133D01*
X26758458Y56811133D02*
X26758458Y57049228D01*
X26758458Y57049228D02*
X26710839Y57239704D01*
X26710839Y57239704D02*
X26663220Y57334942D01*
X26663220Y57334942D02*
X26615601Y57382561D01*
X26615601Y57382561D02*
X26520363Y57430180D01*
X2939411Y56030180D02*
X3510839Y56030180D01*
X3225125Y56030180D02*
X3225125Y57030180D01*
X3225125Y57030180D02*
X3320363Y56887323D01*
X3320363Y56887323D02*
X3415601Y56792085D01*
X3415601Y56792085D02*
X3510839Y56744466D01*
X29310839Y13634942D02*
X29263220Y13682561D01*
X29263220Y13682561D02*
X29167982Y13730180D01*
X29167982Y13730180D02*
X28929887Y13730180D01*
X28929887Y13730180D02*
X28834649Y13682561D01*
X28834649Y13682561D02*
X28787030Y13634942D01*
X28787030Y13634942D02*
X28739411Y13539704D01*
X28739411Y13539704D02*
X28739411Y13444466D01*
X28739411Y13444466D02*
X28787030Y13301609D01*
X28787030Y13301609D02*
X29358458Y12730180D01*
X29358458Y12730180D02*
X28739411Y12730180D01*
X28120363Y13730180D02*
X28025125Y13730180D01*
X28025125Y13730180D02*
X27929887Y13682561D01*
X27929887Y13682561D02*
X27882268Y13634942D01*
X27882268Y13634942D02*
X27834649Y13539704D01*
X27834649Y13539704D02*
X27787030Y13349228D01*
X27787030Y13349228D02*
X27787030Y13111133D01*
X27787030Y13111133D02*
X27834649Y12920657D01*
X27834649Y12920657D02*
X27882268Y12825419D01*
X27882268Y12825419D02*
X27929887Y12777800D01*
X27929887Y12777800D02*
X28025125Y12730180D01*
X28025125Y12730180D02*
X28120363Y12730180D01*
X28120363Y12730180D02*
X28215601Y12777800D01*
X28215601Y12777800D02*
X28263220Y12825419D01*
X28263220Y12825419D02*
X28310839Y12920657D01*
X28310839Y12920657D02*
X28358458Y13111133D01*
X28358458Y13111133D02*
X28358458Y13349228D01*
X28358458Y13349228D02*
X28310839Y13539704D01*
X28310839Y13539704D02*
X28263220Y13634942D01*
X28263220Y13634942D02*
X28215601Y13682561D01*
X28215601Y13682561D02*
X28120363Y13730180D01*
X28739411Y8130180D02*
X29310839Y8130180D01*
X29025125Y8130180D02*
X29025125Y9130180D01*
X29025125Y9130180D02*
X29120363Y8987323D01*
X29120363Y8987323D02*
X29215601Y8892085D01*
X29215601Y8892085D02*
X29310839Y8844466D01*
X28263220Y8130180D02*
X28072744Y8130180D01*
X28072744Y8130180D02*
X27977506Y8177800D01*
X27977506Y8177800D02*
X27929887Y8225419D01*
X27929887Y8225419D02*
X27834649Y8368276D01*
X27834649Y8368276D02*
X27787030Y8558752D01*
X27787030Y8558752D02*
X27787030Y8939704D01*
X27787030Y8939704D02*
X27834649Y9034942D01*
X27834649Y9034942D02*
X27882268Y9082561D01*
X27882268Y9082561D02*
X27977506Y9130180D01*
X27977506Y9130180D02*
X28167982Y9130180D01*
X28167982Y9130180D02*
X28263220Y9082561D01*
X28263220Y9082561D02*
X28310839Y9034942D01*
X28310839Y9034942D02*
X28358458Y8939704D01*
X28358458Y8939704D02*
X28358458Y8701609D01*
X28358458Y8701609D02*
X28310839Y8606371D01*
X28310839Y8606371D02*
X28263220Y8558752D01*
X28263220Y8558752D02*
X28167982Y8511133D01*
X28167982Y8511133D02*
X27977506Y8511133D01*
X27977506Y8511133D02*
X27882268Y8558752D01*
X27882268Y8558752D02*
X27834649Y8606371D01*
X27834649Y8606371D02*
X27787030Y8701609D01*
X1810839Y14034942D02*
X1763220Y14082561D01*
X1763220Y14082561D02*
X1667982Y14130180D01*
X1667982Y14130180D02*
X1429887Y14130180D01*
X1429887Y14130180D02*
X1334649Y14082561D01*
X1334649Y14082561D02*
X1287030Y14034942D01*
X1287030Y14034942D02*
X1239411Y13939704D01*
X1239411Y13939704D02*
X1239411Y13844466D01*
X1239411Y13844466D02*
X1287030Y13701609D01*
X1287030Y13701609D02*
X1858458Y13130180D01*
X1858458Y13130180D02*
X1239411Y13130180D01*
X1039411Y8030180D02*
X1610839Y8030180D01*
X1325125Y8030180D02*
X1325125Y9030180D01*
X1325125Y9030180D02*
X1420363Y8887323D01*
X1420363Y8887323D02*
X1515601Y8792085D01*
X1515601Y8792085D02*
X1610839Y8744466D01*
X25454819Y22342857D02*
X24978628Y22676190D01*
X25454819Y22914285D02*
X24454819Y22914285D01*
X24454819Y22914285D02*
X24454819Y22533333D01*
X24454819Y22533333D02*
X24502438Y22438095D01*
X24502438Y22438095D02*
X24550057Y22390476D01*
X24550057Y22390476D02*
X24645295Y22342857D01*
X24645295Y22342857D02*
X24788152Y22342857D01*
X24788152Y22342857D02*
X24883390Y22390476D01*
X24883390Y22390476D02*
X24931009Y22438095D01*
X24931009Y22438095D02*
X24978628Y22533333D01*
X24978628Y22533333D02*
X24978628Y22914285D01*
X25454819Y21390476D02*
X25454819Y21961904D01*
X25454819Y21676190D02*
X24454819Y21676190D01*
X24454819Y21676190D02*
X24597676Y21771428D01*
X24597676Y21771428D02*
X24692914Y21866666D01*
X24692914Y21866666D02*
X24740533Y21961904D01*
X24454819Y20771428D02*
X24454819Y20676190D01*
X24454819Y20676190D02*
X24502438Y20580952D01*
X24502438Y20580952D02*
X24550057Y20533333D01*
X24550057Y20533333D02*
X24645295Y20485714D01*
X24645295Y20485714D02*
X24835771Y20438095D01*
X24835771Y20438095D02*
X25073866Y20438095D01*
X25073866Y20438095D02*
X25264342Y20485714D01*
X25264342Y20485714D02*
X25359580Y20533333D01*
X25359580Y20533333D02*
X25407200Y20580952D01*
X25407200Y20580952D02*
X25454819Y20676190D01*
X25454819Y20676190D02*
X25454819Y20771428D01*
X25454819Y20771428D02*
X25407200Y20866666D01*
X25407200Y20866666D02*
X25359580Y20914285D01*
X25359580Y20914285D02*
X25264342Y20961904D01*
X25264342Y20961904D02*
X25073866Y21009523D01*
X25073866Y21009523D02*
X24835771Y21009523D01*
X24835771Y21009523D02*
X24645295Y20961904D01*
X24645295Y20961904D02*
X24550057Y20914285D01*
X24550057Y20914285D02*
X24502438Y20866666D01*
X24502438Y20866666D02*
X24454819Y20771428D01*
X29454819Y18166666D02*
X28978628Y18499999D01*
X29454819Y18738094D02*
X28454819Y18738094D01*
X28454819Y18738094D02*
X28454819Y18357142D01*
X28454819Y18357142D02*
X28502438Y18261904D01*
X28502438Y18261904D02*
X28550057Y18214285D01*
X28550057Y18214285D02*
X28645295Y18166666D01*
X28645295Y18166666D02*
X28788152Y18166666D01*
X28788152Y18166666D02*
X28883390Y18214285D01*
X28883390Y18214285D02*
X28931009Y18261904D01*
X28931009Y18261904D02*
X28978628Y18357142D01*
X28978628Y18357142D02*
X28978628Y18738094D01*
X29454819Y17690475D02*
X29454819Y17499999D01*
X29454819Y17499999D02*
X29407200Y17404761D01*
X29407200Y17404761D02*
X29359580Y17357142D01*
X29359580Y17357142D02*
X29216723Y17261904D01*
X29216723Y17261904D02*
X29026247Y17214285D01*
X29026247Y17214285D02*
X28645295Y17214285D01*
X28645295Y17214285D02*
X28550057Y17261904D01*
X28550057Y17261904D02*
X28502438Y17309523D01*
X28502438Y17309523D02*
X28454819Y17404761D01*
X28454819Y17404761D02*
X28454819Y17595237D01*
X28454819Y17595237D02*
X28502438Y17690475D01*
X28502438Y17690475D02*
X28550057Y17738094D01*
X28550057Y17738094D02*
X28645295Y17785713D01*
X28645295Y17785713D02*
X28883390Y17785713D01*
X28883390Y17785713D02*
X28978628Y17738094D01*
X28978628Y17738094D02*
X29026247Y17690475D01*
X29026247Y17690475D02*
X29073866Y17595237D01*
X29073866Y17595237D02*
X29073866Y17404761D01*
X29073866Y17404761D02*
X29026247Y17309523D01*
X29026247Y17309523D02*
X28978628Y17261904D01*
X28978628Y17261904D02*
X28883390Y17214285D01*
X19854819Y21666666D02*
X19378628Y21999999D01*
X19854819Y22238094D02*
X18854819Y22238094D01*
X18854819Y22238094D02*
X18854819Y21857142D01*
X18854819Y21857142D02*
X18902438Y21761904D01*
X18902438Y21761904D02*
X18950057Y21714285D01*
X18950057Y21714285D02*
X19045295Y21666666D01*
X19045295Y21666666D02*
X19188152Y21666666D01*
X19188152Y21666666D02*
X19283390Y21714285D01*
X19283390Y21714285D02*
X19331009Y21761904D01*
X19331009Y21761904D02*
X19378628Y21857142D01*
X19378628Y21857142D02*
X19378628Y22238094D01*
X19283390Y21095237D02*
X19235771Y21190475D01*
X19235771Y21190475D02*
X19188152Y21238094D01*
X19188152Y21238094D02*
X19092914Y21285713D01*
X19092914Y21285713D02*
X19045295Y21285713D01*
X19045295Y21285713D02*
X18950057Y21238094D01*
X18950057Y21238094D02*
X18902438Y21190475D01*
X18902438Y21190475D02*
X18854819Y21095237D01*
X18854819Y21095237D02*
X18854819Y20904761D01*
X18854819Y20904761D02*
X18902438Y20809523D01*
X18902438Y20809523D02*
X18950057Y20761904D01*
X18950057Y20761904D02*
X19045295Y20714285D01*
X19045295Y20714285D02*
X19092914Y20714285D01*
X19092914Y20714285D02*
X19188152Y20761904D01*
X19188152Y20761904D02*
X19235771Y20809523D01*
X19235771Y20809523D02*
X19283390Y20904761D01*
X19283390Y20904761D02*
X19283390Y21095237D01*
X19283390Y21095237D02*
X19331009Y21190475D01*
X19331009Y21190475D02*
X19378628Y21238094D01*
X19378628Y21238094D02*
X19473866Y21285713D01*
X19473866Y21285713D02*
X19664342Y21285713D01*
X19664342Y21285713D02*
X19759580Y21238094D01*
X19759580Y21238094D02*
X19807200Y21190475D01*
X19807200Y21190475D02*
X19854819Y21095237D01*
X19854819Y21095237D02*
X19854819Y20904761D01*
X19854819Y20904761D02*
X19807200Y20809523D01*
X19807200Y20809523D02*
X19759580Y20761904D01*
X19759580Y20761904D02*
X19664342Y20714285D01*
X19664342Y20714285D02*
X19473866Y20714285D01*
X19473866Y20714285D02*
X19378628Y20761904D01*
X19378628Y20761904D02*
X19331009Y20809523D01*
X19331009Y20809523D02*
X19283390Y20904761D01*
X19454819Y16966666D02*
X18978628Y17299999D01*
X19454819Y17538094D02*
X18454819Y17538094D01*
X18454819Y17538094D02*
X18454819Y17157142D01*
X18454819Y17157142D02*
X18502438Y17061904D01*
X18502438Y17061904D02*
X18550057Y17014285D01*
X18550057Y17014285D02*
X18645295Y16966666D01*
X18645295Y16966666D02*
X18788152Y16966666D01*
X18788152Y16966666D02*
X18883390Y17014285D01*
X18883390Y17014285D02*
X18931009Y17061904D01*
X18931009Y17061904D02*
X18978628Y17157142D01*
X18978628Y17157142D02*
X18978628Y17538094D01*
X18454819Y16633332D02*
X18454819Y15966666D01*
X18454819Y15966666D02*
X19454819Y16395237D01*
X23754819Y24066666D02*
X23278628Y24399999D01*
X23754819Y24638094D02*
X22754819Y24638094D01*
X22754819Y24638094D02*
X22754819Y24257142D01*
X22754819Y24257142D02*
X22802438Y24161904D01*
X22802438Y24161904D02*
X22850057Y24114285D01*
X22850057Y24114285D02*
X22945295Y24066666D01*
X22945295Y24066666D02*
X23088152Y24066666D01*
X23088152Y24066666D02*
X23183390Y24114285D01*
X23183390Y24114285D02*
X23231009Y24161904D01*
X23231009Y24161904D02*
X23278628Y24257142D01*
X23278628Y24257142D02*
X23278628Y24638094D01*
X22754819Y23209523D02*
X22754819Y23399999D01*
X22754819Y23399999D02*
X22802438Y23495237D01*
X22802438Y23495237D02*
X22850057Y23542856D01*
X22850057Y23542856D02*
X22992914Y23638094D01*
X22992914Y23638094D02*
X23183390Y23685713D01*
X23183390Y23685713D02*
X23564342Y23685713D01*
X23564342Y23685713D02*
X23659580Y23638094D01*
X23659580Y23638094D02*
X23707200Y23590475D01*
X23707200Y23590475D02*
X23754819Y23495237D01*
X23754819Y23495237D02*
X23754819Y23304761D01*
X23754819Y23304761D02*
X23707200Y23209523D01*
X23707200Y23209523D02*
X23659580Y23161904D01*
X23659580Y23161904D02*
X23564342Y23114285D01*
X23564342Y23114285D02*
X23326247Y23114285D01*
X23326247Y23114285D02*
X23231009Y23161904D01*
X23231009Y23161904D02*
X23183390Y23209523D01*
X23183390Y23209523D02*
X23135771Y23304761D01*
X23135771Y23304761D02*
X23135771Y23495237D01*
X23135771Y23495237D02*
X23183390Y23590475D01*
X23183390Y23590475D02*
X23231009Y23638094D01*
X23231009Y23638094D02*
X23326247Y23685713D01*
X24666666Y16245180D02*
X24999999Y16721371D01*
X25238094Y16245180D02*
X25238094Y17245180D01*
X25238094Y17245180D02*
X24857142Y17245180D01*
X24857142Y17245180D02*
X24761904Y17197561D01*
X24761904Y17197561D02*
X24714285Y17149942D01*
X24714285Y17149942D02*
X24666666Y17054704D01*
X24666666Y17054704D02*
X24666666Y16911847D01*
X24666666Y16911847D02*
X24714285Y16816609D01*
X24714285Y16816609D02*
X24761904Y16768990D01*
X24761904Y16768990D02*
X24857142Y16721371D01*
X24857142Y16721371D02*
X25238094Y16721371D01*
X23761904Y17245180D02*
X24238094Y17245180D01*
X24238094Y17245180D02*
X24285713Y16768990D01*
X24285713Y16768990D02*
X24238094Y16816609D01*
X24238094Y16816609D02*
X24142856Y16864228D01*
X24142856Y16864228D02*
X23904761Y16864228D01*
X23904761Y16864228D02*
X23809523Y16816609D01*
X23809523Y16816609D02*
X23761904Y16768990D01*
X23761904Y16768990D02*
X23714285Y16673752D01*
X23714285Y16673752D02*
X23714285Y16435657D01*
X23714285Y16435657D02*
X23761904Y16340419D01*
X23761904Y16340419D02*
X23809523Y16292800D01*
X23809523Y16292800D02*
X23904761Y16245180D01*
X23904761Y16245180D02*
X24142856Y16245180D01*
X24142856Y16245180D02*
X24238094Y16292800D01*
X24238094Y16292800D02*
X24285713Y16340419D01*
X27342857Y25440419D02*
X27390476Y25392800D01*
X27390476Y25392800D02*
X27533333Y25345180D01*
X27533333Y25345180D02*
X27628571Y25345180D01*
X27628571Y25345180D02*
X27771428Y25392800D01*
X27771428Y25392800D02*
X27866666Y25488038D01*
X27866666Y25488038D02*
X27914285Y25583276D01*
X27914285Y25583276D02*
X27961904Y25773752D01*
X27961904Y25773752D02*
X27961904Y25916609D01*
X27961904Y25916609D02*
X27914285Y26107085D01*
X27914285Y26107085D02*
X27866666Y26202323D01*
X27866666Y26202323D02*
X27771428Y26297561D01*
X27771428Y26297561D02*
X27628571Y26345180D01*
X27628571Y26345180D02*
X27533333Y26345180D01*
X27533333Y26345180D02*
X27390476Y26297561D01*
X27390476Y26297561D02*
X27342857Y26249942D01*
X26390476Y25345180D02*
X26961904Y25345180D01*
X26676190Y25345180D02*
X26676190Y26345180D01*
X26676190Y26345180D02*
X26771428Y26202323D01*
X26771428Y26202323D02*
X26866666Y26107085D01*
X26866666Y26107085D02*
X26961904Y26059466D01*
X26057142Y26345180D02*
X25438095Y26345180D01*
X25438095Y26345180D02*
X25771428Y25964228D01*
X25771428Y25964228D02*
X25628571Y25964228D01*
X25628571Y25964228D02*
X25533333Y25916609D01*
X25533333Y25916609D02*
X25485714Y25868990D01*
X25485714Y25868990D02*
X25438095Y25773752D01*
X25438095Y25773752D02*
X25438095Y25535657D01*
X25438095Y25535657D02*
X25485714Y25440419D01*
X25485714Y25440419D02*
X25533333Y25392800D01*
X25533333Y25392800D02*
X25628571Y25345180D01*
X25628571Y25345180D02*
X25914285Y25345180D01*
X25914285Y25345180D02*
X26009523Y25392800D01*
X26009523Y25392800D02*
X26057142Y25440419D01*
X22942857Y54260419D02*
X22990476Y54212800D01*
X22990476Y54212800D02*
X23133333Y54165180D01*
X23133333Y54165180D02*
X23228571Y54165180D01*
X23228571Y54165180D02*
X23371428Y54212800D01*
X23371428Y54212800D02*
X23466666Y54308038D01*
X23466666Y54308038D02*
X23514285Y54403276D01*
X23514285Y54403276D02*
X23561904Y54593752D01*
X23561904Y54593752D02*
X23561904Y54736609D01*
X23561904Y54736609D02*
X23514285Y54927085D01*
X23514285Y54927085D02*
X23466666Y55022323D01*
X23466666Y55022323D02*
X23371428Y55117561D01*
X23371428Y55117561D02*
X23228571Y55165180D01*
X23228571Y55165180D02*
X23133333Y55165180D01*
X23133333Y55165180D02*
X22990476Y55117561D01*
X22990476Y55117561D02*
X22942857Y55069942D01*
X21990476Y54165180D02*
X22561904Y54165180D01*
X22276190Y54165180D02*
X22276190Y55165180D01*
X22276190Y55165180D02*
X22371428Y55022323D01*
X22371428Y55022323D02*
X22466666Y54927085D01*
X22466666Y54927085D02*
X22561904Y54879466D01*
X21609523Y55069942D02*
X21561904Y55117561D01*
X21561904Y55117561D02*
X21466666Y55165180D01*
X21466666Y55165180D02*
X21228571Y55165180D01*
X21228571Y55165180D02*
X21133333Y55117561D01*
X21133333Y55117561D02*
X21085714Y55069942D01*
X21085714Y55069942D02*
X21038095Y54974704D01*
X21038095Y54974704D02*
X21038095Y54879466D01*
X21038095Y54879466D02*
X21085714Y54736609D01*
X21085714Y54736609D02*
X21657142Y54165180D01*
X21657142Y54165180D02*
X21038095Y54165180D01*
X21142857Y64140419D02*
X21190476Y64092800D01*
X21190476Y64092800D02*
X21333333Y64045180D01*
X21333333Y64045180D02*
X21428571Y64045180D01*
X21428571Y64045180D02*
X21571428Y64092800D01*
X21571428Y64092800D02*
X21666666Y64188038D01*
X21666666Y64188038D02*
X21714285Y64283276D01*
X21714285Y64283276D02*
X21761904Y64473752D01*
X21761904Y64473752D02*
X21761904Y64616609D01*
X21761904Y64616609D02*
X21714285Y64807085D01*
X21714285Y64807085D02*
X21666666Y64902323D01*
X21666666Y64902323D02*
X21571428Y64997561D01*
X21571428Y64997561D02*
X21428571Y65045180D01*
X21428571Y65045180D02*
X21333333Y65045180D01*
X21333333Y65045180D02*
X21190476Y64997561D01*
X21190476Y64997561D02*
X21142857Y64949942D01*
X20190476Y64045180D02*
X20761904Y64045180D01*
X20476190Y64045180D02*
X20476190Y65045180D01*
X20476190Y65045180D02*
X20571428Y64902323D01*
X20571428Y64902323D02*
X20666666Y64807085D01*
X20666666Y64807085D02*
X20761904Y64759466D01*
X19238095Y64045180D02*
X19809523Y64045180D01*
X19523809Y64045180D02*
X19523809Y65045180D01*
X19523809Y65045180D02*
X19619047Y64902323D01*
X19619047Y64902323D02*
X19714285Y64807085D01*
X19714285Y64807085D02*
X19809523Y64759466D01*
X15659580Y22042857D02*
X15707200Y22090476D01*
X15707200Y22090476D02*
X15754819Y22233333D01*
X15754819Y22233333D02*
X15754819Y22328571D01*
X15754819Y22328571D02*
X15707200Y22471428D01*
X15707200Y22471428D02*
X15611961Y22566666D01*
X15611961Y22566666D02*
X15516723Y22614285D01*
X15516723Y22614285D02*
X15326247Y22661904D01*
X15326247Y22661904D02*
X15183390Y22661904D01*
X15183390Y22661904D02*
X14992914Y22614285D01*
X14992914Y22614285D02*
X14897676Y22566666D01*
X14897676Y22566666D02*
X14802438Y22471428D01*
X14802438Y22471428D02*
X14754819Y22328571D01*
X14754819Y22328571D02*
X14754819Y22233333D01*
X14754819Y22233333D02*
X14802438Y22090476D01*
X14802438Y22090476D02*
X14850057Y22042857D01*
X15754819Y21090476D02*
X15754819Y21661904D01*
X15754819Y21376190D02*
X14754819Y21376190D01*
X14754819Y21376190D02*
X14897676Y21471428D01*
X14897676Y21471428D02*
X14992914Y21566666D01*
X14992914Y21566666D02*
X15040533Y21661904D01*
X14754819Y20471428D02*
X14754819Y20376190D01*
X14754819Y20376190D02*
X14802438Y20280952D01*
X14802438Y20280952D02*
X14850057Y20233333D01*
X14850057Y20233333D02*
X14945295Y20185714D01*
X14945295Y20185714D02*
X15135771Y20138095D01*
X15135771Y20138095D02*
X15373866Y20138095D01*
X15373866Y20138095D02*
X15564342Y20185714D01*
X15564342Y20185714D02*
X15659580Y20233333D01*
X15659580Y20233333D02*
X15707200Y20280952D01*
X15707200Y20280952D02*
X15754819Y20376190D01*
X15754819Y20376190D02*
X15754819Y20471428D01*
X15754819Y20471428D02*
X15707200Y20566666D01*
X15707200Y20566666D02*
X15659580Y20614285D01*
X15659580Y20614285D02*
X15564342Y20661904D01*
X15564342Y20661904D02*
X15373866Y20709523D01*
X15373866Y20709523D02*
X15135771Y20709523D01*
X15135771Y20709523D02*
X14945295Y20661904D01*
X14945295Y20661904D02*
X14850057Y20614285D01*
X14850057Y20614285D02*
X14802438Y20566666D01*
X14802438Y20566666D02*
X14754819Y20471428D01*
X17466666Y54260419D02*
X17514285Y54212800D01*
X17514285Y54212800D02*
X17657142Y54165180D01*
X17657142Y54165180D02*
X17752380Y54165180D01*
X17752380Y54165180D02*
X17895237Y54212800D01*
X17895237Y54212800D02*
X17990475Y54308038D01*
X17990475Y54308038D02*
X18038094Y54403276D01*
X18038094Y54403276D02*
X18085713Y54593752D01*
X18085713Y54593752D02*
X18085713Y54736609D01*
X18085713Y54736609D02*
X18038094Y54927085D01*
X18038094Y54927085D02*
X17990475Y55022323D01*
X17990475Y55022323D02*
X17895237Y55117561D01*
X17895237Y55117561D02*
X17752380Y55165180D01*
X17752380Y55165180D02*
X17657142Y55165180D01*
X17657142Y55165180D02*
X17514285Y55117561D01*
X17514285Y55117561D02*
X17466666Y55069942D01*
X16990475Y54165180D02*
X16799999Y54165180D01*
X16799999Y54165180D02*
X16704761Y54212800D01*
X16704761Y54212800D02*
X16657142Y54260419D01*
X16657142Y54260419D02*
X16561904Y54403276D01*
X16561904Y54403276D02*
X16514285Y54593752D01*
X16514285Y54593752D02*
X16514285Y54974704D01*
X16514285Y54974704D02*
X16561904Y55069942D01*
X16561904Y55069942D02*
X16609523Y55117561D01*
X16609523Y55117561D02*
X16704761Y55165180D01*
X16704761Y55165180D02*
X16895237Y55165180D01*
X16895237Y55165180D02*
X16990475Y55117561D01*
X16990475Y55117561D02*
X17038094Y55069942D01*
X17038094Y55069942D02*
X17085713Y54974704D01*
X17085713Y54974704D02*
X17085713Y54736609D01*
X17085713Y54736609D02*
X17038094Y54641371D01*
X17038094Y54641371D02*
X16990475Y54593752D01*
X16990475Y54593752D02*
X16895237Y54546133D01*
X16895237Y54546133D02*
X16704761Y54546133D01*
X16704761Y54546133D02*
X16609523Y54593752D01*
X16609523Y54593752D02*
X16561904Y54641371D01*
X16561904Y54641371D02*
X16514285Y54736609D01*
X17166666Y64140419D02*
X17214285Y64092800D01*
X17214285Y64092800D02*
X17357142Y64045180D01*
X17357142Y64045180D02*
X17452380Y64045180D01*
X17452380Y64045180D02*
X17595237Y64092800D01*
X17595237Y64092800D02*
X17690475Y64188038D01*
X17690475Y64188038D02*
X17738094Y64283276D01*
X17738094Y64283276D02*
X17785713Y64473752D01*
X17785713Y64473752D02*
X17785713Y64616609D01*
X17785713Y64616609D02*
X17738094Y64807085D01*
X17738094Y64807085D02*
X17690475Y64902323D01*
X17690475Y64902323D02*
X17595237Y64997561D01*
X17595237Y64997561D02*
X17452380Y65045180D01*
X17452380Y65045180D02*
X17357142Y65045180D01*
X17357142Y65045180D02*
X17214285Y64997561D01*
X17214285Y64997561D02*
X17166666Y64949942D01*
X16595237Y64616609D02*
X16690475Y64664228D01*
X16690475Y64664228D02*
X16738094Y64711847D01*
X16738094Y64711847D02*
X16785713Y64807085D01*
X16785713Y64807085D02*
X16785713Y64854704D01*
X16785713Y64854704D02*
X16738094Y64949942D01*
X16738094Y64949942D02*
X16690475Y64997561D01*
X16690475Y64997561D02*
X16595237Y65045180D01*
X16595237Y65045180D02*
X16404761Y65045180D01*
X16404761Y65045180D02*
X16309523Y64997561D01*
X16309523Y64997561D02*
X16261904Y64949942D01*
X16261904Y64949942D02*
X16214285Y64854704D01*
X16214285Y64854704D02*
X16214285Y64807085D01*
X16214285Y64807085D02*
X16261904Y64711847D01*
X16261904Y64711847D02*
X16309523Y64664228D01*
X16309523Y64664228D02*
X16404761Y64616609D01*
X16404761Y64616609D02*
X16595237Y64616609D01*
X16595237Y64616609D02*
X16690475Y64568990D01*
X16690475Y64568990D02*
X16738094Y64521371D01*
X16738094Y64521371D02*
X16785713Y64426133D01*
X16785713Y64426133D02*
X16785713Y64235657D01*
X16785713Y64235657D02*
X16738094Y64140419D01*
X16738094Y64140419D02*
X16690475Y64092800D01*
X16690475Y64092800D02*
X16595237Y64045180D01*
X16595237Y64045180D02*
X16404761Y64045180D01*
X16404761Y64045180D02*
X16309523Y64092800D01*
X16309523Y64092800D02*
X16261904Y64140419D01*
X16261904Y64140419D02*
X16214285Y64235657D01*
X16214285Y64235657D02*
X16214285Y64426133D01*
X16214285Y64426133D02*
X16261904Y64521371D01*
X16261904Y64521371D02*
X16309523Y64568990D01*
X16309523Y64568990D02*
X16404761Y64616609D01*
X12266666Y54260419D02*
X12314285Y54212800D01*
X12314285Y54212800D02*
X12457142Y54165180D01*
X12457142Y54165180D02*
X12552380Y54165180D01*
X12552380Y54165180D02*
X12695237Y54212800D01*
X12695237Y54212800D02*
X12790475Y54308038D01*
X12790475Y54308038D02*
X12838094Y54403276D01*
X12838094Y54403276D02*
X12885713Y54593752D01*
X12885713Y54593752D02*
X12885713Y54736609D01*
X12885713Y54736609D02*
X12838094Y54927085D01*
X12838094Y54927085D02*
X12790475Y55022323D01*
X12790475Y55022323D02*
X12695237Y55117561D01*
X12695237Y55117561D02*
X12552380Y55165180D01*
X12552380Y55165180D02*
X12457142Y55165180D01*
X12457142Y55165180D02*
X12314285Y55117561D01*
X12314285Y55117561D02*
X12266666Y55069942D01*
X11933332Y55165180D02*
X11266666Y55165180D01*
X11266666Y55165180D02*
X11695237Y54165180D01*
X13166666Y64140419D02*
X13214285Y64092800D01*
X13214285Y64092800D02*
X13357142Y64045180D01*
X13357142Y64045180D02*
X13452380Y64045180D01*
X13452380Y64045180D02*
X13595237Y64092800D01*
X13595237Y64092800D02*
X13690475Y64188038D01*
X13690475Y64188038D02*
X13738094Y64283276D01*
X13738094Y64283276D02*
X13785713Y64473752D01*
X13785713Y64473752D02*
X13785713Y64616609D01*
X13785713Y64616609D02*
X13738094Y64807085D01*
X13738094Y64807085D02*
X13690475Y64902323D01*
X13690475Y64902323D02*
X13595237Y64997561D01*
X13595237Y64997561D02*
X13452380Y65045180D01*
X13452380Y65045180D02*
X13357142Y65045180D01*
X13357142Y65045180D02*
X13214285Y64997561D01*
X13214285Y64997561D02*
X13166666Y64949942D01*
X12309523Y65045180D02*
X12499999Y65045180D01*
X12499999Y65045180D02*
X12595237Y64997561D01*
X12595237Y64997561D02*
X12642856Y64949942D01*
X12642856Y64949942D02*
X12738094Y64807085D01*
X12738094Y64807085D02*
X12785713Y64616609D01*
X12785713Y64616609D02*
X12785713Y64235657D01*
X12785713Y64235657D02*
X12738094Y64140419D01*
X12738094Y64140419D02*
X12690475Y64092800D01*
X12690475Y64092800D02*
X12595237Y64045180D01*
X12595237Y64045180D02*
X12404761Y64045180D01*
X12404761Y64045180D02*
X12309523Y64092800D01*
X12309523Y64092800D02*
X12261904Y64140419D01*
X12261904Y64140419D02*
X12214285Y64235657D01*
X12214285Y64235657D02*
X12214285Y64473752D01*
X12214285Y64473752D02*
X12261904Y64568990D01*
X12261904Y64568990D02*
X12309523Y64616609D01*
X12309523Y64616609D02*
X12404761Y64664228D01*
X12404761Y64664228D02*
X12595237Y64664228D01*
X12595237Y64664228D02*
X12690475Y64616609D01*
X12690475Y64616609D02*
X12738094Y64568990D01*
X12738094Y64568990D02*
X12785713Y64473752D01*
X7266666Y54260419D02*
X7314285Y54212800D01*
X7314285Y54212800D02*
X7457142Y54165180D01*
X7457142Y54165180D02*
X7552380Y54165180D01*
X7552380Y54165180D02*
X7695237Y54212800D01*
X7695237Y54212800D02*
X7790475Y54308038D01*
X7790475Y54308038D02*
X7838094Y54403276D01*
X7838094Y54403276D02*
X7885713Y54593752D01*
X7885713Y54593752D02*
X7885713Y54736609D01*
X7885713Y54736609D02*
X7838094Y54927085D01*
X7838094Y54927085D02*
X7790475Y55022323D01*
X7790475Y55022323D02*
X7695237Y55117561D01*
X7695237Y55117561D02*
X7552380Y55165180D01*
X7552380Y55165180D02*
X7457142Y55165180D01*
X7457142Y55165180D02*
X7314285Y55117561D01*
X7314285Y55117561D02*
X7266666Y55069942D01*
X6361904Y55165180D02*
X6838094Y55165180D01*
X6838094Y55165180D02*
X6885713Y54688990D01*
X6885713Y54688990D02*
X6838094Y54736609D01*
X6838094Y54736609D02*
X6742856Y54784228D01*
X6742856Y54784228D02*
X6504761Y54784228D01*
X6504761Y54784228D02*
X6409523Y54736609D01*
X6409523Y54736609D02*
X6361904Y54688990D01*
X6361904Y54688990D02*
X6314285Y54593752D01*
X6314285Y54593752D02*
X6314285Y54355657D01*
X6314285Y54355657D02*
X6361904Y54260419D01*
X6361904Y54260419D02*
X6409523Y54212800D01*
X6409523Y54212800D02*
X6504761Y54165180D01*
X6504761Y54165180D02*
X6742856Y54165180D01*
X6742856Y54165180D02*
X6838094Y54212800D01*
X6838094Y54212800D02*
X6885713Y54260419D01*
X9166666Y64140419D02*
X9214285Y64092800D01*
X9214285Y64092800D02*
X9357142Y64045180D01*
X9357142Y64045180D02*
X9452380Y64045180D01*
X9452380Y64045180D02*
X9595237Y64092800D01*
X9595237Y64092800D02*
X9690475Y64188038D01*
X9690475Y64188038D02*
X9738094Y64283276D01*
X9738094Y64283276D02*
X9785713Y64473752D01*
X9785713Y64473752D02*
X9785713Y64616609D01*
X9785713Y64616609D02*
X9738094Y64807085D01*
X9738094Y64807085D02*
X9690475Y64902323D01*
X9690475Y64902323D02*
X9595237Y64997561D01*
X9595237Y64997561D02*
X9452380Y65045180D01*
X9452380Y65045180D02*
X9357142Y65045180D01*
X9357142Y65045180D02*
X9214285Y64997561D01*
X9214285Y64997561D02*
X9166666Y64949942D01*
X8309523Y64711847D02*
X8309523Y64045180D01*
X8547618Y65092800D02*
X8785713Y64378514D01*
X8785713Y64378514D02*
X8166666Y64378514D01*
X23366666Y14140419D02*
X23414285Y14092800D01*
X23414285Y14092800D02*
X23557142Y14045180D01*
X23557142Y14045180D02*
X23652380Y14045180D01*
X23652380Y14045180D02*
X23795237Y14092800D01*
X23795237Y14092800D02*
X23890475Y14188038D01*
X23890475Y14188038D02*
X23938094Y14283276D01*
X23938094Y14283276D02*
X23985713Y14473752D01*
X23985713Y14473752D02*
X23985713Y14616609D01*
X23985713Y14616609D02*
X23938094Y14807085D01*
X23938094Y14807085D02*
X23890475Y14902323D01*
X23890475Y14902323D02*
X23795237Y14997561D01*
X23795237Y14997561D02*
X23652380Y15045180D01*
X23652380Y15045180D02*
X23557142Y15045180D01*
X23557142Y15045180D02*
X23414285Y14997561D01*
X23414285Y14997561D02*
X23366666Y14949942D01*
X23033332Y15045180D02*
X22414285Y15045180D01*
X22414285Y15045180D02*
X22747618Y14664228D01*
X22747618Y14664228D02*
X22604761Y14664228D01*
X22604761Y14664228D02*
X22509523Y14616609D01*
X22509523Y14616609D02*
X22461904Y14568990D01*
X22461904Y14568990D02*
X22414285Y14473752D01*
X22414285Y14473752D02*
X22414285Y14235657D01*
X22414285Y14235657D02*
X22461904Y14140419D01*
X22461904Y14140419D02*
X22509523Y14092800D01*
X22509523Y14092800D02*
X22604761Y14045180D01*
X22604761Y14045180D02*
X22890475Y14045180D01*
X22890475Y14045180D02*
X22985713Y14092800D01*
X22985713Y14092800D02*
X23033332Y14140419D01*
X20929580Y26666666D02*
X20977200Y26714285D01*
X20977200Y26714285D02*
X21024819Y26857142D01*
X21024819Y26857142D02*
X21024819Y26952380D01*
X21024819Y26952380D02*
X20977200Y27095237D01*
X20977200Y27095237D02*
X20881961Y27190475D01*
X20881961Y27190475D02*
X20786723Y27238094D01*
X20786723Y27238094D02*
X20596247Y27285713D01*
X20596247Y27285713D02*
X20453390Y27285713D01*
X20453390Y27285713D02*
X20262914Y27238094D01*
X20262914Y27238094D02*
X20167676Y27190475D01*
X20167676Y27190475D02*
X20072438Y27095237D01*
X20072438Y27095237D02*
X20024819Y26952380D01*
X20024819Y26952380D02*
X20024819Y26857142D01*
X20024819Y26857142D02*
X20072438Y26714285D01*
X20072438Y26714285D02*
X20120057Y26666666D01*
X20120057Y26285713D02*
X20072438Y26238094D01*
X20072438Y26238094D02*
X20024819Y26142856D01*
X20024819Y26142856D02*
X20024819Y25904761D01*
X20024819Y25904761D02*
X20072438Y25809523D01*
X20072438Y25809523D02*
X20120057Y25761904D01*
X20120057Y25761904D02*
X20215295Y25714285D01*
X20215295Y25714285D02*
X20310533Y25714285D01*
X20310533Y25714285D02*
X20453390Y25761904D01*
X20453390Y25761904D02*
X21024819Y26333332D01*
X21024819Y26333332D02*
X21024819Y25714285D01*
X6929580Y26666666D02*
X6977200Y26714285D01*
X6977200Y26714285D02*
X7024819Y26857142D01*
X7024819Y26857142D02*
X7024819Y26952380D01*
X7024819Y26952380D02*
X6977200Y27095237D01*
X6977200Y27095237D02*
X6881961Y27190475D01*
X6881961Y27190475D02*
X6786723Y27238094D01*
X6786723Y27238094D02*
X6596247Y27285713D01*
X6596247Y27285713D02*
X6453390Y27285713D01*
X6453390Y27285713D02*
X6262914Y27238094D01*
X6262914Y27238094D02*
X6167676Y27190475D01*
X6167676Y27190475D02*
X6072438Y27095237D01*
X6072438Y27095237D02*
X6024819Y26952380D01*
X6024819Y26952380D02*
X6024819Y26857142D01*
X6024819Y26857142D02*
X6072438Y26714285D01*
X6072438Y26714285D02*
X6120057Y26666666D01*
X7024819Y25714285D02*
X7024819Y26285713D01*
X7024819Y25999999D02*
X6024819Y25999999D01*
X6024819Y25999999D02*
X6167676Y26095237D01*
X6167676Y26095237D02*
X6262914Y26190475D01*
X6262914Y26190475D02*
X6310533Y26285713D01*
D11*
%TO.C,R10*%
X24677500Y19037258D02*
X24677500Y18562742D01*
X25722500Y19037258D02*
X25722500Y18562742D01*
%TO.C,R9*%
X26777500Y19037258D02*
X26777500Y18562742D01*
X27822500Y19037258D02*
X27822500Y18562742D01*
%TO.C,R8*%
X21222500Y21162742D02*
X21222500Y21637258D01*
X20177500Y21162742D02*
X20177500Y21637258D01*
%TO.C,R7*%
X21222500Y16562742D02*
X21222500Y17037258D01*
X20177500Y16562742D02*
X20177500Y17037258D01*
%TO.C,R6*%
X23422500Y21162742D02*
X23422500Y21637258D01*
X22377500Y21162742D02*
X22377500Y21637258D01*
%TO.C,R5*%
X23422500Y16562742D02*
X23422500Y17037258D01*
X22377500Y16562742D02*
X22377500Y17037258D01*
%TO.C,C13*%
X27161252Y24735000D02*
X26638748Y24735000D01*
X27161252Y23265000D02*
X26638748Y23265000D01*
%TO.C,C12*%
X22038748Y55565000D02*
X22561252Y55565000D01*
X22038748Y57035000D02*
X22561252Y57035000D01*
%TO.C,C11*%
X20738748Y62265000D02*
X21261252Y62265000D01*
X20738748Y63735000D02*
X21261252Y63735000D01*
%TO.C,C10*%
X14690000Y18640580D02*
X14690000Y18359420D01*
X15710000Y18640580D02*
X15710000Y18359420D01*
%TO.C,C9*%
X17038748Y55565000D02*
X17561252Y55565000D01*
X17038748Y57035000D02*
X17561252Y57035000D01*
%TO.C,C8*%
X16738748Y62265000D02*
X17261252Y62265000D01*
X16738748Y63735000D02*
X17261252Y63735000D01*
%TO.C,C7*%
X11838748Y55565000D02*
X12361252Y55565000D01*
X11838748Y57035000D02*
X12361252Y57035000D01*
%TO.C,C6*%
X12738748Y62265000D02*
X13261252Y62265000D01*
X12738748Y63735000D02*
X13261252Y63735000D01*
%TO.C,C5*%
X6838748Y55565000D02*
X7361252Y55565000D01*
X6838748Y57035000D02*
X7361252Y57035000D01*
%TO.C,C4*%
X8738748Y62265000D02*
X9261252Y62265000D01*
X8738748Y63735000D02*
X9261252Y63735000D01*
%TO.C,C3*%
X25640580Y15110000D02*
X25359420Y15110000D01*
X25640580Y14090000D02*
X25359420Y14090000D01*
%TO.C,C2*%
X21490000Y26640580D02*
X21490000Y26359420D01*
X22510000Y26640580D02*
X22510000Y26359420D01*
%TO.C,C1*%
X7490000Y26640580D02*
X7490000Y26359420D01*
X8510000Y26640580D02*
X8510000Y26359420D01*
%TD*%
M02*
