%TF.GenerationSoftware,KiCad,Pcbnew,7.0.9*%
%TF.CreationDate,2024-02-15T22:31:25-05:00*%
%TF.ProjectId,pbm_driver4,70626d5f-6472-4697-9665-72342e6b6963,rev?*%
%TF.SameCoordinates,PX2625a0PY53ec60*%
%TF.FileFunction,Copper,L1,Top*%
%TF.FilePolarity,Positive*%
%FSLAX46Y46*%
G04 Gerber Fmt 4.6, Leading zero omitted, Abs format (unit mm)*
G04 Created by KiCad (PCBNEW 7.0.9) date 2024-02-15 22:31:25*
%MOMM*%
%LPD*%
G01*
G04 APERTURE LIST*
G04 Aperture macros list*
%AMRoundRect*
0 Rectangle with rounded corners*
0 $1 Rounding radius*
0 $2 $3 $4 $5 $6 $7 $8 $9 X,Y pos of 4 corners*
0 Add a 4 corners polygon primitive as box body*
4,1,4,$2,$3,$4,$5,$6,$7,$8,$9,$2,$3,0*
0 Add four circle primitives for the rounded corners*
1,1,$1+$1,$2,$3*
1,1,$1+$1,$4,$5*
1,1,$1+$1,$6,$7*
1,1,$1+$1,$8,$9*
0 Add four rect primitives between the rounded corners*
20,1,$1+$1,$2,$3,$4,$5,0*
20,1,$1+$1,$4,$5,$6,$7,0*
20,1,$1+$1,$6,$7,$8,$9,0*
20,1,$1+$1,$8,$9,$2,$3,0*%
%AMFreePoly0*
4,1,9,2.975000,-2.350000,1.425000,-2.350000,1.425000,-2.100000,-1.650000,-2.100000,-1.650000,2.100000,1.425000,2.100000,1.425000,2.350000,2.975000,2.350000,2.975000,-2.350000,2.975000,-2.350000,$1*%
G04 Aperture macros list end*
%TA.AperFunction,ComponentPad*%
%ADD10R,1.700000X1.700000*%
%TD*%
%TA.AperFunction,ComponentPad*%
%ADD11O,1.700000X1.700000*%
%TD*%
%TA.AperFunction,SMDPad,CuDef*%
%ADD12R,1.955432X0.420766*%
%TD*%
%TA.AperFunction,SMDPad,CuDef*%
%ADD13R,0.700000X1.150000*%
%TD*%
%TA.AperFunction,SMDPad,CuDef*%
%ADD14FreePoly0,90.000000*%
%TD*%
%TA.AperFunction,SMDPad,CuDef*%
%ADD15RoundRect,0.125000X-0.125000X0.537500X-0.125000X-0.537500X0.125000X-0.537500X0.125000X0.537500X0*%
%TD*%
%TA.AperFunction,SMDPad,CuDef*%
%ADD16RoundRect,0.150000X-0.825000X-0.150000X0.825000X-0.150000X0.825000X0.150000X-0.825000X0.150000X0*%
%TD*%
%TA.AperFunction,SMDPad,CuDef*%
%ADD17RoundRect,0.200000X-0.275000X0.200000X-0.275000X-0.200000X0.275000X-0.200000X0.275000X0.200000X0*%
%TD*%
%TA.AperFunction,SMDPad,CuDef*%
%ADD18RoundRect,0.250000X-1.075000X0.400000X-1.075000X-0.400000X1.075000X-0.400000X1.075000X0.400000X0*%
%TD*%
%TA.AperFunction,SMDPad,CuDef*%
%ADD19R,0.450000X0.700000*%
%TD*%
%TA.AperFunction,ComponentPad*%
%ADD20C,7.330000*%
%TD*%
%TA.AperFunction,ViaPad*%
%ADD21C,0.800000*%
%TD*%
%TA.AperFunction,Conductor*%
%ADD22C,0.250000*%
%TD*%
%TA.AperFunction,Conductor*%
%ADD23C,0.500000*%
%TD*%
%TA.AperFunction,Conductor*%
%ADD24C,1.000000*%
%TD*%
G04 APERTURE END LIST*
D10*
%TO.P,J1,1,Pin_1*%
%TO.N,GND*%
X3500000Y9500000D03*
D11*
%TO.P,J1,2,Pin_2*%
%TO.N,+12V*%
X3500000Y12040000D03*
%TO.P,J1,3,Pin_3*%
%TO.N,/DAC1*%
X6040000Y9500000D03*
%TO.P,J1,4,Pin_4*%
%TO.N,/DAC2*%
X6040000Y12040000D03*
%TO.P,J1,5,Pin_5*%
%TO.N,/SENSE1*%
X8580000Y9500000D03*
%TO.P,J1,6,Pin_6*%
%TO.N,/SENSE2*%
X8580000Y12040000D03*
%TO.P,J1,7,Pin_7*%
%TO.N,/SENSE3*%
X11120000Y9500000D03*
%TO.P,J1,8,Pin_8*%
%TO.N,/SENSE4*%
X11120000Y12040000D03*
%TO.P,J1,9,Pin_9*%
%TO.N,GND*%
X13660000Y9500000D03*
%TO.P,J1,10,Pin_10*%
X13660000Y12040000D03*
%TO.P,J1,11,Pin_11*%
%TO.N,/SEL1*%
X16200000Y9500000D03*
%TO.P,J1,12,Pin_12*%
%TO.N,/SEL2*%
X16200000Y12040000D03*
%TO.P,J1,13,Pin_13*%
%TO.N,/SEL3*%
X18740000Y9500000D03*
%TO.P,J1,14,Pin_14*%
%TO.N,/SEL4*%
X18740000Y12040000D03*
%TO.P,J1,15,Pin_15*%
%TO.N,GND*%
X21280000Y9500000D03*
%TO.P,J1,16,Pin_16*%
X21280000Y12040000D03*
%TO.P,J1,17,Pin_17*%
%TO.N,/I2C_SCL*%
X23820000Y9500000D03*
%TO.P,J1,18,Pin_18*%
%TO.N,/I2C_SDA*%
X23820000Y12040000D03*
%TO.P,J1,19,Pin_19*%
%TO.N,GND*%
X26360000Y9500000D03*
%TO.P,J1,20,Pin_20*%
%TO.N,+3.3V*%
X26360000Y12040000D03*
%TD*%
D10*
%TO.P,J2,1,Pin_1*%
%TO.N,GND*%
X3500000Y59600000D03*
D11*
%TO.P,J2,2,Pin_2*%
%TO.N,+12V*%
X6040000Y59600000D03*
%TO.P,J2,3,Pin_3*%
%TO.N,/LED1*%
X8580000Y59600000D03*
%TO.P,J2,4,Pin_4*%
%TO.N,+12V*%
X11120000Y59600000D03*
%TO.P,J2,5,Pin_5*%
%TO.N,/LED2*%
X13660000Y59600000D03*
%TO.P,J2,6,Pin_6*%
%TO.N,+12V*%
X16200000Y59600000D03*
%TO.P,J2,7,Pin_7*%
%TO.N,/LED3*%
X18740000Y59600000D03*
%TO.P,J2,8,Pin_8*%
%TO.N,+12V*%
X21280000Y59600000D03*
%TO.P,J2,9,Pin_9*%
%TO.N,/LED4*%
X23820000Y59600000D03*
%TO.P,J2,10,Pin_10*%
%TO.N,GND*%
X26360000Y59600000D03*
%TD*%
D12*
%TO.P,U10,1,SEL1*%
%TO.N,/SEL2*%
X12324616Y20774999D03*
%TO.P,U10,2,D1*%
%TO.N,/Sheet 2/REF2*%
X12324616Y20125001D03*
%TO.P,U10,3,S1*%
%TO.N,/DAC2*%
X12324616Y19474999D03*
%TO.P,U10,4,NC*%
%TO.N,unconnected-(U10-NC-Pad4)*%
X12324616Y18825001D03*
%TO.P,U10,5,GND*%
%TO.N,GND*%
X12324616Y18174999D03*
%TO.P,U10,6,S4*%
%TO.N,/DAC1*%
X12324616Y17525001D03*
%TO.P,U10,7,D4*%
%TO.N,/Sheet 2/REF1*%
X12324616Y16874999D03*
%TO.P,U10,8,SEL4*%
%TO.N,/SEL1*%
X12324616Y16225001D03*
%TO.P,U10,9,SEL3*%
%TO.N,/SEL4*%
X18075384Y16225001D03*
%TO.P,U10,10,D3*%
%TO.N,/Sheet 2/REF4*%
X18075384Y16874999D03*
%TO.P,U10,11,S3*%
%TO.N,/DAC2*%
X18075384Y17525001D03*
%TO.P,U10,12,NC*%
%TO.N,unconnected-(U10-NC-Pad12)*%
X18075384Y18174999D03*
%TO.P,U10,13,VDD*%
%TO.N,+3.3V*%
X18075384Y18825001D03*
%TO.P,U10,14,S2*%
%TO.N,/DAC1*%
X18075384Y19474999D03*
%TO.P,U10,15,D2*%
%TO.N,/Sheet 2/REF3*%
X18075384Y20125001D03*
%TO.P,U10,16,SEL2*%
%TO.N,/SEL3*%
X18075384Y20774999D03*
%TD*%
D13*
%TO.P,Q4,1,S*%
%TO.N,/SENSE4*%
X23590000Y38830000D03*
%TO.P,Q4,2,S*%
X24860000Y38830000D03*
%TO.P,Q4,3,S*%
X26140000Y38830000D03*
%TO.P,Q4,4,G*%
%TO.N,Net-(Q4-G)*%
X27410000Y38830000D03*
D14*
%TO.P,Q4,5,D*%
%TO.N,/LED4*%
X25500000Y42100000D03*
%TD*%
D13*
%TO.P,Q3,1,S*%
%TO.N,/SENSE3*%
X16590000Y38830000D03*
%TO.P,Q3,2,S*%
X17860000Y38830000D03*
%TO.P,Q3,3,S*%
X19140000Y38830000D03*
%TO.P,Q3,4,G*%
%TO.N,Net-(Q3-G)*%
X20410000Y38830000D03*
D14*
%TO.P,Q3,5,D*%
%TO.N,/LED3*%
X18500000Y42100000D03*
%TD*%
D13*
%TO.P,Q2,1,S*%
%TO.N,/SENSE2*%
X9590000Y38830000D03*
%TO.P,Q2,2,S*%
X10860000Y38830000D03*
%TO.P,Q2,3,S*%
X12140000Y38830000D03*
%TO.P,Q2,4,G*%
%TO.N,Net-(Q2-G)*%
X13410000Y38830000D03*
D14*
%TO.P,Q2,5,D*%
%TO.N,/LED2*%
X11500000Y42100000D03*
%TD*%
D13*
%TO.P,Q1,1,S*%
%TO.N,/SENSE1*%
X2590000Y38830000D03*
%TO.P,Q1,2,S*%
X3860000Y38830000D03*
%TO.P,Q1,3,S*%
X5140000Y38830000D03*
%TO.P,Q1,4,G*%
%TO.N,Net-(Q1-G)*%
X6410000Y38830000D03*
D14*
%TO.P,Q1,5,D*%
%TO.N,/LED1*%
X4500000Y42100000D03*
%TD*%
D15*
%TO.P,U3,1,DXP*%
%TO.N,/Sheet 5/DX_P*%
X26475000Y19337500D03*
%TO.P,U3,2,DXN*%
%TO.N,/Sheet 5/DX_N*%
X25825000Y19337500D03*
%TO.P,U3,3,A1*%
%TO.N,/Sheet 5/A1*%
X25175000Y19337500D03*
%TO.P,U3,4,A0*%
%TO.N,/Sheet 5/A0*%
X24525000Y19337500D03*
%TO.P,U3,5,GND*%
%TO.N,GND*%
X24525000Y17062500D03*
%TO.P,U3,6,SDA*%
%TO.N,/I2C_SCL*%
X25175000Y17062500D03*
%TO.P,U3,7,SCL*%
%TO.N,/I2C_SDA*%
X25825000Y17062500D03*
%TO.P,U3,8,V+*%
%TO.N,+3.3V*%
X26475000Y17062500D03*
%TD*%
D16*
%TO.P,U2,1*%
%TO.N,Net-(R13-Pad1)*%
X19525000Y28405000D03*
%TO.P,U2,2,-*%
%TO.N,/SENSE3*%
X19525000Y27135000D03*
%TO.P,U2,3,+*%
%TO.N,/Sheet 2/REF3*%
X19525000Y25865000D03*
%TO.P,U2,4,V-*%
%TO.N,GND*%
X19525000Y24595000D03*
%TO.P,U2,5,+*%
%TO.N,/Sheet 2/REF4*%
X24475000Y24595000D03*
%TO.P,U2,6,-*%
%TO.N,/SENSE4*%
X24475000Y25865000D03*
%TO.P,U2,7*%
%TO.N,Net-(R14-Pad1)*%
X24475000Y27135000D03*
%TO.P,U2,8,V+*%
%TO.N,+12V*%
X24475000Y28405000D03*
%TD*%
%TO.P,U1,1*%
%TO.N,Net-(R11-Pad1)*%
X5525000Y28405000D03*
%TO.P,U1,2,-*%
%TO.N,/SENSE1*%
X5525000Y27135000D03*
%TO.P,U1,3,+*%
%TO.N,/Sheet 2/REF1*%
X5525000Y25865000D03*
%TO.P,U1,4,V-*%
%TO.N,GND*%
X5525000Y24595000D03*
%TO.P,U1,5,+*%
%TO.N,/Sheet 2/REF2*%
X10475000Y24595000D03*
%TO.P,U1,6,-*%
%TO.N,/SENSE2*%
X10475000Y25865000D03*
%TO.P,U1,7*%
%TO.N,Net-(R12-Pad1)*%
X10475000Y27135000D03*
%TO.P,U1,8,V+*%
%TO.N,+12V*%
X10475000Y28405000D03*
%TD*%
D17*
%TO.P,R24,1*%
%TO.N,/Sheet 2/REF4*%
X28600000Y22775000D03*
%TO.P,R24,2*%
%TO.N,GND*%
X28600000Y24425000D03*
%TD*%
%TO.P,R23,1*%
%TO.N,/Sheet 2/REF3*%
X16000000Y22775000D03*
%TO.P,R23,2*%
%TO.N,GND*%
X16000000Y24425000D03*
%TD*%
%TO.P,R22,1*%
%TO.N,/Sheet 2/REF2*%
X13900000Y22775000D03*
%TO.P,R22,2*%
%TO.N,GND*%
X13900000Y24425000D03*
%TD*%
%TO.P,R21,1*%
%TO.N,/Sheet 2/REF1*%
X1800000Y22775000D03*
%TO.P,R21,2*%
%TO.N,GND*%
X1800000Y24425000D03*
%TD*%
%TO.P,R14,1*%
%TO.N,Net-(R14-Pad1)*%
X28400000Y32675000D03*
%TO.P,R14,2*%
%TO.N,Net-(Q4-G)*%
X28400000Y34325000D03*
%TD*%
%TO.P,R13,1*%
%TO.N,Net-(R13-Pad1)*%
X21400000Y32675000D03*
%TO.P,R13,2*%
%TO.N,Net-(Q3-G)*%
X21400000Y34325000D03*
%TD*%
%TO.P,R12,1*%
%TO.N,Net-(R12-Pad1)*%
X14400000Y32675000D03*
%TO.P,R12,2*%
%TO.N,Net-(Q2-G)*%
X14400000Y34325000D03*
%TD*%
%TO.P,R11,1*%
%TO.N,Net-(R11-Pad1)*%
X7400000Y32675000D03*
%TO.P,R11,2*%
%TO.N,Net-(Q1-G)*%
X7400000Y34325000D03*
%TD*%
D18*
%TO.P,R4,1*%
%TO.N,/SENSE4*%
X24900000Y35050000D03*
%TO.P,R4,2*%
%TO.N,GND*%
X24900000Y31950000D03*
%TD*%
%TO.P,R3,1*%
%TO.N,/SENSE3*%
X17900000Y35050000D03*
%TO.P,R3,2*%
%TO.N,GND*%
X17900000Y31950000D03*
%TD*%
%TO.P,R2,1*%
%TO.N,/SENSE2*%
X10900000Y35050000D03*
%TO.P,R2,2*%
%TO.N,GND*%
X10900000Y31950000D03*
%TD*%
%TO.P,R1,1*%
%TO.N,/SENSE1*%
X3900000Y35050000D03*
%TO.P,R1,2*%
%TO.N,GND*%
X3900000Y31950000D03*
%TD*%
D19*
%TO.P,Q5,1,B*%
%TO.N,/Sheet 5/DX_N*%
X14350000Y49000000D03*
%TO.P,Q5,2,E*%
%TO.N,/Sheet 5/DX_P*%
X15650000Y49000000D03*
%TO.P,Q5,3,C*%
%TO.N,GND*%
X15000000Y51000000D03*
%TD*%
D20*
%TO.P,H4,1,1*%
%TO.N,GND*%
X26000000Y4000000D03*
%TD*%
%TO.P,H3,1,1*%
%TO.N,GND*%
X4000000Y4000000D03*
%TD*%
%TO.P,H2,1,1*%
%TO.N,GND*%
X26000000Y66000000D03*
%TD*%
%TO.P,H1,1,1*%
%TO.N,GND*%
X4000000Y66000000D03*
%TD*%
D21*
%TO.N,+12V*%
X8700000Y28400000D03*
X22700000Y28400000D03*
%TO.N,GND*%
X4900000Y30200000D03*
X10900000Y30200000D03*
X15000000Y52500000D03*
X14900000Y26000000D03*
X17900000Y30200000D03*
X11900000Y30200000D03*
X3900000Y30200000D03*
X18100000Y61400000D03*
X28600000Y25800000D03*
X21300000Y24600000D03*
X2900000Y30200000D03*
X1800000Y25700000D03*
X9000000Y57800000D03*
X18200000Y57800000D03*
X23300000Y57800000D03*
X13600000Y57800000D03*
X14000000Y18100000D03*
X24450500Y15600000D03*
X9900000Y30200000D03*
X24900000Y30200000D03*
X10000000Y61400000D03*
X25900000Y30200000D03*
X18900000Y30200000D03*
X7300000Y24600000D03*
X16900000Y30200000D03*
X14000000Y61400000D03*
X23900000Y30200000D03*
X22100000Y61400000D03*
X21800000Y23700000D03*
%TO.N,+3.3V*%
X16400000Y18800000D03*
X28900000Y19600000D03*
X21800000Y14800000D03*
X26600000Y15600000D03*
%TO.N,/LED1*%
X6000000Y46300000D03*
X4400000Y46300000D03*
X2800000Y46300000D03*
%TO.N,/LED2*%
X11500000Y46300000D03*
X13100000Y46300000D03*
X9900000Y46300000D03*
%TO.N,/LED3*%
X18700000Y46300000D03*
X17100000Y46300000D03*
X20300000Y46300000D03*
%TO.N,/LED4*%
X25500000Y46300000D03*
X23900000Y46300000D03*
X27100000Y46300000D03*
%TO.N,/SENSE1*%
X3565000Y27135000D03*
%TO.N,/SENSE2*%
X12300000Y25800000D03*
%TO.N,/SENSE3*%
X16665000Y27135000D03*
%TO.N,/SENSE4*%
X19200000Y23100000D03*
%TO.N,/DAC1*%
X4900000Y17700000D03*
%TO.N,/SEL3*%
X18100000Y21900000D03*
%TO.N,/SEL2*%
X12300000Y22000000D03*
%TO.N,/DAC2*%
X14100000Y19400000D03*
X16300000Y17500000D03*
X6100000Y19000000D03*
%TO.N,/Sheet 5/A1*%
X22900000Y19162299D03*
%TO.N,/Sheet 5/A0*%
X20700000Y19100000D03*
%TO.N,/Sheet 5/DX_N*%
X26300000Y21700000D03*
X14300000Y47900000D03*
%TO.N,/Sheet 5/DX_P*%
X27600000Y21600000D03*
X15700000Y47900000D03*
%TD*%
D22*
%TO.N,GND*%
X24525000Y15674500D02*
X24525000Y17062500D01*
X24450500Y15600000D02*
X24525000Y15674500D01*
%TO.N,/SEL1*%
X15025000Y10675000D02*
X16200000Y9500000D01*
X15025000Y13524617D02*
X15025000Y10675000D01*
%TO.N,/SEL4*%
X18075384Y12704616D02*
X18740000Y12040000D01*
X18075384Y16225001D02*
X18075384Y12704616D01*
%TO.N,/I2C_SDA*%
X25825000Y14045000D02*
X23820000Y12040000D01*
X25825000Y17062500D02*
X25825000Y14045000D01*
%TO.N,/I2C_SCL*%
X22500000Y10820000D02*
X23820000Y9500000D01*
X22500000Y12381701D02*
X22500000Y10820000D01*
X25175000Y15056701D02*
X22500000Y12381701D01*
X25175000Y17062500D02*
X25175000Y15056701D01*
%TO.N,+12V*%
X22705000Y28405000D02*
X22700000Y28400000D01*
X10475000Y28405000D02*
X8705000Y28405000D01*
X24475000Y28405000D02*
X22705000Y28405000D01*
X8705000Y28405000D02*
X8700000Y28400000D01*
D23*
%TO.N,GND*%
X17900000Y30200000D02*
X17900000Y31950000D01*
X4900000Y31950000D02*
X4900000Y30200000D01*
X16900000Y30200000D02*
X16900000Y31950000D01*
D22*
X7295000Y24595000D02*
X7300000Y24600000D01*
X15000000Y51000000D02*
X15000000Y52500000D01*
X28600000Y24425000D02*
X28600000Y25800000D01*
D23*
X18900000Y30200000D02*
X18900000Y31950000D01*
D22*
X5525000Y24595000D02*
X7295000Y24595000D01*
D23*
X10900000Y30200000D02*
X10900000Y31950000D01*
X3900000Y30200000D02*
X3900000Y31950000D01*
D22*
X13925001Y18174999D02*
X14000000Y18100000D01*
D23*
X25900000Y30200000D02*
X25900000Y31950000D01*
D22*
X13900000Y25000000D02*
X14900000Y26000000D01*
D23*
X9900000Y31950000D02*
X9900000Y30200000D01*
D22*
X21295000Y24595000D02*
X21300000Y24600000D01*
D23*
X24900000Y30200000D02*
X24900000Y31950000D01*
D22*
X1800000Y24425000D02*
X1800000Y25700000D01*
X12324616Y18174999D02*
X13925001Y18174999D01*
D23*
X23900000Y30200000D02*
X23900000Y31950000D01*
D22*
X16000000Y24900000D02*
X14900000Y26000000D01*
D23*
X11900000Y30200000D02*
X11900000Y31950000D01*
X2900000Y30200000D02*
X2900000Y31950000D01*
D22*
X13900000Y24425000D02*
X13900000Y25000000D01*
X16000000Y24425000D02*
X16000000Y24900000D01*
X19525000Y24595000D02*
X21295000Y24595000D01*
%TO.N,+3.3V*%
X26475000Y17062500D02*
X26475000Y15725000D01*
X16425001Y18825001D02*
X16400000Y18800000D01*
X26475000Y15725000D02*
X26600000Y15600000D01*
X18075384Y18825001D02*
X16425001Y18825001D01*
D24*
%TO.N,/LED1*%
X4400000Y46700000D02*
X4400000Y55420000D01*
X4400000Y55420000D02*
X8580000Y59600000D01*
X4400000Y42200000D02*
X4400000Y46700000D01*
%TO.N,/LED2*%
X11500000Y46700000D02*
X11500000Y57440000D01*
X11500000Y42100000D02*
X11500000Y46700000D01*
X11500000Y57440000D02*
X13660000Y59600000D01*
%TO.N,/LED3*%
X18700000Y46700000D02*
X18700000Y55744365D01*
X19500000Y58840000D02*
X18740000Y59600000D01*
X19500000Y56544365D02*
X19500000Y58840000D01*
X18700000Y42300000D02*
X18700000Y46700000D01*
X18700000Y55744365D02*
X19500000Y56544365D01*
%TO.N,/LED4*%
X25425000Y57995000D02*
X23820000Y59600000D01*
X25500000Y57995000D02*
X25425000Y57995000D01*
X25500000Y42100000D02*
X25500000Y46700000D01*
X25500000Y46700000D02*
X25500000Y57995000D01*
D22*
%TO.N,/SENSE1*%
X1800000Y34600000D02*
X2250000Y35050000D01*
X1800000Y28900000D02*
X1800000Y34600000D01*
D23*
X5140000Y37500000D02*
X4900000Y37260000D01*
X4900000Y37260000D02*
X4900000Y35050000D01*
X2590000Y37500000D02*
X2900000Y37190000D01*
D22*
X3565000Y27135000D02*
X1800000Y28900000D01*
D23*
X2900000Y37190000D02*
X2900000Y35050000D01*
D22*
X2250000Y35050000D02*
X3900000Y35050000D01*
X5525000Y27135000D02*
X3565000Y27135000D01*
D23*
X3860000Y38830000D02*
X3860000Y35090000D01*
X2590000Y38830000D02*
X2590000Y37500000D01*
X5140000Y38830000D02*
X5140000Y37500000D01*
D22*
%TO.N,Net-(Q1-G)*%
X6410000Y37190000D02*
X7400000Y36200000D01*
X7400000Y36200000D02*
X7400000Y34325000D01*
X6410000Y38830000D02*
X6410000Y37190000D01*
%TO.N,/SENSE2*%
X8800000Y31000000D02*
X8800000Y34600000D01*
X9250000Y35050000D02*
X10900000Y35050000D01*
X10475000Y25865000D02*
X9035000Y25865000D01*
D23*
X12140000Y38830000D02*
X12140000Y37500000D01*
X10860000Y38830000D02*
X10860000Y35090000D01*
X9590000Y38830000D02*
X9590000Y37500000D01*
D22*
X8800000Y34600000D02*
X9250000Y35050000D01*
X9035000Y25865000D02*
X7900000Y27000000D01*
X7900000Y30100000D02*
X8800000Y31000000D01*
D23*
X9900000Y37190000D02*
X9900000Y35050000D01*
X12140000Y37500000D02*
X11900000Y37260000D01*
D22*
X7900000Y27000000D02*
X7900000Y30100000D01*
X12235000Y25865000D02*
X12300000Y25800000D01*
X10475000Y25865000D02*
X12235000Y25865000D01*
D23*
X11900000Y37260000D02*
X11900000Y35050000D01*
X9590000Y37500000D02*
X9900000Y37190000D01*
D22*
%TO.N,Net-(Q2-G)*%
X14400000Y36300000D02*
X14400000Y34325000D01*
X13410000Y37290000D02*
X14400000Y36300000D01*
X13410000Y38830000D02*
X13410000Y37290000D01*
%TO.N,/SENSE3*%
X19525000Y27135000D02*
X16665000Y27135000D01*
D23*
X16900000Y37190000D02*
X16900000Y35050000D01*
X16590000Y37500000D02*
X16900000Y37190000D01*
X16590000Y38830000D02*
X16590000Y37500000D01*
X19140000Y37500000D02*
X18900000Y37260000D01*
X19140000Y38830000D02*
X19140000Y37500000D01*
D22*
X16665000Y27135000D02*
X15700000Y28100000D01*
D23*
X18900000Y37260000D02*
X18900000Y35050000D01*
D22*
X15700000Y28100000D02*
X15700000Y34700000D01*
X15700000Y34700000D02*
X16050000Y35050000D01*
D23*
X17860000Y38830000D02*
X17860000Y35090000D01*
D22*
X16050000Y35050000D02*
X17900000Y35050000D01*
%TO.N,Net-(Q3-G)*%
X20410000Y38830000D02*
X20410000Y37490000D01*
X21400000Y36500000D02*
X21400000Y34325000D01*
X20410000Y37490000D02*
X21400000Y36500000D01*
%TO.N,/SENSE4*%
X23100000Y25865000D02*
X22535000Y25865000D01*
D23*
X23590000Y38830000D02*
X23590000Y37500000D01*
D22*
X23250000Y35050000D02*
X24900000Y35050000D01*
X21900000Y29900000D02*
X22900000Y30900000D01*
D23*
X23590000Y37500000D02*
X23900000Y37190000D01*
D22*
X21900000Y26500000D02*
X21900000Y29900000D01*
X22900000Y34700000D02*
X23250000Y35050000D01*
D23*
X23900000Y37190000D02*
X23900000Y35050000D01*
D22*
X22900000Y30900000D02*
X22900000Y34700000D01*
X24475000Y25865000D02*
X23100000Y25865000D01*
D23*
X26140000Y38830000D02*
X26140000Y37500000D01*
X25900000Y37260000D02*
X25900000Y35050000D01*
X24860000Y38830000D02*
X24860000Y35090000D01*
D22*
X22000305Y22775000D02*
X23100000Y23874695D01*
X19525000Y22775000D02*
X22000305Y22775000D01*
X19200000Y23100000D02*
X19525000Y22775000D01*
X23100000Y23874695D02*
X23100000Y25865000D01*
D23*
X26140000Y37500000D02*
X25900000Y37260000D01*
D22*
X22535000Y25865000D02*
X21900000Y26500000D01*
%TO.N,Net-(Q4-G)*%
X27410000Y37490000D02*
X28400000Y36500000D01*
X28400000Y36500000D02*
X28400000Y34325000D01*
X27410000Y38830000D02*
X27410000Y37490000D01*
%TO.N,Net-(R11-Pad1)*%
X5525000Y28405000D02*
X5525000Y29325000D01*
X7400000Y31200000D02*
X7400000Y32675000D01*
X5525000Y29325000D02*
X7400000Y31200000D01*
%TO.N,Net-(R12-Pad1)*%
X14400000Y28600000D02*
X14400000Y32675000D01*
X12935000Y27135000D02*
X14400000Y28600000D01*
X10475000Y27135000D02*
X12935000Y27135000D01*
%TO.N,Net-(R13-Pad1)*%
X19525000Y29325000D02*
X21400000Y31200000D01*
X21400000Y31200000D02*
X21400000Y32675000D01*
X19525000Y28405000D02*
X19525000Y29325000D01*
%TO.N,Net-(R14-Pad1)*%
X28400000Y29000000D02*
X28400000Y32675000D01*
X24475000Y27135000D02*
X26535000Y27135000D01*
X26535000Y27135000D02*
X28400000Y29000000D01*
%TO.N,/Sheet 2/REF1*%
X12324616Y16874999D02*
X4525001Y16874999D01*
X4525001Y16874999D02*
X3500000Y17900000D01*
X3500000Y17900000D02*
X3500000Y22800000D01*
X3965000Y25865000D02*
X3500000Y25400000D01*
X3500000Y25400000D02*
X3500000Y22800000D01*
X1800000Y22775000D02*
X3475000Y22775000D01*
X3475000Y22775000D02*
X3500000Y22800000D01*
X5525000Y25865000D02*
X3965000Y25865000D01*
%TO.N,/Sheet 2/REF2*%
X12600000Y24100000D02*
X12600000Y23000000D01*
X10475000Y24595000D02*
X12105000Y24595000D01*
X12600000Y23000000D02*
X12825000Y22775000D01*
X12324616Y20125001D02*
X13552332Y20125001D01*
X13552332Y20125001D02*
X13900000Y20472669D01*
X12825000Y22775000D02*
X13900000Y22775000D01*
X12105000Y24595000D02*
X12600000Y24100000D01*
X13900000Y20472669D02*
X13900000Y22775000D01*
%TO.N,/Sheet 2/REF3*%
X19525000Y25865000D02*
X17965000Y25865000D01*
X16847668Y20125001D02*
X16000000Y20972669D01*
X16000000Y20972669D02*
X16000000Y22775000D01*
X17175000Y22775000D02*
X16000000Y22775000D01*
X18075384Y20125001D02*
X16847668Y20125001D01*
X17600000Y23200000D02*
X17175000Y22775000D01*
X17600000Y25500000D02*
X17600000Y23200000D01*
X17965000Y25865000D02*
X17600000Y25500000D01*
%TO.N,/Sheet 2/REF4*%
X19378100Y16989618D02*
X19378100Y18903405D01*
X28600000Y22775000D02*
X24525000Y22775000D01*
X19263481Y16874999D02*
X19378100Y16989618D01*
X18075384Y16874999D02*
X19263481Y16874999D01*
X20325000Y19825000D02*
X23900000Y23400000D01*
X24475000Y23975000D02*
X24475000Y24595000D01*
X24525000Y22775000D02*
X23900000Y23400000D01*
X20299695Y19825000D02*
X20325000Y19825000D01*
X19378100Y18903405D02*
X20299695Y19825000D01*
X23900000Y23400000D02*
X24475000Y23975000D01*
%TO.N,/SEL1*%
X12324616Y16225001D02*
X15025000Y13524617D01*
%TO.N,/DAC1*%
X14675000Y17375000D02*
X15300000Y18000000D01*
X15300000Y18000000D02*
X15300000Y18900000D01*
X5100000Y17500000D02*
X12299615Y17500000D01*
X13549694Y17525001D02*
X13699695Y17375000D01*
X12324616Y17525001D02*
X13549694Y17525001D01*
X4900000Y17700000D02*
X5100000Y17500000D01*
X13699695Y17375000D02*
X14675000Y17375000D01*
X15300000Y18900000D02*
X15925000Y19525000D01*
X15925000Y19525000D02*
X18025383Y19525000D01*
%TO.N,/SEL3*%
X18100000Y21900000D02*
X18100000Y20799615D01*
%TO.N,/SEL2*%
X12300000Y22000000D02*
X12300000Y20799615D01*
%TO.N,/DAC2*%
X12324616Y19474999D02*
X6574999Y19474999D01*
X14025001Y19474999D02*
X14100000Y19400000D01*
X16325001Y17525001D02*
X16300000Y17500000D01*
X6574999Y19474999D02*
X6100000Y19000000D01*
X18075384Y17525001D02*
X16325001Y17525001D01*
X12324616Y19474999D02*
X14025001Y19474999D01*
%TO.N,/Sheet 5/A1*%
X23400000Y20900000D02*
X24700000Y20900000D01*
X23400000Y20900000D02*
X22900000Y20400000D01*
X25175000Y20425000D02*
X25175000Y19337500D01*
X24700000Y20900000D02*
X25175000Y20425000D01*
X22900000Y20400000D02*
X22900000Y19162299D01*
%TO.N,/Sheet 5/A0*%
X21500000Y18300000D02*
X20700000Y19100000D01*
X24525000Y19337500D02*
X24100506Y19337500D01*
X23063006Y18300000D02*
X21500000Y18300000D01*
X24100506Y19337500D02*
X23063006Y18300000D01*
%TO.N,/Sheet 5/DX_N*%
X14350000Y47950000D02*
X14300000Y47900000D01*
X14350000Y49000000D02*
X14350000Y47950000D01*
X25825000Y21225000D02*
X26300000Y21700000D01*
X25825000Y19337500D02*
X25825000Y21225000D01*
%TO.N,/Sheet 5/DX_P*%
X27500000Y21600000D02*
X26475000Y20575000D01*
X27600000Y21600000D02*
X27500000Y21600000D01*
X15650000Y49000000D02*
X15650000Y47950000D01*
X15650000Y47950000D02*
X15700000Y47900000D01*
X26475000Y20575000D02*
X26475000Y19337500D01*
%TD*%
%TA.AperFunction,Conductor*%
%TO.N,/LED3*%
G36*
X21004031Y56499469D02*
G01*
X21024783Y56496737D01*
X21113224Y56485093D01*
X21144491Y56476715D01*
X21234918Y56439259D01*
X21262951Y56423074D01*
X21340601Y56363491D01*
X21363491Y56340601D01*
X21423074Y56262951D01*
X21439259Y56234918D01*
X21476715Y56144491D01*
X21485093Y56113224D01*
X21499469Y56004035D01*
X21500000Y55995934D01*
X21500000Y41004065D01*
X21499469Y40995964D01*
X21485093Y40886775D01*
X21476715Y40855508D01*
X21439259Y40765081D01*
X21423074Y40737048D01*
X21363491Y40659398D01*
X21340602Y40636509D01*
X21288526Y40596549D01*
X21262951Y40576925D01*
X21234918Y40560740D01*
X21144491Y40523284D01*
X21113223Y40514906D01*
X21004031Y40500530D01*
X20995933Y40500000D01*
X16004067Y40500000D01*
X15995967Y40500530D01*
X15886775Y40514906D01*
X15855508Y40523284D01*
X15765079Y40560740D01*
X15737050Y40576923D01*
X15659392Y40636513D01*
X15636513Y40659392D01*
X15576923Y40737050D01*
X15560740Y40765081D01*
X15523284Y40855508D01*
X15514906Y40886776D01*
X15500531Y40995964D01*
X15500000Y41004066D01*
X15500000Y46875500D01*
X15519685Y46942539D01*
X15572489Y46988294D01*
X15624000Y46999500D01*
X15794645Y46999500D01*
X15794646Y46999500D01*
X15834001Y47007865D01*
X15979802Y47038855D01*
X15979807Y47038857D01*
X16152729Y47115848D01*
X16152734Y47115851D01*
X16305870Y47227111D01*
X16305871Y47227112D01*
X16432533Y47367784D01*
X16527179Y47531716D01*
X16585674Y47711744D01*
X16605460Y47900000D01*
X16585674Y48088256D01*
X16527179Y48268284D01*
X16527176Y48268289D01*
X16526980Y48268730D01*
X16524919Y48272702D01*
X16523273Y48276260D01*
X16523270Y48276272D01*
X16386948Y48571070D01*
X16375499Y48623105D01*
X16375499Y49397872D01*
X16369091Y49457483D01*
X16318796Y49592331D01*
X16232546Y49707546D01*
X16117331Y49793796D01*
X15982483Y49844091D01*
X15922873Y49850500D01*
X15623998Y49850499D01*
X15556961Y49870183D01*
X15511206Y49922987D01*
X15500000Y49974499D01*
X15500000Y50168590D01*
X15519685Y50235629D01*
X15549687Y50267856D01*
X15582546Y50292454D01*
X15582546Y50292455D01*
X15582548Y50292456D01*
X15668793Y50407664D01*
X15668797Y50407671D01*
X15719091Y50542517D01*
X15725500Y50602127D01*
X15725499Y51397872D01*
X15719091Y51457483D01*
X15668796Y51592331D01*
X15668794Y51592333D01*
X15665696Y51600640D01*
X15667585Y51601344D01*
X15655191Y51658314D01*
X15662886Y51693319D01*
X15838393Y52157598D01*
X15852578Y52200940D01*
X15852580Y52200945D01*
X15853016Y52204327D01*
X15858063Y52226769D01*
X15885674Y52311744D01*
X15905460Y52500000D01*
X15885674Y52688256D01*
X15827179Y52868284D01*
X15732533Y53032216D01*
X15605871Y53172888D01*
X15551114Y53212670D01*
X15508449Y53267999D01*
X15500000Y53312988D01*
X15500000Y55995933D01*
X15500531Y56004035D01*
X15514906Y56113223D01*
X15523284Y56144491D01*
X15560740Y56234918D01*
X15576925Y56262951D01*
X15636508Y56340601D01*
X15659398Y56363491D01*
X15737048Y56423074D01*
X15765081Y56439259D01*
X15855508Y56476715D01*
X15886775Y56485093D01*
X15972457Y56496374D01*
X15995968Y56499469D01*
X16004066Y56500000D01*
X20995934Y56500000D01*
X21004031Y56499469D01*
G37*
%TD.AperFunction*%
%TD*%
%TA.AperFunction,Conductor*%
%TO.N,/LED4*%
G36*
X28004031Y56499469D02*
G01*
X28024783Y56496737D01*
X28113224Y56485093D01*
X28144491Y56476715D01*
X28234918Y56439259D01*
X28262951Y56423074D01*
X28340601Y56363491D01*
X28363491Y56340601D01*
X28423074Y56262951D01*
X28439259Y56234918D01*
X28476715Y56144491D01*
X28485093Y56113224D01*
X28499469Y56004035D01*
X28500000Y55995934D01*
X28500000Y41004065D01*
X28499469Y40995964D01*
X28485093Y40886775D01*
X28476715Y40855508D01*
X28439259Y40765081D01*
X28423074Y40737048D01*
X28363491Y40659398D01*
X28340602Y40636509D01*
X28288526Y40596549D01*
X28262951Y40576925D01*
X28234918Y40560740D01*
X28144491Y40523284D01*
X28113223Y40514906D01*
X28004031Y40500530D01*
X27995933Y40500000D01*
X23004067Y40500000D01*
X22995967Y40500530D01*
X22886775Y40514906D01*
X22855508Y40523284D01*
X22765079Y40560740D01*
X22737050Y40576923D01*
X22659392Y40636513D01*
X22636513Y40659392D01*
X22576923Y40737050D01*
X22560740Y40765081D01*
X22523284Y40855508D01*
X22514906Y40886776D01*
X22500531Y40995964D01*
X22500000Y41004066D01*
X22500000Y55995933D01*
X22500531Y56004035D01*
X22514906Y56113223D01*
X22523284Y56144491D01*
X22560740Y56234918D01*
X22576925Y56262951D01*
X22636508Y56340601D01*
X22659398Y56363491D01*
X22737048Y56423074D01*
X22765081Y56439259D01*
X22855508Y56476715D01*
X22886775Y56485093D01*
X22972457Y56496374D01*
X22995968Y56499469D01*
X23004066Y56500000D01*
X27995934Y56500000D01*
X28004031Y56499469D01*
G37*
%TD.AperFunction*%
%TD*%
%TA.AperFunction,Conductor*%
%TO.N,/LED2*%
G36*
X14004031Y56499469D02*
G01*
X14024783Y56496737D01*
X14113224Y56485093D01*
X14144491Y56476715D01*
X14234918Y56439259D01*
X14262951Y56423074D01*
X14340601Y56363491D01*
X14363491Y56340601D01*
X14423074Y56262951D01*
X14439259Y56234918D01*
X14476715Y56144491D01*
X14485093Y56113224D01*
X14499469Y56004035D01*
X14500000Y55995934D01*
X14500000Y53312988D01*
X14480315Y53245949D01*
X14448886Y53212671D01*
X14394129Y53172888D01*
X14267467Y53032216D01*
X14267466Y53032214D01*
X14172821Y52868284D01*
X14172818Y52868277D01*
X14116292Y52694309D01*
X14114326Y52688256D01*
X14094540Y52500000D01*
X14114326Y52311743D01*
X14114326Y52311742D01*
X14154620Y52187726D01*
X14156179Y52182014D01*
X14161600Y52157616D01*
X14161607Y52157592D01*
X14337112Y51693318D01*
X14342404Y51623649D01*
X14333932Y51600778D01*
X14334303Y51600640D01*
X14280908Y51457482D01*
X14274501Y51397883D01*
X14274500Y51397864D01*
X14274500Y50602129D01*
X14274501Y50602123D01*
X14280908Y50542516D01*
X14331202Y50407671D01*
X14331206Y50407664D01*
X14417451Y50292456D01*
X14450313Y50267856D01*
X14492183Y50211921D01*
X14500000Y50168590D01*
X14500000Y49974499D01*
X14480315Y49907460D01*
X14427511Y49861705D01*
X14376002Y49850499D01*
X14077128Y49850499D01*
X14028757Y49845299D01*
X14017516Y49844091D01*
X13882671Y49793797D01*
X13882664Y49793793D01*
X13767455Y49707547D01*
X13767452Y49707544D01*
X13681206Y49592335D01*
X13681202Y49592328D01*
X13630908Y49457482D01*
X13624501Y49397883D01*
X13624500Y49397864D01*
X13624500Y48623113D01*
X13613049Y48571068D01*
X13475077Y48272700D01*
X13473022Y48268735D01*
X13472821Y48268285D01*
X13471561Y48264405D01*
X13450684Y48207256D01*
X13450681Y48207243D01*
X13450311Y48204715D01*
X13445550Y48184355D01*
X13414326Y48088256D01*
X13394540Y47900000D01*
X13414326Y47711744D01*
X13414326Y47711741D01*
X13414327Y47711740D01*
X13472818Y47531722D01*
X13472821Y47531715D01*
X13567466Y47367785D01*
X13694129Y47227111D01*
X13847265Y47115851D01*
X13847270Y47115848D01*
X14020192Y47038857D01*
X14020197Y47038855D01*
X14172897Y47006398D01*
X14205354Y46999500D01*
X14205355Y46999500D01*
X14376000Y46999500D01*
X14443039Y46979815D01*
X14488794Y46927011D01*
X14500000Y46875500D01*
X14500000Y41004065D01*
X14499469Y40995964D01*
X14485093Y40886775D01*
X14476715Y40855508D01*
X14439259Y40765081D01*
X14423074Y40737048D01*
X14363491Y40659398D01*
X14340602Y40636509D01*
X14288526Y40596549D01*
X14262951Y40576925D01*
X14234918Y40560740D01*
X14144491Y40523284D01*
X14113223Y40514906D01*
X14004031Y40500530D01*
X13995933Y40500000D01*
X9004067Y40500000D01*
X8995967Y40500530D01*
X8886775Y40514906D01*
X8855508Y40523284D01*
X8765079Y40560740D01*
X8737050Y40576923D01*
X8659392Y40636513D01*
X8636513Y40659392D01*
X8576923Y40737050D01*
X8560740Y40765081D01*
X8523284Y40855508D01*
X8514906Y40886776D01*
X8500531Y40995964D01*
X8500000Y41004066D01*
X8500000Y55995933D01*
X8500531Y56004035D01*
X8514906Y56113223D01*
X8523284Y56144491D01*
X8560740Y56234918D01*
X8576925Y56262951D01*
X8636508Y56340601D01*
X8659398Y56363491D01*
X8737048Y56423074D01*
X8765081Y56439259D01*
X8855508Y56476715D01*
X8886775Y56485093D01*
X8972457Y56496374D01*
X8995968Y56499469D01*
X9004066Y56500000D01*
X13995934Y56500000D01*
X14004031Y56499469D01*
G37*
%TD.AperFunction*%
%TD*%
%TA.AperFunction,Conductor*%
%TO.N,/LED1*%
G36*
X7004031Y56499469D02*
G01*
X7024783Y56496737D01*
X7113224Y56485093D01*
X7144491Y56476715D01*
X7234918Y56439259D01*
X7262951Y56423074D01*
X7340601Y56363491D01*
X7363491Y56340601D01*
X7423074Y56262951D01*
X7439259Y56234918D01*
X7476715Y56144491D01*
X7485093Y56113224D01*
X7499469Y56004035D01*
X7500000Y55995934D01*
X7500000Y41004065D01*
X7499469Y40995964D01*
X7485093Y40886775D01*
X7476715Y40855508D01*
X7439259Y40765081D01*
X7423074Y40737048D01*
X7363491Y40659398D01*
X7340602Y40636509D01*
X7288526Y40596549D01*
X7262951Y40576925D01*
X7234918Y40560740D01*
X7144491Y40523284D01*
X7113223Y40514906D01*
X7004031Y40500530D01*
X6995933Y40500000D01*
X2004067Y40500000D01*
X1995967Y40500530D01*
X1886775Y40514906D01*
X1855508Y40523284D01*
X1765079Y40560740D01*
X1737050Y40576923D01*
X1659392Y40636513D01*
X1636513Y40659392D01*
X1576923Y40737050D01*
X1560740Y40765081D01*
X1523284Y40855508D01*
X1514906Y40886776D01*
X1500531Y40995964D01*
X1500000Y41004066D01*
X1500000Y55995933D01*
X1500531Y56004035D01*
X1514906Y56113223D01*
X1523284Y56144491D01*
X1560740Y56234918D01*
X1576925Y56262951D01*
X1636508Y56340601D01*
X1659398Y56363491D01*
X1737048Y56423074D01*
X1765081Y56439259D01*
X1855508Y56476715D01*
X1886775Y56485093D01*
X1972457Y56496374D01*
X1995968Y56499469D01*
X2004066Y56500000D01*
X6995934Y56500000D01*
X7004031Y56499469D01*
G37*
%TD.AperFunction*%
%TD*%
%TA.AperFunction,Conductor*%
%TO.N,GND*%
G36*
X24649305Y16381754D02*
G01*
X24652330Y16376520D01*
X24817389Y15762967D01*
X24816229Y15754088D01*
X24810593Y15749129D01*
X24454999Y15600875D01*
X24446050Y15600855D01*
X24092558Y15748232D01*
X24086241Y15754579D01*
X24086262Y15763533D01*
X24086616Y15764303D01*
X24396756Y16378753D01*
X24403543Y16384595D01*
X24407201Y16385181D01*
X24641032Y16385181D01*
X24649305Y16381754D01*
G37*
%TD.AperFunction*%
%TD*%
%TA.AperFunction,Conductor*%
%TO.N,/SEL1*%
G36*
X15151697Y10712772D02*
G01*
X16513049Y10289104D01*
X16519930Y10283373D01*
X16520744Y10274455D01*
X16520383Y10273459D01*
X16201856Y9503487D01*
X16195527Y9497153D01*
X15426287Y9179503D01*
X15417332Y9179512D01*
X15411007Y9185851D01*
X15410732Y9186585D01*
X14905156Y10697888D01*
X14905782Y10706821D01*
X14912540Y10712696D01*
X14916252Y10713300D01*
X15148220Y10713300D01*
X15151697Y10712772D01*
G37*
%TD.AperFunction*%
%TD*%
%TA.AperFunction,Conductor*%
%TO.N,/SEL4*%
G36*
X18203450Y13462493D02*
G01*
X19329911Y12649076D01*
X19334613Y12641455D01*
X19332547Y12632742D01*
X19331346Y12631330D01*
X18743432Y12042438D01*
X18735165Y12039005D01*
X17902190Y12039985D01*
X17893923Y12043422D01*
X17890506Y12051699D01*
X17890516Y12052180D01*
X17949909Y13453503D01*
X17953684Y13461624D01*
X17961599Y13464708D01*
X18196601Y13464708D01*
X18203450Y13462493D01*
G37*
%TD.AperFunction*%
%TD*%
%TA.AperFunction,Conductor*%
%TO.N,/I2C_SDA*%
G36*
X24935690Y13327539D02*
G01*
X24938897Y13325265D01*
X25105265Y13158897D01*
X25108692Y13150624D01*
X25108031Y13146748D01*
X24609388Y11726370D01*
X24603415Y11719699D01*
X24594473Y11719207D01*
X24593905Y11719423D01*
X23823783Y12037438D01*
X23817448Y12043759D01*
X23499432Y12813884D01*
X23499441Y12822838D01*
X23505780Y12829163D01*
X23506370Y12829388D01*
X24926748Y13328031D01*
X24935690Y13327539D01*
G37*
%TD.AperFunction*%
%TD*%
%TA.AperFunction,Conductor*%
%TO.N,/I2C_SCL*%
G36*
X22713251Y10788031D02*
G01*
X24133629Y10289388D01*
X24140300Y10283415D01*
X24140792Y10274473D01*
X24140567Y10273883D01*
X23822562Y9503785D01*
X23816238Y9497447D01*
X23046115Y9179432D01*
X23037161Y9179441D01*
X23030836Y9185780D01*
X23030620Y9186345D01*
X22531968Y10606748D01*
X22532460Y10615690D01*
X22534734Y10618897D01*
X22701102Y10785265D01*
X22709375Y10788692D01*
X22713251Y10788031D01*
G37*
%TD.AperFunction*%
%TD*%
%TA.AperFunction,Conductor*%
%TO.N,+12V*%
G36*
X9491373Y28532830D02*
G01*
X9497939Y28526740D01*
X9499005Y28521860D01*
X9499005Y28288022D01*
X9495578Y28279749D01*
X9491523Y28277109D01*
X8863700Y28034554D01*
X8854750Y28034769D01*
X8848688Y28040964D01*
X8700875Y28395500D01*
X8700855Y28404449D01*
X8848746Y28759174D01*
X8855093Y28765492D01*
X8863613Y28765642D01*
X9491373Y28532830D01*
G37*
%TD.AperFunction*%
%TD*%
%TA.AperFunction,Conductor*%
%TO.N,+12V*%
G36*
X23491373Y28532830D02*
G01*
X23497939Y28526740D01*
X23499005Y28521860D01*
X23499005Y28288022D01*
X23495578Y28279749D01*
X23491523Y28277109D01*
X22863700Y28034554D01*
X22854750Y28034769D01*
X22848688Y28040964D01*
X22700875Y28395500D01*
X22700855Y28404449D01*
X22848746Y28759174D01*
X22855093Y28765492D01*
X22863613Y28765642D01*
X23491373Y28532830D01*
G37*
%TD.AperFunction*%
%TD*%
%TA.AperFunction,Conductor*%
%TO.N,GND*%
G36*
X18148563Y30996573D02*
G01*
X18151790Y30990456D01*
X18297408Y30213820D01*
X18295564Y30205057D01*
X18288064Y30200164D01*
X18285946Y30199964D01*
X17900000Y30199000D01*
X17514059Y30199964D01*
X17505797Y30203412D01*
X17502391Y30211693D01*
X17502591Y30213820D01*
X17648210Y30990456D01*
X17653103Y30997956D01*
X17659710Y31000000D01*
X18140290Y31000000D01*
X18148563Y30996573D01*
G37*
%TD.AperFunction*%
%TD*%
%TA.AperFunction,Conductor*%
%TO.N,GND*%
G36*
X5148563Y30996573D02*
G01*
X5151790Y30990456D01*
X5297408Y30213820D01*
X5295564Y30205057D01*
X5288064Y30200164D01*
X5285946Y30199964D01*
X4900000Y30199000D01*
X4514059Y30199964D01*
X4505797Y30203412D01*
X4502391Y30211693D01*
X4502591Y30213820D01*
X4648210Y30990456D01*
X4653103Y30997956D01*
X4659710Y31000000D01*
X5140290Y31000000D01*
X5148563Y30996573D01*
G37*
%TD.AperFunction*%
%TD*%
%TA.AperFunction,Conductor*%
%TO.N,GND*%
G36*
X17148563Y30996573D02*
G01*
X17151790Y30990456D01*
X17297408Y30213820D01*
X17295564Y30205057D01*
X17288064Y30200164D01*
X17285946Y30199964D01*
X16900000Y30199000D01*
X16514059Y30199964D01*
X16505797Y30203412D01*
X16502391Y30211693D01*
X16502591Y30213820D01*
X16648210Y30990456D01*
X16653103Y30997956D01*
X16659710Y31000000D01*
X17140290Y31000000D01*
X17148563Y30996573D01*
G37*
%TD.AperFunction*%
%TD*%
%TA.AperFunction,Conductor*%
%TO.N,GND*%
G36*
X15004502Y52499123D02*
G01*
X15359109Y52351280D01*
X15365427Y52344933D01*
X15365551Y52336344D01*
X15127859Y51707563D01*
X15121728Y51701036D01*
X15116915Y51700000D01*
X14883085Y51700000D01*
X14874812Y51703427D01*
X14872141Y51707563D01*
X14634448Y52336345D01*
X14634728Y52345294D01*
X14640890Y52351280D01*
X14995498Y52499123D01*
X15004452Y52499144D01*
X15004502Y52499123D01*
G37*
%TD.AperFunction*%
%TD*%
%TA.AperFunction,Conductor*%
%TO.N,GND*%
G36*
X28604502Y25799123D02*
G01*
X28959109Y25651280D01*
X28965427Y25644933D01*
X28965551Y25636344D01*
X28727859Y25007563D01*
X28721728Y25001036D01*
X28716915Y25000000D01*
X28483085Y25000000D01*
X28474812Y25003427D01*
X28472141Y25007563D01*
X28234448Y25636345D01*
X28234728Y25645294D01*
X28240890Y25651280D01*
X28595498Y25799123D01*
X28604452Y25799144D01*
X28604502Y25799123D01*
G37*
%TD.AperFunction*%
%TD*%
%TA.AperFunction,Conductor*%
%TO.N,GND*%
G36*
X19148563Y30996573D02*
G01*
X19151790Y30990456D01*
X19297408Y30213820D01*
X19295564Y30205057D01*
X19288064Y30200164D01*
X19285946Y30199964D01*
X18900000Y30199000D01*
X18514059Y30199964D01*
X18505797Y30203412D01*
X18502391Y30211693D01*
X18502591Y30213820D01*
X18648210Y30990456D01*
X18653103Y30997956D01*
X18659710Y31000000D01*
X19140290Y31000000D01*
X19148563Y30996573D01*
G37*
%TD.AperFunction*%
%TD*%
%TA.AperFunction,Conductor*%
%TO.N,GND*%
G36*
X7145249Y24965230D02*
G01*
X7151312Y24959033D01*
X7299123Y24604502D01*
X7299144Y24595548D01*
X7299123Y24595498D01*
X7151253Y24240825D01*
X7144906Y24234507D01*
X7136386Y24234357D01*
X6508625Y24467169D01*
X6502061Y24473259D01*
X6500995Y24478139D01*
X6500995Y24711977D01*
X6504422Y24720250D01*
X6508479Y24722891D01*
X7136297Y24965445D01*
X7145249Y24965230D01*
G37*
%TD.AperFunction*%
%TD*%
%TA.AperFunction,Conductor*%
%TO.N,GND*%
G36*
X11148563Y30996573D02*
G01*
X11151790Y30990456D01*
X11297408Y30213820D01*
X11295564Y30205057D01*
X11288064Y30200164D01*
X11285946Y30199964D01*
X10900000Y30199000D01*
X10514059Y30199964D01*
X10505797Y30203412D01*
X10502391Y30211693D01*
X10502591Y30213820D01*
X10648210Y30990456D01*
X10653103Y30997956D01*
X10659710Y31000000D01*
X11140290Y31000000D01*
X11148563Y30996573D01*
G37*
%TD.AperFunction*%
%TD*%
%TA.AperFunction,Conductor*%
%TO.N,GND*%
G36*
X4148563Y30996573D02*
G01*
X4151790Y30990456D01*
X4297408Y30213820D01*
X4295564Y30205057D01*
X4288064Y30200164D01*
X4285946Y30199964D01*
X3900000Y30199000D01*
X3514059Y30199964D01*
X3505797Y30203412D01*
X3502391Y30211693D01*
X3502591Y30213820D01*
X3648210Y30990456D01*
X3653103Y30997956D01*
X3659710Y31000000D01*
X4140290Y31000000D01*
X4148563Y30996573D01*
G37*
%TD.AperFunction*%
%TD*%
%TA.AperFunction,Conductor*%
%TO.N,GND*%
G36*
X26148563Y30996573D02*
G01*
X26151790Y30990456D01*
X26297408Y30213820D01*
X26295564Y30205057D01*
X26288064Y30200164D01*
X26285946Y30199964D01*
X25900000Y30199000D01*
X25514059Y30199964D01*
X25505797Y30203412D01*
X25502391Y30211693D01*
X25502591Y30213820D01*
X25648210Y30990456D01*
X25653103Y30997956D01*
X25659710Y31000000D01*
X26140290Y31000000D01*
X26148563Y30996573D01*
G37*
%TD.AperFunction*%
%TD*%
%TA.AperFunction,Conductor*%
%TO.N,GND*%
G36*
X14540909Y26148767D02*
G01*
X14896195Y26002563D01*
X14902542Y25996245D01*
X14902563Y25996195D01*
X15048767Y25640909D01*
X15048746Y25631955D01*
X15042760Y25625793D01*
X14430071Y25349252D01*
X14421121Y25348972D01*
X14416987Y25351641D01*
X14251642Y25516986D01*
X14248216Y25525258D01*
X14249252Y25530071D01*
X14459663Y25996245D01*
X14525793Y26142760D01*
X14532320Y26148891D01*
X14540909Y26148767D01*
G37*
%TD.AperFunction*%
%TD*%
%TA.AperFunction,Conductor*%
%TO.N,GND*%
G36*
X10148563Y30996573D02*
G01*
X10151790Y30990456D01*
X10297408Y30213820D01*
X10295564Y30205057D01*
X10288064Y30200164D01*
X10285946Y30199964D01*
X9900000Y30199000D01*
X9514059Y30199964D01*
X9505797Y30203412D01*
X9502391Y30211693D01*
X9502591Y30213820D01*
X9648210Y30990456D01*
X9653103Y30997956D01*
X9659710Y31000000D01*
X10140290Y31000000D01*
X10148563Y30996573D01*
G37*
%TD.AperFunction*%
%TD*%
%TA.AperFunction,Conductor*%
%TO.N,GND*%
G36*
X25148563Y30996573D02*
G01*
X25151790Y30990456D01*
X25297408Y30213820D01*
X25295564Y30205057D01*
X25288064Y30200164D01*
X25285946Y30199964D01*
X24900000Y30199000D01*
X24514059Y30199964D01*
X24505797Y30203412D01*
X24502391Y30211693D01*
X24502591Y30213820D01*
X24648210Y30990456D01*
X24653103Y30997956D01*
X24659710Y31000000D01*
X25140290Y31000000D01*
X25148563Y30996573D01*
G37*
%TD.AperFunction*%
%TD*%
%TA.AperFunction,Conductor*%
%TO.N,GND*%
G36*
X1804502Y25699123D02*
G01*
X2159109Y25551280D01*
X2165427Y25544933D01*
X2165551Y25536344D01*
X1927859Y24907563D01*
X1921728Y24901036D01*
X1916915Y24900000D01*
X1683085Y24900000D01*
X1674812Y24903427D01*
X1672141Y24907563D01*
X1434448Y25536345D01*
X1434728Y25545294D01*
X1440890Y25551280D01*
X1795498Y25699123D01*
X1804452Y25699144D01*
X1804502Y25699123D01*
G37*
%TD.AperFunction*%
%TD*%
%TA.AperFunction,Conductor*%
%TO.N,GND*%
G36*
X13845915Y18465732D02*
G01*
X13850867Y18460100D01*
X13999123Y18104502D01*
X13999143Y18095548D01*
X13887565Y17827919D01*
X13851771Y17742066D01*
X13845424Y17735748D01*
X13836470Y17735769D01*
X13835716Y17736116D01*
X13771401Y17768634D01*
X13767724Y17771549D01*
X13762149Y17778195D01*
X13724953Y17799669D01*
X13724547Y17799928D01*
X13689378Y17824555D01*
X13676813Y17827920D01*
X13674000Y17829086D01*
X13662739Y17835589D01*
X13662735Y17835589D01*
X13662735Y17835590D01*
X13662736Y17835590D01*
X13652503Y17837393D01*
X13627952Y17841722D01*
X13624720Y17842798D01*
X13221338Y18046752D01*
X13215502Y18053543D01*
X13214918Y18057193D01*
X13214918Y18291024D01*
X13218345Y18299297D01*
X13223586Y18302324D01*
X13837036Y18466898D01*
X13845915Y18465732D01*
G37*
%TD.AperFunction*%
%TD*%
%TA.AperFunction,Conductor*%
%TO.N,GND*%
G36*
X24148563Y30996573D02*
G01*
X24151790Y30990456D01*
X24297408Y30213820D01*
X24295564Y30205057D01*
X24288064Y30200164D01*
X24285946Y30199964D01*
X23900000Y30199000D01*
X23514059Y30199964D01*
X23505797Y30203412D01*
X23502391Y30211693D01*
X23502591Y30213820D01*
X23648210Y30990456D01*
X23653103Y30997956D01*
X23659710Y31000000D01*
X24140290Y31000000D01*
X24148563Y30996573D01*
G37*
%TD.AperFunction*%
%TD*%
%TA.AperFunction,Conductor*%
%TO.N,GND*%
G36*
X15268044Y26148746D02*
G01*
X15274206Y26142760D01*
X15550747Y25530071D01*
X15551027Y25521121D01*
X15548356Y25516985D01*
X15383014Y25351643D01*
X15374741Y25348216D01*
X15369928Y25349252D01*
X15364631Y25351643D01*
X14757238Y25625794D01*
X14751108Y25632320D01*
X14751232Y25640909D01*
X14897436Y25996195D01*
X14903754Y26002542D01*
X14903804Y26002563D01*
X15259090Y26148767D01*
X15268044Y26148746D01*
G37*
%TD.AperFunction*%
%TD*%
%TA.AperFunction,Conductor*%
%TO.N,GND*%
G36*
X12148563Y30996573D02*
G01*
X12151790Y30990456D01*
X12297408Y30213820D01*
X12295564Y30205057D01*
X12288064Y30200164D01*
X12285946Y30199964D01*
X11900000Y30199000D01*
X11514059Y30199964D01*
X11505797Y30203412D01*
X11502391Y30211693D01*
X11502591Y30213820D01*
X11648210Y30990456D01*
X11653103Y30997956D01*
X11659710Y31000000D01*
X12140290Y31000000D01*
X12148563Y30996573D01*
G37*
%TD.AperFunction*%
%TD*%
%TA.AperFunction,Conductor*%
%TO.N,GND*%
G36*
X3148563Y30996573D02*
G01*
X3151790Y30990456D01*
X3297408Y30213820D01*
X3295564Y30205057D01*
X3288064Y30200164D01*
X3285946Y30199964D01*
X2900000Y30199000D01*
X2514059Y30199964D01*
X2505797Y30203412D01*
X2502391Y30211693D01*
X2502591Y30213820D01*
X2648210Y30990456D01*
X2653103Y30997956D01*
X2659710Y31000000D01*
X3140290Y31000000D01*
X3148563Y30996573D01*
G37*
%TD.AperFunction*%
%TD*%
%TA.AperFunction,Conductor*%
%TO.N,GND*%
G36*
X21145249Y24965230D02*
G01*
X21151312Y24959033D01*
X21299123Y24604502D01*
X21299144Y24595548D01*
X21299123Y24595498D01*
X21151253Y24240825D01*
X21144906Y24234507D01*
X21136386Y24234357D01*
X20508625Y24467169D01*
X20502061Y24473259D01*
X20500995Y24478139D01*
X20500995Y24711977D01*
X20504422Y24720250D01*
X20508479Y24722891D01*
X21136297Y24965445D01*
X21145249Y24965230D01*
G37*
%TD.AperFunction*%
%TD*%
%TA.AperFunction,Conductor*%
%TO.N,+3.3V*%
G36*
X26601614Y16371709D02*
G01*
X26603400Y16369412D01*
X26962667Y15764661D01*
X26963946Y15755798D01*
X26958584Y15748626D01*
X26957110Y15747886D01*
X26860600Y15707649D01*
X26602171Y15599905D01*
X26597648Y15599005D01*
X26214143Y15599964D01*
X26205880Y15603412D01*
X26202474Y15611693D01*
X26202687Y15613887D01*
X26348166Y16365659D01*
X26353102Y16373130D01*
X26359653Y16375136D01*
X26593341Y16375136D01*
X26601614Y16371709D01*
G37*
%TD.AperFunction*%
%TD*%
%TA.AperFunction,Conductor*%
%TO.N,+3.3V*%
G36*
X17187113Y18952707D02*
G01*
X17193832Y18946788D01*
X17195027Y18941637D01*
X17195027Y18707778D01*
X17191600Y18699505D01*
X17187858Y18696990D01*
X16827343Y18545612D01*
X16563887Y18434989D01*
X16554932Y18434946D01*
X16548571Y18441244D01*
X16400875Y18795500D01*
X16400855Y18804449D01*
X16548856Y19159438D01*
X16555203Y19165756D01*
X16563441Y19166006D01*
X17187113Y18952707D01*
G37*
%TD.AperFunction*%
%TD*%
%TA.AperFunction,Conductor*%
%TO.N,/LED1*%
G36*
X7803642Y59921589D02*
G01*
X8576214Y59602562D01*
X8582553Y59596237D01*
X8582562Y59596214D01*
X8901589Y58823642D01*
X8901580Y58814687D01*
X8897195Y58809395D01*
X7741730Y58051097D01*
X7739431Y58049588D01*
X7730635Y58047914D01*
X7724741Y58051095D01*
X7031096Y58744740D01*
X7027670Y58753012D01*
X7029588Y58759431D01*
X7789395Y59917194D01*
X7796799Y59922231D01*
X7803642Y59921589D01*
G37*
%TD.AperFunction*%
%TD*%
%TA.AperFunction,Conductor*%
%TO.N,/LED2*%
G36*
X12883642Y59921589D02*
G01*
X13656214Y59602562D01*
X13662553Y59596237D01*
X13662562Y59596214D01*
X13981589Y58823642D01*
X13981580Y58814687D01*
X13977195Y58809395D01*
X12821730Y58051097D01*
X12819431Y58049588D01*
X12810635Y58047914D01*
X12804741Y58051095D01*
X12111096Y58744740D01*
X12107670Y58753012D01*
X12109588Y58759431D01*
X12869395Y59917194D01*
X12876799Y59922231D01*
X12883642Y59921589D01*
G37*
%TD.AperFunction*%
%TD*%
%TA.AperFunction,Conductor*%
%TO.N,/LED3*%
G36*
X19522044Y59920230D02*
G01*
X19528369Y59913891D01*
X19528829Y59912554D01*
X19995885Y58229630D01*
X19994795Y58220742D01*
X19987740Y58215227D01*
X19984611Y58214801D01*
X19004529Y58214801D01*
X18996651Y58217851D01*
X18951426Y58259036D01*
X18148014Y58990712D01*
X18144206Y58998815D01*
X18147243Y59007239D01*
X18147613Y59007627D01*
X18738347Y59599344D01*
X18742161Y59601892D01*
X19513089Y59920239D01*
X19522044Y59920230D01*
G37*
%TD.AperFunction*%
%TD*%
%TA.AperFunction,Conductor*%
%TO.N,/LED4*%
G36*
X24605312Y59921580D02*
G01*
X24610605Y59917194D01*
X25370411Y58759431D01*
X25372085Y58750635D01*
X25368902Y58744739D01*
X24675260Y58051097D01*
X24666987Y58047670D01*
X24660570Y58049587D01*
X23502803Y58809396D01*
X23497768Y58816799D01*
X23498409Y58823639D01*
X23817438Y59596215D01*
X23823761Y59602552D01*
X24596357Y59921589D01*
X24605312Y59921580D01*
G37*
%TD.AperFunction*%
%TD*%
%TA.AperFunction,Conductor*%
%TO.N,/SENSE1*%
G36*
X3095071Y27785747D02*
G01*
X3707760Y27509206D01*
X3713891Y27502679D01*
X3713767Y27494090D01*
X3567563Y27138804D01*
X3561245Y27132457D01*
X3348763Y27045018D01*
X3220507Y26992239D01*
X3205909Y26986232D01*
X3196955Y26986253D01*
X3190794Y26992237D01*
X2914251Y27604928D01*
X2913972Y27613878D01*
X2916643Y27618014D01*
X3081985Y27783356D01*
X3090258Y27786783D01*
X3095071Y27785747D01*
G37*
%TD.AperFunction*%
%TD*%
%TA.AperFunction,Conductor*%
%TO.N,/SENSE1*%
G36*
X4357437Y27262858D02*
G01*
X4363964Y27256727D01*
X4365000Y27251914D01*
X4365000Y27018085D01*
X4361573Y27009812D01*
X4357437Y27007141D01*
X3728654Y26769448D01*
X3719705Y26769728D01*
X3713719Y26775889D01*
X3565875Y27130500D01*
X3565855Y27139449D01*
X3713719Y27494109D01*
X3720066Y27500427D01*
X3728655Y27500551D01*
X4357437Y27262858D01*
G37*
%TD.AperFunction*%
%TD*%
%TA.AperFunction,Conductor*%
%TO.N,/SENSE2*%
G36*
X12145829Y26165679D02*
G01*
X12150922Y26159967D01*
X12299123Y25804502D01*
X12299144Y25795548D01*
X12299123Y25795498D01*
X12151704Y25441906D01*
X12145357Y25435588D01*
X12136403Y25435609D01*
X12135784Y25435888D01*
X11519495Y25736794D01*
X11513565Y25743503D01*
X11512929Y25747307D01*
X11512929Y25981153D01*
X11516356Y25989426D01*
X11521441Y25992410D01*
X12136935Y26166722D01*
X12145829Y26165679D01*
G37*
%TD.AperFunction*%
%TD*%
%TA.AperFunction,Conductor*%
%TO.N,/SENSE3*%
G36*
X17457437Y27262858D02*
G01*
X17463964Y27256727D01*
X17465000Y27251914D01*
X17465000Y27018085D01*
X17461573Y27009812D01*
X17457437Y27007141D01*
X16828654Y26769448D01*
X16819705Y26769728D01*
X16813719Y26775889D01*
X16665875Y27130500D01*
X16665855Y27139449D01*
X16813719Y27494109D01*
X16820066Y27500427D01*
X16828655Y27500551D01*
X17457437Y27262858D01*
G37*
%TD.AperFunction*%
%TD*%
%TA.AperFunction,Conductor*%
%TO.N,/SENSE3*%
G36*
X16195071Y27785747D02*
G01*
X16807760Y27509206D01*
X16813891Y27502679D01*
X16813767Y27494090D01*
X16667563Y27138804D01*
X16661245Y27132457D01*
X16448763Y27045018D01*
X16320507Y26992239D01*
X16305909Y26986232D01*
X16296955Y26986253D01*
X16290794Y26992237D01*
X16014251Y27604928D01*
X16013972Y27613878D01*
X16016643Y27618014D01*
X16181985Y27783356D01*
X16190258Y27786783D01*
X16195071Y27785747D01*
G37*
%TD.AperFunction*%
%TD*%
%TA.AperFunction,Conductor*%
%TO.N,/SENSE4*%
G36*
X19490102Y23373558D02*
G01*
X19490985Y23372565D01*
X19862852Y22903192D01*
X19865381Y22895926D01*
X19865381Y22662612D01*
X19861954Y22654339D01*
X19853681Y22650912D01*
X19852806Y22650944D01*
X19210793Y22699188D01*
X19202802Y22703225D01*
X19199972Y22710823D01*
X19199012Y23095124D01*
X19202418Y23103405D01*
X19202453Y23103441D01*
X19473555Y23373587D01*
X19481835Y23376999D01*
X19490102Y23373558D01*
G37*
%TD.AperFunction*%
%TD*%
%TA.AperFunction,Conductor*%
%TO.N,/DAC1*%
G36*
X5190990Y17976439D02*
G01*
X5633726Y17628513D01*
X5638114Y17620707D01*
X5638197Y17619314D01*
X5638197Y17385571D01*
X5634770Y17377298D01*
X5627681Y17373931D01*
X4912848Y17301305D01*
X4904272Y17303878D01*
X4900027Y17311762D01*
X4899967Y17312901D01*
X4899012Y17695124D01*
X4902418Y17703405D01*
X4902453Y17703441D01*
X5175502Y17975528D01*
X5183782Y17978940D01*
X5190990Y17976439D01*
G37*
%TD.AperFunction*%
%TD*%
%TA.AperFunction,Conductor*%
%TO.N,/SEL3*%
G36*
X18104502Y21899123D02*
G01*
X18459109Y21751280D01*
X18465427Y21744933D01*
X18465551Y21736344D01*
X18227859Y21107563D01*
X18221728Y21101036D01*
X18216915Y21100000D01*
X17983085Y21100000D01*
X17974812Y21103427D01*
X17972141Y21107563D01*
X17734448Y21736345D01*
X17734728Y21745294D01*
X17740890Y21751280D01*
X18095498Y21899123D01*
X18104452Y21899144D01*
X18104502Y21899123D01*
G37*
%TD.AperFunction*%
%TD*%
%TA.AperFunction,Conductor*%
%TO.N,/SEL2*%
G36*
X12304502Y21999123D02*
G01*
X12659109Y21851280D01*
X12665427Y21844933D01*
X12665551Y21836344D01*
X12427859Y21207563D01*
X12421728Y21201036D01*
X12416915Y21200000D01*
X12183085Y21200000D01*
X12174812Y21203427D01*
X12172141Y21207563D01*
X11934448Y21836345D01*
X11934728Y21845294D01*
X11940890Y21851280D01*
X12295498Y21999123D01*
X12304452Y21999144D01*
X12304502Y21999123D01*
G37*
%TD.AperFunction*%
%TD*%
%TA.AperFunction,Conductor*%
%TO.N,/DAC2*%
G36*
X6697053Y19594528D02*
G01*
X6702742Y19587613D01*
X6703250Y19584203D01*
X6703250Y19352583D01*
X6702161Y19347654D01*
X6474273Y18857090D01*
X6467680Y18851030D01*
X6459196Y18851204D01*
X6103498Y18998141D01*
X6097162Y19004465D01*
X5951821Y19357659D01*
X5951842Y19366611D01*
X5958189Y19372929D01*
X5959231Y19373301D01*
X6688140Y19595395D01*
X6697053Y19594528D01*
G37*
%TD.AperFunction*%
%TD*%
%TA.AperFunction,Conductor*%
%TO.N,/DAC2*%
G36*
X17087113Y17652707D02*
G01*
X17093832Y17646788D01*
X17095027Y17641637D01*
X17095027Y17407778D01*
X17091600Y17399505D01*
X17087858Y17396990D01*
X16727343Y17245612D01*
X16463887Y17134989D01*
X16454932Y17134946D01*
X16448571Y17141244D01*
X16300875Y17495500D01*
X16300855Y17504449D01*
X16448856Y17859438D01*
X16455203Y17865756D01*
X16463441Y17866006D01*
X17087113Y17652707D01*
G37*
%TD.AperFunction*%
%TD*%
%TA.AperFunction,Conductor*%
%TO.N,/DAC2*%
G36*
X13945915Y19765732D02*
G01*
X13950867Y19760100D01*
X14099123Y19404502D01*
X14099144Y19395548D01*
X14099123Y19395498D01*
X13951771Y19042066D01*
X13945424Y19035748D01*
X13936470Y19035769D01*
X13935716Y19036116D01*
X13321338Y19346752D01*
X13315502Y19353543D01*
X13314918Y19357193D01*
X13314918Y19591024D01*
X13318345Y19599297D01*
X13323586Y19602324D01*
X13937036Y19766898D01*
X13945915Y19765732D01*
G37*
%TD.AperFunction*%
%TD*%
%TA.AperFunction,Conductor*%
%TO.N,/Sheet 5/A1*%
G36*
X23025188Y19958872D02*
G01*
X23027859Y19954736D01*
X23265551Y19325954D01*
X23265271Y19317004D01*
X23259109Y19311018D01*
X22904499Y19163174D01*
X22895550Y19163154D01*
X22540889Y19311018D01*
X22534572Y19317365D01*
X22534448Y19325954D01*
X22772141Y19954736D01*
X22778272Y19961263D01*
X22783085Y19962299D01*
X23016915Y19962299D01*
X23025188Y19958872D01*
G37*
%TD.AperFunction*%
%TD*%
%TA.AperFunction,Conductor*%
%TO.N,/Sheet 5/A0*%
G36*
X21068044Y19248746D02*
G01*
X21074206Y19242760D01*
X21350747Y18630071D01*
X21351027Y18621121D01*
X21348356Y18616985D01*
X21183014Y18451643D01*
X21174741Y18448216D01*
X21169928Y18449252D01*
X21164631Y18451643D01*
X20557238Y18725794D01*
X20551108Y18732320D01*
X20551232Y18740909D01*
X20697436Y19096195D01*
X20703754Y19102542D01*
X20703804Y19102563D01*
X21059090Y19248767D01*
X21068044Y19248746D01*
G37*
%TD.AperFunction*%
%TD*%
%TA.AperFunction,Conductor*%
%TO.N,/Sheet 5/DX_N*%
G36*
X14474613Y48686627D02*
G01*
X14477530Y48681772D01*
X14666455Y48063210D01*
X14665594Y48054296D01*
X14659767Y48048993D01*
X14304499Y47900875D01*
X14295550Y47900855D01*
X13941665Y48048396D01*
X13935349Y48054742D01*
X13935370Y48063696D01*
X13935549Y48064105D01*
X14221861Y48683265D01*
X14228444Y48689336D01*
X14232481Y48690054D01*
X14466340Y48690054D01*
X14474613Y48686627D01*
G37*
%TD.AperFunction*%
%TD*%
%TA.AperFunction,Conductor*%
%TO.N,/Sheet 5/DX_N*%
G36*
X25942342Y21848178D02*
G01*
X26295496Y21702853D01*
X26301843Y21696535D01*
X26301858Y21696500D01*
X26448794Y21340804D01*
X26448785Y21331849D01*
X26442909Y21325726D01*
X26060626Y21148141D01*
X25952344Y21097840D01*
X25947415Y21096751D01*
X25715796Y21096751D01*
X25707523Y21100178D01*
X25704096Y21108451D01*
X25704604Y21111861D01*
X25774362Y21340804D01*
X25926699Y21840769D01*
X25932387Y21847683D01*
X25941300Y21848550D01*
X25942342Y21848178D01*
G37*
%TD.AperFunction*%
%TD*%
%TA.AperFunction,Conductor*%
%TO.N,/Sheet 5/DX_P*%
G36*
X27239974Y21749152D02*
G01*
X27596195Y21602563D01*
X27602542Y21596245D01*
X27602563Y21596195D01*
X27748311Y21242019D01*
X27748290Y21233065D01*
X27741943Y21226747D01*
X27741211Y21226474D01*
X27089515Y21008172D01*
X27080583Y21008793D01*
X27077530Y21010990D01*
X26912177Y21176343D01*
X26908751Y21184615D01*
X26910281Y21190397D01*
X27141212Y21596245D01*
X27225353Y21744118D01*
X27232423Y21749614D01*
X27239974Y21749152D01*
G37*
%TD.AperFunction*%
%TD*%
%TA.AperFunction,Conductor*%
%TO.N,/Sheet 5/DX_P*%
G36*
X15775792Y48686627D02*
G01*
X15778139Y48683265D01*
X16064450Y48064105D01*
X16064812Y48055157D01*
X16058741Y48048574D01*
X16058340Y48048398D01*
X15704499Y47900875D01*
X15695550Y47900855D01*
X15340230Y48048994D01*
X15333914Y48055340D01*
X15333544Y48063210D01*
X15522470Y48681772D01*
X15528164Y48688683D01*
X15533660Y48690054D01*
X15767519Y48690054D01*
X15775792Y48686627D01*
G37*
%TD.AperFunction*%
%TD*%
M02*
